<?xml version="1.0" encoding="UTF-8"?>
<!DOCTYPE svg PUBLIC "-//W3C//DTD SVG 1.1//EN" "http://www.w3.org/Graphics/SVG/1.1/DTD/svg11.dtd">
<svg xmlns="http://www.w3.org/2000/svg" version="1.1" width="960px" height="566px" style="shape-rendering:geometricPrecision; text-rendering:geometricPrecision; image-rendering:optimizeQuality; fill-rule:evenodd; clip-rule:evenodd" xmlns:xlink="http://www.w3.org/1999/xlink">
<g><path style="opacity:0.996" fill="#ffd562" d="M 274.5,60.5 C 273.531,68.334 272.697,76.334 272,84.5C 270.821,112.333 269.654,140.166 268.5,168C 268.357,173.005 268.857,177.839 270,182.5C 280.993,145.527 291.826,108.527 302.5,71.5C 332.018,86.6841 355.018,108.684 371.5,137.5C 376.484,149.121 381.151,160.787 385.5,172.5C 387.376,182.091 388.71,191.758 389.5,201.5C 283.5,201.5 177.5,201.5 71.5,201.5C 72.0748,192.385 73.4081,183.385 75.5,174.5C 79.61,162.846 83.9433,151.18 88.5,139.5C 104.546,110.454 127.212,88.1211 156.5,72.5C 166.377,108.673 176.877,144.673 188,180.5C 187.255,140.496 186.089,100.496 184.5,60.5C 191.403,46.7823 202.403,37.9489 217.5,34C 242.919,29.38 261.919,38.2134 274.5,60.5 Z"/></g>
<g><path style="opacity:0.99" fill="#ffa462" d="M 184.5,60.5 C 186.089,100.496 187.255,140.496 188,180.5C 176.877,144.673 166.377,108.673 156.5,72.5C 165.148,67.164 174.481,63.164 184.5,60.5 Z"/></g>
<g><path style="opacity:0.991" fill="#ffa462" d="M 274.5,60.5 C 284.53,62.6167 293.864,66.2833 302.5,71.5C 291.826,108.527 280.993,145.527 270,182.5C 268.857,177.839 268.357,173.005 268.5,168C 269.654,140.166 270.821,112.333 272,84.5C 272.697,76.334 273.531,68.334 274.5,60.5 Z"/></g>
<g><path style="opacity:0.947" fill="#fefefe" d="M 88.5,139.5 C 83.9433,151.18 79.61,162.846 75.5,174.5C 61.7723,167.616 48.7723,160.282 36.5,152.5C 36.1667,203.5 35.8333,254.5 35.5,305.5C 35.3375,357.249 35.8375,408.915 37,460.5C 38.5,462 40,463.5 41.5,465C 62.4669,479.166 84.6336,488.666 108,493.5C 125.313,498.606 142.646,501.606 160,502.5C 161.849,503.561 163.849,504.227 166,504.5C 171.232,505.233 176.565,505.233 182,504.5C 187.358,506.296 193.024,506.629 199,505.5C 201.706,506.01 204.373,506.677 207,507.5C 219.886,507.493 232.72,507.493 245.5,507.5C 248.167,506.833 250.833,506.167 253.5,505.5C 261.792,506.021 269.792,506.021 277.5,505.5C 279.815,503.412 282.315,503.078 285,504.5C 286.984,504.259 288.817,503.592 290.5,502.5C 325.042,499.859 357.709,492.026 388.5,479C 399.277,473.866 409.11,467.366 418,459.5C 417.868,436.487 418.701,413.487 420.5,390.5C 419.982,362.177 419.648,333.844 419.5,305.5C 420.079,256.661 420.746,207.828 421.5,159C 421.167,156.833 420.833,154.667 420.5,152.5C 409.001,159.418 397.334,166.084 385.5,172.5C 381.151,160.787 376.484,149.121 371.5,137.5C 391.981,125.424 412.648,113.59 433.5,102C 440.757,100.491 447.423,101.825 453.5,106C 455.041,107.579 456.208,109.413 457,111.5C 457.691,229.503 457.358,347.503 456,465.5C 455.466,469.768 454.133,473.768 452,477.5C 448.734,480.889 445.568,484.389 442.5,488C 419.3,506.267 393.3,519.267 364.5,527C 308.901,540.996 251.901,546.329 193.5,543C 148.681,541.505 105.348,533.505 63.5,519C 39.6646,510.007 19.1646,496.174 2,477.5C 1.24316,475.685 0.409824,474.019 -0.5,472.5C -0.5,352.5 -0.5,232.5 -0.5,112.5C 0.887987,107.942 3.88799,104.775 8.5,103C 13.4107,101.508 18.4107,101.174 23.5,102C 45.31,114.323 66.9767,126.823 88.5,139.5 Z M 75.5,174.5 C 73.4081,183.385 72.0748,192.385 71.5,201.5C 67.1539,201.334 62.8206,201.501 58.5,202C 56.7305,203.967 55.7305,206.3 55.5,209C 55.8589,211.698 56.0256,214.532 56,217.5C 56.4652,218.931 57.2986,220.097 58.5,221C 62.1516,221.499 65.8183,221.665 69.5,221.5C 92.0456,231.571 115.379,239.237 139.5,244.5C 130.979,247.015 123.812,251.682 118,258.5C 115.991,266.493 118.991,271.493 127,273.5C 131.39,271.458 135.557,268.958 139.5,266C 152.23,260.412 163.23,262.746 172.5,273C 181.339,272.824 185.173,268.324 184,259.5C 181.686,255.025 178.52,251.358 174.5,248.5C 212.189,248.928 249.855,248.428 287.5,247C 320.142,242.423 351.808,234.257 382.5,222.5C 387.179,222.666 391.845,222.499 396.5,222C 398.329,221.727 399.829,220.893 401,219.5C 401.667,214.167 401.667,208.833 401,203.5C 400.5,203 400,202.5 399.5,202C 396.183,201.502 392.85,201.335 389.5,201.5C 388.71,191.758 387.376,182.091 385.5,172.5C 397.334,166.084 409.001,159.418 420.5,152.5C 420.833,154.667 421.167,156.833 421.5,159C 420.746,207.828 420.079,256.661 419.5,305.5C 419.648,333.844 419.982,362.177 420.5,390.5C 418.701,413.487 417.868,436.487 418,459.5C 409.11,467.366 399.277,473.866 388.5,479C 357.709,492.026 325.042,499.859 290.5,502.5C 288.817,503.592 286.984,504.259 285,504.5C 282.315,503.078 279.815,503.412 277.5,505.5C 269.792,506.021 261.792,506.021 253.5,505.5C 250.833,506.167 248.167,506.833 245.5,507.5C 232.72,507.493 219.886,507.493 207,507.5C 204.373,506.677 201.706,506.01 199,505.5C 193.024,506.629 187.358,506.296 182,504.5C 176.565,505.233 171.232,505.233 166,504.5C 163.849,504.227 161.849,503.561 160,502.5C 142.646,501.606 125.313,498.606 108,493.5C 84.6336,488.666 62.4669,479.166 41.5,465C 40,463.5 38.5,462 37,460.5C 35.8375,408.915 35.3375,357.249 35.5,305.5C 35.8333,254.5 36.1667,203.5 36.5,152.5C 48.7723,160.282 61.7723,167.616 75.5,174.5 Z"/></g>
<g><path style="opacity:0.985" fill="#fed562" d="M 506.5,175.5 C 620.834,175.333 735.167,175.5 849.5,176C 852.913,177.077 855.413,179.244 857,182.5C 857.667,216.5 857.667,250.5 857,284.5C 855.332,288.165 852.499,290.332 848.5,291C 734.833,291.667 621.167,291.667 507.5,291C 503.32,289.998 500.486,287.498 499,283.5C 498.333,250.167 498.333,216.833 499,183.5C 500.327,179.675 502.827,177.008 506.5,175.5 Z"/></g>
<g><path style="opacity:0.997" fill="#ffa361" d="M 71.5,201.5 C 177.5,201.5 283.5,201.5 389.5,201.5C 392.85,201.335 396.183,201.502 399.5,202C 400,202.5 400.5,203 401,203.5C 401.667,208.833 401.667,214.167 401,219.5C 399.829,220.893 398.329,221.727 396.5,222C 391.845,222.499 387.179,222.666 382.5,222.5C 278.335,221.501 174.001,221.167 69.5,221.5C 65.8183,221.665 62.1516,221.499 58.5,221C 57.2986,220.097 56.4652,218.931 56,217.5C 56.0256,214.532 55.8589,211.698 55.5,209C 55.7305,206.3 56.7305,203.967 58.5,202C 62.8206,201.501 67.1539,201.334 71.5,201.5 Z"/></g>
<g><path style="opacity:1" fill="#6130b4" d="M 563.5,204.5 C 566.044,204.104 568.211,204.771 570,206.5C 577.983,223.803 585.983,241.136 594,258.5C 594.667,259.5 594.667,260.5 594,261.5C 589.921,262.629 585.755,262.796 581.5,262C 579.711,259.721 577.711,257.721 575.5,256C 568.5,255.333 561.5,255.333 554.5,256C 553.415,258.172 552.081,260.172 550.5,262C 546.179,262.499 541.846,262.666 537.5,262.5C 544.515,242.467 553.182,223.133 563.5,204.5 Z"/></g>
<g><path style="opacity:1" fill="#6030b5" d="M 602.5,205.5 C 611.839,205.334 621.173,205.5 630.5,206C 639.8,208.73 646.3,214.564 650,223.5C 653.956,239.319 649.123,251.486 635.5,260C 624.966,262.4 614.3,263.067 603.5,262C 603,261.5 602.5,261 602,260.5C 601.181,242.093 601.348,223.76 602.5,205.5 Z"/></g>
<g><path style="opacity:1" fill="#602fb5" d="M 661.5,205.5 C 663.199,205.34 664.866,205.506 666.5,206C 673.401,214.066 680.734,221.566 688.5,228.5C 696.266,221.566 703.599,214.066 710.5,206C 712.441,205.257 714.274,205.424 716,206.5C 716.825,225.074 716.659,243.574 715.5,262C 711.5,262.667 707.5,262.667 703.5,262C 703,261.5 702.5,261 702,260.5C 701.831,253.144 701.331,245.811 700.5,238.5C 696.5,242.167 692.5,245.833 688.5,249.5C 684.5,245.833 680.5,242.167 676.5,238.5C 675.669,245.811 675.169,253.144 675,260.5C 674.5,261 674,261.5 673.5,262C 669.245,262.796 665.079,262.629 661,261.5C 660.181,242.76 660.347,224.093 661.5,205.5 Z"/></g>
<g><path style="opacity:1" fill="#6131b4" d="M 727.5,205.5 C 736.5,205.5 745.5,205.5 754.5,205.5C 754.665,209.182 754.499,212.848 754,216.5C 752.559,217.26 751.059,217.926 749.5,218.5C 748.334,228.483 748.168,238.483 749,248.5C 751.088,249.308 753.088,250.308 755,251.5C 755.667,254.833 755.667,258.167 755,261.5C 745.667,262.833 736.333,262.833 727,261.5C 726.333,258.167 726.333,254.833 727,251.5C 728.763,250.056 730.763,249.056 733,248.5C 733.667,238.833 733.667,229.167 733,219.5C 731.088,218.308 729.088,217.308 727,216.5C 726.245,212.745 726.411,209.078 727.5,205.5 Z"/></g>
<g><path style="opacity:1" fill="#6231b4" d="M 766.5,204.5 C 768.783,204.608 770.783,205.441 772.5,207C 780.527,215.027 788.527,223.027 796.5,231C 797.448,231.483 798.448,231.649 799.5,231.5C 799.334,223.16 799.5,214.827 800,206.5C 804.667,205.167 809.333,205.167 814,206.5C 814.825,225.074 814.659,243.574 813.5,262C 811.365,262.635 809.365,262.301 807.5,261C 798.97,252.136 790.137,243.636 781,235.5C 780.667,244.167 780.333,252.833 780,261.5C 775.587,262.632 771.087,262.799 766.5,262C 766,261.5 765.5,261 765,260.5C 764.333,242.5 764.333,224.5 765,206.5C 765.717,205.956 766.217,205.289 766.5,204.5 Z"/></g>
<g><path style="opacity:1" fill="#fcd363" d="M 617.5,218.5 C 632.436,217.685 638.603,224.685 636,239.5C 632.169,247.917 625.835,250.917 617,248.5C 616.193,238.423 616.36,228.423 617.5,218.5 Z"/></g>
<g><path style="opacity:0.988" fill="#ffd661" d="M 69.5,221.5 C 174.001,221.167 278.335,221.501 382.5,222.5C 351.808,234.257 320.142,242.423 287.5,247C 249.855,248.428 212.189,248.928 174.5,248.5C 162.893,246.808 151.226,245.475 139.5,244.5C 115.379,239.237 92.0456,231.571 69.5,221.5 Z"/></g>
<g><path style="opacity:1" fill="#f3c969" d="M 565.5,230.5 C 568.017,233.026 569.684,236.192 570.5,240C 570.355,240.772 570.022,241.439 569.5,242C 566.854,242.497 564.187,242.664 561.5,242.5C 561.447,237.993 562.78,233.993 565.5,230.5 Z"/></g>
<g><path style="opacity:0.879" fill="#fefefe" d="M 139.5,244.5 C 151.226,245.475 162.893,246.808 174.5,248.5C 178.52,251.358 181.686,255.025 184,259.5C 185.173,268.324 181.339,272.824 172.5,273C 163.23,262.746 152.23,260.412 139.5,266C 135.557,268.958 131.39,271.458 127,273.5C 118.991,271.493 115.991,266.493 118,258.5C 123.812,251.682 130.979,247.015 139.5,244.5 Z"/></g>
<g><path style="opacity:0.863" fill="#fefefe" d="M 331.5,276.5 C 342.882,279.269 345.382,285.602 339,295.5C 331.552,303.915 323.052,308.248 313.5,308.5C 312.167,309.167 310.833,309.833 309.5,310.5C 306.167,309.167 302.833,309.167 299.5,310.5C 297.714,308.979 295.881,308.646 294,309.5C 290.153,307.183 285.986,305.516 281.5,304.5C 277.63,301.205 275.297,297.372 274.5,293C 276.146,289.69 278.48,287.023 281.5,285C 284.167,284.333 286.833,284.333 289.5,285C 298.646,291.605 308.313,292.272 318.5,287C 321.939,284.473 324.939,281.473 327.5,278C 329.058,277.79 330.391,277.29 331.5,276.5 Z"/></g>
<g><path style="opacity:0.964" fill="#fefffe" d="M 697.5,306.5 C 742.477,307.145 765.477,329.812 766.5,374.5C 765.029,383.358 762.863,392.025 760,400.5C 759.348,403.594 759.682,406.594 761,409.5C 765.667,414.833 770.333,420.167 775,425.5C 777.805,432.833 775.138,435.833 767,434.5C 760.147,433.413 753.314,433.413 746.5,434.5C 741.496,432.493 736.496,430.493 731.5,428.5C 702.156,439.553 675.989,434.553 653,413.5C 634.874,386.841 633.874,359.508 650,331.5C 662.528,316.655 678.361,308.322 697.5,306.5 Z M 695.5,338.5 C 718.854,336.992 731.521,347.825 733.5,371C 730.251,395.25 716.584,405.25 692.5,401C 681.711,397.277 675.211,389.777 673,378.5C 669.841,364.976 673.341,353.476 683.5,344C 687.481,341.838 691.481,340.005 695.5,338.5 Z"/></g>
<g><path style="opacity:0.952" fill="#fefffe" d="M 909.5,306.5 C 920.599,306.571 930.932,309.405 940.5,315C 953.001,326.839 956.501,341.006 951,357.5C 946.301,365.556 940.635,372.889 934,379.5C 932.129,384.081 929.629,388.248 926.5,392C 918.548,393.442 910.548,393.775 902.5,393C 899.967,391.967 898.301,390.133 897.5,387.5C 898.854,382.928 900.688,378.595 903,374.5C 909.333,366.833 915.667,359.167 922,351.5C 924.477,338.307 919.31,333.474 906.5,337C 902.939,340.14 899.605,343.473 896.5,347C 889.833,347.667 883.167,347.667 876.5,347C 874.224,346.126 872.89,344.459 872.5,342C 875.767,320.702 888.1,308.869 909.5,306.5 Z"/></g>
<g><path style="opacity:0.959" fill="#fefffe" d="M 557.5,307.5 C 581.977,303.397 602.477,310.397 619,328.5C 625.166,335.656 627.666,343.822 626.5,353C 618.27,354.604 609.937,354.937 601.5,354C 597.359,352.526 594.526,349.693 593,345.5C 585.016,337.963 575.516,335.129 564.5,337C 553.967,339.196 546.801,345.362 543,355.5C 537.022,372.418 540.522,386.918 553.5,399C 564.675,405.877 576.008,406.211 587.5,400C 591.092,397.079 593.925,393.579 596,389.5C 597.731,387.383 599.898,385.883 602.5,385C 609.5,384.333 616.5,384.333 623.5,385C 627.766,386.366 629.266,389.199 628,393.5C 622.388,411.893 610.554,424.393 592.5,431C 564.343,439.009 540.176,432.509 520,411.5C 511.358,399.293 506.858,385.626 506.5,370.5C 507.858,336.505 524.858,315.505 557.5,307.5 Z"/></g>
<g><path style="opacity:0.963" fill="#fefffe" d="M 788.5,308.5 C 810.836,308.333 833.169,308.5 855.5,309C 857.492,309.574 858.992,310.741 860,312.5C 860.667,319.5 860.667,326.5 860,333.5C 859.626,334.416 859.126,335.25 858.5,336C 846.262,337.294 833.929,337.961 821.5,338C 819.152,338.11 817.652,339.277 817,341.5C 815.803,347.129 815.47,352.796 816,358.5C 816.465,359.931 817.299,361.097 818.5,362C 829.069,363.287 839.735,363.954 850.5,364C 851.766,364.309 852.933,364.809 854,365.5C 854.96,367.98 855.793,370.48 856.5,373C 855.693,378.083 855.193,383.25 855,388.5C 854.626,389.416 854.126,390.25 853.5,391C 843.265,392.286 832.932,392.952 822.5,393C 820.579,393.36 818.912,394.194 817.5,395.5C 816.691,405.453 816.191,415.453 816,425.5C 815.606,428.893 813.773,431.06 810.5,432C 803.5,432.667 796.5,432.667 789.5,432C 787.069,431.705 785.236,430.538 784,428.5C 783.333,389.833 783.333,351.167 784,312.5C 785.25,310.807 786.75,309.473 788.5,308.5 Z"/></g>
<g><path style="opacity:0.938" fill="#fefefe" d="M 145.5,328.5 C 157.15,327.496 166.65,331.829 174,341.5C 184.794,358.606 186.96,377.106 180.5,397C 175.777,414.419 164.61,423.585 147,424.5C 131.371,418.852 122.204,407.685 119.5,391C 119.585,389.893 119.919,388.893 120.5,388C 127.239,384.003 133.572,380.17 139.5,376.5C 133.499,372.164 127.166,368.331 120.5,365C 120.712,351.908 126.046,341.241 136.5,333C 139.592,331.454 142.592,329.954 145.5,328.5 Z"/></g>
<g><path style="opacity:0.938" fill="#fefefe" d="M 300.5,328.5 C 312.817,327.572 322.65,332.238 330,342.5C 332.871,347.192 335.371,352.025 337.5,357C 337.659,359.563 337.325,362.23 336.5,365C 330.003,368.414 323.67,372.081 317.5,376C 318.126,376.75 318.626,377.584 319,378.5C 319.333,378.167 319.667,377.833 320,377.5C 325.604,381.16 331.27,384.827 337,388.5C 335.951,406.539 326.951,418.539 310,424.5C 294.473,424.652 283.806,416.985 278,401.5C 271.763,383.707 272.097,366.04 279,348.5C 284.078,338.897 291.245,332.23 300.5,328.5 Z"/></g>
<g><path style="opacity:0.929" fill="#fefffe" d="M 907.5,400.5 C 921.35,397.901 929.35,403.401 931.5,417C 930.094,428.052 923.761,433.552 912.5,433.5C 897.694,431.231 892.528,422.898 897,408.5C 899.855,404.789 903.355,402.123 907.5,400.5 Z"/></g>
</svg>
