<?xml version="1.0" encoding="UTF-8"?>
<!DOCTYPE svg PUBLIC "-//W3C//DTD SVG 1.1//EN" "http://www.w3.org/Graphics/SVG/1.1/DTD/svg11.dtd">
<svg xmlns="http://www.w3.org/2000/svg" version="1.1" width="24px" height="21px" style="shape-rendering:geometricPrecision; text-rendering:geometricPrecision; image-rendering:optimizeQuality; fill-rule:evenodd; clip-rule:evenodd" xmlns:xlink="http://www.w3.org/1999/xlink">
<g><path style="opacity:0.732" fill="#747474" d="M 1.5,-0.5 C 4.16667,-0.5 6.83333,-0.5 9.5,-0.5C 10.8333,2.16667 12.1667,2.16667 13.5,-0.5C 16.1667,-0.5 18.8333,-0.5 21.5,-0.5C 21.8333,0.5 22.5,1.16667 23.5,1.5C 23.5,4.16667 23.5,6.83333 23.5,9.5C 20.1951,13.1408 16.8617,16.8075 13.5,20.5C 12.1667,20.5 10.8333,20.5 9.5,20.5C 6.13827,16.8075 2.80494,13.1408 -0.5,9.5C -0.5,6.83333 -0.5,4.16667 -0.5,1.5C 0.5,1.16667 1.16667,0.5 1.5,-0.5 Z M 4.5,1.5 C 7.26676,2.05075 9.6001,3.38408 11.5,5.5C 13.2279,3.77445 15.2279,2.44112 17.5,1.5C 22.2526,3.70055 22.7526,6.70055 19,10.5C 16.9495,12.8878 14.6162,14.8878 12,16.5C 6.35063,14.2041 3.0173,10.2041 2,4.5C 2.69794,3.30943 3.53128,2.30943 4.5,1.5 Z"/></g>
</svg>
