<?xml version="1.0" encoding="utf-8"?>
<svg version="1.1" xmlns:xlink="http://www.w3.org/1999/xlink" width="24px" height="21px" xmlns="http://www.w3.org/2000/svg">
  <g transform="matrix(1 0 0 1 -2576 -866 )">
    <path d="M 19.767857142857142 11.265624999999998  C 21.446428571428573 9.552083333333332  22.285714285714285 7.929687499999999  22.285714285714285 6.3984375  C 22.285714285714285 5.66015625  22.189732142857146 5.008463541666666  21.997767857142858 4.443359374999999  C 21.805803571428573 3.8782552083333304  21.56026785714286 3.4293619791666656  21.261160714285715 3.0966796875  C 20.962053571428577 2.763997395833332  20.59821428571429 2.4928385416666665  20.169642857142858 2.283203125000001  C 19.74107142857143 2.0735677083333304  19.321428571428573 1.9322916666666656  18.910714285714285 1.8593749999999991  C 18.5 1.7864583333333304  18.0625 1.7500000000000009  17.598214285714285 1.7500000000000009  C 17.133928571428573 1.7500000000000009  16.63392857142857 1.8662109375  16.098214285714285 2.098632812500001  C 15.5625 2.331054687499999  15.069196428571429 2.6227213541666647  14.61830357142857 2.9736328125  C 14.167410714285717 3.3245442708333304  13.78125 3.6526692708333304  13.45982142857143 3.9580078125  C 13.13839285714286 4.263346354166665  12.870535714285715 4.543619791666666  12.65625 4.798828125  C 12.495535714285715 4.999348958333332  12.276785714285715 5.099609374999999  12 5.099609374999999  C 11.723214285714286 5.099609374999999  11.504464285714285 4.999348958333332  11.34375 4.798828125  C 11.129464285714285 4.543619791666666  10.861607142857142 4.263346354166665  10.540178571428571 3.9580078125  C 10.21875 3.6526692708333304  9.832589285714286 3.3245442708333304  9.381696428571429 2.9736328125  C 8.930803571428573 2.6227213541666647  8.4375 2.331054687499999  7.901785714285715 2.098632812500001  C 7.366071428571429 1.8662109375  6.866071428571431 1.7500000000000009  6.401785714285715 1.7500000000000009  C 5.9375 1.7500000000000009  5.500000000000001 1.7864583333333304  5.089285714285714 1.8593749999999991  C 4.678571428571429 1.9322916666666656  4.258928571428571 2.0735677083333304  3.8303571428571423 2.283203125000001  C 3.4017857142857144 2.4928385416666665  3.037946428571429 2.763997395833332  2.7388392857142856 3.0966796875  C 2.4397321428571432 3.4293619791666656  2.194196428571429 3.8782552083333304  2.002232142857143 4.443359374999999  C 1.8102678571428577 5.008463541666666  1.7142857142857142 5.66015625  1.7142857142857142 6.3984375  C 1.7142857142857142 7.929687499999999  2.5491071428571432 9.547526041666666  4.21875 11.251953125000002  L 12 18.908203125  L 19.767857142857142 11.265624999999998  Z M 22.299107142857142 1.6953124999999991  C 23.433035714285715 2.825520833333332  24 4.393229166666666  24 6.3984375  C 24 8.412760416666666  22.977678571428573 10.463541666666666  20.933035714285715 12.55078125  L 12.589285714285714 20.75390625  C 12.42857142857143 20.91796875  12.232142857142858 21  12 21  C 11.767857142857144 21  11.571428571428573 20.91796875  11.410714285714285 20.75390625  L 3.0535714285714284 12.523437500000002  C 2.9642857142857144 12.450520833333332  2.8415178571428577 12.332031249999998  2.685267857142857 12.167968749999998  C 2.529017857142857 12.003906249999998  2.28125 11.705403645833334  1.9419642857142858 11.272460937500002  C 1.6026785714285714 10.839518229166664  1.2991071428571428 10.395182291666664  1.03125 9.939453125  C 0.7633928571428571 9.483723958333334  0.5245535714285715 8.932291666666666  0.31473214285714285 8.28515625  C 0.10491071428571429 7.638020833333331  0 7.009114583333332  0 6.3984375  C 0 4.393229166666666  0.5669642857142856 2.825520833333332  1.7008928571428572 1.6953124999999991  C 2.834821428571429 0.5651041666666664  4.4017857142857135 0  6.401785714285715 0  C 6.955357142857142 0  7.520089285714285 0.09798177083333204  8.095982142857142 0.2939453125000008  C 8.671875 0.48990885416666485  9.207589285714285 0.754231770833332  9.703125 1.0869140625  C 10.198660714285715 1.4195963541666656  10.625000000000002 1.7317708333333313  10.982142857142858 2.023437499999999  C 11.339285714285715 2.3151041666666647  11.678571428571429 2.625  12 2.953125  C 12.32142857142857 2.625  12.660714285714288 2.3151041666666647  13.017857142857142 2.023437499999999  C 13.375000000000002 1.7317708333333313  13.801339285714286 1.4195963541666656  14.296875 1.0869140625  C 14.792410714285714 0.754231770833332  15.328125 0.48990885416666485  15.904017857142858 0.2939453125000008  C 16.479910714285715 0.09798177083333204  17.044642857142858 0  17.598214285714285 0  C 19.59821428571429 0  21.165178571428573 0.5651041666666664  22.299107142857142 1.6953124999999991  Z " fill-rule="nonzero" fill="#777777" stroke="none" transform="matrix(1 0 0 1 2576 866 )" />
  </g>
</svg>