<?xml version="1.0" encoding="UTF-8"?>
<!DOCTYPE svg PUBLIC "-//W3C//DTD SVG 1.1//EN" "http://www.w3.org/Graphics/SVG/1.1/DTD/svg11.dtd">
<svg xmlns="http://www.w3.org/2000/svg" version="1.1" width="2000px" height="2000px" style="shape-rendering:geometricPrecision; text-rendering:geometricPrecision; image-rendering:optimizeQuality; fill-rule:evenodd; clip-rule:evenodd" xmlns:xlink="http://www.w3.org/1999/xlink">
<g><path style="opacity:0.997" fill="#fefffe" d="M 998.5,-0.5 C 999.167,-0.5 999.833,-0.5 1000.5,-0.5C 1092.71,226.259 1185.21,452.926 1278,679.5C 1278.83,680.333 1279.67,681.167 1280.5,682C 1479.15,787.324 1677.48,893.158 1875.5,999.5C 1677.48,1105.84 1479.15,1211.68 1280.5,1317C 1279.67,1317.83 1278.83,1318.67 1278,1319.5C 1185.21,1546.07 1092.71,1772.74 1000.5,1999.5C 999.833,1999.5 999.167,1999.5 998.5,1999.5C 906.234,1772.38 813.567,1545.38 720.5,1318.5C 521.341,1212.42 322.341,1106.09 123.5,999.5C 322.341,892.912 521.341,786.579 720.5,680.5C 813.567,453.625 906.234,226.625 998.5,-0.5 Z"/></g>
</svg>
