<?xml version="1.0" encoding="UTF-8"?>
<svg version="1.1" xmlns="http://www.w3.org/2000/svg" width="96" height="96">
<path d="M0 0 C1.42119141 -0.02513672 1.42119141 -0.02513672 2.87109375 -0.05078125 C5.96079676 0.36626139 7.34206094 1.15505212 9.5625 3.3125 C9.5625 3.9725 9.5625 4.6325 9.5625 5.3125 C10.8928125 5.43625 10.8928125 5.43625 12.25 5.5625 C16.00347537 6.41234348 17.82218046 7.65277809 20.5625 10.3125 C20.5625 10.9725 20.5625 11.6325 20.5625 12.3125 C21.5525 12.6425 22.5425 12.9725 23.5625 13.3125 C23.5625 13.9725 23.5625 14.6325 23.5625 15.3125 C24.2225 15.3125 24.8825 15.3125 25.5625 15.3125 C26.0575 16.3025 26.0575 16.3025 26.5625 17.3125 C29.72554862 16.35622949 32.35326018 15.45029207 35.125 13.625 C37.5625 12.3125 37.5625 12.3125 40.3125 12.5625 C42.5625 13.3125 42.5625 13.3125 43.5625 14.3125 C43.67781753 16.43290772 43.72220423 18.55719336 43.73950195 20.68066406 C43.74607315 21.34577499 43.75264435 22.01088593 43.75941467 22.69615173 C43.77919401 24.90681053 43.79082212 27.11740116 43.80078125 29.328125 C43.80485678 30.08221397 43.8089323 30.83630295 43.81313133 31.6132431 C43.83401459 35.60657988 43.84830492 39.59988209 43.85766602 43.59326172 C43.86871877 47.71715421 43.90309841 51.84050534 43.94283772 55.9642067 C43.96900015 59.1349792 43.97735762 62.30562289 43.98094749 65.47649384 C43.98581664 66.99633173 43.99744011 68.51616375 44.01598549 70.0358963 C44.04036456 72.16661695 44.03941491 74.29594006 44.0324707 76.42675781 C44.03833694 77.63841614 44.04420319 78.85007446 44.05024719 80.09844971 C43.46700034 83.94180289 42.25137985 85.5600363 39.5625 88.3125 C37.30078125 89.7890625 37.30078125 89.7890625 34.875 90.9375 C34.08738281 91.32164063 33.29976563 91.70578125 32.48828125 92.1015625 C25.06982954 95.17194972 18.80471306 96.76310912 10.7421875 96.67578125 C9.83928986 96.67627975 8.93639221 96.67677826 8.00613403 96.67729187 C6.11197693 96.67496741 4.21781578 96.66533614 2.32373047 96.64868164 C-0.56180626 96.62500569 -3.44642139 96.62814388 -6.33203125 96.63476562 C-8.18229713 96.62919018 -10.03255915 96.62208115 -11.8828125 96.61328125 C-12.73714874 96.61419266 -13.59148499 96.61510406 -14.47171021 96.61604309 C-21.86454596 96.52918353 -27.64886795 94.84296935 -34.375 91.6875 C-35.81166016 91.01847656 -35.81166016 91.01847656 -37.27734375 90.3359375 C-37.99019531 89.99820313 -38.70304687 89.66046875 -39.4375 89.3125 C-39.4375 88.6525 -39.4375 87.9925 -39.4375 87.3125 C-40.4275 86.9825 -41.4175 86.6525 -42.4375 86.3125 C-43.89791228 83.39167545 -43.55678796 80.82948631 -43.55102539 77.56787109 C-43.55117142 76.87507553 -43.55131744 76.18227997 -43.5514679 75.4684906 C-43.55077018 73.17427459 -43.54298442 70.88013936 -43.53515625 68.5859375 C-43.53329157 66.99695887 -43.5318679 65.40797966 -43.53086853 63.81900024 C-43.52704731 59.63340675 -43.51722039 55.44784787 -43.50616455 51.26226807 C-43.49594194 46.99255847 -43.49136909 42.7228433 -43.48632812 38.453125 C-43.47559778 30.07290077 -43.45852608 21.69270469 -43.4375 13.3125 C-41.58984375 12.24047852 -41.58984375 12.24047852 -39.4375 11.3125 C-37 12.46484375 -37 12.46484375 -34.4375 14.25 C-31.14737668 16.69965416 -31.14737668 16.69965416 -27.265625 17.17578125 C-24.78312355 16.0034889 -23.58431549 14.07269135 -21.9296875 11.9453125 C-19.28714963 9.05373965 -15.96716262 6.9813363 -12.4375 5.3125 C-11.4475 5.3125 -10.4575 5.3125 -9.4375 5.3125 C-9.1075 4.3225 -8.7775 3.3325 -8.4375 2.3125 C-5.11533762 0.09772508 -3.88716677 0.01582293 0 0 Z M33.5625 25.3125 C32.5364266 26.62587396 31.53522675 27.95914105 30.5625 29.3125 C31.5525 30.7975 31.5525 30.7975 32.5625 32.3125 C33.2225 32.3125 33.8825 32.3125 34.5625 32.3125 C34.5625 30.0025 34.5625 27.6925 34.5625 25.3125 C34.2325 25.3125 33.9025 25.3125 33.5625 25.3125 Z M-34.4375 25.3125 C-34.4375 43.7925 -34.4375 62.2725 -34.4375 81.3125 C-27.84806458 84.78481837 -27.84806458 84.78481837 -21.25 86.5 C-20.45207031 86.63792969 -19.65414063 86.77585938 -18.83203125 86.91796875 C-18.04183594 87.04816406 -17.25164063 87.17835937 -16.4375 87.3125 C-15.66156494 87.48144775 -14.88562988 87.65039551 -14.08618164 87.82446289 C0.79111382 90.56570297 20.53492681 89.53746175 33.375 81.125 C36.61315351 76.18255517 35.6487525 68.3789911 35.44140625 62.65625 C35.41779526 61.86851196 35.39418427 61.08077393 35.36985779 60.26916504 C35.29403388 57.78338836 35.20966681 55.29798957 35.125 52.8125 C35.07169764 51.11460107 35.01895799 49.41668437 34.96679688 47.71875 C34.83853069 43.58309964 34.70260849 39.44776541 34.5625 35.3125 C32.5825 35.6425 30.6025 35.9725 28.5625 36.3125 C28.5625 36.9725 28.5625 37.6325 28.5625 38.3125 C27.428125 38.43625 26.29375 38.56 25.125 38.6875 C22.22894997 39.03884056 19.50429332 39.56507365 16.6875 40.3125 C11.10757217 41.66073653 5.39864374 41.68980107 -0.31787109 41.79492188 C-2.36391162 41.86258826 -4.4038977 42.07729318 -6.4375 42.3125 C-7.0975 43.3025 -7.7575 44.2925 -8.4375 45.3125 C-10.5625 46 -10.5625 46 -12.4375 46.3125 C-12.4375 45.6525 -12.4375 44.9925 -12.4375 44.3125 C-15.4075 44.9725 -18.3775 45.6325 -21.4375 46.3125 C-21.7675 44.9925 -22.0975 43.6725 -22.4375 42.3125 C-21.7775 42.3125 -21.1175 42.3125 -20.4375 42.3125 C-20.4375 41.6525 -20.4375 40.9925 -20.4375 40.3125 C-24.3975 38.9925 -28.3575 37.6725 -32.4375 36.3125 C-32.4375 34.3325 -32.4375 32.3525 -32.4375 30.3125 C-31.7775 29.9825 -31.1175 29.6525 -30.4375 29.3125 C-30.7675 28.3225 -31.0975 27.3325 -31.4375 26.3125 C-32.4275 25.9825 -33.4175 25.6525 -34.4375 25.3125 Z " fill="#F5F5F5" transform="translate(48.4375,-0.3125)"/>
<path d="M0 0 C1.42119141 -0.02513672 1.42119141 -0.02513672 2.87109375 -0.05078125 C5.96079676 0.36626139 7.34206094 1.15505212 9.5625 3.3125 C9.5625 3.9725 9.5625 4.6325 9.5625 5.3125 C10.8928125 5.43625 10.8928125 5.43625 12.25 5.5625 C16.00347537 6.41234348 17.82218046 7.65277809 20.5625 10.3125 C20.5625 10.9725 20.5625 11.6325 20.5625 12.3125 C21.5525 12.6425 22.5425 12.9725 23.5625 13.3125 C23.5625 13.9725 23.5625 14.6325 23.5625 15.3125 C24.2225 15.3125 24.8825 15.3125 25.5625 15.3125 C26.07083591 16.55913331 26.56881145 17.80999387 27.0625 19.0625 C27.3409375 19.75859375 27.619375 20.4546875 27.90625 21.171875 C28.5625 23.3125 28.5625 23.3125 28.5625 27.3125 C29.5525 27.6425 30.5425 27.9725 31.5625 28.3125 C32.0575 29.7975 32.0575 29.7975 32.5625 31.3125 C33.2225 31.6425 33.8825 31.9725 34.5625 32.3125 C34.1875 34.25 34.1875 34.25 33.5625 36.3125 C32.5725 36.8075 32.5725 36.8075 31.5625 37.3125 C30.0775 36.8175 30.0775 36.8175 28.5625 36.3125 C28.5625 36.9725 28.5625 37.6325 28.5625 38.3125 C16.71305117 42.33413112 5.99444275 42.76686542 -6.4375 42.3125 C-7.0975 43.6325 -7.7575 44.9525 -8.4375 46.3125 C-9.7575 46.3125 -11.0775 46.3125 -12.4375 46.3125 C-12.4375 45.6525 -12.4375 44.9925 -12.4375 44.3125 C-12.994375 44.6425 -13.55125 44.9725 -14.125 45.3125 C-16.74034522 46.4434601 -18.6181646 46.46912974 -21.4375 46.3125 C-21.7675 44.9925 -22.0975 43.6725 -22.4375 42.3125 C-21.7775 42.3125 -21.1175 42.3125 -20.4375 42.3125 C-20.4375 41.6525 -20.4375 40.9925 -20.4375 40.3125 C-21.283125 40.209375 -22.12875 40.10625 -23 40 C-26.85192701 39.2296146 -29.87825031 37.94975486 -33.4375 36.3125 C-32.9395163 32.57762223 -32.56258244 30.50012365 -30.4375 27.3125 C-29.7775 27.3125 -29.1175 27.3125 -28.4375 27.3125 C-28.45103516 26.4771875 -28.45103516 26.4771875 -28.46484375 25.625 C-28.23194003 19.63026086 -26.64308248 16.40072936 -22.48046875 12.109375 C-18.60198293 8.69808728 -14.74502682 5.3125 -9.4375 5.3125 C-9.1075 4.3225 -8.7775 3.3325 -8.4375 2.3125 C-5.11533762 0.09772508 -3.88716677 0.01582293 0 0 Z " fill="#FED563" transform="translate(48.4375,-0.3125)"/>
<path d="M0 0 C19.14 0 38.28 0 58 0 C58 0.66 58 1.32 58 2 C46.15055117 6.02163112 35.43194275 6.45436542 23 6 C22.34 7.32 21.68 8.64 21 10 C19.68 10 18.36 10 17 10 C17 9.34 17 8.68 17 8 C16.443125 8.33 15.88625 8.66 15.3125 9 C12.69715478 10.1309601 10.8193354 10.15662974 8 10 C7.67 8.68 7.34 7.36 7 6 C7.66 6 8.32 6 9 6 C9 5.34 9 4.68 9 4 C7.6078125 3.7834375 7.6078125 3.7834375 6.1875 3.5625 C3 3 3 3 0 2 C0 1.34 0 0.68 0 0 Z " fill="#FCD463" transform="translate(19,36)"/>
<path d="M0 0 C0.66 0 1.32 0 2 0 C2 0.66 2 1.32 2 2 C2.78482758 1.98525131 3.56965515 1.97050262 4.37826538 1.95530701 C11.76506469 1.81740556 19.1519283 1.68443401 26.53891563 1.5570364 C30.33687205 1.49136108 34.13477415 1.42376212 37.93261719 1.35180664 C41.5959354 1.28247005 45.25931008 1.21813461 48.92277908 1.15730476 C50.32228423 1.13318018 51.7217592 1.10723627 53.12119675 1.07946587 C55.07729163 1.04095627 57.03352052 1.00944356 58.98974609 0.97827148 C60.1044931 0.95828598 61.21924011 0.93830048 62.36776733 0.91770935 C65 1 65 1 67 2 C66.625 3.9375 66.625 3.9375 66 6 C63.23149177 7.38425411 60.99580816 7.11959962 57.89794922 7.11352539 C56.61677216 7.11344986 55.33559509 7.11337433 54.01559448 7.11329651 C52.61195843 7.10818948 51.20832277 7.10297348 49.8046875 7.09765625 C48.37265065 7.09579146 46.94061316 7.09436784 45.50857544 7.09336853 C41.73726646 7.08954819 37.96599593 7.07972202 34.19470215 7.06866455 C30.34725464 7.05844005 26.49980093 7.05386868 22.65234375 7.04882812 C15.10154497 7.03809933 7.55077787 7.02102869 0 7 C-1.125 2.25 -1.125 2.25 0 0 Z " fill="#FEA862" transform="translate(16,30)"/>
<path d="M0 0 C3.66464055 0.4952217 5.70832354 1.0208206 8 4 C9 7 9 7 8.5 8.9375 C7.82265516 10.9960225 7.82265516 10.9960225 8.5625 13 C9 15 9 15 8.25 17.125 C7 19 7 19 4 21 C0.96106527 20.84415719 -0.71785178 20.18809881 -3.25 18.5 C-5.81116671 14.84119041 -6.60425895 11.44615227 -6 7 C-4.35229015 4.25548633 -2.37083333 2.13718598 0 0 Z " fill="#FCFCFC" transform="translate(61,54)"/>
<path d="M0 0 C3.96949754 1.51562633 5.06985293 2.67120941 6.84375 6.41015625 C7.78680721 9.43166192 7.46931946 11.34601906 6.4375 14.3125 C4.66838181 17.0576834 3.41450935 18.85452687 0.4375 20.25 C-2.26368221 20.33441194 -3.37883222 19.93264061 -5.5625 18.3125 C-7.3125 15.1875 -7.3125 15.1875 -8.5625 12.3125 C-7.9025 11.3225 -7.2425 10.3325 -6.5625 9.3125 C-7.2225 8.3225 -7.8825 7.3325 -8.5625 6.3125 C-4.58190639 0.40192161 -4.58190639 0.40192161 0 0 Z " fill="#FBFBFB" transform="translate(34.5625,54.6875)"/>
<path d="M0 0 C2.125 0.375 2.125 0.375 4 1 C4.33 2.32 4.66 3.64 5 5 C3.0373772 7.04795423 1.5722693 7.94976638 -1.26953125 8.19921875 C-3.51954383 8.18858877 -5.75385562 8.12958525 -8 8 C-8 7.34 -8 6.68 -8 6 C-8.66 6 -9.32 6 -10 6 C-9.625 4.0625 -9.625 4.0625 -9 2 C-7 1 -7 1 -4.5 1.5625 C-3.675 1.706875 -2.85 1.85125 -2 2 C-1.34 1.34 -0.68 0.68 0 0 Z " fill="#FDFDFD" transform="translate(66,45)"/>
<path d="M0 0 C1.98 0.66 3.96 1.32 6 2 C5.21463402 4.77276156 4.4220176 7.54308771 3.625 10.3125 C3.40328125 11.09818359 3.1815625 11.88386719 2.953125 12.69335938 C2.73398437 13.45068359 2.51484375 14.20800781 2.2890625 14.98828125 C1.99056396 16.03302612 1.99056396 16.03302612 1.68603516 17.09887695 C1 19 1 19 -1 22 C-1.02895225 18.70835171 -1.0467823 15.41673601 -1.0625 12.125 C-1.07506836 10.71927734 -1.07506836 10.71927734 -1.08789062 9.28515625 C-1.09111328 8.38925781 -1.09433594 7.49335938 -1.09765625 6.5703125 C-1.10289307 5.74289551 -1.10812988 4.91547852 -1.11352539 4.06298828 C-1 2 -1 2 0 0 Z " fill="#FEA962" transform="translate(57,4)"/>
<path d="M0 0 C1.60379341 -0.05416188 3.20811406 -0.09286638 4.8125 -0.125 C5.70582031 -0.14820313 6.59914063 -0.17140625 7.51953125 -0.1953125 C10 0 10 0 13 2 C12.67 3.32 12.34 4.64 12 6 C10.68 6 9.36 6 8 6 C8 5.34 8 4.68 8 4 C7.443125 4.33 6.88625 4.66 6.3125 5 C3.69715478 6.1309601 1.8193354 6.15662974 -1 6 C-1.33 4.68 -1.66 3.36 -2 2 C-1.34 2 -0.68 2 0 2 C0 1.34 0 0.68 0 0 Z " fill="#FDFBF7" transform="translate(28,40)"/>
<path d="M0 0 C0.33 7.26 0.66 14.52 1 22 C-0.77445515 19.33831727 -1.48206821 17.76390481 -2.2890625 14.76953125 C-2.61777344 13.56586914 -2.61777344 13.56586914 -2.953125 12.33789062 C-3.17484375 11.50451172 -3.3965625 10.67113281 -3.625 9.8125 C-3.85445312 8.96751953 -4.08390625 8.12253906 -4.3203125 7.25195312 C-4.88510255 5.16928982 -5.44319964 3.08481356 -6 1 C-4 0 -4 0 0 0 Z " fill="#FEA763" transform="translate(40,5)"/>
</svg>
