<?xml version="1.0" encoding="UTF-8"?>
<svg version="1.1" xmlns="http://www.w3.org/2000/svg" width="23" height="21">
<path d="M0 0 C2.47344644 0.28600407 3.65440715 0.59002038 5.28027344 2.51879883 C5.81442871 3.47822388 5.81442871 3.47822388 6.359375 4.45703125 C6.75253906 5.15763672 7.14570313 5.85824219 7.55078125 6.58007812 C7.94652344 7.31677734 8.34226562 8.05347656 8.75 8.8125 C9.16121094 9.53759766 9.57242187 10.26269531 9.99609375 11.00976562 C12.07480749 14.78390868 13 16.54009444 13 21 C5.41 21 -2.18 21 -10 21 C-8.87468904 14.24813422 -8.87468904 14.24813422 -7.1875 11.38671875 C-6.65769531 10.4750293 -6.65769531 10.4750293 -6.1171875 9.54492188 C-5.74851562 8.93197266 -5.37984375 8.31902344 -5 7.6875 C-4.44699219 6.73907227 -4.44699219 6.73907227 -3.8828125 5.77148438 C-1.1945211 1.1945211 -1.1945211 1.1945211 0 0 Z M0 7 C0 8.65 0 10.3 0 12 C0.99 12 1.98 12 3 12 C3 10.35 3 8.7 3 7 C2.01 7 1.02 7 0 7 Z M0 15 C0 15.66 0 16.32 0 17 C0.99 17 1.98 17 3 17 C3 16.34 3 15.68 3 15 C2.01 15 1.02 15 0 15 Z " fill="#5124AA" transform="translate(10,0)"/>
</svg>
