<?xml version="1.0" encoding="utf-8"?>
<svg version="1.1" xmlns:xlink="http://www.w3.org/1999/xlink" width="50px" height="43px" xmlns="http://www.w3.org/2000/svg">
  <g transform="matrix(1 0 0 1 -654 -160 )">
    <path d="M 19.700520833333332 19.548978365384617  C 21.16753472222222 18.093249198717945  22.93402777777778 17.36538461538461  25 17.365384615384617  C 27.06597222222223 17.36538461538461  28.83246527777778 18.093249198717945  30.299479166666664 19.548978365384617  C 31.76649305555556 21.00470753205128  32.5 22.75761217948718  32.5 24.807692307692307  C 32.5 26.857772435897434  31.76649305555556 28.61067708333333  30.299479166666664 30.06640625  C 28.83246527777778 31.522135416666664  27.06597222222223 32.25  25 32.25  C 22.93402777777778 32.25  21.16753472222222 31.522135416666664  19.700520833333332 30.06640625  C 18.233506944444446 28.61067708333333  17.5 26.857772435897434  17.5 24.807692307692307  C 17.5 22.75761217948718  18.233506944444446 21.00470753205128  19.700520833333332 19.548978365384617  Z M 37.5 6.615384615384616  L 43.333333333333336 6.615384615384616  C 45.173611111111114 6.615384615384616  46.74479166666667 7.261418269230768  48.046875 8.553485576923078  C 49.348958333333336 9.845552884615385  50.000000000000014 11.404647435897434  50 13.230769230769232  L 50 36.38461538461539  C 50.000000000000014 38.21073717948718  49.348958333333336 39.76983173076923  48.046875 41.06189903846154  C 46.74479166666667 42.35396634615385  45.173611111111114 43  43.333333333333336 43  L 6.666666666666667 43  C 4.826388888888889 43  3.2552083333333335 42.35396634615385  1.953125 41.06189903846154  C 0.6510416666666667 39.76983173076923  0 38.21073717948718  0 36.38461538461539  L 0 13.230769230769232  C 0 11.404647435897434  0.6510416666666667 9.845552884615385  1.953125 8.553485576923078  C 3.2552083333333335 7.261418269230768  4.826388888888889 6.615384615384616  6.666666666666667 6.615384615384616  L 12.5 6.615384615384616  L 13.828125 3.100961538461537  C 14.157986111111112 2.2568108974358965  14.761284722222223 1.5289463141025617  15.638020833333332 0.917367788461537  C 16.514756944444446 0.3057892628205171  17.413194444444446 0  18.333333333333332 0  L 31.666666666666664 0  C 32.58680555555556 0  33.48524305555556 0.3057892628205171  34.361979166666664 0.917367788461537  C 35.238715277777786 1.5289463141025617  35.84201388888889 2.2568108974358965  36.171875 3.100961538461537  L 37.5 6.615384615384616  Z M 16.7578125 32.98647836538461  C 19.04079861111111 35.251903044871796  21.788194444444446 36.38461538461539  25 36.38461538461539  C 28.211805555555557 36.38461538461539  30.95920138888889 35.251903044871796  33.2421875 32.98647836538461  C 35.52517361111111 30.721053685897434  36.666666666666664 27.994791666666664  36.666666666666664 24.807692307692307  C 36.666666666666664 21.62059294871795  35.52517361111111 18.89433092948718  33.2421875 16.62890625  C 30.95920138888889 14.363481570512818  28.211805555555557 13.230769230769232  25 13.230769230769232  C 21.788194444444446 13.230769230769232  19.04079861111111 14.363481570512818  16.7578125 16.62890625  C 14.47482638888889 18.89433092948718  13.333333333333334 21.62059294871795  13.333333333333334 24.807692307692307  C 13.333333333333334 27.994791666666664  14.47482638888889 30.721053685897434  16.7578125 32.98647836538461  Z " fill-rule="nonzero" fill="#797979" stroke="none" transform="matrix(1 0 0 1 654 160 )" />
  </g>
</svg>