<?xml version="1.0" encoding="utf-8"?>
<svg version="1.1" xmlns:xlink="http://www.w3.org/1999/xlink" width="27px" height="21px" xmlns="http://www.w3.org/2000/svg">
  <g transform="matrix(1 0 0 1 -9824 -801 )">
    <path d="M 12.591928251121077 15.75  L 13.439461883408072 15.75  L 15.19506726457399 14.019886363636363  L 12.894618834080717 11.752840909090907  L 11.1390134529148 13.482954545454547  L 11.1390134529148 14.31818181818182  L 12.591928251121077 14.31818181818182  L 12.591928251121077 15.75  Z M 20.083520179372197 5.503551136363637  C 20.25504484304933 5.334517045454543  20.260089686098656 5.170454545454543  20.09865470852018 5.011363636363637  C 19.937219730941706 4.852272727272725  19.770739910313903 4.857244318181817  19.59921524663677 5.02627840909091  L 14.30213004484305 10.246448863636363  C 14.13060538116592 10.415482954545455  14.125560538116591 10.579545454545451  14.286995515695066 10.738636363636363  C 14.448430493273545 10.897727272727272  14.614910313901348 10.89275568181818  14.786434977578477 10.723721590909093  L 20.083520179372197 5.503551136363637  Z M 21.006726457399104 13.438210227272727  C 21.2085201793722 13.51775568181818  21.309417040358742 13.66193181818182  21.309417040358742 13.870738636363637  L 21.309417040358742 16.704545454545453  C 21.309417040358742 17.88778409090909  20.883127802690584 18.899502840909093  20.030549327354258 19.739701704545453  C 19.17797085201794 20.579900568181817  18.15134529147982 21  16.95067264573991 21  L 4.358744394618834 21  C 3.158071748878924 21  2.1314461883408073 20.579900568181817  1.2788677130044843 19.739701704545453  C 0.4262892376681614 18.899502840909093  0 17.88778409090909  0 16.704545454545453  L 0 4.295454545454547  C 0 3.1122159090909065  0.4262892376681614 2.1004971590909083  1.2788677130044843 1.2602982954545463  C 2.1314461883408073 0.42009943181817977  3.158071748878924 0  4.358744394618834 0  L 16.95067264573991 0  C 17.586322869955158 0  18.176569506726455 0.1242897727272716  18.721412556053814 0.3728693181818171  C 18.87275784753363 0.4424715909090895  18.963565022421523 0.5568181818181813  18.993834080717487 0.7159090909090903  C 19.02410313901345 0.8849431818181813  18.978699551569505 1.029119318181817  18.85762331838565 1.1484375  L 18.116031390134527 1.8792613636363633  C 17.974775784753366 2.0184659090909083  17.81334080717489 2.0582386363636367  17.631726457399104 1.9985795454545463  C 17.399663677130047 1.9389204545454537  17.172645739910315 1.9090909090909096  16.95067264573991 2  L 4.358744394618834 2  C 3.6928251121076237 1.9090909090909096  3.122757847533633 2.14275568181818  2.648542600896861 2.6100852272727266  C 2.17432735426009 3.0774147727272716  1.937219730941704 3.6392045454545463  2 4.295454545454547  L 2 16.704545454545453  C 1.937219730941704 17.360795454545453  2.17432735426009 17.922585227272723  2.648542600896861 18.389914772727273  C 3.122757847533633 18.857244318181817  3.6928251121076237 19.09090909090909  4.358744394618834 19  L 16.95067264573991 19  C 17.616591928251122 19.09090909090909  18.18665919282511 18.857244318181817  18.660874439461885 18.389914772727273  C 19.135089686098656 17.922585227272723  19.37219730941704 17.360795454545453  19.37219730941704 16.704545454545453  L 19.37219730941704 14.825284090909093  C 19.37219730941704 14.696022727272725  19.41760089686099 14.586647727272727  19.508408071748878 14.497159090909093  L 20.47701793721973 13.542613636363637  C 20.628363228699552 13.393465909090907  20.80493273542601 13.358664772727272  21.006726457399104 13.438210227272727  Z M 9.68609865470852 12.886363636363637  L 19.856502242152466 2.8636363636363633  L 24.2152466367713 7.15909090909091  L 14.044843049327353 17.18181818181818  L 9.68609865470852 17.18181818181818  L 9.68609865470852 12.886363636363637  Z M 27 3.818181818181817  C 27 4.21590909090909  26.858744394618835 4.553977272727272  26.576233183856502 4.832386363636363  L 25.183856502242154 6.204545454545453  L 20.82511210762332 1.9090909090909096  L 22.21748878923767 0.5369318181818171  C 22.5 0.2585227272727253  22.84304932735426 0.11931818181818288  23.246636771300448 0.11931818181818288  C 23.650224215246638 0.11931818181818288  23.9932735426009 0.2585227272727253  24.27578475336323 0.5369318181818171  L 26.576233183856502 2.8039772727272734  C 26.858744394618835 3.08238636363636  27 3.420454545454545  27 3.818181818181817  Z " fill-rule="nonzero" fill="#ffffff" stroke="none" transform="matrix(1 0 0 1 9824 801 )" />
  </g>
</svg>