<?xml version="1.0" encoding="UTF-8"?>
<!DOCTYPE svg PUBLIC "-//W3C//DTD SVG 1.1//EN" "http://www.w3.org/Graphics/SVG/1.1/DTD/svg11.dtd">
<svg xmlns="http://www.w3.org/2000/svg" version="1.1" width="50px" height="46px" style="shape-rendering:geometricPrecision; text-rendering:geometricPrecision; image-rendering:optimizeQuality; fill-rule:evenodd; clip-rule:evenodd" xmlns:xlink="http://www.w3.org/1999/xlink">
<g><path style="opacity:0.961" fill="#cb204a" d="M 21.5,-0.5 C 23.5,-0.5 25.5,-0.5 27.5,-0.5C 34.5955,12.6972 41.9289,25.6972 49.5,38.5C 49.5,40.5 49.5,42.5 49.5,44.5C 48.8333,44.5 48.5,44.8333 48.5,45.5C 32.5,45.5 16.5,45.5 0.5,45.5C 0.5,44.8333 0.166667,44.5 -0.5,44.5C -0.5,42.5 -0.5,40.5 -0.5,38.5C 7.07113,25.6972 14.4045,12.6972 21.5,-0.5 Z M 21.5,14.5 C 23.5,14.5 25.5,14.5 27.5,14.5C 27.5,18.8333 27.5,23.1667 27.5,27.5C 25.5,27.5 23.5,27.5 21.5,27.5C 21.5,23.1667 21.5,18.8333 21.5,14.5 Z M 21.5,31.5 C 23.5,31.5 25.5,31.5 27.5,31.5C 27.5,33.5 27.5,35.5 27.5,37.5C 25.5,37.5 23.5,37.5 21.5,37.5C 21.5,35.5 21.5,33.5 21.5,31.5 Z"/></g>
</svg>
