<?xml version="1.0" encoding="UTF-8"?>
<svg version="1.1" xmlns="http://www.w3.org/2000/svg" width="96" height="77">
<path d="M0 0 C17.49 0 34.98 0 53 0 C53.02094515 7.92890315 53.04098329 15.85770665 53.05175018 23.78661346 C53.05704002 27.47860391 53.06411374 31.17057155 53.07543945 34.86254883 C53.08627162 38.41570831 53.09227753 41.96884563 53.09487724 45.52202034 C53.0967309 46.88045666 53.10035038 48.23889171 53.10573006 49.59731865 C53.11294475 51.49382223 53.11340809 53.39034793 53.11352539 55.28686523 C53.115746 56.36830307 53.11796661 57.44974091 53.12025452 58.56394958 C53 61 53 61 52 62 C50.44549012 62.10367027 48.88631745 62.13851522 47.32836914 62.14526367 C46.33386246 62.15164352 45.33935577 62.15802338 44.31471252 62.16459656 C43.23245895 62.16570938 42.15020538 62.1668222 41.03515625 62.16796875 C39.37969032 62.17296135 39.37969032 62.17296135 37.69078064 62.17805481 C35.35123106 62.18312886 33.01167422 62.18546299 30.67211914 62.18530273 C27.08142234 62.18748848 23.49103296 62.20563734 19.90039062 62.22460938 C17.63281356 62.22754327 15.36523502 62.22952809 13.09765625 62.23046875 C12.01742691 62.23765427 10.93719757 62.24483978 9.82423401 62.25224304 C8.82657516 62.24916641 7.82891632 62.24608978 6.80102539 62.24291992 C5.47984459 62.24505745 5.47984459 62.24505745 4.13197327 62.24723816 C2 62 2 62 0 60 C-0.24050903 57.48165894 -0.24050903 57.48165894 -0.22705078 54.26513672 C-0.22689972 53.06404266 -0.22674866 51.86294861 -0.22659302 50.62545776 C-0.21627045 49.32335358 -0.20594788 48.02124939 -0.1953125 46.6796875 C-0.19158276 45.33733327 -0.18873561 43.99497633 -0.18673706 42.65261841 C-0.17909744 39.117986 -0.1594463 35.58351772 -0.1373291 32.0489502 C-0.11687765 28.44281271 -0.10762735 24.83664794 -0.09765625 21.23046875 C-0.07726153 14.15350083 -0.03811661 7.07698374 0 0 Z " fill="#5702A6" transform="translate(21,0)"/>
<path d="M0 0 C5.61 0 11.22 0 17 0 C19 2 19 2 19.24050903 4.06277466 C19.2338472 5.33518509 19.2338472 5.33518509 19.22705078 6.63330078 C19.22689972 7.59414581 19.22674866 8.55499084 19.22659302 9.54495239 C19.21627045 10.58457123 19.20594788 11.62419006 19.1953125 12.6953125 C19.1924826 13.75789276 19.18965271 14.82047302 19.18673706 15.91525269 C19.17551639 19.31861499 19.15040837 22.72171686 19.125 26.125 C19.11497264 28.42838162 19.10584637 30.73176736 19.09765625 33.03515625 C19.07557093 38.69019345 19.04207489 44.34507813 19 50 C13.32745403 52.83627298 6.3420992 51 0 51 C0 34.17 0 17.34 0 0 Z " fill="#5807A2" transform="translate(0,11)"/>
<path d="M0 0 C5.61 0 11.22 0 17 0 C17 16.83 17 33.66 17 51 C11.39 51 5.78 51 0 51 C-1.6140925 49.3859075 -1.12734318 47.63523592 -1.12939453 45.40429688 C-1.13254669 44.42658325 -1.13569885 43.44886963 -1.13894653 42.44152832 C-1.1369223 41.37801147 -1.13489807 40.31449463 -1.1328125 39.21875 C-1.13376923 38.13493042 -1.13472595 37.05111084 -1.13571167 35.93444824 C-1.13639365 33.6377761 -1.13453811 31.34110205 -1.13037109 29.04443359 C-1.12502312 25.51525572 -1.1303155 21.98620513 -1.13671875 18.45703125 C-1.13605797 16.23177055 -1.13477682 14.00650993 -1.1328125 11.78125 C-1.13483673 10.71773315 -1.13686096 9.65421631 -1.13894653 8.55847168 C-1.13579437 7.58075806 -1.13264221 6.60304443 -1.12939453 5.59570312 C-1.12859894 4.73046021 -1.12780334 3.86521729 -1.12698364 2.97375488 C-1 1 -1 1 0 0 Z " fill="#5600A4" transform="translate(79,11)"/>
<path d="M0 0 C2.6612194 0.8648963 3.82026042 1.60231634 5.5 3.8125 C5.5 4.4725 5.5 5.1325 5.5 5.8125 C6.16 5.8125 6.82 5.8125 7.5 5.8125 C7.5825 5.19375 7.665 4.575 7.75 3.9375 C8.5 1.8125 8.5 1.8125 10.3125 0.5 C12.91119998 -0.31673428 14.0010965 -0.23542727 16.5 0.8125 C18.25 2.25 18.25 2.25 19.5 3.8125 C19.5 4.4725 19.5 5.1325 19.5 5.8125 C20.16 5.8125 20.82 5.8125 21.5 5.8125 C21.5825 5.19375 21.665 4.575 21.75 3.9375 C22.5 1.8125 22.5 1.8125 24.3125 0.5 C26.91119998 -0.31673428 28.0010965 -0.23542727 30.5 0.8125 C32.41465536 2.30167639 33.35039914 3.49192672 34.375 5.6875 C34.56801254 8.9687132 33.66097157 10.38140699 31.5 12.8125 C27.8816812 13.32940269 25.61045052 13.60056166 22.5625 11.4375 C21.5 9.8125 21.5 9.8125 21.5 7.8125 C20.84 7.8125 20.18 7.8125 19.5 7.8125 C19.37625 8.451875 19.2525 9.09125 19.125 9.75 C18.91875 10.430625 18.7125 11.11125 18.5 11.8125 C15.64675563 13.23912219 13.66545451 13.12283868 10.5 12.8125 C7.625 10.8125 7.625 10.8125 5.5 8.8125 C5.17 9.8025 4.84 10.7925 4.5 11.8125 C1.38122044 13.37188978 -1.07255771 13.1732834 -4.5 12.8125 C-6.5625 10.6875 -6.5625 10.6875 -7.5 7.8125 C-6.875 4.625 -6.875 4.625 -5.5 1.8125 C-2.5 -0.1875 -2.5 -0.1875 0 0 Z " fill="#5B09AA" transform="translate(34.5,64.1875)"/>
<path d="M0 0 C0.99 0.495 0.99 0.495 2 1 C2 1.66 2 2.32 2 3 C2.99 2.67 3.98 2.34 5 2 C5.66 4.31 6.32 6.62 7 9 C3.68607903 7.89535968 2.57049578 7.01421472 0.875 4 C0 2 0 2 0 0 Z " fill="#6617AC" transform="translate(38,67)"/>
</svg>
