<?xml version="1.0" encoding="UTF-8"?>
<svg version="1.1" xmlns="http://www.w3.org/2000/svg" width="39" height="33">
<path d="M0 0 C3.125 1.5 3.125 1.5 5 3 C5.55816406 2.5153125 6.11632812 2.030625 6.69140625 1.53125 C10.57702521 -1.04601334 14.50581902 -0.74055971 19 0 C22.36337088 2.01802253 23.56537386 3.42587329 24.609375 7.20703125 C25.060154 11.41651165 24.64403654 14.04260936 22.2578125 17.58984375 C19.94269125 20.18934841 17.51502322 22.59432561 15 25 C14.27296875 25.7940625 13.5459375 26.588125 12.796875 27.40625 C7.71542881 32.91438251 7.71542881 32.91438251 4.61108398 33.28588867 C1.40118869 32.9344359 0.5205883 32.11865646 -1.69921875 29.82421875 C-2.35083984 29.16099609 -3.00246094 28.49777344 -3.67382812 27.81445312 C-4.33833984 27.11255859 -5.00285156 26.41066406 -5.6875 25.6875 C-6.70166992 24.65206055 -6.70166992 24.65206055 -7.73632812 23.59570312 C-15.29046632 15.81606827 -15.29046632 15.81606827 -15.4375 10.125 C-15.33561505 6.45714165 -15.06821397 5.11368995 -13.125 1.875 C-8.72747988 -0.76351207 -5.00943784 -0.78837054 0 0 Z " fill="#5700AA" transform="translate(15,0)"/>
</svg>
