<?xml version="1.0" encoding="UTF-8"?>
<svg version="1.1" xmlns="http://www.w3.org/2000/svg" width="1000" height="1000">
<path d="M0 0 C6.6 0 13.2 0 20 0 C20.33 0.99 20.66 1.98 21 3 C22.65 3 24.3 3 26 3 C26 3.66 26 4.32 26 5 C26.66 5 27.32 5 28 5 C28 5.99 28 6.98 28 8 C29.98 8 31.96 8 34 8 C34 8.66 34 9.32 34 10 C35.65 10.33 37.3 10.66 39 11 C39 11.66 39 12.32 39 13 C40.65 13 42.3 13 44 13 C44 13.99 44 14.98 44 16 C44.99 16 45.98 16 47 16 C47 16.66 47 17.32 47 18 C48.65 18 50.3 18 52 18 C52 18.99 52 19.98 52 21 C52.763125 20.938125 53.52625 20.87625 54.3125 20.8125 C57 21 57 21 58.8125 22.375 C60 24 60 24 60 26 C61.65 26 63.3 26 65 26 C65 26.99 65 27.98 65 29 C66.65 29 68.3 29 70 29 C70 29.66 70 30.32 70 31 C71.65 31 73.3 31 75 31 C75 31.99 75 32.98 75 34 C75.99 34 76.98 34 78 34 C78 34.99 78 35.98 78 37 C79.65 37 81.3 37 83 37 C83 37.66 83 38.32 83 39 C84.65 39 86.3 39 88 39 C88 39.99 88 40.98 88 42 C88.99 42 89.98 42 91 42 C91 42.66 91 43.32 91 44 C92.65 44 94.3 44 96 44 C96 44.99 96 45.98 96 47 C97.65 47 99.3 47 101 47 C101 47.99 101 48.98 101 50 C101.99 50 102.98 50 104 50 C104 50.66 104 51.32 104 52 C105.65 52 107.3 52 109 52 C109 52.99 109 53.98 109 55 C110.98 55 112.96 55 115 55 C115 55.66 115 56.32 115 57 C115.78375 57.309375 116.5675 57.61875 117.375 57.9375 C120 59 120 59 122 60 C122 60.99 122 61.98 122 63 C123.98 63 125.96 63 128 63 C128 63.66 128 64.32 128 65 C129.65 65.33 131.3 65.66 133 66 C133 66.66 133 67.32 133 68 C133.66 68 134.32 68 135 68 C135 68.66 135 69.32 135 70 C136.65 70 138.3 70 140 70 C140.33 70.99 140.66 71.98 141 73 C142.65 73 144.3 73 146 73 C146 73.99 146 74.98 146 76 C146.66 76 147.32 76 148 76 C148 76.66 148 77.32 148 78 C149.98 78 151.96 78 154 78 C154 78.99 154 79.98 154 81 C154.763125 80.938125 155.52625 80.87625 156.3125 80.8125 C159 81 159 81 160.8125 82.375 C162 84 162 84 162 86 C163.65 86 165.3 86 167 86 C167 86.99 167 87.98 167 89 C168.65 89 170.3 89 172 89 C172 89.66 172 90.32 172 91 C172.99 91.33 173.98 91.66 175 92 C175 92.66 175 93.32 175 94 C176.65 94 178.3 94 180 94 C180 94.99 180 95.98 180 97 C181.65 97 183.3 97 185 97 C185 97.66 185 98.32 185 99 C185.99 99 186.98 99 188 99 C188 99.99 188 100.98 188 102 C270.5 102 353 102 438 102 C438 101.01 438 100.02 438 99 C438.99 99 439.98 99 441 99 C441 98.34 441 97.68 441 97 C442.65 97 444.3 97 446 97 C446 96.01 446 95.02 446 94 C447.65 94 449.3 94 451 94 C451 93.01 451 92.02 451 91 C451.99 91 452.98 91 454 91 C454 90.34 454 89.68 454 89 C455.65 89 457.3 89 459 89 C459 88.01 459 87.02 459 86 C460.65 86 462.3 86 464 86 C464 85.34 464 84.68 464 84 C465.1875 82.375 465.1875 82.375 467 81 C469.6875 80.8125 469.6875 80.8125 472 81 C472 80.01 472 79.02 472 78 C473.65 78 475.3 78 477 78 C477 77.34 477 76.68 477 76 C478.32 76 479.64 76 481 76 C481 75.34 481 74.68 481 74 C481.639375 73.896875 482.27875 73.79375 482.9375 73.6875 C483.618125 73.460625 484.29875 73.23375 485 73 C485.33 72.01 485.66 71.02 486 70 C487.32 70 488.64 70 490 70 C490 69.34 490 68.68 490 68 C491.98 68 493.96 68 496 68 C496 67.01 496 66.02 496 65 C496.66 65 497.32 65 498 65 C498 64.34 498 63.68 498 63 C499.65 63 501.3 63 503 63 C503 62.01 503 61.02 503 60 C504.98 60 506.96 60 509 60 C509 59.01 509 58.02 509 57 C509.66 57 510.32 57 511 57 C511 56.34 511 55.68 511 55 C512.65 55 514.3 55 516 55 C516.33 54.01 516.66 53.02 517 52 C518.65 52 520.3 52 522 52 C522 51.34 522 50.68 522 50 C522.66 50 523.32 50 524 50 C524.33 49.01 524.66 48.02 525 47 C526.65 47 528.3 47 530 47 C530 46.01 530 45.02 530 44 C531.65 44 533.3 44 535 44 C535 43.34 535 42.68 535 42 C536.65 42 538.3 42 540 42 C540 41.01 540 40.02 540 39 C540.99 39 541.98 39 543 39 C543 38.34 543 37.68 543 37 C544.65 37 546.3 37 548 37 C548 36.01 548 35.02 548 34 C549.65 34 551.3 34 553 34 C553 33.01 553 32.02 553 31 C554.65 31 556.3 31 558 31 C558 30.34 558 29.68 558 29 C558.99 29 559.98 29 561 29 C561 28.01 561 27.02 561 26 C562.65 26 564.3 26 566 26 C566 25.34 566 24.68 566 24 C568.475 23.505 568.475 23.505 571 23 C571 22.34 571 21.68 571 21 C571.99 21 572.98 21 574 21 C574 20.01 574 19.02 574 18 C575.65 18 577.3 18 579 18 C579 17.34 579 16.68 579 16 C580.65 16 582.3 16 584 16 C584 15.01 584 14.02 584 13 C585.98 13 587.96 13 590 13 C590 12.01 590 11.02 590 10 C590.66 10 591.32 10 592 10 C592 9.34 592 8.68 592 8 C593.65 8 595.3 8 597 8 C597 7.01 597 6.02 597 5 C598.98 5 600.96 5 603 5 C603 4.34 603 3.68 603 3 C604.65 3 606.3 3 608 3 C608 2.01 608 1.02 608 0 C612.95 0 617.9 0 623 0 C623 0.99 623 1.98 623 3 C624.98 3 626.96 3 629 3 C629 3.66 629 4.32 629 5 C629.66 5 630.32 5 631 5 C631 5.99 631 6.98 631 8 C632.65 8 634.3 8 636 8 C636 9.65 636 11.3 636 13 C636.99 13 637.98 13 639 13 C639 13.99 639 14.98 639 16 C639.99 16 640.98 16 642 16 C642 85.63 642 155.26 642 227 C678.97763735 219.19442731 678.97763735 219.19442731 715.95410156 211.38330078 C723.13623047 209.86889648 723.13623047 209.86889648 726.50775146 209.15866089 C728.84242093 208.66634786 731.17688098 208.173041 733.51116943 207.67892456 C737.06456532 206.92695804 740.61863102 206.17823345 744.17285156 205.43017578 C745.71007559 205.10370906 745.71007559 205.10370906 747.27835464 204.77064705 C776.25395806 198.69209393 776.25395806 198.69209393 787 205 C795.65605941 211.44935534 800.18351596 217.31502089 802.375 227.8125 C803.72546769 237.67463105 801.81156711 245.33356253 796.0703125 253.4921875 C790.02002183 260.82103016 783.54697047 263.37929051 774.49829102 265.40454102 C773.57646562 265.6171309 772.65464022 265.82972078 771.70488071 266.04875278 C761.54706455 268.3722508 751.35230681 270.52318913 741.15234375 272.65234375 C739.11945662 273.07896528 737.0866261 273.50585667 735.05384827 273.93299866 C729.75365401 275.04605663 724.45278669 276.15587302 719.1517334 277.26483154 C710.71530118 279.03039152 702.27999971 280.80135316 693.8445015 282.57136917 C690.80673826 283.20867693 687.76889473 283.845601 684.73104858 284.48251343 C669.81123463 287.61198387 654.90249381 290.78884851 640 294 C639.67 307.2 639.34 320.4 639 334 C643.2492334 333.97905273 647.4984668 333.95810547 651.87646484 333.93652344 C665.92606295 333.87020309 679.97566728 333.82584037 694.02538109 333.79275131 C702.54255549 333.77215747 711.05958121 333.74409795 719.57666016 333.69824219 C727.00325296 333.65827676 734.42973805 333.6325441 741.85643542 333.62364602 C745.78605213 333.61844762 749.71536076 333.60629656 753.64487839 333.57707977 C757.35000542 333.5497568 761.05469999 333.54158867 764.75991821 333.54756927 C766.75476625 333.54595884 768.74956812 333.52452493 770.74429321 333.50231934 C780.33085845 333.54593603 788.66435321 335.47804039 796.40234375 341.38671875 C802.92625594 347.97443448 806.27227304 356.65952797 806.375 365.8125 C806.26860349 372.13644262 805.32004357 376.6360546 802 382 C801.38125 383.04607422 801.38125 383.04607422 800.75 384.11328125 C796.16835794 391.02479243 789.75423065 395.28535324 781.6723938 397.06246948 C775.21310277 398.30384631 768.84644672 398.26492307 762.28857422 398.22705078 C760.93736276 398.22648542 759.58615068 398.22680566 758.23493958 398.22793579 C754.59716302 398.22850544 750.95952058 398.21681466 747.32177496 398.20278788 C743.50880472 398.19021519 739.69583079 398.18910489 735.88284302 398.18673706 C728.67599732 398.18054139 721.46921289 398.16415669 714.26239407 398.14403808 C706.051928 398.12161925 697.84145887 398.11067066 689.63096976 398.10064721 C672.7539384 398.07978859 655.87699136 398.0431365 639 398 C639 409.88 639 421.76 639 434 C641.8975708 434.26498291 644.7951416 434.52996582 647.78051758 434.80297852 C661.04746989 436.0503291 674.27789106 437.59763145 687.51171875 439.15234375 C688.78182108 439.30122103 690.05192341 439.4500983 691.36051369 439.60348701 C697.37497906 440.3087448 703.38922384 441.01582381 709.40312451 441.72588056 C716.28495004 442.53835016 723.16760862 443.34324335 730.05104798 444.14192194 C736.07210861 444.84109143 742.09196744 445.55015819 748.11145973 446.26269722 C750.65110033 446.56190561 753.19109582 446.8581183 755.73145103 447.15119743 C759.27734593 447.56101227 762.82172519 447.98216206 766.3659668 448.40600586 C767.40040924 448.52298828 768.43485168 448.6399707 769.50064087 448.76049805 C781.28864668 450.19775425 791.01320477 452.74405546 798.82421875 462.2109375 C804.58289046 470.38183731 805.79918035 478.13914571 805 488 C803.51419158 496.49612267 798.40214878 503.57312602 791.6875 508.875 C780.42386974 516.1410472 767.64180318 514.13543292 755.02294922 512.62304688 C753.76327835 512.47674332 752.50360748 512.33043976 751.20576477 512.17970276 C747.78229604 511.78195599 744.35969167 511.37718497 740.9372077 510.97106361 C737.34893273 510.54650931 733.75989116 510.12853644 730.17092896 509.70983887 C723.38855775 508.91758989 716.60688757 508.11949892 709.82545483 507.31926107 C702.09918082 506.40781988 694.37214004 505.50296358 686.64503074 504.59863567 C670.76249259 502.73970401 654.88103752 500.87171504 639 499 C639 509.89 639 520.78 639 532 C638.01 532 637.02 532 636 532 C636 532.99 636 533.98 636 535 C635.34 535 634.68 535 634 535 C634 536.65 634 538.3 634 540 C633.01 540 632.02 540 631 540 C631 540.99 631 541.98 631 543 C630.34 543 629.68 543 629 543 C629 543.66 629 544.32 629 545 C628.01 545 627.02 545 626 545 C626 545.99 626 546.98 626 548 C625.01 548 624.02 548 623 548 C623 548.66 623 549.32 623 550 C622.34 550 621.68 550 621 550 C621 550.99 621 551.98 621 553 C620.01 553 619.02 553 618 553 C618 553.99 618 554.98 618 556 C617.34 556 616.68 556 616 556 C616 556.66 616 557.32 616 558 C615.01 558 614.02 558 613 558 C613 558.99 613 559.98 613 561 C611.35 561 609.7 561 608 561 C608 561.66 608 562.32 608 563 C607.01 563 606.02 563 605 563 C605 563.99 605 564.98 605 566 C604.01 566 603.02 566 602 566 C602 566.66 602 567.32 602 568 C600.35 568.33 598.7 568.66 597 569 C597 569.66 597 570.32 597 571 C596.01 571 595.02 571 594 571 C593.67 571.99 593.34 572.98 593 574 C592.01 574.33 591.02 574.66 590 575 C589.67 575.66 589.34 576.32 589 577 C587.35 577 585.7 577 584 577 C584 577.66 584 578.32 584 579 C583.34 579 582.68 579 582 579 C581.67 579.99 581.34 580.98 581 582 C579.35 582 577.7 582 576 582 C576 582.66 576 583.32 576 584 C574.35 584 572.7 584 571 584 C571 584.99 571 585.98 571 587 C569.35 587 567.7 587 566 587 C565.67 587.99 565.34 588.98 565 590 C563.35 590 561.7 590 560 590 C560 590.66 560 591.32 560 592 C557.69 592 555.38 592 553 592 C553 592.99 553 593.98 553 595 C551.35 595 549.7 595 548 595 C548 595.66 548 596.32 548 597 C545.36 597 542.72 597 540 597 C540 597.99 540 598.98 540 600 C538.2984375 600.185625 538.2984375 600.185625 536.5625 600.375 C535.386875 600.58125 534.21125 600.7875 533 601 C532.67 601.66 532.34 602.32 532 603 C530.35 603 528.7 603 527 603 C527 603.66 527 604.32 527 605 C524.36 605 521.72 605 519 605 C519 605.99 519 606.98 519 608 C515.7 608 512.4 608 509 608 C509 608.66 509 609.32 509 610 C506.36 610 503.72 610 501 610 C501 610.99 501 611.98 501 613 C500.28972656 613.04898438 499.57945312 613.09796875 498.84765625 613.1484375 C497.92855469 613.22320313 497.00945313 613.29796875 496.0625 613.375 C495.14597656 613.44460938 494.22945312 613.51421875 493.28515625 613.5859375 C492.53105469 613.72257813 491.77695312 613.85921875 491 614 C490.67 614.66 490.34 615.32 490 616 C488.27954102 616.46801758 488.27954102 616.46801758 485.94140625 616.83203125 C481.37887031 617.66341951 476.96740929 618.81149641 472.52734375 620.13671875 C471.84976517 620.33800888 471.17218658 620.53929901 470.47407532 620.74668884 C469.0419691 621.1723782 467.60997017 621.59842864 466.17807007 622.02481079 C441.97011895 629.18475111 417.71163261 634.46535561 392.6875 637.8125 C391.95348969 637.91204987 391.21947937 638.01159973 390.46322632 638.11416626 C366.02454927 641.37410035 341.51058914 642.384066 316.875 642.3125 C315.59250366 642.31100952 314.31000732 642.30951904 312.98864746 642.3079834 C292.80446823 642.26598917 273.03295606 641.47404392 253 639 C251.67530333 638.84712511 250.35042867 638.69578561 249.02539062 638.54589844 C225.7119251 635.9027667 202.76118984 632.06184494 180.08813477 625.96728516 C174.06068722 624.37572939 168.22137048 623.42173065 162 623 C162 622.34 162 621.68 162 621 C158.37 621 154.74 621 151 621 C151 620.01 151 619.02 151 618 C146.71 618 142.42 618 138 618 C138 617.34 138 616.68 138 616 C134.7 616 131.4 616 128 616 C128 615.01 128 614.02 128 613 C124.37 613 120.74 613 117 613 C117 612.01 117 611.02 117 610 C113.7 610 110.4 610 107 610 C107 609.34 107 608.68 107 608 C104.36 608 101.72 608 99 608 C99 607.01 99 606.02 99 605 C96.36 605 93.72 605 91 605 C91 604.34 91 603.68 91 603 C88.69 603 86.38 603 84 603 C83.67 602.01 83.34 601.02 83 600 C80.69 600 78.38 600 76 600 C75.67 599.01 75.34 598.02 75 597 C73.35 597 71.7 597 70 597 C70 596.34 70 595.68 70 595 C68.35 595 66.7 595 65 595 C65 594.01 65 593.02 65 592 C63.35 592 61.7 592 60 592 C60 591.34 60 590.68 60 590 C58.35 590 56.7 590 55 590 C55 589.01 55 588.02 55 587 C53.02 587 51.04 587 49 587 C49 586.01 49 585.02 49 584 C47.35 584 45.7 584 44 584 C44 583.34 44 582.68 44 582 C42.35 582 40.7 582 39 582 C39 581.01 39 580.02 39 579 C37.35 579 35.7 579 34 579 C34 578.34 34 577.68 34 577 C33.01 576.67 32.02 576.34 31 576 C31 575.34 31 574.68 31 574 C29.35 574 27.7 574 26 574 C26 573.01 26 572.02 26 571 C25.01 571 24.02 571 23 571 C23 570.34 23 569.68 23 569 C21.35 569 19.7 569 18 569 C18 568.01 18 567.02 18 566 C17.01 566 16.02 566 15 566 C15 565.01 15 564.02 15 563 C14.34 563 13.68 563 13 563 C13 562.34 13 561.68 13 561 C11.35 561 9.7 561 8 561 C8 560.01 8 559.02 8 558 C7.01 558 6.02 558 5 558 C5 557.34 5 556.68 5 556 C4.01 556 3.02 556 2 556 C2 555.01 2 554.02 2 553 C1.34 553 0.68 553 0 553 C0 552.01 0 551.02 0 550 C-0.99 550 -1.98 550 -3 550 C-3 549.34 -3 548.68 -3 548 C-3.66 548 -4.32 548 -5 548 C-5 547.01 -5 546.02 -5 545 C-5.99 545 -6.98 545 -8 545 C-8 543.35 -8 541.7 -8 540 C-8.99 540 -9.98 540 -11 540 C-11 539.01 -11 538.02 -11 537 C-11.66 537 -12.32 537 -13 537 C-13 536.34 -13 535.68 -13 535 C-13.99 535 -14.98 535 -16 535 C-16 517.84 -16 500.68 -16 483 C-23.92 484.98 -23.92 484.98 -32 487 C-36.03286786 487.90438389 -40.06287884 488.79085926 -44.10668945 489.64135742 C-45.2032637 489.87442093 -46.29983795 490.10748444 -47.42964172 490.34761047 C-50.99019658 491.10337803 -54.55166203 491.85473431 -58.11328125 492.60546875 C-60.61998622 493.13536389 -63.12667435 493.66533868 -65.63334656 494.19538879 C-70.85805885 495.2993237 -76.0832821 496.40080025 -81.30883789 497.50073242 C-87.32113989 498.766355 -93.33193818 500.03894795 -99.34209281 501.3147251 C-105.17043265 502.55154089 -111.00024382 503.78131585 -116.8306179 505.00850868 C-119.29207471 505.52754895 -121.7531033 506.04862449 -124.21367836 506.57182884 C-127.65464347 507.3028476 -131.09721469 508.02578882 -134.5402832 508.74682617 C-136.04223236 509.06863358 -136.04223236 509.06863358 -137.57452393 509.39694214 C-150.3820455 512.05661903 -161.33515382 513.44766813 -172.875 506.1875 C-180.05008044 500.96925968 -184.42477906 494.40361556 -186.5390625 485.80859375 C-187.95582955 476.59960791 -185.90230095 468.05257859 -180.83203125 460.29296875 C-173.38266106 450.96934338 -163.37362661 448.08257327 -152.14794922 445.7668457 C-151.19344879 445.56467941 -150.23894836 445.36251312 -149.25552368 445.15422058 C-146.1064664 444.48878671 -142.95562232 443.8322619 -139.8046875 443.17578125 C-137.57533427 442.70653626 -135.34609853 442.23673283 -133.11697388 441.7664032 C-127.23087109 440.52603677 -121.34321709 439.29319417 -115.4552002 438.06195068 C-109.6085232 436.83805374 -103.76329942 435.60726095 -97.91796875 434.37695312 C-88.86503223 432.47237031 -79.81130938 430.57157883 -70.75683594 428.67431641 C-53.83528827 425.12854818 -36.91779269 421.56364299 -20 418 C-19.67 405.13 -19.34 392.26 -19 379 C-23.33487549 379.02094727 -27.66975098 379.04189453 -32.13598633 379.06347656 C-46.47295876 379.1298137 -60.80993731 379.17416639 -75.1470232 379.20724869 C-83.83792276 379.22783743 -92.52867649 379.25588711 -101.21948242 379.30175781 C-108.79807201 379.34173894 -116.37655593 379.3674596 -123.95524806 379.37635398 C-127.9648187 379.38154974 -131.97408717 379.39368376 -135.98356056 379.42292023 C-139.76502055 379.4502681 -143.5460567 379.45840639 -147.3276062 379.45243073 C-149.36162247 379.45403906 -151.39559361 379.4754597 -153.42948914 379.49768066 C-164.22636059 379.44961593 -173.29730699 377.56615294 -181.28125 369.92578125 C-188.35498048 361.99998778 -190.50413984 354.07288802 -190.3046875 343.53515625 C-189.48441224 334.01785994 -184.91067728 327.3881308 -178 321 C-169.28106777 314.02090005 -157.38662748 314.71418791 -146.82958984 314.77294922 C-145.42911792 314.77351452 -144.02864541 314.77319446 -142.62817383 314.77206421 C-138.85610604 314.77149432 -135.08416747 314.78318918 -131.3121295 314.79721212 C-127.3590229 314.80978062 -123.4059128 314.81089478 -119.45278931 314.81326294 C-111.98032491 314.81945982 -104.50791958 314.8358462 -97.0354811 314.85596192 C-88.52272299 314.87837693 -80.00996196 314.88932839 -71.49718165 314.89935279 C-53.99808089 314.92021417 -36.49906102 314.95686781 -19 315 C-19 303.12 -19 291.24 -19 279 C-23.62 278.67 -28.24 278.34 -33 278 C-37.39879519 277.54520313 -41.7888487 277.06958559 -46.18066406 276.55712891 C-48.03232178 276.34468285 -48.03232178 276.34468285 -49.92138672 276.12794495 C-53.26026467 275.74394723 -56.59879121 275.35716336 -59.9371233 274.96846437 C-62.03074673 274.72480259 -64.12445632 274.48189433 -66.21819305 274.23920822 C-72.79338411 273.47689694 -79.36828923 272.71218802 -85.94277406 271.94380915 C-93.48965817 271.06178787 -101.03741035 270.1877482 -108.58601594 269.32058585 C-114.45552441 268.64583545 -120.3241939 267.96408622 -126.19228148 267.27708948 C-129.68288395 266.86858071 -133.17375775 266.4629176 -136.66553497 266.06456375 C-140.5571988 265.62035143 -144.44707707 265.16160753 -148.33691406 264.70166016 C-149.47586121 264.57375595 -150.61480835 264.44585175 -151.78826904 264.31407166 C-164.04919901 262.83785799 -175.28655296 260.18848624 -183.375 250.1875 C-188.69898809 242.36419527 -190.04287936 234.36193999 -189 225 C-187.23549904 216.77675967 -183.4182389 210.44511579 -177 205 C-160.11166476 194.54174203 -140.10353113 199.79016511 -121.43023801 202.02893639 C-117.85558942 202.4556177 -114.27977733 202.87232276 -110.7040863 203.29016113 C-103.9570145 204.08009029 -97.21101029 204.87877435 -90.46535963 205.68073893 C-82.77551982 206.59451224 -75.08451887 207.49832184 -67.39341271 208.40136433 C-51.59430608 210.25662115 -35.79667733 212.12416418 -20 214 C-19.99576806 213.36868856 -19.99153612 212.73737713 -19.98717594 212.08693504 C-19.88350759 196.66839765 -19.77481874 181.24990483 -19.66066074 165.83144188 C-19.60557189 158.37494744 -19.55213227 150.91844823 -19.50268555 143.46191406 C-19.45954305 136.95670172 -19.41319369 130.45152114 -19.36312145 123.94635832 C-19.33675999 120.5074866 -19.3119174 117.06862019 -19.29092598 113.62971115 C-19.26658341 109.77441856 -19.23657355 105.91920681 -19.20532227 102.06396484 C-19.1995668 100.94545639 -19.19381134 99.82694794 -19.18788147 98.67454529 C-18.98046295 75.98046295 -18.98046295 75.98046295 -17 74 C-16.87669912 72.1903226 -16.82209817 70.37592163 -16.79467773 68.56225586 C-16.77473251 67.40112778 -16.75478729 66.23999969 -16.73423767 65.04368591 C-16.71752518 63.780168 -16.70081268 62.51665009 -16.68359375 61.21484375 C-16.6524221 59.28591026 -16.6524221 59.28591026 -16.62062073 57.31800842 C-16.56533824 53.89364096 -16.51595639 50.4692125 -16.46777344 47.04473877 C-16.41760335 43.55255686 -16.3618939 40.0604639 -16.30664062 36.56835938 C-16.1989836 29.71231667 -16.09755551 22.85619367 -16 16 C-15.01 16 -14.02 16 -13 16 C-13 14.02 -13 12.04 -13 10 C-12.34 10 -11.68 10 -11 10 C-11 9.34 -11 8.68 -11 8 C-10.01 8 -9.02 8 -8 8 C-8 7.01 -8 6.02 -8 5 C-7.01 5 -6.02 5 -5 5 C-5 4.34 -5 3.68 -5 3 C-3.35 3 -1.7 3 0 3 C0 2.01 0 1.02 0 0 Z " fill="#5800A9" transform="translate(192,197)"/>
</svg>
