<?xml version="1.0" encoding="utf-8"?>
<svg version="1.1" xmlns:xlink="http://www.w3.org/1999/xlink" width="23px" height="21px" xmlns="http://www.w3.org/2000/svg">
  <g transform="matrix(1 0 0 1 -43 -286 )">
    <path d="M 13.017538975501115 17.649338942307693  C 13.098645137342242 17.569411057692307  13.139198218262806 17.470552884615383  13.139198218262806 17.352764423076923  L 13.139198218262806 14.954927884615385  C 13.139198218262806 14.837139423076922  13.098645137342242 14.73828125  13.017538975501115 14.658353365384615  C 12.936432813659987 14.578425480769232  12.84038604305865 14.538461538461538  12.729398663697106 14.538461538461538  L 10.270601336302896 14.538461538461538  C 10.159613956941351 14.538461538461538  10.063567186340016 14.578425480769232  9.982461024498887 14.658353365384615  C 9.901354862657758 14.73828125  9.860801781737193 14.837139423076922  9.860801781737193 14.954927884615385  L 9.860801781737193 17.352764423076923  C 9.860801781737193 17.470552884615383  9.901354862657758 17.569411057692307  9.982461024498887 17.649338942307693  C 10.063567186340016 17.729266826923077  10.159613956941351 17.76923076923077  10.270601336302896 17.76923076923077  L 12.729398663697106 17.76923076923077  C 12.84038604305865 17.76923076923077  12.936432813659987 17.729266826923077  13.017538975501115 17.649338942307693  Z M 12.979120267260578 12.841045673076923  C 13.060226429101709 12.786358173076922  13.105048255382332 12.716947115384615  13.11358574610245 12.6328125  L 13.344097995545658 6.840144230769231  C 13.344097995545658 6.7391826923076925  13.301410541945064 6.659254807692306  13.216035634743875 6.600360576923077  C 13.105048255382334 6.507812499999998  13.002598366740909 6.461538461538462  12.908685968819599 6.461538461538462  L 10.091314031180401 6.461538461538462  C 9.997401633259097 6.461538461538462  9.89495174461767 6.507812499999998  9.783964365256125 6.600360576923077  C 9.698589458054938 6.659254807692306  9.655902004454342 6.747596153846151  9.655902004454342 6.865384615384614  L 9.873608017817372 12.6328125  C 9.873608017817372 12.716947115384615  9.916295471417968 12.786358173076922  10.001670378619153 12.841045673076923  C 10.087045285820343 12.89573317307692  10.189495174461767 12.923076923076923  10.309020044543429 12.923076923076923  L 12.678173719376392 12.923076923076923  C 12.797698589458056 12.923076923076923  12.89801410541945 12.89573317307692  12.979120267260578 12.841045673076923  Z M 12.332405345211582 0.2271634615384619  C 12.588530066815146 0.37860576923076905  12.789161098737939 0.5847355769230754  12.934298440979955 0.8455528846153857  L 22.76948775055679 18.614783653846153  C 23.068299925760954 19.14483173076923  23.05976243504083 19.674879807692307  22.743875278396438 20.204927884615387  C 22.598737936154418 20.448918269230766  22.400241276911657 20.642427884615387  22.148385300668153 20.78545673076923  C 21.896529324424648 20.928485576923077  21.62546399406088 21  21.335189309576837 21  L 1.6648106904231628 21  C 1.374536005939124 21  1.1034706755753527 20.928485576923077  0.8516146993318486 20.78545673076923  C 0.5997587230883444 20.642427884615387  0.40126206384558283 20.448918269230766  0.2561247216035635 20.204927884615387  C -0.05976243504083149 19.674879807692307  -0.06829992576095027 19.14483173076923  0.23051224944320714 18.614783653846153  L 10.065701559020045 0.8455528846153857  C 10.210838901262067 0.5847355769230754  10.411469933184856 0.37860576923076905  10.667594654788418 0.2271634615384619  C 10.923719376391983 0.07572115384615474  11.201187824795843 0  11.5 0  C 11.798812175204159 0  12.076280623608017 0.07572115384615474  12.332405345211582 0.2271634615384619  Z " fill-rule="nonzero" fill="#5225aa" stroke="none" transform="matrix(1 0 0 1 43 286 )" />
  </g>
</svg>