<?xml version="1.0" encoding="UTF-8"?>
<svg version="1.1" xmlns="http://www.w3.org/2000/svg" width="1000" height="643">
<path d="M0 0 C6.6 0 13.2 0 20 0 C20.33 0.99 20.66 1.98 21 3 C22.65 3 24.3 3 26 3 C26 3.66 26 4.32 26 5 C26.66 5 27.32 5 28 5 C28 5.99 28 6.98 28 8 C29.98 8 31.96 8 34 8 C34 8.66 34 9.32 34 10 C35.65 10.33 37.3 10.66 39 11 C39 11.66 39 12.32 39 13 C40.65 13 42.3 13 44 13 C44 13.99 44 14.98 44 16 C44.99 16 45.98 16 47 16 C47 16.66 47 17.32 47 18 C48.65 18 50.3 18 52 18 C52 18.99 52 19.98 52 21 C52.763125 20.938125 53.52625 20.87625 54.3125 20.8125 C57 21 57 21 58.8125 22.375 C60 24 60 24 60 26 C61.65 26 63.3 26 65 26 C65 26.99 65 27.98 65 29 C66.65 29 68.3 29 70 29 C70 29.66 70 30.32 70 31 C71.65 31 73.3 31 75 31 C75 31.99 75 32.98 75 34 C75.99 34 76.98 34 78 34 C78 34.99 78 35.98 78 37 C79.65 37 81.3 37 83 37 C83 37.66 83 38.32 83 39 C84.65 39 86.3 39 88 39 C88 39.99 88 40.98 88 42 C88.99 42 89.98 42 91 42 C91 42.66 91 43.32 91 44 C92.65 44 94.3 44 96 44 C96 44.99 96 45.98 96 47 C97.65 47 99.3 47 101 47 C101 47.99 101 48.98 101 50 C101.99 50 102.98 50 104 50 C104 50.66 104 51.32 104 52 C105.65 52 107.3 52 109 52 C109 52.99 109 53.98 109 55 C110.98 55 112.96 55 115 55 C115 55.66 115 56.32 115 57 C115.78375 57.309375 116.5675 57.61875 117.375 57.9375 C120 59 120 59 122 60 C122 60.99 122 61.98 122 63 C123.98 63 125.96 63 128 63 C128 63.66 128 64.32 128 65 C129.65 65.33 131.3 65.66 133 66 C133 66.66 133 67.32 133 68 C133.66 68 134.32 68 135 68 C135 68.66 135 69.32 135 70 C136.65 70 138.3 70 140 70 C140.33 70.99 140.66 71.98 141 73 C142.65 73 144.3 73 146 73 C146 73.99 146 74.98 146 76 C146.66 76 147.32 76 148 76 C148 76.66 148 77.32 148 78 C149.98 78 151.96 78 154 78 C154 78.99 154 79.98 154 81 C154.763125 80.938125 155.52625 80.87625 156.3125 80.8125 C159 81 159 81 160.8125 82.375 C162 84 162 84 162 86 C163.65 86 165.3 86 167 86 C167 86.99 167 87.98 167 89 C168.65 89 170.3 89 172 89 C172 89.66 172 90.32 172 91 C172.99 91.33 173.98 91.66 175 92 C175 92.66 175 93.32 175 94 C176.65 94 178.3 94 180 94 C180 94.99 180 95.98 180 97 C181.65 97 183.3 97 185 97 C185 97.66 185 98.32 185 99 C185.99 99 186.98 99 188 99 C188 99.99 188 100.98 188 102 C270.5 102 353 102 438 102 C438 101.01 438 100.02 438 99 C438.99 99 439.98 99 441 99 C441 98.34 441 97.68 441 97 C442.65 97 444.3 97 446 97 C446 96.01 446 95.02 446 94 C447.65 94 449.3 94 451 94 C451 93.01 451 92.02 451 91 C451.99 91 452.98 91 454 91 C454 90.34 454 89.68 454 89 C455.65 89 457.3 89 459 89 C459 88.01 459 87.02 459 86 C460.65 86 462.3 86 464 86 C464 85.34 464 84.68 464 84 C465.1875 82.375 465.1875 82.375 467 81 C469.6875 80.8125 469.6875 80.8125 472 81 C472 80.01 472 79.02 472 78 C473.65 78 475.3 78 477 78 C477 77.34 477 76.68 477 76 C478.32 76 479.64 76 481 76 C481 75.34 481 74.68 481 74 C481.639375 73.896875 482.27875 73.79375 482.9375 73.6875 C483.618125 73.460625 484.29875 73.23375 485 73 C485.33 72.01 485.66 71.02 486 70 C487.32 70 488.64 70 490 70 C490 69.34 490 68.68 490 68 C491.98 68 493.96 68 496 68 C496 67.01 496 66.02 496 65 C496.66 65 497.32 65 498 65 C498 64.34 498 63.68 498 63 C499.65 63 501.3 63 503 63 C503 62.01 503 61.02 503 60 C504.98 60 506.96 60 509 60 C509 59.01 509 58.02 509 57 C509.66 57 510.32 57 511 57 C511 56.34 511 55.68 511 55 C512.65 55 514.3 55 516 55 C516.33 54.01 516.66 53.02 517 52 C518.65 52 520.3 52 522 52 C522 51.34 522 50.68 522 50 C522.66 50 523.32 50 524 50 C524.33 49.01 524.66 48.02 525 47 C526.65 47 528.3 47 530 47 C530 46.01 530 45.02 530 44 C531.65 44 533.3 44 535 44 C535 43.34 535 42.68 535 42 C536.65 42 538.3 42 540 42 C540 41.01 540 40.02 540 39 C540.99 39 541.98 39 543 39 C543 38.34 543 37.68 543 37 C544.65 37 546.3 37 548 37 C548 36.01 548 35.02 548 34 C549.65 34 551.3 34 553 34 C553 33.01 553 32.02 553 31 C554.65 31 556.3 31 558 31 C558 30.34 558 29.68 558 29 C558.99 29 559.98 29 561 29 C561 28.01 561 27.02 561 26 C562.65 26 564.3 26 566 26 C566 25.34 566 24.68 566 24 C568.475 23.505 568.475 23.505 571 23 C571 22.34 571 21.68 571 21 C571.99 21 572.98 21 574 21 C574 20.01 574 19.02 574 18 C575.65 18 577.3 18 579 18 C579 17.34 579 16.68 579 16 C580.65 16 582.3 16 584 16 C584 15.01 584 14.02 584 13 C585.98 13 587.96 13 590 13 C590 12.01 590 11.02 590 10 C590.66 10 591.32 10 592 10 C592 9.34 592 8.68 592 8 C593.65 8 595.3 8 597 8 C597 7.01 597 6.02 597 5 C598.98 5 600.96 5 603 5 C603 4.34 603 3.68 603 3 C604.65 3 606.3 3 608 3 C608 2.01 608 1.02 608 0 C612.95 0 617.9 0 623 0 C623 0.99 623 1.98 623 3 C624.98 3 626.96 3 629 3 C629 3.66 629 4.32 629 5 C629.66 5 630.32 5 631 5 C631 5.99 631 6.98 631 8 C632.65 8 634.3 8 636 8 C636 9.65 636 11.3 636 13 C636.99 13 637.98 13 639 13 C639 13.99 639 14.98 639 16 C639.99 16 640.98 16 642 16 C642 85.63 642 155.26 642 227 C678.97763735 219.19442731 678.97763735 219.19442731 715.95410156 211.38330078 C723.13623047 209.86889648 723.13623047 209.86889648 726.50775146 209.15866089 C728.84242093 208.66634786 731.17688098 208.173041 733.51116943 207.67892456 C737.06456532 206.92695804 740.61863102 206.17823345 744.17285156 205.43017578 C745.71007559 205.10370906 745.71007559 205.10370906 747.27835464 204.77064705 C776.25395806 198.69209393 776.25395806 198.69209393 787 205 C795.65605941 211.44935534 800.18351596 217.31502089 802.375 227.8125 C803.72546769 237.67463105 801.81156711 245.33356253 796.0703125 253.4921875 C790.02002183 260.82103016 783.54697047 263.37929051 774.49829102 265.40454102 C773.57646562 265.6171309 772.65464022 265.82972078 771.70488071 266.04875278 C761.54706455 268.3722508 751.35230681 270.52318913 741.15234375 272.65234375 C739.11945662 273.07896528 737.0866261 273.50585667 735.05384827 273.93299866 C729.75365401 275.04605663 724.45278669 276.15587302 719.1517334 277.26483154 C710.71530118 279.03039152 702.27999971 280.80135316 693.8445015 282.57136917 C690.80673826 283.20867693 687.76889473 283.845601 684.73104858 284.48251343 C669.81123463 287.61198387 654.90249381 290.78884851 640 294 C639.67 307.2 639.34 320.4 639 334 C643.2492334 333.97905273 647.4984668 333.95810547 651.87646484 333.93652344 C665.92606295 333.87020309 679.97566728 333.82584037 694.02538109 333.79275131 C702.54255549 333.77215747 711.05958121 333.74409795 719.57666016 333.69824219 C727.00325296 333.65827676 734.42973805 333.6325441 741.85643542 333.62364602 C745.78605213 333.61844762 749.71536076 333.60629656 753.64487839 333.57707977 C757.35000542 333.5497568 761.05469999 333.54158867 764.75991821 333.54756927 C766.75476625 333.54595884 768.74956812 333.52452493 770.74429321 333.50231934 C780.33085845 333.54593603 788.66435321 335.47804039 796.40234375 341.38671875 C802.92625594 347.97443448 806.27227304 356.65952797 806.375 365.8125 C806.26860349 372.13644262 805.32004357 376.6360546 802 382 C801.38125 383.04607422 801.38125 383.04607422 800.75 384.11328125 C796.16835794 391.02479243 789.75423065 395.28535324 781.6723938 397.06246948 C775.21310277 398.30384631 768.84644672 398.26492307 762.28857422 398.22705078 C760.93736276 398.22648542 759.58615068 398.22680566 758.23493958 398.22793579 C754.59716302 398.22850544 750.95952058 398.21681466 747.32177496 398.20278788 C743.50880472 398.19021519 739.69583079 398.18910489 735.88284302 398.18673706 C728.67599732 398.18054139 721.46921289 398.16415669 714.26239407 398.14403808 C706.051928 398.12161925 697.84145887 398.11067066 689.63096976 398.10064721 C672.7539384 398.07978859 655.87699136 398.0431365 639 398 C639 409.88 639 421.76 639 434 C641.8975708 434.26498291 644.7951416 434.52996582 647.78051758 434.80297852 C661.04746989 436.0503291 674.27789106 437.59763145 687.51171875 439.15234375 C688.78182108 439.30122103 690.05192341 439.4500983 691.36051369 439.60348701 C697.37497906 440.3087448 703.38922384 441.01582381 709.40312451 441.72588056 C716.28495004 442.53835016 723.16760862 443.34324335 730.05104798 444.14192194 C736.07210861 444.84109143 742.09196744 445.55015819 748.11145973 446.26269722 C750.65110033 446.56190561 753.19109582 446.8581183 755.73145103 447.15119743 C759.27734593 447.56101227 762.82172519 447.98216206 766.3659668 448.40600586 C767.40040924 448.52298828 768.43485168 448.6399707 769.50064087 448.76049805 C781.28864668 450.19775425 791.01320477 452.74405546 798.82421875 462.2109375 C804.58289046 470.38183731 805.79918035 478.13914571 805 488 C803.51419158 496.49612267 798.40214878 503.57312602 791.6875 508.875 C780.42386974 516.1410472 767.64180318 514.13543292 755.02294922 512.62304688 C753.76327835 512.47674332 752.50360748 512.33043976 751.20576477 512.17970276 C747.78229604 511.78195599 744.35969167 511.37718497 740.9372077 510.97106361 C737.34893273 510.54650931 733.75989116 510.12853644 730.17092896 509.70983887 C723.38855775 508.91758989 716.60688757 508.11949892 709.82545483 507.31926107 C702.09918082 506.40781988 694.37214004 505.50296358 686.64503074 504.59863567 C670.76249259 502.73970401 654.88103752 500.87171504 639 499 C639 509.89 639 520.78 639 532 C638.01 532 637.02 532 636 532 C636 532.99 636 533.98 636 535 C635.34 535 634.68 535 634 535 C634 536.65 634 538.3 634 540 C633.01 540 632.02 540 631 540 C631 540.99 631 541.98 631 543 C630.34 543 629.68 543 629 543 C629 543.66 629 544.32 629 545 C628.01 545 627.02 545 626 545 C626 545.99 626 546.98 626 548 C625.01 548 624.02 548 623 548 C623 548.66 623 549.32 623 550 C622.34 550 621.68 550 621 550 C621 550.99 621 551.98 621 553 C620.01 553 619.02 553 618 553 C618 553.99 618 554.98 618 556 C617.34 556 616.68 556 616 556 C616 556.66 616 557.32 616 558 C615.01 558 614.02 558 613 558 C613 558.99 613 559.98 613 561 C611.35 561 609.7 561 608 561 C608 561.66 608 562.32 608 563 C607.01 563 606.02 563 605 563 C605 563.99 605 564.98 605 566 C604.01 566 603.02 566 602 566 C602 566.66 602 567.32 602 568 C600.35 568.33 598.7 568.66 597 569 C597 569.66 597 570.32 597 571 C596.01 571 595.02 571 594 571 C593.67 571.99 593.34 572.98 593 574 C592.01 574.33 591.02 574.66 590 575 C589.67 575.66 589.34 576.32 589 577 C587.35 577 585.7 577 584 577 C584 577.66 584 578.32 584 579 C583.34 579 582.68 579 582 579 C581.67 579.99 581.34 580.98 581 582 C579.35 582 577.7 582 576 582 C576 582.66 576 583.32 576 584 C574.35 584 572.7 584 571 584 C571 584.99 571 585.98 571 587 C569.35 587 567.7 587 566 587 C565.67 587.99 565.34 588.98 565 590 C563.35 590 561.7 590 560 590 C560 590.66 560 591.32 560 592 C557.69 592 555.38 592 553 592 C553 592.99 553 593.98 553 595 C551.35 595 549.7 595 548 595 C548 595.66 548 596.32 548 597 C545.36 597 542.72 597 540 597 C540 597.99 540 598.98 540 600 C538.2984375 600.185625 538.2984375 600.185625 536.5625 600.375 C535.386875 600.58125 534.21125 600.7875 533 601 C532.67 601.66 532.34 602.32 532 603 C530.35 603 528.7 603 527 603 C527 603.66 527 604.32 527 605 C524.36 605 521.72 605 519 605 C519 605.99 519 606.98 519 608 C515.7 608 512.4 608 509 608 C509 608.66 509 609.32 509 610 C506.36 610 503.72 610 501 610 C501 610.99 501 611.98 501 613 C500.28972656 613.04898438 499.57945312 613.09796875 498.84765625 613.1484375 C497.92855469 613.22320313 497.00945313 613.29796875 496.0625 613.375 C495.14597656 613.44460938 494.22945312 613.51421875 493.28515625 613.5859375 C492.53105469 613.72257813 491.77695312 613.85921875 491 614 C490.67 614.66 490.34 615.32 490 616 C488.27954102 616.46801758 488.27954102 616.46801758 485.94140625 616.83203125 C481.37887031 617.66341951 476.96740929 618.81149641 472.52734375 620.13671875 C471.84976517 620.33800888 471.17218658 620.53929901 470.47407532 620.74668884 C469.0419691 621.1723782 467.60997017 621.59842864 466.17807007 622.02481079 C441.97011895 629.18475111 417.71163261 634.46535561 392.6875 637.8125 C391.95348969 637.91204987 391.21947937 638.01159973 390.46322632 638.11416626 C366.02454927 641.37410035 341.51058914 642.384066 316.875 642.3125 C315.59250366 642.31100952 314.31000732 642.30951904 312.98864746 642.3079834 C292.80446823 642.26598917 273.03295606 641.47404392 253 639 C251.67530333 638.84712511 250.35042867 638.69578561 249.02539062 638.54589844 C225.7119251 635.9027667 202.76118984 632.06184494 180.08813477 625.96728516 C174.06068722 624.37572939 168.22137048 623.42173065 162 623 C162 622.34 162 621.68 162 621 C158.37 621 154.74 621 151 621 C151 620.01 151 619.02 151 618 C146.71 618 142.42 618 138 618 C138 617.34 138 616.68 138 616 C134.7 616 131.4 616 128 616 C128 615.01 128 614.02 128 613 C124.37 613 120.74 613 117 613 C117 612.01 117 611.02 117 610 C113.7 610 110.4 610 107 610 C107 609.34 107 608.68 107 608 C104.36 608 101.72 608 99 608 C99 607.01 99 606.02 99 605 C96.36 605 93.72 605 91 605 C91 604.34 91 603.68 91 603 C88.69 603 86.38 603 84 603 C83.67 602.01 83.34 601.02 83 600 C80.69 600 78.38 600 76 600 C75.67 599.01 75.34 598.02 75 597 C73.35 597 71.7 597 70 597 C70 596.34 70 595.68 70 595 C68.35 595 66.7 595 65 595 C65 594.01 65 593.02 65 592 C63.35 592 61.7 592 60 592 C60 591.34 60 590.68 60 590 C58.35 590 56.7 590 55 590 C55 589.01 55 588.02 55 587 C53.02 587 51.04 587 49 587 C49 586.01 49 585.02 49 584 C47.35 584 45.7 584 44 584 C44 583.34 44 582.68 44 582 C42.35 582 40.7 582 39 582 C39 581.01 39 580.02 39 579 C37.35 579 35.7 579 34 579 C34 578.34 34 577.68 34 577 C33.01 576.67 32.02 576.34 31 576 C31 575.34 31 574.68 31 574 C29.35 574 27.7 574 26 574 C26 573.01 26 572.02 26 571 C25.01 571 24.02 571 23 571 C23 570.34 23 569.68 23 569 C21.35 569 19.7 569 18 569 C18 568.01 18 567.02 18 566 C17.01 566 16.02 566 15 566 C15 565.01 15 564.02 15 563 C14.34 563 13.68 563 13 563 C13 562.34 13 561.68 13 561 C11.35 561 9.7 561 8 561 C8 560.01 8 559.02 8 558 C7.01 558 6.02 558 5 558 C5 557.34 5 556.68 5 556 C4.01 556 3.02 556 2 556 C2 555.01 2 554.02 2 553 C1.34 553 0.68 553 0 553 C0 552.01 0 551.02 0 550 C-0.99 550 -1.98 550 -3 550 C-3 549.34 -3 548.68 -3 548 C-3.66 548 -4.32 548 -5 548 C-5 547.01 -5 546.02 -5 545 C-5.99 545 -6.98 545 -8 545 C-8 543.35 -8 541.7 -8 540 C-8.99 540 -9.98 540 -11 540 C-11 539.01 -11 538.02 -11 537 C-11.66 537 -12.32 537 -13 537 C-13 536.34 -13 535.68 -13 535 C-13.99 535 -14.98 535 -16 535 C-16 517.84 -16 500.68 -16 483 C-23.92 484.98 -23.92 484.98 -32 487 C-36.03286786 487.90438389 -40.06287884 488.79085926 -44.10668945 489.64135742 C-45.2032637 489.87442093 -46.29983795 490.10748444 -47.42964172 490.34761047 C-50.99019658 491.10337803 -54.55166203 491.85473431 -58.11328125 492.60546875 C-60.61998622 493.13536389 -63.12667435 493.66533868 -65.63334656 494.19538879 C-70.85805885 495.2993237 -76.0832821 496.40080025 -81.30883789 497.50073242 C-87.32113989 498.766355 -93.33193818 500.03894795 -99.34209281 501.3147251 C-105.17043265 502.55154089 -111.00024382 503.78131585 -116.8306179 505.00850868 C-119.29207471 505.52754895 -121.7531033 506.04862449 -124.21367836 506.57182884 C-127.65464347 507.3028476 -131.09721469 508.02578882 -134.5402832 508.74682617 C-136.04223236 509.06863358 -136.04223236 509.06863358 -137.57452393 509.39694214 C-150.3820455 512.05661903 -161.33515382 513.44766813 -172.875 506.1875 C-180.05008044 500.96925968 -184.42477906 494.40361556 -186.5390625 485.80859375 C-187.95582955 476.59960791 -185.90230095 468.05257859 -180.83203125 460.29296875 C-173.38266106 450.96934338 -163.37362661 448.08257327 -152.14794922 445.7668457 C-151.19344879 445.56467941 -150.23894836 445.36251312 -149.25552368 445.15422058 C-146.1064664 444.48878671 -142.95562232 443.8322619 -139.8046875 443.17578125 C-137.57533427 442.70653626 -135.34609853 442.23673283 -133.11697388 441.7664032 C-127.23087109 440.52603677 -121.34321709 439.29319417 -115.4552002 438.06195068 C-109.6085232 436.83805374 -103.76329942 435.60726095 -97.91796875 434.37695312 C-88.86503223 432.47237031 -79.81130938 430.57157883 -70.75683594 428.67431641 C-53.83528827 425.12854818 -36.91779269 421.56364299 -20 418 C-19.67 405.13 -19.34 392.26 -19 379 C-23.33487549 379.02094727 -27.66975098 379.04189453 -32.13598633 379.06347656 C-46.47295876 379.1298137 -60.80993731 379.17416639 -75.1470232 379.20724869 C-83.83792276 379.22783743 -92.52867649 379.25588711 -101.21948242 379.30175781 C-108.79807201 379.34173894 -116.37655593 379.3674596 -123.95524806 379.37635398 C-127.9648187 379.38154974 -131.97408717 379.39368376 -135.98356056 379.42292023 C-139.76502055 379.4502681 -143.5460567 379.45840639 -147.3276062 379.45243073 C-149.36162247 379.45403906 -151.39559361 379.4754597 -153.42948914 379.49768066 C-164.22636059 379.44961593 -173.29730699 377.56615294 -181.28125 369.92578125 C-188.35498048 361.99998778 -190.50413984 354.07288802 -190.3046875 343.53515625 C-189.48441224 334.01785994 -184.91067728 327.3881308 -178 321 C-169.28106777 314.02090005 -157.38662748 314.71418791 -146.82958984 314.77294922 C-145.42911792 314.77351452 -144.02864541 314.77319446 -142.62817383 314.77206421 C-138.85610604 314.77149432 -135.08416747 314.78318918 -131.3121295 314.79721212 C-127.3590229 314.80978062 -123.4059128 314.81089478 -119.45278931 314.81326294 C-111.98032491 314.81945982 -104.50791958 314.8358462 -97.0354811 314.85596192 C-88.52272299 314.87837693 -80.00996196 314.88932839 -71.49718165 314.89935279 C-53.99808089 314.92021417 -36.49906102 314.95686781 -19 315 C-19 303.12 -19 291.24 -19 279 C-23.62 278.67 -28.24 278.34 -33 278 C-37.39879519 277.54520313 -41.7888487 277.06958559 -46.18066406 276.55712891 C-48.03232178 276.34468285 -48.03232178 276.34468285 -49.92138672 276.12794495 C-53.26026467 275.74394723 -56.59879121 275.35716336 -59.9371233 274.96846437 C-62.03074673 274.72480259 -64.12445632 274.48189433 -66.21819305 274.23920822 C-72.79338411 273.47689694 -79.36828923 272.71218802 -85.94277406 271.94380915 C-93.48965817 271.06178787 -101.03741035 270.1877482 -108.58601594 269.32058585 C-114.45552441 268.64583545 -120.3241939 267.96408622 -126.19228148 267.27708948 C-129.68288395 266.86858071 -133.17375775 266.4629176 -136.66553497 266.06456375 C-140.5571988 265.62035143 -144.44707707 265.16160753 -148.33691406 264.70166016 C-149.47586121 264.57375595 -150.61480835 264.44585175 -151.78826904 264.31407166 C-164.04919901 262.83785799 -175.28655296 260.18848624 -183.375 250.1875 C-188.69898809 242.36419527 -190.04287936 234.36193999 -189 225 C-187.23549904 216.77675967 -183.4182389 210.44511579 -177 205 C-160.11166476 194.54174203 -140.10353113 199.79016511 -121.43023801 202.02893639 C-117.85558942 202.4556177 -114.27977733 202.87232276 -110.7040863 203.29016113 C-103.9570145 204.08009029 -97.21101029 204.87877435 -90.46535963 205.68073893 C-82.77551982 206.59451224 -75.08451887 207.49832184 -67.39341271 208.40136433 C-51.59430608 210.25662115 -35.79667733 212.12416418 -20 214 C-19.99576806 213.36868856 -19.99153612 212.73737713 -19.98717594 212.08693504 C-19.88350759 196.66839765 -19.77481874 181.24990483 -19.66066074 165.83144188 C-19.60557189 158.37494744 -19.55213227 150.91844823 -19.50268555 143.46191406 C-19.45954305 136.95670172 -19.41319369 130.45152114 -19.36312145 123.94635832 C-19.33675999 120.5074866 -19.3119174 117.06862019 -19.29092598 113.62971115 C-19.26658341 109.77441856 -19.23657355 105.91920681 -19.20532227 102.06396484 C-19.1995668 100.94545639 -19.19381134 99.82694794 -19.18788147 98.67454529 C-18.98046295 75.98046295 -18.98046295 75.98046295 -17 74 C-16.87669912 72.1903226 -16.82209817 70.37592163 -16.79467773 68.56225586 C-16.77473251 67.40112778 -16.75478729 66.23999969 -16.73423767 65.04368591 C-16.71752518 63.780168 -16.70081268 62.51665009 -16.68359375 61.21484375 C-16.6524221 59.28591026 -16.6524221 59.28591026 -16.62062073 57.31800842 C-16.56533824 53.89364096 -16.51595639 50.4692125 -16.46777344 47.04473877 C-16.41760335 43.55255686 -16.3618939 40.0604639 -16.30664062 36.56835938 C-16.1989836 29.71231667 -16.09755551 22.85619367 -16 16 C-15.01 16 -14.02 16 -13 16 C-13 14.02 -13 12.04 -13 10 C-12.34 10 -11.68 10 -11 10 C-11 9.34 -11 8.68 -11 8 C-10.01 8 -9.02 8 -8 8 C-8 7.01 -8 6.02 -8 5 C-7.01 5 -6.02 5 -5 5 C-5 4.34 -5 3.68 -5 3 C-3.35 3 -1.7 3 0 3 C0 2.01 0 1.02 0 0 Z " fill="#5801AA" transform="translate(192,1)"/>
<path d="M0 0 C6.6 0 13.2 0 20 0 C20.495 1.485 20.495 1.485 21 3 C22.65 3 24.3 3 26 3 C26 3.66 26 4.32 26 5 C26.66 5 27.32 5 28 5 C28 5.99 28 6.98 28 8 C29.98 8 31.96 8 34 8 C34 8.66 34 9.32 34 10 C36.475 10.495 36.475 10.495 39 11 C39 11.66 39 12.32 39 13 C40.65 13 42.3 13 44 13 C44 13.99 44 14.98 44 16 C44.99 16 45.98 16 47 16 C47 16.66 47 17.32 47 18 C48.65 18 50.3 18 52 18 C52 18.99 52 19.98 52 21 C52.763125 20.938125 53.52625 20.87625 54.3125 20.8125 C57 21 57 21 58.8125 22.375 C60 24 60 24 60 26 C61.65 26 63.3 26 65 26 C65 26.99 65 27.98 65 29 C66.65 29 68.3 29 70 29 C70 29.66 70 30.32 70 31 C71.65 31 73.3 31 75 31 C75 31.99 75 32.98 75 34 C75.99 34 76.98 34 78 34 C78 34.99 78 35.98 78 37 C79.65 37 81.3 37 83 37 C83 37.66 83 38.32 83 39 C84.65 39 86.3 39 88 39 C88 39.99 88 40.98 88 42 C88.99 42 89.98 42 91 42 C91 42.66 91 43.32 91 44 C92.65 44 94.3 44 96 44 C96 44.99 96 45.98 96 47 C97.65 47 99.3 47 101 47 C101 47.99 101 48.98 101 50 C101.99 50 102.98 50 104 50 C104 50.66 104 51.32 104 52 C105.65 52 107.3 52 109 52 C109 52.99 109 53.98 109 55 C110.98 55 112.96 55 115 55 C115 55.66 115 56.32 115 57 C115.78375 57.309375 116.5675 57.61875 117.375 57.9375 C120 59 120 59 122 60 C122 60.99 122 61.98 122 63 C123.98 63 125.96 63 128 63 C128 63.66 128 64.32 128 65 C129.65 65.33 131.3 65.66 133 66 C133 66.66 133 67.32 133 68 C133.66 68 134.32 68 135 68 C135 68.66 135 69.32 135 70 C136.65 70 138.3 70 140 70 C140.33 70.99 140.66 71.98 141 73 C142.65 73 144.3 73 146 73 C146 73.99 146 74.98 146 76 C146.66 76 147.32 76 148 76 C148 76.66 148 77.32 148 78 C149.98 78 151.96 78 154 78 C154 78.99 154 79.98 154 81 C154.763125 80.938125 155.52625 80.87625 156.3125 80.8125 C159 81 159 81 160.8125 82.375 C162 84 162 84 162 86 C163.65 86 165.3 86 167 86 C167 86.99 167 87.98 167 89 C168.65 89 170.3 89 172 89 C172 89.66 172 90.32 172 91 C172.99 91.33 173.98 91.66 175 92 C175 92.66 175 93.32 175 94 C176.65 94 178.3 94 180 94 C180 94.99 180 95.98 180 97 C181.65 97 183.3 97 185 97 C185 97.66 185 98.32 185 99 C185.99 99 186.98 99 188 99 C188 99.99 188 100.98 188 102 C270.5 102 353 102 438 102 C438 101.01 438 100.02 438 99 C438.99 99 439.98 99 441 99 C441 98.34 441 97.68 441 97 C442.65 97 444.3 97 446 97 C446 96.01 446 95.02 446 94 C447.65 94 449.3 94 451 94 C451 93.01 451 92.02 451 91 C451.99 91 452.98 91 454 91 C454 90.34 454 89.68 454 89 C455.65 89 457.3 89 459 89 C459 88.01 459 87.02 459 86 C460.65 86 462.3 86 464 86 C464 85.34 464 84.68 464 84 C465.1875 82.375 465.1875 82.375 467 81 C469.6875 80.8125 469.6875 80.8125 472 81 C471.67 82.32 471.34 83.64 471 85 C469.35 85 467.7 85 466 85 C466 85.99 466 86.98 466 88 C460.25 91 460.25 91 458 91 C458 91.66 458 92.32 458 93 C456.35 93 454.7 93 453 93 C453 93.99 453 94.98 453 96 C451.58774074 96.67595315 450.16997095 97.34040059 448.75 98 C447.96109375 98.37125 447.1721875 98.7425 446.359375 99.125 C444 100 444 100 440 100 C439.67 101.32 439.34 102.64 439 104 C355.51 104 272.02 104 186 104 C185.67 103.01 185.34 102.02 185 101 C183.67203709 100.64587656 182.33783393 100.31478446 181 100 C180.54625 99.525625 180.0925 99.05125 179.625 98.5625 C177.37461998 96.39867306 174.95907532 95.85484398 172 95 C172 94.34 172 93.68 172 93 C171.401875 92.87625 170.80375 92.7525 170.1875 92.625 C168 92 168 92 165 90 C165 89.01 165 88.02 165 87 C163.35 87 161.7 87 160 87 C160 86.34 160 85.68 160 85 C159.01 84.9071875 159.01 84.9071875 158 84.8125 C153.8783325 83.69621505 150.34249498 81.66238434 147 79 C147 78.34 147 77.68 147 77 C146.278125 76.87625 145.55625 76.7525 144.8125 76.625 C140.08443541 75.57431898 136.83851025 73.87888269 133 71 C131.35202764 70.28837557 129.68834592 69.60968047 128 69 C128 68.01 128 67.02 128 66 C125.69 65.34 123.38 64.68 121 64 C121 63.01 121 62.02 121 61 C119.35 61 117.7 61 116 61 C116 60.34 116 59.68 116 59 C115.278125 58.855625 114.55625 58.71125 113.8125 58.5625 C112.4203125 58.2840625 112.4203125 58.2840625 111 58 C110.13375 57.87625 109.2675 57.7525 108.375 57.625 C105.68727388 56.91770365 104.63050902 56.23122287 103 54 C103 53.01 103 52.02 103 51 C102.2575 50.896875 101.515 50.79375 100.75 50.6875 C97.78921557 49.94730389 96.38028854 48.84280403 94 47 C91.85266073 46.29485154 91.85266073 46.29485154 90 46 C90 45.01 90 44.02 90 43 C88.35 42.67 86.7 42.34 85 42 C85 41.34 85 40.68 85 40 C84.236875 39.855625 83.47375 39.71125 82.6875 39.5625 C80 39 80 39 77 38 C77 37.01 77 36.02 77 35 C75.35 35 73.7 35 72 35 C72 34.01 72 33.02 72 32 C67.545 31.01 67.545 31.01 63 30 C63 29.01 63 28.02 63 27 C62.2575 26.87625 61.515 26.7525 60.75 26.625 C58.19858515 26.04513299 56.2732427 25.26291261 54 24 C54 23.34 54 22.68 54 22 C53.01 21.87625 53.01 21.87625 52 21.75 C47.99485908 20.74871477 44.640999 18.90718995 41 17 C40.030625 16.54625 39.06125 16.0925 38.0625 15.625 C34.60041949 13.78797769 31.45331536 11.64911397 28.24609375 9.40234375 C23.99756125 6.74978172 19.93397676 5.68846187 15 5 C15 4.01 15 3.02 15 2 C11.7 2 8.4 2 5 2 C5 2.99 5 3.98 5 5 C3.39125 5.2165625 3.39125 5.2165625 1.75 5.4375 C-0.91662949 5.83749442 -3.41399729 6.27591924 -6 7 C-6 7.66 -6 8.32 -6 9 C-7.32 9 -8.64 9 -10 9 C-10.12117187 9.69867188 -10.24234375 10.39734375 -10.3671875 11.1171875 C-10.61855469 12.48230469 -10.61855469 12.48230469 -10.875 13.875 C-11.03742188 14.77992187 -11.19984375 15.68484375 -11.3671875 16.6171875 C-12 19 -12 19 -14 21 C-14.32601643 23.62840525 -14.32601643 23.62840525 -14.30297852 26.76171875 C-14.31965576 27.99946045 -14.33633301 29.23720215 -14.35351562 30.51245117 C-14.36215716 31.90413302 -14.37061352 33.29581603 -14.37890625 34.6875 C-14.39491838 36.16708282 -14.41178918 37.64665656 -14.42944336 39.1262207 C-14.47570518 43.22048726 -14.50944901 47.31477824 -14.54118729 51.40917969 C-14.57699827 55.76244126 -14.62407791 60.115582 -14.66967773 64.46875 C-14.76007474 73.29826791 -14.83868998 82.12785893 -14.91370296 90.95751953 C-14.98469455 99.29462827 -15.05985606 107.63169342 -15.13671875 115.96875 C-15.44062362 148.97903536 -15.72791594 181.9894374 -16 215 C-16.99 215 -17.98 215 -19 215 C-19.02344302 198.8134326 -19.04103488 182.62687077 -19.05181217 166.44029045 C-19.05695103 158.92324122 -19.06394737 151.40620258 -19.07543945 143.88916016 C-19.08546038 137.33123712 -19.09187092 130.77332176 -19.09408849 124.21539128 C-19.09538311 120.74855353 -19.09838876 117.28173773 -19.10573006 113.81490707 C-19.11389173 109.92852135 -19.11398641 106.04215639 -19.11352539 102.15576172 C-19.11712067 101.02790253 -19.12071594 99.90004333 -19.12442017 98.73800659 C-19.09558479 76.09558479 -19.09558479 76.09558479 -17 74 C-16.87669912 72.1903226 -16.82209817 70.37592163 -16.79467773 68.56225586 C-16.77473251 67.40112778 -16.75478729 66.23999969 -16.73423767 65.04368591 C-16.71752518 63.780168 -16.70081268 62.51665009 -16.68359375 61.21484375 C-16.66281265 59.92888809 -16.64203156 58.64293243 -16.62062073 57.31800842 C-16.56533824 53.89364096 -16.51595639 50.4692125 -16.46777344 47.04473877 C-16.41760335 43.55255686 -16.3618939 40.0604639 -16.30664062 36.56835938 C-16.1989836 29.71231667 -16.09755551 22.85619367 -16 16 C-15.01 16 -14.02 16 -13 16 C-13 14.02 -13 12.04 -13 10 C-12.34 10 -11.68 10 -11 10 C-11 9.34 -11 8.68 -11 8 C-10.01 8 -9.02 8 -8 8 C-8 7.01 -8 6.02 -8 5 C-7.01 5 -6.02 5 -5 5 C-5 4.34 -5 3.68 -5 3 C-3.35 3 -1.7 3 0 3 C0 2.01 0 1.02 0 0 Z " fill="#D7C2EA" transform="translate(192,1)"/>
<path d="M0 0 C6.6 0 13.2 0 20 0 C20.495 1.485 20.495 1.485 21 3 C22.65 3 24.3 3 26 3 C26 3.66 26 4.32 26 5 C26.66 5 27.32 5 28 5 C28 5.99 28 6.98 28 8 C29.98 8 31.96 8 34 8 C34 8.66 34 9.32 34 10 C36.475 10.495 36.475 10.495 39 11 C39 11.66 39 12.32 39 13 C40.65 13 42.3 13 44 13 C44 13.99 44 14.98 44 16 C44.99 16 45.98 16 47 16 C47 16.66 47 17.32 47 18 C48.65 18 50.3 18 52 18 C52 18.99 52 19.98 52 21 C52.763125 20.938125 53.52625 20.87625 54.3125 20.8125 C57 21 57 21 58.8125 22.375 C60 24 60 24 60 26 C61.65 26 63.3 26 65 26 C65 26.99 65 27.98 65 29 C66.65 29 68.3 29 70 29 C70 29.66 70 30.32 70 31 C71.65 31 73.3 31 75 31 C75 31.99 75 32.98 75 34 C75.99 34 76.98 34 78 34 C78 34.99 78 35.98 78 37 C79.65 37 81.3 37 83 37 C83 37.66 83 38.32 83 39 C84.65 39 86.3 39 88 39 C88 39.99 88 40.98 88 42 C88.99 42 89.98 42 91 42 C91 42.66 91 43.32 91 44 C92.65 44 94.3 44 96 44 C96 44.99 96 45.98 96 47 C97.65 47 99.3 47 101 47 C101 47.99 101 48.98 101 50 C97.08406554 49.21681311 93.63593365 47.60820142 90 46 C90 45.01 90 44.02 90 43 C88.35 42.67 86.7 42.34 85 42 C85 41.34 85 40.68 85 40 C84.236875 39.855625 83.47375 39.71125 82.6875 39.5625 C80 39 80 39 77 38 C77 37.01 77 36.02 77 35 C75.35 35 73.7 35 72 35 C72 34.01 72 33.02 72 32 C67.545 31.01 67.545 31.01 63 30 C63 29.01 63 28.02 63 27 C62.2575 26.87625 61.515 26.7525 60.75 26.625 C58.19858515 26.04513299 56.2732427 25.26291261 54 24 C54 23.34 54 22.68 54 22 C53.01 21.87625 53.01 21.87625 52 21.75 C47.99485908 20.74871477 44.640999 18.90718995 41 17 C40.030625 16.54625 39.06125 16.0925 38.0625 15.625 C34.60041949 13.78797769 31.45331536 11.64911397 28.24609375 9.40234375 C23.99756125 6.74978172 19.93397676 5.68846187 15 5 C15 4.01 15 3.02 15 2 C11.7 2 8.4 2 5 2 C5 2.99 5 3.98 5 5 C3.39125 5.2165625 3.39125 5.2165625 1.75 5.4375 C-0.91662949 5.83749442 -3.41399729 6.27591924 -6 7 C-6 7.66 -6 8.32 -6 9 C-7.32 9 -8.64 9 -10 9 C-10.12117187 9.69867188 -10.24234375 10.39734375 -10.3671875 11.1171875 C-10.61855469 12.48230469 -10.61855469 12.48230469 -10.875 13.875 C-11.03742188 14.77992187 -11.19984375 15.68484375 -11.3671875 16.6171875 C-12 19 -12 19 -14 21 C-14.32601643 23.62840525 -14.32601643 23.62840525 -14.30297852 26.76171875 C-14.31965576 27.99946045 -14.33633301 29.23720215 -14.35351562 30.51245117 C-14.36215716 31.90413302 -14.37061352 33.29581603 -14.37890625 34.6875 C-14.39491838 36.16708282 -14.41178918 37.64665656 -14.42944336 39.1262207 C-14.47570518 43.22048726 -14.50944901 47.31477824 -14.54118729 51.40917969 C-14.57699827 55.76244126 -14.62407791 60.115582 -14.66967773 64.46875 C-14.76007474 73.29826791 -14.83868998 82.12785893 -14.91370296 90.95751953 C-14.98469455 99.29462827 -15.05985606 107.63169342 -15.13671875 115.96875 C-15.44062362 148.97903536 -15.72791594 181.9894374 -16 215 C-16.99 215 -17.98 215 -19 215 C-19.02344302 198.8134326 -19.04103488 182.62687077 -19.05181217 166.44029045 C-19.05695103 158.92324122 -19.06394737 151.40620258 -19.07543945 143.88916016 C-19.08546038 137.33123712 -19.09187092 130.77332176 -19.09408849 124.21539128 C-19.09538311 120.74855353 -19.09838876 117.28173773 -19.10573006 113.81490707 C-19.11389173 109.92852135 -19.11398641 106.04215639 -19.11352539 102.15576172 C-19.11712067 101.02790253 -19.12071594 99.90004333 -19.12442017 98.73800659 C-19.09558479 76.09558479 -19.09558479 76.09558479 -17 74 C-16.87669912 72.1903226 -16.82209817 70.37592163 -16.79467773 68.56225586 C-16.77473251 67.40112778 -16.75478729 66.23999969 -16.73423767 65.04368591 C-16.71752518 63.780168 -16.70081268 62.51665009 -16.68359375 61.21484375 C-16.66281265 59.92888809 -16.64203156 58.64293243 -16.62062073 57.31800842 C-16.56533824 53.89364096 -16.51595639 50.4692125 -16.46777344 47.04473877 C-16.41760335 43.55255686 -16.3618939 40.0604639 -16.30664062 36.56835938 C-16.1989836 29.71231667 -16.09755551 22.85619367 -16 16 C-15.01 16 -14.02 16 -13 16 C-13 14.02 -13 12.04 -13 10 C-12.34 10 -11.68 10 -11 10 C-11 9.34 -11 8.68 -11 8 C-10.01 8 -9.02 8 -8 8 C-8 7.01 -8 6.02 -8 5 C-7.01 5 -6.02 5 -5 5 C-5 4.34 -5 3.68 -5 3 C-3.35 3 -1.7 3 0 3 C0 2.01 0 1.02 0 0 Z " fill="#DDCBED" transform="translate(192,1)"/>
<path d="M0 0 C1.65 0 3.3 0 5 0 C5 1.65 5 3.3 5 5 C5.99 5 6.98 5 8 5 C8 5.99 8 6.98 8 8 C8.99 8 9.98 8 11 8 C11.04669295 35.03347002 11.08197557 62.06693401 11.10362434 89.10043621 C11.11394281 101.65217625 11.12801406 114.20389126 11.15087891 126.75561523 C11.1707953 137.69397794 11.18371229 148.63232252 11.18817699 159.57070285 C11.19078733 165.36402398 11.19693466 171.15729324 11.21146011 176.95059776 C11.22501634 182.40140498 11.2292266 187.85213887 11.22621536 193.30296135 C11.2267664 195.30527393 11.23075547 197.30758891 11.23841095 199.30988693 C11.24834147 202.04076287 11.24597575 204.77136086 11.24050903 207.50224304 C11.24633472 208.29699608 11.2521604 209.09174912 11.25816262 209.91058558 C11.23572937 214.04841984 10.86169003 217.27859733 9 221 C8.34 221 7.68 221 7 221 C7.00276538 219.91440607 7.00553076 218.82881214 7.00837994 217.71032143 C7.07489364 191.33045702 7.12423682 164.95060345 7.15543652 138.57067299 C7.17092437 125.81368663 7.19205044 113.05675556 7.22631836 100.29980469 C7.25616209 89.18457961 7.27556103 78.06939456 7.28226548 66.95413053 C7.28618628 61.06530324 7.29544034 55.17659051 7.31719017 49.28779984 C7.33747599 43.75079698 7.34384989 38.21395642 7.33932304 32.67691994 C7.3401518 30.63947863 7.34616428 28.60203217 7.35761642 26.56462288 C7.37243698 23.79317418 7.36899209 21.02234665 7.36076355 18.25088501 C7.36950207 17.4357206 7.3782406 16.62055619 7.38724393 15.78068984 C7.40304239 13.31917791 7.40304239 13.31917791 7 10 C6.01 9.34 5.02 8.68 4 8 C4 6.68 4 5.36 4 4 C3.01 4 2.02 4 1 4 C0.67 2.68 0.34 1.36 0 0 Z " fill="#B690DA" transform="translate(823,9)"/>
<path d="M0 0 C0.99 0 1.98 0 3 0 C3.00364563 0.58802399 3.00729126 1.17604797 3.01104736 1.78189087 C3.05292972 7.91440031 3.12231547 14.04616533 3.20751953 20.17822266 C3.23570652 22.46525621 3.25693231 24.75238677 3.27099609 27.03955078 C3.29245638 30.33155906 3.33912471 33.62240378 3.390625 36.9140625 C3.39185364 37.93303619 3.39308228 38.95200989 3.39434814 40.00186157 C3.51909872 46.07876918 4.24677937 49.22767442 8 54 C8 54.99 8 55.98 8 57 C8.66 57 9.32 57 10 57 C10 57.99 10 58.98 10 60 C10.61875 60.0825 11.2375 60.165 11.875 60.25 C14 61 14 61 15.0625 63 C15.5265625 63.99 15.5265625 63.99 16 65 C17.485 65.495 17.485 65.495 19 66 C19 66.66 19 67.32 19 68 C19.53625 68.226875 20.0725 68.45375 20.625 68.6875 C23.82460161 70.45570089 26.29037223 72.53670203 29 75 C29 75.66 29 76.32 29 77 C29.99 77 30.98 77 32 77 C32 77.99 32 78.98 32 80 C32.66 80 33.32 80 34 80 C34.33 80.66 34.66 81.32 35 82 C36.82190269 83.09712081 38.68239155 84.13091967 40.5625 85.125 C41.57441406 85.66382813 42.58632812 86.20265625 43.62890625 86.7578125 C44.41136719 87.16773438 45.19382813 87.57765625 46 88 C46 88.66 46 89.32 46 90 C46.9075 89.95875 47.815 89.9175 48.75 89.875 C51.8782046 89.99531556 53.38614006 90.3914708 56 92 C56 92.99 56 93.98 56 95 C56.99 95 57.98 95 59 95 C59.33 95.66 59.66 96.32 60 97 C60.99 97.33 61.98 97.66 63 98 C63.33 98.66 63.66 99.32 64 100 C68.2719222 103.07044408 73.02734582 104.47245264 78 106 C78 106.99 78 107.98 78 109 C79.0209375 108.9071875 79.0209375 108.9071875 80.0625 108.8125 C83.91936125 109.05868263 86.51079594 110.35802162 90 112 C90 112.66 90 113.32 90 114 C92.31 114 94.62 114 97 114 C97 114.99 97 115.98 97 117 C97.969375 116.979375 98.93875 116.95875 99.9375 116.9375 C103 117 103 117 104 118 C106.32817964 118.36760731 108.6618385 118.70241581 111 119 C111 119.99 111 120.98 111 122 C112.27875 121.95875 113.5575 121.9175 114.875 121.875 C117.0546875 121.8046875 117.0546875 121.8046875 119 122 C119.66 122.66 120.32 123.32 121 124 C123.32817964 124.36760731 125.6618385 124.70241581 128 125 C128.33 125.33 128.66 125.66 129 126 C130.32781878 126.20604085 131.66295895 126.3662959 133 126.5 C136.88888889 126.88888889 136.88888889 126.88888889 138 128 C140.58022142 128.28221172 143.16030185 128.44820197 145.75 128.62109375 C146.4925 128.74613281 147.235 128.87117187 148 129 C148.33 129.66 148.66 130.32 149 131 C151.09341518 131.4290258 151.09341518 131.4290258 153.5 131.5625 C157.90394511 131.90394511 157.90394511 131.90394511 159 133 C161.7692064 133.53670287 164.54945085 133.9648874 167.3359375 134.40234375 C170 135 170 135 173 137 C174.65391846 137.39171753 176.32345271 137.72057545 178 138 C181.46159235 138.57693206 183.00129727 139.00086485 186 141 C183.69 141 181.38 141 179 141 C179 140.34 179 139.68 179 139 C175.37 139 171.74 139 168 139 C168 138.01 168 137.02 168 136 C163.71 136 159.42 136 155 136 C155 135.34 155 134.68 155 134 C151.7 134 148.4 134 145 134 C145 133.01 145 132.02 145 131 C141.37 131 137.74 131 134 131 C134 130.01 134 129.02 134 128 C130.7 128 127.4 128 124 128 C124 127.34 124 126.68 124 126 C121.36 126 118.72 126 116 126 C116 125.01 116 124.02 116 123 C113.36 123 110.72 123 108 123 C108 122.34 108 121.68 108 121 C105.69 121 103.38 121 101 121 C100.67 120.01 100.34 119.02 100 118 C97.69 118 95.38 118 93 118 C92.67 117.01 92.34 116.02 92 115 C90.35 115 88.7 115 87 115 C87 114.34 87 113.68 87 113 C85.35 113 83.7 113 82 113 C82 112.01 82 111.02 82 110 C80.35 110 78.7 110 77 110 C77 109.34 77 108.68 77 108 C75.35 108 73.7 108 72 108 C72 107.01 72 106.02 72 105 C70.02 105 68.04 105 66 105 C66 104.01 66 103.02 66 102 C64.35 102 62.7 102 61 102 C61 101.34 61 100.68 61 100 C59.35 100 57.7 100 56 100 C56 99.01 56 98.02 56 97 C54.35 97 52.7 97 51 97 C51 96.34 51 95.68 51 95 C50.01 94.67 49.02 94.34 48 94 C48 93.34 48 92.68 48 92 C46.35 92 44.7 92 43 92 C43 91.01 43 90.02 43 89 C42.01 89 41.02 89 40 89 C40 88.34 40 87.68 40 87 C38.35 87 36.7 87 35 87 C35 86.01 35 85.02 35 84 C34.01 84 33.02 84 32 84 C32 83.01 32 82.02 32 81 C31.34 81 30.68 81 30 81 C30 80.34 30 79.68 30 79 C28.35 79 26.7 79 25 79 C25 78.01 25 77.02 25 76 C24.01 76 23.02 76 22 76 C22 75.34 22 74.68 22 74 C21.01 74 20.02 74 19 74 C19 73.01 19 72.02 19 71 C18.34 71 17.68 71 17 71 C17 70.01 17 69.02 17 68 C16.01 68 15.02 68 14 68 C14 67.34 14 66.68 14 66 C13.34 66 12.68 66 12 66 C12 65.01 12 64.02 12 63 C11.01 63 10.02 63 9 63 C9 61.35 9 59.7 9 58 C8.01 58 7.02 58 6 58 C6 57.01 6 56.02 6 55 C5.34 55 4.68 55 4 55 C4 54.34 4 53.68 4 53 C3.01 53 2.02 53 1 53 C0.67 35.51 0.34 18.02 0 0 Z " fill="#D5C0EA" transform="translate(175,483)"/>
<path d="M0 0 C-0.33 1.32 -0.66 2.64 -1 4 C-2.65 4 -4.3 4 -6 4 C-6 4.99 -6 5.98 -6 7 C-11.75 10 -11.75 10 -14 10 C-14 10.66 -14 11.32 -14 12 C-15.65 12 -17.3 12 -19 12 C-19 12.99 -19 13.98 -19 15 C-20.41225926 15.67595315 -21.83002905 16.34040059 -23.25 17 C-24.03890625 17.37125 -24.8278125 17.7425 -25.640625 18.125 C-28 19 -28 19 -32 19 C-32.33 20.32 -32.66 21.64 -33 23 C-116.49 23 -199.98 23 -286 23 C-286.33 22.01 -286.66 21.02 -287 20 C-288.32303717 19.6278958 -289.65737935 19.29369827 -291 19 C-291.33 18.34 -291.66 17.68 -292 17 C-289.69 17.66 -287.38 18.32 -285 19 C-285 19.99 -285 20.98 -285 22 C-202.17 21.67 -119.34 21.34 -34 21 C-34 20.01 -34 19.02 -34 18 C-33.01 18 -32.02 18 -31 18 C-31 17.34 -31 16.68 -31 16 C-29.35 16 -27.7 16 -26 16 C-26 15.01 -26 14.02 -26 13 C-24.35 13 -22.7 13 -21 13 C-21 12.01 -21 11.02 -21 10 C-20.01 10 -19.02 10 -18 10 C-18 9.34 -18 8.68 -18 8 C-16.35 8 -14.7 8 -13 8 C-13 7.01 -13 6.02 -13 5 C-11.35 5 -9.7 5 -8 5 C-8 4.34 -8 3.68 -8 3 C-5.65966534 -0.20256322 -3.8395009 -0.31131088 0 0 Z " fill="#A373D0" transform="translate(664,82)"/>
<path d="M0 0 C0.66 0.33 1.32 0.66 2 1 C1.690625 1.495 1.38125 1.99 1.0625 2.5 C-0.41644382 5.97986781 -0.62402851 9.24028509 -1 13 C-1.99 13.33 -2.98 13.66 -4 14 C-4 77.69 -4 141.38 -4 207 C-5.65 207 -7.3 207 -9 207 C-8.01 206.67 -7.02 206.34 -6 206 C-6.00222061 204.74944824 -6.00444122 203.49889648 -6.00672913 202.21044922 C-6.18988769 95.54641464 -6.18988769 95.54641464 -5.65256882 47.57519531 C-5.62496536 44.99676383 -5.60117404 42.41832206 -5.57839966 39.83984375 C-5.54254369 35.85072558 -5.49667567 31.86185898 -5.44199944 27.87295532 C-5.42360936 26.43433374 -5.40840463 24.99566733 -5.39663887 23.55697632 C-5.38001322 21.62512131 -5.34984937 19.69339654 -5.31884766 17.76171875 C-5.30552399 16.68881592 -5.29220032 15.61591309 -5.2784729 14.51049805 C-5 12 -5 12 -3 10 C-2.2833793 7.68152126 -1.61757973 5.34680297 -1 3 C-0.67 2.01 -0.34 1.02 0 0 Z " fill="#9C68CC" transform="translate(182,10)"/>
<path d="M0 0 C0.99 0 1.98 0 3 0 C3.02334124 27.05074728 3.04098521 54.10149306 3.05181217 81.15224838 C3.05697252 93.7118539 3.06401026 106.27145318 3.07543945 118.83105469 C3.08539425 129.77563361 3.09185533 140.72020802 3.09408849 151.66479135 C3.09539424 157.46197587 3.09847157 163.25914744 3.10573006 169.05632782 C3.11250279 174.50957973 3.11461439 179.96281332 3.11310768 185.41606903 C3.11338344 187.42041117 3.11538115 189.4247539 3.11920547 191.42909241 C3.12416224 194.16025017 3.12299089 196.89133827 3.12025452 199.62249756 C3.12316736 200.42016344 3.1260802 201.21782932 3.12908131 202.03966689 C3.11958443 205.5335865 2.93695704 208.63856792 2 212 C1.34 212 0.68 212 0 212 C-0.02575311 206.69604813 -0.04332348 201.39213648 -0.05493164 196.08813477 C-0.0597966 194.30394862 -0.06648057 192.51976599 -0.07543945 190.7355957 C-0.12432462 180.70838495 -0.04222296 170.69704915 0.2883482 160.67456627 C1.25828848 131.15665866 1.15226545 101.63310568 1.12856847 72.1030193 C1.12419156 65.99655653 1.12735683 59.89011412 1.1321975 53.7836526 C1.1367249 47.83132975 1.13738366 41.87901573 1.13475883 35.92669171 C1.1332052 32.39819331 1.13297896 28.86970882 1.13629532 25.34121132 C1.13970347 21.44922334 1.13499123 17.55726918 1.12939453 13.6652832 C1.13141876 12.50565567 1.13344299 11.34602814 1.13552856 10.15126038 C1.13270874 9.09972778 1.12988892 8.04819519 1.12698364 6.96479797 C1.12660662 6.0486588 1.12622959 5.13251963 1.12584114 4.18861866 C1.14200654 1.95473539 1.14200654 1.95473539 0 0 Z " fill="#F4EEF9" transform="translate(831,17)"/>
<path d="M0 0 C2.64 0 5.28 0 8 0 C8 12.54 8 25.08 8 38 C-39.85 38 -87.7 38 -137 38 C-137 37.67 -137 37.34 -137 37 C-90.14 37 -43.28 37 5 37 C5 25.12 5 13.24 5 1 C3.35 1 1.7 1 0 1 C0 0.67 0 0.34 0 0 Z " fill="#D5BFEA" transform="translate(168,279)"/>
<path d="M0 0 C0.99 0 1.98 0 3 0 C3 0.66 3 1.32 3 2 C2.34 2 1.68 2 1 2 C1 3.65 1 5.3 1 7 C0.01 7 -0.98 7 -2 7 C-2 7.99 -2 8.98 -2 10 C-2.66 10 -3.32 10 -4 10 C-4 10.66 -4 11.32 -4 12 C-4.99 12 -5.98 12 -7 12 C-7 12.99 -7 13.98 -7 15 C-7.99 15 -8.98 15 -10 15 C-10 15.66 -10 16.32 -10 17 C-10.66 17 -11.32 17 -12 17 C-12 17.99 -12 18.98 -12 20 C-12.99 20 -13.98 20 -15 20 C-15 20.99 -15 21.98 -15 23 C-15.66 23 -16.32 23 -17 23 C-17 23.66 -17 24.32 -17 25 C-17.99 25 -18.98 25 -20 25 C-20 25.99 -20 26.98 -20 28 C-21.65 28 -23.3 28 -25 28 C-25 28.66 -25 29.32 -25 30 C-25.99 30 -26.98 30 -28 30 C-28 30.99 -28 31.98 -28 33 C-28.99 33 -29.98 33 -31 33 C-31 33.66 -31 34.32 -31 35 C-33.475 35.495 -33.475 35.495 -36 36 C-36 36.66 -36 37.32 -36 38 C-36.99 38 -37.98 38 -39 38 C-39.33 38.99 -39.66 39.98 -40 41 C-40.99 41.33 -41.98 41.66 -43 42 C-43.495 42.99 -43.495 42.99 -44 44 C-45.65 44 -47.3 44 -49 44 C-49 44.66 -49 45.32 -49 46 C-49.66 46 -50.32 46 -51 46 C-51.33 46.99 -51.66 47.98 -52 49 C-53.65 49 -55.3 49 -57 49 C-57 49.66 -57 50.32 -57 51 C-58.65 51 -60.3 51 -62 51 C-62 51.99 -62 52.98 -62 54 C-63.65 54 -65.3 54 -67 54 C-67.33 54.99 -67.66 55.98 -68 57 C-69.65 57 -71.3 57 -73 57 C-73 57.66 -73 58.32 -73 59 C-75.31 59 -77.62 59 -80 59 C-80 59.99 -80 60.98 -80 62 C-81.65 62 -83.3 62 -85 62 C-85 62.66 -85 63.32 -85 64 C-86.32 63.67 -87.64 63.34 -89 63 C-88.67 62.34 -88.34 61.68 -88 61 C-85.69 61 -83.38 61 -81 61 C-81 60.01 -81 59.02 -81 58 C-79.35 58 -77.7 58 -76 58 C-76 57.34 -76 56.68 -76 56 C-74.02 56 -72.04 56 -70 56 C-70 55.01 -70 54.02 -70 53 C-68.989375 52.566875 -67.97875 52.13375 -66.9375 51.6875 C-66.30457031 51.41421875 -65.67164063 51.1409375 -65.01953125 50.859375 C-63.68943029 50.29337459 -62.35348549 49.74088613 -61.01171875 49.203125 C-57.32478328 47.91571025 -57.32478328 47.91571025 -55 45 C-53.66666667 44.66666667 -52.33333333 44.33333333 -51 44 C-50.505 43.01 -50.505 43.01 -50 42 C-47.66666667 41 -45.33333333 40 -43 39 C-42.505 38.01 -42.505 38.01 -42 37 C-40.68 37 -39.36 37 -38 37 C-38 36.01 -38 35.02 -38 34 C-33.77777778 31 -33.77777778 31 -31 31 C-30.505 29.515 -30.505 29.515 -30 28 C-28.38132357 27.05577208 -26.75706287 26.11976566 -25.10546875 25.234375 C-20.26678043 22.39759298 -15.75016542 18.81073581 -11.85546875 14.78125 C-10 13 -10 13 -8 13 C-8 12.34 -8 11.68 -8 11 C-6.625 9.375 -6.625 9.375 -5 8 C-4.34 8 -3.68 8 -3 8 C-1.58622659 5.36095629 -0.62759865 2.92879371 0 0 Z " fill="#D0B8E7" transform="translate(825,534)"/>
<path d="M0 0 C0.99 0.495 0.99 0.495 2 1 C1.67 1.99 1.34 2.98 1 4 C-0.65249487 4.70105843 -2.32367583 5.35800351 -4 6 C-5.34424409 6.8581437 -6.67690253 7.73459792 -8 8.625 C-11.13085624 10.64701132 -13.1809399 11.59672814 -17 11 C-17 11.99 -17 12.98 -17 14 C-17.84304688 14.39832031 -18.68609375 14.79664063 -19.5546875 15.20703125 C-20.65039062 15.73683594 -21.74609375 16.26664063 -22.875 16.8125 C-23.96554687 17.33457031 -25.05609375 17.85664062 -26.1796875 18.39453125 C-29.22221402 19.84724897 -29.22221402 19.84724897 -31 23 C-31.99 23 -32.98 23 -34 23 C-34 23.66 -34 24.32 -34 25 C-34.99 25.33 -35.98 25.66 -37 26 C-37.33 26.66 -37.66 27.32 -38 28 C-39.85546875 28.74609375 -39.85546875 28.74609375 -42.1875 29.4375 C-46.90771837 30.92848961 -51.21120432 32.57948578 -55.125 35.6875 C-57 37 -57 37 -61 37 C-61 37.99 -61 38.98 -61 40 C-61.7425 40.268125 -62.485 40.53625 -63.25 40.8125 C-66.00961735 41.86452422 -66.00961735 41.86452422 -68.0625 43.625 C-70 45 -70 45 -74 45 C-74.33 45.99 -74.66 46.98 -75 48 C-76.65 48 -78.3 48 -80 48 C-80 48.66 -80 49.32 -80 50 C-81.98 50.66 -83.96 51.32 -86 52 C-86 51.01 -86 50.02 -86 49 C-84.35 49 -82.7 49 -81 49 C-81 48.34 -81 47.68 -81 47 C-79.68 47 -78.36 47 -77 47 C-77 46.34 -77 45.68 -77 45 C-76.0409375 44.8453125 -76.0409375 44.8453125 -75.0625 44.6875 C-74.381875 44.460625 -73.70125 44.23375 -73 44 C-72.67 43.01 -72.34 42.02 -72 41 C-70.68 41 -69.36 41 -68 41 C-68 40.34 -68 39.68 -68 39 C-66.02 39 -64.04 39 -62 39 C-62 38.01 -62 37.02 -62 36 C-61.34 36 -60.68 36 -60 36 C-60 35.34 -60 34.68 -60 34 C-58.35 34 -56.7 34 -55 34 C-55 33.01 -55 32.02 -55 31 C-53.02 31 -51.04 31 -49 31 C-49 30.01 -49 29.02 -49 28 C-48.34 28 -47.68 28 -47 28 C-47 27.34 -47 26.68 -47 26 C-45.35 26 -43.7 26 -42 26 C-41.505 24.515 -41.505 24.515 -41 23 C-39.35 23 -37.7 23 -36 23 C-36 22.34 -36 21.68 -36 21 C-35.34 21 -34.68 21 -34 21 C-33.505 19.515 -33.505 19.515 -33 18 C-31.35 18 -29.7 18 -28 18 C-28 17.01 -28 16.02 -28 15 C-26.35 15 -24.7 15 -23 15 C-23 14.34 -23 13.68 -23 13 C-21.35 13 -19.7 13 -18 13 C-18 12.01 -18 11.02 -18 10 C-17.01 10 -16.02 10 -15 10 C-15 9.34 -15 8.68 -15 8 C-13.35 8 -11.7 8 -10 8 C-10 7.01 -10 6.02 -10 5 C-8.35 5 -6.7 5 -5 5 C-5 4.01 -5 3.02 -5 2 C-3.35 2 -1.7 2 0 2 C0 1.34 0 0.68 0 0 Z " fill="#E0D0EF" transform="translate(750,30)"/>
<path d="M0 0 C0.99 0 1.98 0 3 0 C3.00364563 0.58802399 3.00729126 1.17604797 3.01104736 1.78189087 C3.05292972 7.91440031 3.12231547 14.04616533 3.20751953 20.17822266 C3.23570652 22.46525621 3.25693231 24.75238677 3.27099609 27.03955078 C3.29245638 30.33155906 3.33912471 33.62240378 3.390625 36.9140625 C3.39185364 37.93303619 3.39308228 38.95200989 3.39434814 40.00186157 C3.51909872 46.07876918 4.24677937 49.22767442 8 54 C8 54.99 8 55.98 8 57 C8.66 57 9.32 57 10 57 C10 57.99 10 58.98 10 60 C10.61875 60.0825 11.2375 60.165 11.875 60.25 C14 61 14 61 15.0625 63 C15.5265625 63.99 15.5265625 63.99 16 65 C17.485 65.495 17.485 65.495 19 66 C19 66.66 19 67.32 19 68 C19.5775 68.226875 20.155 68.45375 20.75 68.6875 C23.5663661 70.33038023 25.08077114 72.39533227 27 75 C24.45828796 73.82690214 22.27116256 72.5091503 19.9375 70.9375 C17.1164266 68.89527457 17.1164266 68.89527457 14 68 C14 67.34 14 66.68 14 66 C13.34 66 12.68 66 12 66 C12 65.01 12 64.02 12 63 C11.01 63 10.02 63 9 63 C9 61.35 9 59.7 9 58 C8.01 58 7.02 58 6 58 C6 57.01 6 56.02 6 55 C5.34 55 4.68 55 4 55 C4 54.34 4 53.68 4 53 C3.01 53 2.02 53 1 53 C0.67 35.51 0.34 18.02 0 0 Z " fill="#A677D1" transform="translate(175,483)"/>
<path d="M0 0 C0.33 0 0.66 0 1 0 C1.02980449 3.83331607 1.04706053 7.6666013 1.0625 11.5 C1.07087891 12.55832031 1.07925781 13.61664063 1.08789062 14.70703125 C1.10520514 20.49007942 0.9434823 26.20696279 0.51367188 31.97460938 C-0.21661666 42.78534171 -0.23086371 53.60638886 -0.31640625 64.4375 C-0.33702745 66.65666037 -0.35802507 68.87581727 -0.37937927 71.0949707 C-0.43406735 76.88156286 -0.48370711 82.66818725 -0.53222656 88.45483398 C-0.58283542 94.38137617 -0.638314 100.30787266 -0.69335938 106.234375 C-0.80028746 117.82287746 -0.90187213 129.41141991 -1 141 C-1.33 141 -1.66 141 -2 141 C-2.02344302 124.8134326 -2.04103488 108.62687077 -2.05181217 92.44029045 C-2.05695103 84.92324122 -2.06394737 77.40620258 -2.07543945 69.88916016 C-2.08546038 63.33123712 -2.09187092 56.77332176 -2.09408849 50.21539128 C-2.09538311 46.74855353 -2.09838876 43.28173773 -2.10573006 39.81490707 C-2.11389173 35.92852135 -2.11398641 32.04215639 -2.11352539 28.15576172 C-2.11712067 27.02790253 -2.12071594 25.90004333 -2.12442017 24.73800659 C-2.09558479 2.09558479 -2.09558479 2.09558479 0 0 Z " fill="#FAF8FC" transform="translate(175,75)"/>
<path d="M0 0 C0.66 0 1.32 0 2 0 C2 0.66 2 1.32 2 2 C4.97 2 7.94 2 11 2 C11 2.66 11 3.32 11 4 C12.918125 3.938125 12.918125 3.938125 14.875 3.875 C17.0546875 3.8046875 17.0546875 3.8046875 19 4 C19.66 4.66 20.32 5.32 21 6 C23.32817964 6.36760731 25.6618385 6.70241581 28 7 C28.33 7.33 28.66 7.66 29 8 C30.32781878 8.20604085 31.66295895 8.3662959 33 8.5 C36.88888889 8.88888889 36.88888889 8.88888889 38 10 C40.58022142 10.28221172 43.16030185 10.44820197 45.75 10.62109375 C46.4925 10.74613281 47.235 10.87117187 48 11 C48.495 11.99 48.495 11.99 49 13 C51.09341518 13.4290258 51.09341518 13.4290258 53.5 13.5625 C57.90394511 13.90394511 57.90394511 13.90394511 59 15 C61.7692064 15.53670287 64.54945085 15.9648874 67.3359375 16.40234375 C70 17 70 17 73 19 C74.65391846 19.39171753 76.32345271 19.72057545 78 20 C81.46159235 20.57693206 83.00129727 21.00086485 86 23 C83.69 23 81.38 23 79 23 C79 22.34 79 21.68 79 21 C75.37 21 71.74 21 68 21 C68 20.01 68 19.02 68 18 C63.71 18 59.42 18 55 18 C55 17.34 55 16.68 55 16 C51.7 16 48.4 16 45 16 C45 15.01 45 14.02 45 13 C41.37 13 37.74 13 34 13 C34 12.01 34 11.02 34 10 C30.7 10 27.4 10 24 10 C24 9.34 24 8.68 24 8 C21.36 8 18.72 8 16 8 C16 7.01 16 6.02 16 5 C13.36 5 10.72 5 8 5 C8 4.34 8 3.68 8 3 C5.69 3 3.38 3 1 3 C0.67 2.01 0.34 1.02 0 0 Z " fill="#DDCBED" transform="translate(275,601)"/>
<path d="M0 0 C1.32 0 2.64 0 4 0 C4 12.87 4 25.74 4 39 C1.525 39.495 1.525 39.495 -1 40 C-0.67 26.8 -0.34 13.6 0 0 Z " fill="#DBC8EC" transform="translate(173,380)"/>
<path d="M0 0 C4.95 0 9.9 0 15 0 C15 0.99 15 1.98 15 3 C16.98 3 18.96 3 21 3 C21 3.66 21 4.32 21 5 C21.66 5 22.32 5 23 5 C22.67 5.99 22.34 6.98 22 8 C20.68 7.67 19.36 7.34 18 7 C18 6.34 18 5.68 18 5 C13.06632803 3.02653121 9.23742659 2.65083823 4 3 C3.34 3.66 2.68 4.32 2 5 C1.01 5 0.02 5 -1 5 C-1 5.66 -1 6.32 -1 7 C-1.69867187 7.19335938 -2.39734375 7.38671875 -3.1171875 7.5859375 C-4.02726563 7.84632812 -4.93734375 8.10671875 -5.875 8.375 C-6.77992188 8.63023438 -7.68484375 8.88546875 -8.6171875 9.1484375 C-11.14569726 9.8604315 -11.14569726 9.8604315 -13 12 C-14.32 12 -15.64 12 -17 12 C-17 12.66 -17 13.32 -17 14 C-19.31 14.66 -21.62 15.32 -24 16 C-24 15.01 -24 14.02 -24 13 C-22.02 13 -20.04 13 -18 13 C-18 12.01 -18 11.02 -18 10 C-17.34 10 -16.68 10 -16 10 C-16 9.34 -16 8.68 -16 8 C-14.35 8 -12.7 8 -11 8 C-11 7.01 -11 6.02 -11 5 C-9.02 5 -7.04 5 -5 5 C-5 4.34 -5 3.68 -5 3 C-3.35 3 -1.7 3 0 3 C0 2.01 0 1.02 0 0 Z " fill="#B48DD9" transform="translate(800,1)"/>
<path d="M0 0 C0.66 0 1.32 0 2 0 C1.67 0.99 1.34 1.98 1 3 C0.01 3.33 -0.98 3.66 -2 4 C-2.33 4.66 -2.66 5.32 -3 6 C-4.65 6 -6.3 6 -8 6 C-8 6.66 -8 7.32 -8 8 C-8.66 8 -9.32 8 -10 8 C-10.33 8.99 -10.66 9.98 -11 11 C-12.65 11 -14.3 11 -16 11 C-16 11.66 -16 12.32 -16 13 C-17.65 13 -19.3 13 -21 13 C-21 13.99 -21 14.98 -21 16 C-22.65 16 -24.3 16 -26 16 C-26.33 16.99 -26.66 17.98 -27 19 C-28.65 19 -30.3 19 -32 19 C-32 19.66 -32 20.32 -32 21 C-34.31 21 -36.62 21 -39 21 C-39 21.99 -39 22.98 -39 24 C-40.65 24 -42.3 24 -44 24 C-44 24.66 -44 25.32 -44 26 C-45.32 25.67 -46.64 25.34 -48 25 C-47.67 24.34 -47.34 23.68 -47 23 C-44.69 23 -42.38 23 -40 23 C-40 22.01 -40 21.02 -40 20 C-38.35 20 -36.7 20 -35 20 C-35 19.34 -35 18.68 -35 18 C-33.02 18 -31.04 18 -29 18 C-29 17.01 -29 16.02 -29 15 C-27.989375 14.566875 -26.97875 14.13375 -25.9375 13.6875 C-25.30457031 13.41421875 -24.67164063 13.1409375 -24.01953125 12.859375 C-22.68943029 12.29337459 -21.35348549 11.74088613 -20.01171875 11.203125 C-16.32478328 9.91571025 -16.32478328 9.91571025 -14 7 C-12.66666667 6.66666667 -11.33333333 6.33333333 -10 6 C-9.67 5.34 -9.34 4.68 -9 4 C-5.65489648 2.37265234 -3.81164166 2 0 2 C0 1.34 0 0.68 0 0 Z " fill="#E6D9F2" transform="translate(784,572)"/>
<path d="M0 0 C1.65 0 3.3 0 5 0 C5 0.66 5 1.32 5 2 C6.65 2 8.3 2 10 2 C10 2.99 10 3.98 10 5 C11.98 5 13.96 5 16 5 C16 5.66 16 6.32 16 7 C17.175625 7.4640625 17.175625 7.4640625 18.375 7.9375 C21 9 21 9 23 10 C23 10.99 23 11.98 23 13 C24.98 13 26.96 13 29 13 C29 13.66 29 14.32 29 15 C31.475 15.495 31.475 15.495 34 16 C34 16.66 34 17.32 34 18 C34.66 18 35.32 18 36 18 C36 18.99 36 19.98 36 21 C36.99 21 37.98 21 39 21 C40.6875 23 40.6875 23 42 25 C38.592308 24.39148357 36.7284449 23.06700371 34 21 C32.35202764 20.28837557 30.68834592 19.60968047 29 19 C29 18.01 29 17.02 29 16 C26.69 15.34 24.38 14.68 22 14 C22 13.01 22 12.02 22 11 C20.35 11 18.7 11 17 11 C17 10.34 17 9.68 17 9 C16.278125 8.855625 15.55625 8.71125 14.8125 8.5625 C13.4203125 8.2840625 13.4203125 8.2840625 12 8 C10.700625 7.814375 10.700625 7.814375 9.375 7.625 C6.68727388 6.91770365 5.63050902 6.23122287 4 4 C4 3.01 4 2.02 4 1 C2.68 0.67 1.36 0.34 0 0 Z " fill="#E9DEF4" transform="translate(291,51)"/>
<path d="M0 0 C0.66 0 1.32 0 2 0 C2 0.99 2 1.98 2 3 C0.865625 3.12375 -0.26875 3.2475 -1.4375 3.375 C-2.613125 3.58125 -3.78875 3.7875 -5 4 C-5.33 4.66 -5.66 5.32 -6 6 C-7.65 6 -9.3 6 -11 6 C-11 6.66 -11 7.32 -11 8 C-13.64 8 -16.28 8 -19 8 C-19 8.99 -19 9.98 -19 11 C-22.3 11 -25.6 11 -29 11 C-29 11.66 -29 12.32 -29 13 C-31.64 13 -34.28 13 -37 13 C-37 13.99 -37 14.98 -37 16 C-39.97 16 -42.94 16 -46 16 C-39.31732506 12.65866253 -33.13689941 9.76675041 -25.75 8.39453125 C-23.98148427 8.15957848 -23.98148427 8.15957848 -23 7 C-21.865625 6.855625 -20.73125 6.71125 -19.5625 6.5625 C-15.95941003 6.35152449 -15.95941003 6.35152449 -14 4 C-11.83006442 3.41025158 -9.638299 2.89891889 -7.4375 2.4375 C-3.40023354 1.88824577 -3.40023354 1.88824577 0 0 Z " fill="#BE9CDD" transform="translate(730,598)"/>
<path d="M0 0 C3.27036728 -0.14510162 6.53991007 -0.23399373 9.8125 -0.3125 C10.74126953 -0.35439453 11.67003906 -0.39628906 12.62695312 -0.43945312 C15.17716328 -0.4854858 17.49474 -0.48519702 20 0 C22 2.46875 22 2.46875 23 5 C25.08533633 5.87822312 25.08533633 5.87822312 27 6 C26.67 6.66 26.34 7.32 26 8 C25.29875 7.690625 24.5975 7.38125 23.875 7.0625 C20.91063343 5.96697322 18.12301892 5.43577008 15 5 C15 4.01 15 3.02 15 2 C11.7 2 8.4 2 5 2 C5 2.99 5 3.98 5 5 C3.9275 5.144375 2.855 5.28875 1.75 5.4375 C-0.91662949 5.83749442 -3.41399729 6.27591924 -6 7 C-6 7.66 -6 8.32 -6 9 C-6.66 9 -7.32 9 -8 9 C-8 7.68 -8 6.36 -8 5 C-7.01 5 -6.02 5 -5 5 C-5 4.34 -5 3.68 -5 3 C-3.35 3 -1.7 3 0 3 C0 2.01 0 1.02 0 0 Z " fill="#B189D7" transform="translate(192,1)"/>
<path d="M0 0 C1.98 0 3.96 0 6 0 C5.01 0.33 4.02 0.66 3 1 C3 11.89 3 22.78 3 34 C2.01 34 1.02 34 0 34 C0 22.78 0 11.56 0 0 Z " fill="#E4D6F1" transform="translate(828,499)"/>
<path d="M0 0 C1.32 0.33 2.64 0.66 4 1 C3.34 1 2.68 1 2 1 C2 12.55 2 24.1 2 36 C1.01 36 0.02 36 -1 36 C-1.12375 36.763125 -1.2475 37.52625 -1.375 38.3125 C-2 41 -2 41 -4 44 C-4.66 44 -5.32 44 -6 44 C-6.33 44.66 -6.66 45.32 -7 46 C-7 44.35 -7 42.7 -7 41 C-6.34 41 -5.68 41 -5 41 C-5 40.34 -5 39.68 -5 39 C-4.34 39 -3.68 39 -3 39 C-2.67 37.68 -2.34 36.36 -2 35 C-1.34 35 -0.68 35 0 35 C0 23.45 0 11.9 0 0 Z " fill="#894CC3" transform="translate(826,498)"/>
<path d="M0 0 C1.65 0 3.3 0 5 0 C3.68 0.33 2.36 0.66 1 1 C1 1.99 1 2.98 1 4 C-0.98 4 -2.96 4 -5 4 C-5 4.66 -5 5.32 -5 6 C-6.65 6 -8.3 6 -10 6 C-10 6.99 -10 7.98 -10 9 C-12.31 9 -14.62 9 -17 9 C-17.33 9.99 -17.66 10.98 -18 12 C-20.66015625 12.84375 -20.66015625 12.84375 -24.0625 13.5 C-32.61968129 14.91298846 -32.61968129 14.91298846 -40 19 C-42.33297433 19.04092937 -44.66705225 19.04241723 -47 19 C-47 18.67 -47 18.34 -47 18 C-45.35 18 -43.7 18 -42 18 C-42 17.34 -42 16.68 -42 16 C-39.36 15.67 -36.72 15.34 -34 15 C-34 14.34 -34 13.68 -34 13 C-31.69 13 -29.38 13 -27 13 C-26.67 12.01 -26.34 11.02 -26 10 C-23.36 10 -20.72 10 -18 10 C-18 9.34 -18 8.68 -18 8 C-16.35 8 -14.7 8 -13 8 C-13 7.01 -13 6.02 -13 5 C-10.69 5 -8.38 5 -6 5 C-6 4.01 -6 3.02 -6 2 C-4.02 2 -2.04 2 0 2 C0 1.34 0 0.68 0 0 Z " fill="#A576D1" transform="translate(754,586)"/>
<path d="M0 0 C0.66 0.33 1.32 0.66 2 1 C1.5359375 1.7425 1.5359375 1.7425 1.0625 2.5 C-0.41644382 5.97986781 -0.62402851 9.24028509 -1 13 C-1.99 13.33 -2.98 13.66 -4 14 C-4 38.09 -4 62.18 -4 87 C-4.33 87 -4.66 87 -5 87 C-5.04627664 77.2557762 -5.08184536 67.51157841 -5.10362434 57.76726723 C-5.11407551 53.2429174 -5.1282589 48.71864259 -5.15087891 44.19433594 C-5.17255993 39.83068476 -5.18455858 35.46710587 -5.18975449 31.103405 C-5.19345879 29.43597653 -5.20069207 27.76855215 -5.21146011 26.10115433 C-5.2259122 23.77128705 -5.22798061 21.44172106 -5.22705078 19.11181641 C-5.23424133 18.41770157 -5.24143188 17.72358673 -5.24884033 17.00843811 C-5.22810432 12.22810432 -5.22810432 12.22810432 -3 10 C-2.2833793 7.68152126 -1.61757973 5.34680297 -1 3 C-0.67 2.01 -0.34 1.02 0 0 Z " fill="#A170CF" transform="translate(182,10)"/>
<path d="M0 0 C0.99 0.33 1.98 0.66 3 1 C2.34 1 1.68 1 1 1 C0.87882813 1.69867188 0.75765625 2.39734375 0.6328125 3.1171875 C0.46523437 4.02726563 0.29765625 4.93734375 0.125 5.875 C-0.03742188 6.77992187 -0.19984375 7.68484375 -0.3671875 8.6171875 C-1 11 -1 11 -3 13 C-3.33243628 15.7510296 -3.33243628 15.7510296 -3.31884766 19.01025391 C-3.33871735 20.27141022 -3.35858704 21.53256653 -3.37905884 22.8319397 C-3.39093614 24.21347885 -3.40259895 25.59501986 -3.4140625 26.9765625 C-3.4327671 28.38619124 -3.45233998 29.79580871 -3.4727478 31.20541382 C-3.52415012 34.91745362 -3.56373219 38.62952977 -3.60089111 42.34173584 C-3.64088022 46.12895759 -3.69199571 49.91602715 -3.7421875 53.703125 C-3.83904257 61.13531238 -3.92341637 68.56757317 -4 76 C-4.33 76 -4.66 76 -5 76 C-5 53.56 -5 31.12 -5 8 C-4.01 8 -3.02 8 -2 8 C-2 6.02 -2 4.04 -2 2 C-1.34 2 -0.68 2 0 2 C0 1.34 0 0.68 0 0 Z " fill="#E3D5F0" transform="translate(181,9)"/>
<path d="M0 0 C2.97 0 5.94 0 9 0 C9.33 0.66 9.66 1.32 10 2 C12.09341518 2.4290258 12.09341518 2.4290258 14.5 2.5625 C18.90394511 2.90394511 18.90394511 2.90394511 20 4 C22.7692064 4.53670287 25.54945085 4.9648874 28.3359375 5.40234375 C31 6 31 6 34 8 C35.65391846 8.39171753 37.32345271 8.72057545 39 9 C42.46159235 9.57693206 44.00129727 10.00086485 47 12 C44.69 12 42.38 12 40 12 C40 11.34 40 10.68 40 10 C36.37 10 32.74 10 29 10 C29 9.01 29 8.02 29 7 C25.37 7 21.74 7 18 7 C17.67 6.01 17.34 5.02 17 4 C15.081875 4.061875 15.081875 4.061875 13.125 4.125 C10.9453125 4.1953125 10.9453125 4.1953125 9 4 C8.34 3.34 7.68 2.68 7 2 C4.67724823 1.59952556 2.34260643 1.2602896 0 1 C0 0.67 0 0.34 0 0 Z " fill="#C6A8E1" transform="translate(314,612)"/>
<path d="M0 0 C1.65 0 3.3 0 5 0 C5 0.66 5 1.32 5 2 C6.98 2 8.96 2 11 2 C11.33 2.99 11.66 3.98 12 5 C12.804375 4.979375 13.60875 4.95875 14.4375 4.9375 C17 5 17 5 18 6 C19.34747084 6.23075082 20.70377565 6.41153063 22.0625 6.5625 C23.361875 6.706875 24.66125 6.85125 26 7 C26 7.99 26 8.98 26 10 C29.3 10 32.6 10 36 10 C36 10.99 36 11.98 36 13 C36.969375 12.979375 37.93875 12.95875 38.9375 12.9375 C42 13 42 13 43 14 C44.34747084 14.23075082 45.70377565 14.41153063 47.0625 14.5625 C48.361875 14.706875 49.66125 14.85125 51 15 C51 15.99 51 16.98 51 18 C50.67 17.67 50.34 17.34 50 17 C48.67218122 16.79395915 47.33704105 16.6337041 46 16.5 C42.11111111 16.11111111 42.11111111 16.11111111 41 15 C39.865625 14.855625 38.73125 14.71125 37.5625 14.5625 C34 14 34 14 32 12 C29.34462628 11.43479997 26.70855287 11.26211802 24 11 C24 10.01 24 9.02 24 8 C22.4840625 8.061875 22.4840625 8.061875 20.9375 8.125 C16.81923948 7.99426157 13.88169467 7.26749214 10 6 C10 5.01 10 4.02 10 3 C7.69 3 5.38 3 3 3 C3 2.34 3 1.68 3 1 C2.01 0.67 1.02 0.34 0 0 Z " fill="#8A4DC3" transform="translate(262,594)"/>
<path d="M0 0 C3.4645173 1.21726284 5.43854318 2.43854318 8 5 C10.10332891 5.71447643 10.10332891 5.71447643 12 6 C12 6.66 12 7.32 12 8 C12.99 8 13.98 8 15 8 C15 8.99 15 9.98 15 11 C15.66 11 16.32 11 17 11 C17.33 11.66 17.66 12.32 18 13 C19.485 13.680625 19.485 13.680625 21 14.375 C24 16 24 16 24.875 18.1875 C24.91625 18.785625 24.9575 19.38375 25 20 C24.34 20 23.68 20 23 20 C23 19.34 23 18.68 23 18 C21.35 18 19.7 18 18 18 C18 17.01 18 16.02 18 15 C17.01 15 16.02 15 15 15 C15 14.01 15 13.02 15 12 C14.34 12 13.68 12 13 12 C13 11.34 13 10.68 13 10 C11.35 10 9.7 10 8 10 C8 9.01 8 8.02 8 7 C7.01 7 6.02 7 5 7 C5 6.34 5 5.68 5 5 C4.01 5 3.02 5 2 5 C2 4.01 2 3.02 2 2 C1.34 2 0.68 2 0 2 C0 1.34 0 0.68 0 0 Z " fill="#D4BDE9" transform="translate(192,552)"/>
<path d="M0 0 C1.65 0 3.3 0 5 0 C5 0.66 5 1.32 5 2 C5.66 2 6.32 2 7 2 C7 2.99 7 3.98 7 5 C8.98 5 10.96 5 13 5 C13 5.66 13 6.32 13 7 C14.65 7.33 16.3 7.66 18 8 C18 8.66 18 9.32 18 10 C19.65 10 21.3 10 23 10 C23.66 11.98 24.32 13.96 25 16 C19.62037074 13.94308293 14.5880315 11.41479628 9.625 8.5 C8.93664062 8.0978125 8.24828125 7.695625 7.5390625 7.28125 C7.03117188 6.8584375 6.52328125 6.435625 6 6 C6 5.01 6 4.02 6 3 C5.195625 2.87625 4.39125 2.7525 3.5625 2.625 C2.716875 2.41875 1.87125 2.2125 1 2 C0.67 1.34 0.34 0.68 0 0 Z " fill="#CAAEE4" transform="translate(213,4)"/>
<path d="M0 0 C-0.33 1.32 -0.66 2.64 -1 4 C-2.65 4 -4.3 4 -6 4 C-6 4.99 -6 5.98 -6 7 C-15.41002278 11.59225513 -15.41002278 11.59225513 -20 11 C-20 11.99 -20 12.98 -20 14 C-21.98 14.66 -23.96 15.32 -26 16 C-26 15.01 -26 14.02 -26 13 C-24.35 13 -22.7 13 -21 13 C-21 12.01 -21 11.02 -21 10 C-20.01 10 -19.02 10 -18 10 C-18 9.34 -18 8.68 -18 8 C-16.35 8 -14.7 8 -13 8 C-13 7.01 -13 6.02 -13 5 C-11.35 5 -9.7 5 -8 5 C-8 4.34 -8 3.68 -8 3 C-5.65966534 -0.20256322 -3.8395009 -0.31131088 0 0 Z " fill="#D2BBE8" transform="translate(664,82)"/>
<path d="M0 0 C2.475 0.495 2.475 0.495 5 1 C5 1.99 5 2.98 5 4 C5.928125 4.144375 6.85625 4.28875 7.8125 4.4375 C11 5 11 5 14 6 C14 6.99 14 7.98 14 9 C15.65 9 17.3 9 19 9 C19 9.99 19 10.98 19 12 C19.5775 12.144375 20.155 12.28875 20.75 12.4375 C23.875 13.21875 23.875 13.21875 27 14 C27 14.66 27 15.32 27 16 C28.65 16.33 30.3 16.66 32 17 C32 17.99 32 18.98 32 20 C32.78375 20.12375 33.5675 20.2475 34.375 20.375 C37 21 37 21 39 23 C36.33333333 22.33333333 33.66666667 21.66666667 31 21 C31 20.01 31 19.02 31 18 C29.35 18 27.7 18 26 18 C26 17.01 26 16.02 26 15 C24.35 15 22.7 15 21 15 C21 14.34 21 13.68 21 13 C19.68 12.67 18.36 12.34 17 12 C17 11.34 17 10.68 17 10 C15.68 10 14.36 10 13 10 C13 9.01 13 8.02 13 7 C11.35 7 9.7 7 8 7 C8 6.34 8 5.68 8 5 C7.236875 5.061875 6.47375 5.12375 5.6875 5.1875 C3 5 3 5 1.1875 3.625 C0 2 0 2 0 0 Z " fill="#945CC8" transform="translate(250,27)"/>
<path d="M0 0 C0.99 0 1.98 0 3 0 C3 0.99 3 1.98 3 3 C1.68 3 0.36 3 -1 3 C-1 3.99 -1 4.98 -1 6 C-1.7425 6.268125 -2.485 6.53625 -3.25 6.8125 C-6.00961735 7.86452422 -6.00961735 7.86452422 -8.0625 9.625 C-10 11 -10 11 -14 11 C-14.33 11.99 -14.66 12.98 -15 14 C-16.65 14 -18.3 14 -20 14 C-20 14.66 -20 15.32 -20 16 C-21.98 16.66 -23.96 17.32 -26 18 C-26 17.01 -26 16.02 -26 15 C-24.35 15 -22.7 15 -21 15 C-21 14.34 -21 13.68 -21 13 C-19.68 13 -18.36 13 -17 13 C-17 12.34 -17 11.68 -17 11 C-16.360625 10.896875 -15.72125 10.79375 -15.0625 10.6875 C-14.381875 10.460625 -13.70125 10.23375 -13 10 C-12.67 9.01 -12.34 8.02 -12 7 C-10.68 7 -9.36 7 -8 7 C-8 6.34 -8 5.68 -8 5 C-6.02 5 -4.04 5 -2 5 C-2 4.01 -2 3.02 -2 2 C-1.34 2 -0.68 2 0 2 C0 1.34 0 0.68 0 0 Z " fill="#E6D9F2" transform="translate(690,64)"/>
<path d="M0 0 C1.65 0 3.3 0 5 0 C5.33 0.99 5.66 1.98 6 3 C7.65 3 9.3 3 11 3 C11 3.99 11 4.98 11 6 C11.66 6 12.32 6 13 6 C13 6.66 13 7.32 13 8 C14.98 8 16.96 8 19 8 C19 8.99 19 9.98 19 11 C20.65 11 22.3 11 24 11 C24.33 11.99 24.66 12.98 25 14 C20.24451757 14.74304413 17.43931262 12.73243053 13.57421875 10.2890625 C13.05472656 9.86367187 12.53523438 9.43828125 12 9 C12 8.34 12 7.68 12 7 C11.2575 6.896875 10.515 6.79375 9.75 6.6875 C6.8026481 5.95066203 5.21616926 5.05200858 3 3 C3 2.34 3 1.68 3 1 C2.01 0.67 1.02 0.34 0 0 Z " fill="#DDCCEE" transform="translate(327,71)"/>
<path d="M0 0 C1.32 0.33 2.64 0.66 4 1 C3.01 1 2.02 1 1 1 C1 1.66 1 2.32 1 3 C0.01 3.33 -0.98 3.66 -2 4 C-2.33 4.66 -2.66 5.32 -3 6 C-4.85546875 6.74609375 -4.85546875 6.74609375 -7.1875 7.4375 C-11.01188139 8.63944844 -14.45579412 10.10426197 -18 12 C-19.33333333 12.66666667 -20.66666667 13.33333333 -22 14 C-22 13.34 -22 12.68 -22 12 C-21.34 12 -20.68 12 -20 12 C-20 11.01 -20 10.02 -20 9 C-18.02 9 -16.04 9 -14 9 C-14 8.01 -14 7.02 -14 6 C-13.34 6 -12.68 6 -12 6 C-12 5.34 -12 4.68 -12 4 C-9.69 4 -7.38 4 -5 4 C-5 3.34 -5 2.68 -5 2 C-3.35 2 -1.7 2 0 2 C0 1.34 0 0.68 0 0 Z " fill="#E2D2F0" transform="translate(715,52)"/>
<path d="M0 0 C0.33 0 0.66 0 1 0 C1.0154612 0.88869781 1.0154612 0.88869781 1.03123474 1.79534912 C1.13938458 7.95970506 1.25397579 14.12391735 1.37231445 20.28808594 C1.41563606 22.58883662 1.45731313 24.88961888 1.49731445 27.19042969 C1.55508395 30.49684161 1.61875949 33.803095 1.68359375 37.109375 C1.70030624 38.13867126 1.71701874 39.16796753 1.73423767 40.22845459 C1.75418289 41.18914856 1.77412811 42.14984253 1.79467773 43.13964844 C1.81022202 43.98348083 1.8257663 44.82731323 1.84178162 45.69671631 C1.99407571 47.91375644 2.38782088 49.86850379 3 52 C2.01 52 1.02 52 0 52 C0 34.84 0 17.68 0 0 Z " fill="#E6D9F2" transform="translate(176,484)"/>
<path d="M0 0 C1.65 0 3.3 0 5 0 C2.3065143 3.32724704 -1.14465984 4.34771136 -5 6 C-5.556875 6.556875 -6.11375 7.11375 -6.6875 7.6875 C-7.120625 8.120625 -7.55375 8.55375 -8 9 C-9.32 9 -10.64 9 -12 9 C-12 9.66 -12 10.32 -12 11 C-14.31 11.66 -16.62 12.32 -19 13 C-19 12.01 -19 11.02 -19 10 C-17.02 10 -15.04 10 -13 10 C-13 9.01 -13 8.02 -13 7 C-12.34 7 -11.68 7 -11 7 C-11 6.34 -11 5.68 -11 5 C-9.35 5 -7.7 5 -6 5 C-6 4.01 -6 3.02 -6 2 C-4.02 2 -2.04 2 0 2 C0 1.34 0 0.68 0 0 Z " fill="#E0D0EF" transform="translate(795,4)"/>
<path d="M0 0 C1.32 0.33 2.64 0.66 4 1 C-1.29230769 5.92307692 -1.29230769 5.92307692 -4.875 6.3125 C-5.926875 6.1578125 -5.926875 6.1578125 -7 6 C-7 6.99 -7 7.98 -7 9 C-7.99 9 -8.98 9 -10 9 C-10 9.66 -10 10.32 -10 11 C-12.90600261 12.25664978 -14.79604584 13 -18 13 C-18 12.01 -18 11.02 -18 10 C-16.35 10 -14.7 10 -13 10 C-13 9.34 -13 8.68 -13 8 C-11.35 7.67 -9.7 7.34 -8 7 C-8 6.34 -8 5.68 -8 5 C-7.01 5 -6.02 5 -5 5 C-5 4.01 -5 3.02 -5 2 C-3.35 2 -1.7 2 0 2 C0 1.34 0 0.68 0 0 Z " fill="#E9DEF4" transform="translate(771,17)"/>
<path d="M0 0 C0 3 0 3 -1 6 C-1.99 6 -2.98 6 -4 6 C-4 6.66 -4 7.32 -4 8 C-5.65 8.33 -7.3 8.66 -9 9 C-9 9.66 -9 10.32 -9 11 C-10.65 11 -12.3 11 -14 11 C-14 11.66 -14 12.32 -14 13 C-14.66 12.67 -15.32 12.34 -16 12 C-15.67 11.34 -15.34 10.68 -15 10 C-13.68 10 -12.36 10 -11 10 C-11 9.01 -11 8.02 -11 7 C-6.77777778 4 -6.77777778 4 -4 4 C-3.67 3.01 -3.34 2.02 -3 1 C-2.01 0.67 -1.02 0.34 0 0 Z " fill="#DBC9ED" transform="translate(798,561)"/>
<path d="M0 0 C1.98 0 3.96 0 6 0 C6 0.66 6 1.32 6 2 C7.65 2 9.3 2 11 2 C11 2.99 11 3.98 11 5 C12.65 5 14.3 5 16 5 C16 5.66 16 6.32 16 7 C16.66 7 17.32 7 18 7 C18 8.32 18 9.64 18 11 C18.66 11.33 19.32 11.66 20 12 C18.68 11.67 17.36 11.34 16 11 C16 10.34 16 9.68 16 9 C15.401875 8.87625 14.80375 8.7525 14.1875 8.625 C12 8 12 8 9 6 C9 5.01 9 4.02 9 3 C7.35 3 5.7 3 4 3 C4 2.34 4 1.68 4 1 C2.68 0.67 1.36 0.34 0 0 Z " fill="#CEB4E6" transform="translate(348,85)"/>
<path d="M0 0 C0.66 0 1.32 0 2 0 C2 0.99 2 1.98 2 3 C0.865625 3.12375 -0.26875 3.2475 -1.4375 3.375 C-3.2009375 3.684375 -3.2009375 3.684375 -5 4 C-5.33 4.66 -5.66 5.32 -6 6 C-7.65 6 -9.3 6 -11 6 C-11 6.66 -11 7.32 -11 8 C-12.65 8 -14.3 8 -16 8 C-15.41015625 6.10546875 -15.41015625 6.10546875 -14 4 C-10.99609375 2.98828125 -10.99609375 2.98828125 -7.4375 2.3125 C-3.39974059 1.83938983 -3.39974059 1.83938983 0 0 Z " fill="#E4D7F1" transform="translate(730,598)"/>
<path d="M0 0 C0.99 0.33 1.98 0.66 3 1 C1.6875 2.5 1.6875 2.5 0 4 C-0.99 4 -1.98 4 -3 4 C-3 4.66 -3 5.32 -3 6 C-4.65 6 -6.3 6 -8 6 C-8.33 6.99 -8.66 7.98 -9 9 C-9.99 9 -10.98 9 -12 9 C-12 9.66 -12 10.32 -12 11 C-15.31114834 12.12880057 -18.58978257 13.21302675 -22 14 C-20.1875 12 -20.1875 12 -18 10 C-17.01 10 -16.02 10 -15 10 C-15 9.34 -15 8.68 -15 8 C-14.195625 7.87625 -13.39125 7.7525 -12.5625 7.625 C-11.716875 7.41875 -10.87125 7.2125 -10 7 C-9.67 6.34 -9.34 5.68 -9 5 C-6.67328135 3.98470459 -4.3396553 2.98511802 -2 2 C-1.34 1.34 -0.68 0.68 0 0 Z " fill="#9760CA" transform="translate(685,70)"/>
<path d="M0 0 C2.31 0 4.62 0 7 0 C7 0.33 7 0.66 7 1 C6.030625 1.12375 5.06125 1.2475 4.0625 1.375 C2.5465625 1.684375 2.5465625 1.684375 1 2 C0.67 2.66 0.34 3.32 0 4 C-1.95816886 4.57678022 -3.9433228 5.06369964 -5.9375 5.5 C-10.44735421 6.35177899 -10.44735421 6.35177899 -14 9 C-17.625 9.125 -17.625 9.125 -21 9 C-21 8.67 -21 8.34 -21 8 C-19.35 8 -17.7 8 -16 8 C-16 7.34 -16 6.68 -16 6 C-13.36 5.67 -10.72 5.34 -8 5 C-8 4.34 -8 3.68 -8 3 C-5.69 3 -3.38 3 -1 3 C-0.67 2.01 -0.34 1.02 0 0 Z " fill="#8646C1" transform="translate(728,596)"/>
<path d="M0 0 C0.99 0 1.98 0 3 0 C2.67 0.99 2.34 1.98 2 3 C0.35 3 -1.3 3 -3 3 C-3 3.66 -3 4.32 -3 5 C-5.31 5 -7.62 5 -10 5 C-10 5.99 -10 6.98 -10 8 C-11.65 8 -13.3 8 -15 8 C-15 8.66 -15 9.32 -15 10 C-16.32 9.67 -17.64 9.34 -19 9 C-18.67 8.34 -18.34 7.68 -18 7 C-15.69 7 -13.38 7 -11 7 C-11 6.01 -11 5.02 -11 4 C-9.35 4 -7.7 4 -6 4 C-6 3.34 -6 2.68 -6 2 C-4.02 2 -2.04 2 0 2 C0 1.34 0 0.68 0 0 Z " fill="#EADFF4" transform="translate(755,588)"/>
<path d="M0 0 C0.66 0 1.32 0 2 0 C2 0.66 2 1.32 2 2 C3.32 2 4.64 2 6 2 C6.33 2.66 6.66 3.32 7 4 C8.70854581 4.75570295 10.41954641 5.50692332 12.1484375 6.21484375 C14.61514167 7.26085122 16.81079351 8.45467777 19 10 C19.33 10.99 19.66 11.98 20 13 C19.34 13 18.68 13 18 13 C18 12.34 18 11.68 18 11 C16.35 11 14.7 11 13 11 C13 10.01 13 9.02 13 8 C11.35 8 9.7 8 8 8 C8 7.34 8 6.68 8 6 C7.01 5.67 6.02 5.34 5 5 C5 4.34 5 3.68 5 3 C3.35 3 1.7 3 0 3 C0 2.01 0 1.02 0 0 Z " fill="#F1EBF8" transform="translate(218,572)"/>
<path d="M0 0 C2.475 0.99 2.475 0.99 5 2 C5 2.66 5 3.32 5 4 C5.9075 3.95875 6.815 3.9175 7.75 3.875 C10.8782046 3.99531556 12.38614006 4.3914708 15 6 C15 6.99 15 7.98 15 9 C15.99 9.33 16.98 9.66 18 10 C14.44219804 9.39009109 11.3171411 8.4216319 8 7 C8 6.34 8 5.68 8 5 C6.68 5 5.36 5 4 5 C4 4.34 4 3.68 4 3 C2.68 2.67 1.36 2.34 0 2 C0 1.34 0 0.68 0 0 Z " fill="#9862CA" transform="translate(216,569)"/>
<path d="M0 0 C1.65 0 3.3 0 5 0 C5 0.66 5 1.32 5 2 C6.65 2 8.3 2 10 2 C10 3.32 10 4.64 10 6 C10.61875 6.12375 11.2375 6.2475 11.875 6.375 C14 7 14 7 16 9 C14.55989519 8.74337755 13.1229313 8.46909179 11.6875 8.1875 C10.88699219 8.03667969 10.08648437 7.88585938 9.26171875 7.73046875 C6.71584187 6.90822527 5.59597449 6.13313096 4 4 C4 3.01 4 2.02 4 1 C2.68 0.67 1.36 0.34 0 0 Z " fill="#D3BCE8" transform="translate(291,51)"/>
<path d="M0 0 C0.66 0.33 1.32 0.66 2 1 C1.67 1.99 1.34 2.98 1 4 C-0.64232772 4.72455635 -2.31624835 5.37774395 -4 6 C-6.37273725 7.27233737 -8.67858886 8.63446403 -11 10 C-11.33 9.34 -11.66 8.68 -12 8 C-11.34 8 -10.68 8 -10 8 C-10 7.01 -10 6.02 -10 5 C-8.35 5 -6.7 5 -5 5 C-5 4.01 -5 3.02 -5 2 C-3.35 2 -1.7 2 0 2 C0 1.34 0 0.68 0 0 Z " fill="#D3BCE8" transform="translate(750,30)"/>
<path d="M0 0 C6.6 0 13.2 0 20 0 C20.33 0.99 20.66 1.98 21 3 C20.30003906 2.83757812 19.60007813 2.67515625 18.87890625 2.5078125 C15.84001007 1.97177925 13.02147718 1.86720233 9.9375 1.875 C8.91527344 1.87242187 7.89304688 1.86984375 6.83984375 1.8671875 C4.38350068 1.98206462 2.34231684 2.29224959 0 3 C0 2.01 0 1.02 0 0 Z " fill="#E9DEF4" transform="translate(192,1)"/>
<path d="M0 0 C0.66 0 1.32 0 2 0 C2 0.66 2 1.32 2 2 C2.69867188 1.97679687 3.39734375 1.95359375 4.1171875 1.9296875 C5.02726562 1.91164063 5.93734375 1.89359375 6.875 1.875 C7.77992188 1.85179687 8.68484375 1.82859375 9.6171875 1.8046875 C12 2 12 2 14 4 C16.65537372 4.56520003 19.29144713 4.73788198 22 5 C22.33 5.99 22.66 6.98 23 8 C22.34 8 21.68 8 21 8 C21 7.34 21 6.68 21 6 C17.7 6 14.4 6 11 6 C11 5.01 11 4.02 11 3 C7.37 3 3.74 3 0 3 C0 2.01 0 1.02 0 0 Z " fill="#EDE3F5" transform="translate(309,611)"/>
<path d="M0 0 C2 1.375 2 1.375 4 3 C4 3.66 4 4.32 4 5 C4.99 5.33 5.98 5.66 7 6 C7 6.66 7 7.32 7 8 C7.5775 8.226875 8.155 8.45375 8.75 8.6875 C11.5663661 10.33038023 13.08077114 12.39533227 15 15 C11.41726669 13.34643078 8.19026533 11.32019297 5 9 C5 8.34 5 7.68 5 7 C4.34 7 3.68 7 3 7 C0 2.61538462 0 2.61538462 0 0 Z " fill="#9B67CC" transform="translate(187,543)"/>
<path d="M0 0 C2.02045442 0.60183749 4.02111039 1.27306096 6 2 C6.33 2.66 6.66 3.32 7 4 C11.2719222 7.07044408 16.02734582 8.47245264 21 10 C21 10.33 21 10.66 21 11 C16.66831683 11.26252625 13.1196377 10.29243536 9 9 C9 8.01 9 7.02 9 6 C7.68 5.67 6.36 5.34 5 5 C5 4.34 5 3.68 5 3 C4.360625 2.87625 3.72125 2.7525 3.0625 2.625 C2.381875 2.41875 1.70125 2.2125 1 2 C0.67 1.34 0.34 0.68 0 0 Z " fill="#CAAFE4" transform="translate(232,579)"/>
<path d="M0 0 C2.97 0.495 2.97 0.495 6 1 C6 1.66 6 2.32 6 3 C7.051875 2.87625 7.051875 2.87625 8.125 2.75 C11.97138418 3.08446819 14.00893216 4.63496961 17 7 C17 7.66 17 8.32 17 9 C16.34 9 15.68 9 15 9 C15 8.34 15 7.68 15 7 C13.35 7 11.7 7 10 7 C10 6.01 10 5.02 10 4 C8.35 4 6.7 4 5 4 C5 3.34 5 2.68 5 2 C3.35 2 1.7 2 0 2 C0 1.34 0 0.68 0 0 Z " fill="#E8DCF3" transform="translate(247,589)"/>
<path d="M0 0 C1.98 0.99 1.98 0.99 4 2 C4 2.99 4 3.98 4 5 C4.66 5 5.32 5 6 5 C8.29648649 7.5614657 9 8.47967572 9 12 C9.66 12.33 10.32 12.66 11 13 C10.01 13 9.02 13 8 13 C8 12.34 8 11.68 8 11 C7.34 11 6.68 11 6 11 C6 10.01 6 9.02 6 8 C5.01 8 4.02 8 3 8 C3 6.35 3 4.7 3 3 C2.01 3 1.02 3 0 3 C0 2.01 0 1.02 0 0 Z " fill="#E5D7F1" transform="translate(181,538)"/>
<path d="M0 0 C0.66 0.33 1.32 0.66 2 1 C-1.63 4.63 -5.26 8.26 -9 12 C-9 8.26071501 -8.08040398 7.59097747 -5.625 4.875 C-4.99851562 4.17117188 -4.37203125 3.46734375 -3.7265625 2.7421875 C-2 1 -2 1 0 0 Z " fill="#955EC9" transform="translate(16,321)"/>
<path d="M0 0 C0.33 0.66 0.66 1.32 1 2 C2.65 2 4.3 2 6 2 C6 2.99 6 3.98 6 5 C7.65 5 9.3 5 11 5 C11 5.66 11 6.32 11 7 C11.99 7 12.98 7 14 7 C13.67 7.99 13.34 8.98 13 10 C13 9.34 13 8.68 13 8 C12.34 7.9175 11.68 7.835 11 7.75 C7.00960837 6.75240209 3.61450357 4.92833317 0 3 C0 2.01 0 1.02 0 0 Z " fill="#E3D4F0" transform="translate(366,93)"/>
<path d="M0 0 C1.65 0 3.3 0 5 0 C5 0.66 5 1.32 5 2 C5.66 2 6.32 2 7 2 C7 2.99 7 3.98 7 5 C8.98 5 10.96 5 13 5 C13 5.66 13 6.32 13 7 C14.32 7.33 15.64 7.66 17 8 C12.91281305 8.24042276 9.82320557 7.42258812 6 6 C6 5.01 6 4.02 6 3 C5.195625 2.87625 4.39125 2.7525 3.5625 2.625 C2.716875 2.41875 1.87125 2.2125 1 2 C0.67 1.34 0.34 0.68 0 0 Z " fill="#EBE1F5" transform="translate(213,4)"/>
<path d="M0 0 C-0.66 0 -1.32 0 -2 0 C-2 0.66 -2 1.32 -2 2 C-2.99 2 -3.98 2 -5 2 C-5 2.99 -5 3.98 -5 5 C-6.65 5 -8.3 5 -10 5 C-10 5.66 -10 6.32 -10 7 C-10.66 6.67 -11.32 6.34 -12 6 C-11 3 -11 3 -9.2578125 1.796875 C-8.55398438 1.45140625 -7.85015625 1.1059375 -7.125 0.75 C-6.42632813 0.39421875 -5.72765625 0.0384375 -5.0078125 -0.328125 C-3 -1 -3 -1 0 0 Z " fill="#EBE1F5" transform="translate(810,557)"/>
<path d="M0 0 C1.65 0 3.3 0 5 0 C4.01 1.485 4.01 1.485 3 3 C0.375 3.1875 0.375 3.1875 -2 3 C-2 3.99 -2 4.98 -2 6 C-3.98 6.66 -5.96 7.32 -8 8 C-8 7.01 -8 6.02 -8 5 C-6.35 5 -4.7 5 -3 5 C-3 4.01 -3 3.02 -3 2 C-2.01 2 -1.02 2 0 2 C0 1.34 0 0.68 0 0 Z " fill="#E7DAF2" transform="translate(646,90)"/>
<path d="M0 0 C0.66 0 1.32 0 2 0 C2 0.66 2 1.32 2 2 C3.65 2 5.3 2 7 2 C7 2.99 7 3.98 7 5 C8.32 5 9.64 5 11 5 C11 5.99 11 6.98 11 8 C10.34 8 9.68 8 9 8 C9 7.34 9 6.68 9 6 C8.236875 5.855625 7.47375 5.71125 6.6875 5.5625 C4 5 4 5 1 4 C0.3125 1.9375 0.3125 1.9375 0 0 Z " fill="#DECDEE" transform="translate(237,17)"/>
<path d="M0 0 C0.33 0.66 0.66 1.32 1 2 C1.763125 1.95875 2.52625 1.9175 3.3125 1.875 C6 2 6 2 9 4 C9.6875 6.125 9.6875 6.125 10 8 C9.34 8 8.68 8 8 8 C8 7.34 8 6.68 8 6 C6.35 6 4.7 6 3 6 C3 5.01 3 4.02 3 3 C2.01 3 1.02 3 0 3 C0 2.01 0 1.02 0 0 Z " fill="#E7DAF3" transform="translate(207,564)"/>
<path d="M0 0 C1.65 0 3.3 0 5 0 C5.33 0.99 5.66 1.98 6 3 C7.65 3 9.3 3 11 3 C11 3.99 11 4.98 11 6 C7.62537285 5.45276317 5.91765 4.9451 3 3 C3 2.34 3 1.68 3 1 C2.01 0.67 1.02 0.34 0 0 Z " fill="#EBE1F5" transform="translate(327,71)"/>
<path d="M0 0 C2.31 0.33 4.62 0.66 7 1 C7 1.99 7 2.98 7 4 C7.99 4 8.98 4 10 4 C11.6875 6 11.6875 6 13 8 C9.592308 7.39148357 7.7284449 6.06700371 5 4 C3.35202764 3.28837557 1.68834592 2.60968047 0 2 C0 1.34 0 0.68 0 0 Z " fill="#AE84D5" transform="translate(320,68)"/>
<path d="M0 0 C0.99 0 1.98 0 3 0 C3 0.66 3 1.32 3 2 C2.34 2 1.68 2 1 2 C1 3.65 1 5.3 1 7 C0.01 7 -0.98 7 -2 7 C-2 7.99 -2 8.98 -2 10 C-2.66 10 -3.32 10 -4 10 C-4.33 10.66 -4.66 11.32 -5 12 C-5 10.68 -5 9.36 -5 8 C-4.34 8 -3.68 8 -3 8 C-1.58622659 5.36095629 -0.62759865 2.92879371 0 0 Z " fill="#E7DBF3" transform="translate(825,534)"/>
<path d="M0 0 C0.66 0.33 1.32 0.66 2 1 C-1.63 4.63 -5.26 8.26 -9 12 C-9 8.00102358 -7.64683965 6.93298448 -5 4 C-3.36643049 2.62631655 -1.7074998 1.28062485 0 0 Z " fill="#9B67CC" transform="translate(20,453)"/>
<path d="M0 0 C1.98 0.66 3.96 1.32 6 2 C6 2.66 6 3.32 6 4 C7.65 4 9.3 4 11 4 C11 4.99 11 5.98 11 7 C11.66 7.33 12.32 7.66 13 8 C11.35 8 9.7 8 8 8 C8 7.01 8 6.02 8 5 C7.01 5 6.02 5 5 5 C5 4.34 5 3.68 5 3 C3.35 2.67 1.7 2.34 0 2 C0 1.34 0 0.68 0 0 Z " fill="#8444C0" transform="translate(346,84)"/>
<path d="M0 0 C1.32 0.33 2.64 0.66 4 1 C3.01 1 2.02 1 1 1 C1 1.66 1 2.32 1 3 C0.01 3.33 -0.98 3.66 -2 4 C-2.33 4.66 -2.66 5.32 -3 6 C-6.0625 6.625 -6.0625 6.625 -9 7 C-8.67 6.01 -8.34 5.02 -8 4 C-7.01 4 -6.02 4 -5 4 C-5 3.34 -5 2.68 -5 2 C-3.35 2 -1.7 2 0 2 C0 1.34 0 0.68 0 0 Z " fill="#A778D2" transform="translate(715,52)"/>
<path d="M0 0 C0.99 0.33 1.98 0.66 3 1 C2.67 1.99 2.34 2.98 2 4 C0.68 4 -0.64 4 -2 4 C-2 4.66 -2 5.32 -2 6 C-3.65 6 -5.3 6 -7 6 C-7 6.66 -7 7.32 -7 8 C-7.66 8 -8.32 8 -9 8 C-8.67 7.01 -8.34 6.02 -8 5 C-6.35 5 -4.7 5 -3 5 C-3 4.34 -3 3.68 -3 3 C-2.34 3 -1.68 3 -1 3 C-0.67 2.01 -0.34 1.02 0 0 Z " fill="#EDE3F6" transform="translate(717,48)"/>
<path d="M0 0 C1.65 0 3.3 0 5 0 C5 1.65 5 3.3 5 5 C5.99 5 6.98 5 8 5 C7.67 5.99 7.34 6.98 7 8 C6.01 7.34 5.02 6.68 4 6 C4 5.34 4 4.68 4 4 C3.01 4 2.02 4 1 4 C0.67 2.68 0.34 1.36 0 0 Z " fill="#DBC9ED" transform="translate(823,9)"/>
<path d="M0 0 C1.98 0 3.96 0 6 0 C5.01 0.33 4.02 0.66 3 1 C3 1.66 3 2.32 3 3 C0.09399739 4.25664978 -1.79604584 5 -5 5 C-5 4.01 -5 3.02 -5 2 C-3.35 2 -1.7 2 0 2 C0 1.34 0 0.68 0 0 Z " fill="#DCCAED" transform="translate(758,25)"/>
<path d="M0 0 C0.66 0.33 1.32 0.66 2 1 C1.67 1.66 1.34 2.32 1 3 C0.01 3 -0.98 3 -2 3 C-2 3.99 -2 4.98 -2 6 C-4.64 6 -7.28 6 -10 6 C-9.46375 5.7525 -8.9275 5.505 -8.375 5.25 C-5.43575748 3.70303025 -2.74245592 1.86985631 0 0 Z " fill="#D6C0EA" transform="translate(765,582)"/>
<path d="M0 0 C0.66 0.33 1.32 0.66 2 1 C1.5359375 1.7425 1.5359375 1.7425 1.0625 2.5 C-0.41644382 5.97986781 -0.62402851 9.24028509 -1 13 C-1.99 13.33 -2.98 13.66 -4 14 C-3.71572583 12.41532272 -3.42225182 10.8322943 -3.125 9.25 C-2.96257812 8.36828125 -2.80015625 7.4865625 -2.6328125 6.578125 C-2.03203736 4.13052256 -1.22002883 2.19400143 0 0 Z " fill="#8D51C5" transform="translate(182,10)"/>
<path d="M0 0 C4.10899581 1.12795963 8.07561214 2.33510818 12 4 C11.67 4.66 11.34 5.32 11 6 C9.948125 5.5359375 9.948125 5.5359375 8.875 5.0625 C5.91063343 3.96697322 3.12301892 3.43577008 0 3 C0 2.01 0 1.02 0 0 Z " fill="#9964CB" transform="translate(207,3)"/>
<path d="M0 0 C4.95 0 9.9 0 15 0 C14.67 0.99 14.34 1.98 14 3 C13.67 2.67 13.34 2.34 13 2 C11.37747508 1.90113647 9.75052727 1.87028833 8.125 1.875 C7.24070312 1.87242187 6.35640625 1.86984375 5.4453125 1.8671875 C2.86093709 1.89951415 2.86093709 1.89951415 0 3 C0 2.01 0 1.02 0 0 Z " fill="#E8DCF3" transform="translate(800,1)"/>
<path d="M0 0 C1.65 0 3.3 0 5 0 C5 0.99 5 1.98 5 3 C6.175625 3.185625 6.175625 3.185625 7.375 3.375 C10 4 10 4 12 6 C10.51793505 5.745504 9.03931385 5.47088238 7.5625 5.1875 C6.73878906 5.03667969 5.91507812 4.88585937 5.06640625 4.73046875 C4.38449219 4.48941406 3.70257813 4.24835938 3 4 C2.67 3.01 2.34 2.02 2 1 C1.34 0.67 0.68 0.34 0 0 Z " fill="#9158C7" transform="translate(308,62)"/>
<path d="M0 0 C2.31 0.33 4.62 0.66 7 1 C7.33 1.99 7.66 2.98 8 4 C8.99 4 9.98 4 11 4 C10.67 4.66 10.34 5.32 10 6 C6.40992874 4.66654496 3.20429093 3.1056769 0 1 C0 0.67 0 0.34 0 0 Z " fill="#8A4CC3" transform="translate(238,582)"/>
<path d="M0 0 C0.33 0.99 0.66 1.98 1 3 C-0.3125 5.1875 -0.3125 5.1875 -2 7 C-2.66 7 -3.32 7 -4 7 C-4.33 7.66 -4.66 8.32 -5 9 C-5 7.35 -5 5.7 -5 4 C-4.34 4 -3.68 4 -3 4 C-3 3.34 -3 2.68 -3 2 C-2.01 2 -1.02 2 0 2 C0 1.34 0 0.68 0 0 Z " fill="#9862CA" transform="translate(824,535)"/>
<path d="M0 0 C2.64060315 0.46335112 4.05173347 1.64794167 6.0703125 3.36328125 C5.31105469 3.29109375 4.55179688 3.21890625 3.76953125 3.14453125 C2.77566406 3.05171875 1.78179688 2.95890625 0.7578125 2.86328125 C-0.72138672 2.7240625 -0.72138672 2.7240625 -2.23046875 2.58203125 C-4.97670889 2.32289268 -4.97670889 2.32289268 -7.9296875 2.36328125 C-5.35519169 -0.21121456 -3.51631603 0.08690515 0 0 Z " fill="#742BB8" transform="translate(809.9296875,2.63671875)"/>
<path d="M0 0 C0.99 0 1.98 0 3 0 C3 0.99 3 1.98 3 3 C-0.3 3 -3.6 3 -7 3 C-7.33 3.66 -7.66 4.32 -8 5 C-8 4.01 -8 3.02 -8 2 C-6.865625 1.855625 -5.73125 1.71125 -4.5625 1.5625 C-1.19222799 1.38828522 -1.19222799 1.38828522 0 0 Z " fill="#F3EDF9" transform="translate(708,606)"/>
<path d="M0 0 C0.66 0 1.32 0 2 0 C2 0.66 2 1.32 2 2 C4.97 2 7.94 2 11 2 C11 2.99 11 3.98 11 5 C10.01 5 9.02 5 8 5 C8 4.34 8 3.68 8 3 C5.69 3 3.38 3 1 3 C0.67 2.01 0.34 1.02 0 0 Z " fill="#F1EAF8" transform="translate(275,601)"/>
<path d="M0 0 C2.475 0.495 2.475 0.495 5 1 C5 1.99 5 2.98 5 4 C6.32 4 7.64 4 9 4 C9.33 4.99 9.66 5.98 10 7 C9.34 7 8.68 7 8 7 C8 6.34 8 5.68 8 5 C7.236875 5.061875 6.47375 5.12375 5.6875 5.1875 C3 5 3 5 1.1875 3.625 C0 2 0 2 0 0 Z " fill="#8A4DC3" transform="translate(250,27)"/>
<path d="M0 0 C1.98 0 3.96 0 6 0 C6 0.99 6 1.98 6 3 C7.65 3 9.3 3 11 3 C11 3.99 11 4.98 11 6 C9.02 5.34 7.04 4.68 5 4 C5 3.01 5 2.02 5 1 C3.35 1 1.7 1 0 1 C0 0.67 0 0.34 0 0 Z " fill="#D6C1EA" transform="translate(264,35)"/>
<path d="M0 0 C0.33 0.99 0.66 1.98 1 3 C0.34 3 -0.32 3 -1 3 C-1 3.99 -1 4.98 -1 6 C-3.31 6.66 -5.62 7.32 -8 8 C-8 7.01 -8 6.02 -8 5 C-6.02 5 -4.04 5 -2 5 C-2 4.01 -2 3.02 -2 2 C-1.34 2 -0.68 2 0 2 C0 1.34 0 0.68 0 0 Z " fill="#E9DDF3" transform="translate(784,9)"/>
<path d="M0 0 C1.31823302 0.59155331 2.62947051 1.19871463 3.9375 1.8125 C5.03384766 2.31716797 5.03384766 2.31716797 6.15234375 2.83203125 C8 4 8 4 9 7 C8.34 7 7.68 7 7 7 C7 6.34 7 5.68 7 5 C5.35 5 3.7 5 2 5 C2 4.01 2 3.02 2 2 C1.34 2 0.68 2 0 2 C0 1.34 0 0.68 0 0 Z " fill="#E9DEF4" transform="translate(229,578)"/>
<path d="M0 0 C1.65 0 3.3 0 5 0 C2.59563974 3.60654039 1.05320393 3.85452932 -3 5 C-3 4.01 -3 3.02 -3 2 C-2.01 2 -1.02 2 0 2 C0 1.34 0 0.68 0 0 Z " fill="#E1D1EF" transform="translate(633,98)"/>
<path d="M0 0 C0 0.99 0 1.98 0 3 C-2.97 3 -5.94 3 -9 3 C-3 0 -3 0 0 0 Z " fill="#E1D2EF" transform="translate(693,611)"/>
<path d="M0 0 C0.99 0 1.98 0 3 0 C2.67 0.99 2.34 1.98 2 3 C0.35 3 -1.3 3 -3 3 C-3 3.66 -3 4.32 -3 5 C-3.66 5 -4.32 5 -5 5 C-5 4.01 -5 3.02 -5 2 C-3.35 2 -1.7 2 0 2 C0 1.34 0 0.68 0 0 Z " fill="#F7F4FB" transform="translate(755,588)"/>
<path d="M0 0 C0 0.99 0 1.98 0 3 C-0.66 3 -1.32 3 -2 3 C-2 3.66 -2 4.32 -2 5 C-3.65 5.33 -5.3 5.66 -7 6 C-6.67 5.34 -6.34 4.68 -6 4 C-5.34 4 -4.68 4 -4 4 C-3.67 3.01 -3.34 2.02 -3 1 C-2.01 0.67 -1.02 0.34 0 0 Z " fill="#AE84D5" transform="translate(798,561)"/>
<path d="M0 0 C1.32 0.33 2.64 0.66 4 1 C-0.75 5 -0.75 5 -3 5 C-3 4.01 -3 3.02 -3 2 C-2.01 2 -1.02 2 0 2 C0 1.34 0 0.68 0 0 Z " fill="#7D39BC" transform="translate(806,552)"/>
<path d="M0 0 C3.66881155 0.70554068 6.70450534 2.27735506 10 4 C6.19881294 5.26706235 4.6149628 4.57172296 1 3 C0.67 2.01 0.34 1.02 0 0 Z " fill="#9C68CC" transform="translate(297,55)"/>
<path d="M0 0 C0.66 0.33 1.32 0.66 2 1 C1.67 1.99 1.34 2.98 1 4 C-0.98 4.33 -2.96 4.66 -5 5 C-5 4.01 -5 3.02 -5 2 C-3.35 2 -1.7 2 0 2 C0 1.34 0 0.68 0 0 Z " fill="#E0D0EF" transform="translate(750,30)"/>
</svg>
