<?xml version="1.0" encoding="UTF-8"?>
<svg version="1.1" xmlns="http://www.w3.org/2000/svg" width="26" height="33">
<path d="M0 0 C2.5 1.5 2.5 1.5 4 4 C4.47462745 7.4806013 4.60420518 10.79158965 3 14 C4.2065625 14.6496875 4.2065625 14.6496875 5.4375 15.3125 C8 17 8 17 9 20 C9.09357692 21.85227252 9.12993909 23.7078718 9.125 25.5625 C9.12886719 27.01849609 9.12886719 27.01849609 9.1328125 28.50390625 C9 31 9 31 8 33 C0.08 33 -7.84 33 -16 33 C-17.96020669 29.07958662 -17.35237109 24.28409059 -17 20 C-15.6875 16.875 -15.6875 16.875 -14 15 C-13.01 14.67 -12.02 14.34 -11 14 C-11.33 13.34 -11.66 12.68 -12 12 C-12.56872038 4.9478673 -12.56872038 4.9478673 -10.5 1.5 C-6.96411027 -0.62153384 -4.02098277 -0.791013 0 0 Z " fill="#5700AA" transform="translate(17,0)"/>
</svg>
