<?xml version="1.0" encoding="UTF-8"?>
<!DOCTYPE svg PUBLIC "-//W3C//DTD SVG 1.1//EN" "http://www.w3.org/Graphics/SVG/1.1/DTD/svg11.dtd">
<svg xmlns="http://www.w3.org/2000/svg" version="1.1" width="32px" height="25px" style="shape-rendering:geometricPrecision; text-rendering:geometricPrecision; image-rendering:optimizeQuality; fill-rule:evenodd; clip-rule:evenodd" xmlns:xlink="http://www.w3.org/1999/xlink">
<g><path style="opacity:0.718" fill="#fefffe" d="M 1.5,-0.5 C 8.5,-0.5 15.5,-0.5 22.5,-0.5C 22.5858,0.495904 22.2524,1.32924 21.5,2C 15.5,2.33333 9.5,2.66667 3.5,3C 2.16667,9 2.16667,15 3.5,21C 9.49076,21.4995 15.4908,21.6662 21.5,21.5C 21.5,19.8333 21.5,18.1667 21.5,16.5C 22.1667,16.5 22.5,16.1667 22.5,15.5C 23.1667,15.5 23.5,15.1667 23.5,14.5C 26.0003,17.6491 26.0003,20.9825 23.5,24.5C 16.1667,24.5 8.83333,24.5 1.5,24.5C 1.16667,23.5 0.5,22.8333 -0.5,22.5C -0.5,15.5 -0.5,8.5 -0.5,1.5C 0.5,1.16667 1.16667,0.5 1.5,-0.5 Z M 14.5,14.5 C 16.7602,15.2376 16.9269,16.2376 15,17.5C 13.2716,16.6477 13.105,15.6477 14.5,14.5 Z"/></g>
<g><path style="opacity:0.665" fill="#fefffe" d="M 25.5,-0.5 C 26.8333,-0.5 28.1667,-0.5 29.5,-0.5C 29.8333,0.5 30.5,1.16667 31.5,1.5C 31.5,3.16667 31.5,4.83333 31.5,6.5C 28.5271,8.80617 25.8605,11.4728 23.5,14.5C 22.8333,14.5 22.5,14.8333 22.5,15.5C 21.8333,15.5 21.5,15.8333 21.5,16.5C 18.7173,20.0083 15.0506,21.3417 10.5,20.5C 10.3367,18.1432 10.5034,15.8098 11,13.5C 15.7287,8.60254 20.562,3.93588 25.5,-0.5 Z M 14.5,14.5 C 13.105,15.6477 13.2716,16.6477 15,17.5C 16.9269,16.2376 16.7602,15.2376 14.5,14.5 Z"/></g>
</svg>
