<?xml version="1.0" encoding="utf-8"?>
<svg version="1.1" xmlns:xlink="http://www.w3.org/1999/xlink" width="29px" height="24px" xmlns="http://www.w3.org/2000/svg">
  <g transform="matrix(1 0 0 1 -40 -213 )">
    <path d="M 24.831474597273854 13.7116134060795  C 24.843453118546055 13.736554949337489  24.849442379182157 13.773967264224474  24.849442379182157 13.823850350740452  L 24.849442379182157 22.802805923616525  C 24.849442379182157 23.12704598597038  24.735646427096246 23.407638347622758  24.50805452292441 23.644583008573655  C 24.280462618752583 23.88152766952455  24.01094589012805 24  23.699504337050804 24  L 16.7998760842627 24  L 16.7998760842627 16.81683554169914  L 12.200123915737299 16.81683554169914  L 12.200123915737299 24  L 5.300495662949195 24  C 4.9890541098719545 24  4.719537381247419 23.88152766952455  4.491945477075588 23.644583008573655  C 4.264353572903759 23.407638347622758  4.150557620817843 23.12704598597038  4.150557620817843 22.802805923616525  L 4.150557620817843 13.823850350740452  C 4.150557620817843 13.811379579111456  4.153552251135895 13.792673421667965  4.159541511771995 13.767731878409975  C 4.165530772408096 13.742790335151987  4.1685254027261465 13.724084177708496  4.1685254027261465 13.7116134060795  L 14.5 4.84489477786438  L 24.831474597273854 13.7116134060795  Z M 28.982032218091696 12.09353078721746  C 28.9940107393639 12.261886204208885  28.952085914911198 12.40841777084957  28.85625774473358 12.533125487139518  L 27.742255266418834 13.917381137957912  C 27.646427096241226 14.029618082618864  27.52065262288311 14.098207326578333  27.364931846344486 14.12314886983632  L 27.311028500619578 14.12314886983632  C 27.15530772408096 14.12314886983632  27.029533250722846 14.07950116913484  26.933705080545227 13.992205767731877  L 14.5 3.1987529228371008  L 2.0662949194547706 13.992205767731877  C 1.922552664188352 14.091971940763832  1.7788104089219332 14.135619641465315  1.6350681536555143 14.12314886983632  C 1.479347377116894 14.098207326578333  1.3535729037587776 14.029618082618864  1.2577447335811647 13.917381137957912  L 0.14374225526641884 12.533125487139518  C 0.0479140850888063 12.40841777084957  0.005989260636100828 12.261886204208885  0.017967781908302356 12.09353078721746  C 0.02994630318050401 11.925175370226032  0.0958281701776126 11.79111457521434  0.21561338289962825 11.691348402182385  L 13.13444857496902 0.4863600935307879  C 13.517761255679472 0.16212003117692664  13.972945064023131 0  14.5 0  C 15.02705493597687 0  15.482238744320531 0.16212003117692664  15.86555142503098 0.4863600935307879  L 20.249690210656755 4.302416212003116  L 20.249690210656755 0.6547155105222124  C 20.249690210656755 0.48012470771628735  20.30359355638166 0.33671083398285173  20.411400247831473 0.22447388932190293  C 20.51920693928129 0.11223694466095147  20.656959933911608 0.05611847233047573  20.82465923172243 0.05611847233047573  L 24.27447335811648 0.05611847233047573  C 24.442172655927305 0.05611847233047573  24.57992565055762 0.11223694466095147  24.687732342007433 0.22447388932190293  C 24.79553903345725 0.33671083398285173  24.849442379182157 0.48012470771628735  24.849442379182157 0.6547155105222124  L 24.849442379182157 8.286827747466875  L 28.78438661710037 11.691348402182385  C 28.90417182982239 11.79111457521434  28.970053696819498 11.925175370226032  28.982032218091696 12.09353078721746  Z " fill-rule="nonzero" fill="#5225aa" stroke="none" transform="matrix(1 0 0 1 40 213 )" />
  </g>
</svg>