<?xml version="1.0" encoding="UTF-8"?>
<!DOCTYPE svg PUBLIC "-//W3C//DTD SVG 1.1//EN" "http://www.w3.org/Graphics/SVG/1.1/DTD/svg11.dtd">
<svg xmlns="http://www.w3.org/2000/svg" version="1.1" width="25px" height="21px" style="shape-rendering:geometricPrecision; text-rendering:geometricPrecision; image-rendering:optimizeQuality; fill-rule:evenodd; clip-rule:evenodd" xmlns:xlink="http://www.w3.org/1999/xlink">
<g><path style="opacity:0.895" fill="#fefffe" d="M 1.5,-0.5 C 4.16667,-0.5 6.83333,-0.5 9.5,-0.5C 11.1667,2.16667 12.8333,2.16667 14.5,-0.5C 17.1667,-0.5 19.8333,-0.5 22.5,-0.5C 22.8333,0.5 23.5,1.16667 24.5,1.5C 24.5,4.16667 24.5,6.83333 24.5,9.5C 21.1667,13.5 17.5,17.1667 13.5,20.5C 12.5,20.5 11.5,20.5 10.5,20.5C 6.5,17.1667 2.83333,13.5 -0.5,9.5C -0.5,6.83333 -0.5,4.16667 -0.5,1.5C 0.5,1.16667 1.16667,0.5 1.5,-0.5 Z"/></g>
</svg>
