<?xml version="1.0" encoding="UTF-8"?>
<svg version="1.1" xmlns="http://www.w3.org/2000/svg" width="25" height="21">
<path d="M0 0 C2.73886155 0.02559684 4.40257532 0.30085844 7.0625 1.1875 C7.7225 0.8575 8.3825 0.5275 9.0625 0.1875 C10.9375 0.01953125 10.9375 0.01953125 13.0625 0 C14.114375 -0.02126953 14.114375 -0.02126953 15.1875 -0.04296875 C17.0625 0.1875 17.0625 0.1875 19.0625 2.1875 C19.71365338 6.38382177 19.97743608 8.77624244 17.63671875 12.38671875 C14.7835653 15.69197789 11.82987374 18.93145642 8.0625 21.1875 C4.25240043 21.05821518 2.09085314 18.73242444 -0.625 16.25 C-1.41261719 15.53972656 -2.20023437 14.82945313 -3.01171875 14.09765625 C-5.69532119 11.43582746 -6.09123669 9.86094811 -6.125 6.1875 C-6.13917969 5.48625 -6.15335937 4.785 -6.16796875 4.0625 C-5.67390394 0.04298964 -3.71879478 0.17708547 0 0 Z " fill="#5224A9" transform="translate(5.9375,-0.1875)"/>
</svg>
