<?xml version="1.0" encoding="UTF-8"?>
<!DOCTYPE svg PUBLIC "-//W3C//DTD SVG 1.1//EN" "http://www.w3.org/Graphics/SVG/1.1/DTD/svg11.dtd">
<svg xmlns="http://www.w3.org/2000/svg" version="1.1" width="23px" height="21px" style="shape-rendering:geometricPrecision; text-rendering:geometricPrecision; image-rendering:optimizeQuality; fill-rule:evenodd; clip-rule:evenodd" xmlns:xlink="http://www.w3.org/1999/xlink">
<g><path style="opacity:0.861" fill="#fefffe" d="M 9.5,-0.5 C 10.5,-0.5 11.5,-0.5 12.5,-0.5C 15.5961,5.36677 18.9294,11.0334 22.5,16.5C 22.5,17.8333 22.5,19.1667 22.5,20.5C 14.8333,20.5 7.16667,20.5 -0.5,20.5C -0.5,19.1667 -0.5,17.8333 -0.5,16.5C 3.07059,11.0334 6.40392,5.36677 9.5,-0.5 Z M 9.5,6.5 C 10.5,6.5 11.5,6.5 12.5,6.5C 12.5,8.16667 12.5,9.83333 12.5,11.5C 11.5,11.5 10.5,11.5 9.5,11.5C 9.5,9.83333 9.5,8.16667 9.5,6.5 Z M 9.5,14.5 C 10.675,14.281 11.675,14.6143 12.5,15.5C 10.9483,16.7979 9.94835,16.4646 9.5,14.5 Z"/></g>
</svg>
