<?xml version="1.0" encoding="UTF-8"?>
<svg version="1.1" xmlns="http://www.w3.org/2000/svg" width="29" height="24">
<path d="M0 0 C0.66 0.66 1.32 1.32 2 2 C2.33 1.34 2.66 0.68 3 0 C4.65 0 6.3 0 8 0 C8.103125 1.258125 8.20625 2.51625 8.3125 3.8125 C8.72721641 7.33449461 9.36281821 8.60256201 12 11 C11.6875 13.1875 11.6875 13.1875 11 15 C10.01 14.67 9.02 14.34 8 14 C8 17.3 8 20.6 8 24 C5.03 24 2.06 24 -1 24 C-1 21.69 -1 19.38 -1 17 C-1.99 17 -2.98 17 -4 17 C-4 19.31 -4 21.62 -4 24 C-6.97 24 -9.94 24 -13 24 C-13 20.7 -13 17.4 -13 14 C-13.99 14.33 -14.98 14.66 -16 15 C-16.6953125 13.21875 -16.6953125 13.21875 -17 11 C-15.7421875 9.21875 -15.7421875 9.21875 -13.875 7.5 C-13.2253125 6.90058594 -12.575625 6.30117187 -11.90625 5.68359375 C-11.2771875 5.12800781 -10.648125 4.57242187 -10 4 C-9.13375 3.195625 -8.2675 2.39125 -7.375 1.5625 C-4.62184224 -0.248788 -3.23222891 -0.52414523 0 0 Z " fill="#5124AA" transform="translate(17,0)"/>
</svg>
