<?xml version="1.0" encoding="UTF-8"?>
<!DOCTYPE svg PUBLIC "-//W3C//DTD SVG 1.1//EN" "http://www.w3.org/Graphics/SVG/1.1/DTD/svg11.dtd">
<svg xmlns="http://www.w3.org/2000/svg" version="1.1" width="29px" height="24px" style="shape-rendering:geometricPrecision; text-rendering:geometricPrecision; image-rendering:optimizeQuality; fill-rule:evenodd; clip-rule:evenodd" xmlns:xlink="http://www.w3.org/1999/xlink">
<g><path style="opacity:0.839" fill="#fefffe" d="M 11.5,-0.5 C 13.1667,-0.5 14.8333,-0.5 16.5,-0.5C 18.2825,3.05953 19.2825,3.05953 19.5,-0.5C 21.1667,-0.5 22.8333,-0.5 24.5,-0.5C 23.5124,4.19234 24.8458,7.85901 28.5,10.5C 28.5,11.5 28.5,12.5 28.5,13.5C 27.5272,14.7914 26.5272,14.7914 25.5,13.5C 24.513,16.7683 24.1796,20.1016 24.5,23.5C 21.5,23.5 18.5,23.5 15.5,23.5C 15.5,21.1667 15.5,18.8333 15.5,16.5C 14.5,16.5 13.5,16.5 12.5,16.5C 12.5,18.8333 12.5,21.1667 12.5,23.5C 9.5,23.5 6.5,23.5 3.5,23.5C 3.82036,20.1016 3.48702,16.7683 2.5,13.5C 1.47283,14.7914 0.472826,14.7914 -0.5,13.5C -0.5,12.5 -0.5,11.5 -0.5,10.5C 3.52592,6.80506 7.52592,3.1384 11.5,-0.5 Z"/></g>
</svg>
