<?xml version="1.0" encoding="utf-8"?>
<svg version="1.1" xmlns:xlink="http://www.w3.org/1999/xlink" width="25px" height="21px" xmlns="http://www.w3.org/2000/svg">
  <g transform="matrix(1 0 0 1 -41 -357 )">
    <path d="M 13.113839285714285 20.75390625  C 12.946428571428573 20.91796875  12.741815476190476 21  12.5 21  C 12.258184523809526 21  12.05357142857143 20.91796875  11.886160714285714 20.75390625  L 3.180803571428571 12.523437500000002  C 3.087797619047619 12.450520833333332  2.9599144345238098 12.332031249999998  2.797154017857143 12.167968749999998  C 2.6343936011904763 12.003906249999998  2.3763020833333335 11.705403645833334  2.0228794642857144 11.272460937500002  C 1.6694568452380951 10.839518229166664  1.3532366071428572 10.395182291666664  1.07421875 9.939453125  C 0.7952008928571428 9.483723958333334  0.5464099702380953 8.932291666666666  0.32784598214285715 8.28515625  C 0.10928199404761905 7.638020833333331  0 7.009114583333332  0 6.3984375  C 0 4.393229166666666  0.5905877976190476 2.825520833333332  1.7717633928571428 1.6953124999999991  C 2.952938988095238 0.5651041666666664  4.585193452380952 0  6.6685267857142865 0  C 7.245163690476191 0  7.8334263392857135 0.09798177083333204  8.433314732142858 0.2939453125000008  C 9.033203125 0.48990885416666485  9.591238839285714 0.754231770833332  10.107421875 1.0869140625  C 10.623604910714288 1.4195963541666656  11.067708333333336 1.7317708333333313  11.439732142857142 2.023437499999999  C 11.811755952380953 2.3151041666666647  12.165178571428571 2.625  12.5 2.953125  C 12.834821428571427 2.625  13.18824404761905 2.3151041666666647  13.560267857142858 2.023437499999999  C 13.932291666666668 1.7317708333333313  14.376395089285715 1.4195963541666656  14.892578125 1.0869140625  C 15.408761160714285 0.754231770833332  15.966796875 0.48990885416666485  16.566685267857142 0.2939453125000008  C 17.166573660714285 0.09798177083333204  17.75483630952381 0  18.331473214285715 0  C 20.41480654761905 0  22.047061011904763 0.5651041666666664  23.228236607142858 1.6953124999999991  C 24.409412202380953 2.825520833333332  25 4.393229166666666  25 6.3984375  C 25 8.412760416666666  23.935081845238095 10.463541666666666  21.805245535714285 12.55078125  L 13.113839285714285 20.75390625  Z " fill-rule="nonzero" fill="#5225aa" stroke="none" transform="matrix(1 0 0 1 41 357 )" />
  </g>
</svg>