<?xml version="1.0" encoding="UTF-8"?>
<!DOCTYPE svg PUBLIC "-//W3C//DTD SVG 1.1//EN" "http://www.w3.org/Graphics/SVG/1.1/DTD/svg11.dtd">
<svg xmlns="http://www.w3.org/2000/svg" version="1.1" width="96px" height="77px" style="shape-rendering:geometricPrecision; text-rendering:geometricPrecision; image-rendering:optimizeQuality; fill-rule:evenodd; clip-rule:evenodd" xmlns:xlink="http://www.w3.org/1999/xlink">
<g><path style="opacity:0.94" fill="#fcfcfc" d="M 20.5,-0.5 C 38.1667,-0.5 55.8333,-0.5 73.5,-0.5C 73.6666,19.8361 73.5,40.1694 73,60.5C 56.2406,61.6579 39.4073,61.8245 22.5,61C 22,60.5 21.5,60 21,59.5C 20.5,39.5028 20.3334,19.5028 20.5,-0.5 Z"/></g>
<g><path style="opacity:0.935" fill="#f8f8f8" d="M -0.5,11.5 C 5.75757,11.1903 11.9242,11.5236 18,12.5C 18.8329,28.5104 18.6662,44.5104 17.5,60.5C 11.561,61.4571 5.56103,61.7904 -0.5,61.5C -0.5,44.8333 -0.5,28.1667 -0.5,11.5 Z"/></g>
<g><path style="opacity:0.92" fill="#fefefe" d="M 95.5,11.5 C 95.5,28.1667 95.5,44.8333 95.5,61.5C 89.5746,61.8082 83.7412,61.4749 78,60.5C 77.5001,44.1701 77.3334,27.8367 77.5,11.5C 83.5,11.5 89.5,11.5 95.5,11.5 Z"/></g>
<g><path style="opacity:0.688" fill="#fefefe" d="M 65.5,76.5 C 63.1667,76.5 60.8333,76.5 58.5,76.5C 56.9458,75.0858 55.6125,73.4192 54.5,71.5C 53.2371,73.0287 52.2371,74.6954 51.5,76.5C 49.1667,76.5 46.8333,76.5 44.5,76.5C 42.5591,75.3259 41.0591,73.6592 40,71.5C 38.8236,73.1957 37.657,74.8624 36.5,76.5C 34.1667,76.5 31.8333,76.5 29.5,76.5C 25.3501,71.397 26.1835,67.0636 32,63.5C 35.5711,63.8218 38.4045,65.8218 40.5,69.5C 42.5209,65.7839 45.3542,63.7839 49,63.5C 51.0176,65.3501 52.8509,67.3501 54.5,69.5C 56.5209,65.7839 59.3542,63.7839 63,63.5C 68.8165,67.0636 69.6499,71.397 65.5,76.5 Z"/></g>
</svg>
