<?xml version="1.0" encoding="UTF-8"?>
<!DOCTYPE svg PUBLIC "-//W3C//DTD SVG 1.1//EN" "http://www.w3.org/Graphics/SVG/1.1/DTD/svg11.dtd">
<svg xmlns="http://www.w3.org/2000/svg" version="1.1" width="1000px" height="1000px" style="shape-rendering:geometricPrecision; text-rendering:geometricPrecision; image-rendering:optimizeQuality; fill-rule:evenodd; clip-rule:evenodd" xmlns:xlink="http://www.w3.org/1999/xlink">
<g><path style="opacity:0.987" fill="#fefefe" d="M 192.5,199.5 C 201.32,198.999 209.986,199.832 218.5,202C 220.174,203.506 221.174,205.339 221.5,207.5C 225.212,207.961 228.879,208.627 232.5,209.5C 232.5,210.5 232.5,211.5 232.5,212.5C 234.167,212.5 235.833,212.5 237.5,212.5C 237.5,213.5 237.5,214.5 237.5,215.5C 240.025,216.64 242.692,217.307 245.5,217.5C 245.5,218.5 245.5,219.5 245.5,220.5C 247.167,220.5 248.833,220.5 250.5,220.5C 250.5,221.5 250.5,222.5 250.5,223.5C 253.025,224.64 255.692,225.307 258.5,225.5C 258.5,226.5 258.5,227.5 258.5,228.5C 262.096,228.834 265.429,230 268.5,232C 270.439,232.908 271.439,234.408 271.5,236.5C 274.887,237.018 278.221,237.851 281.5,239C 283.174,240.506 284.174,242.339 284.5,244.5C 288.212,244.961 291.879,245.627 295.5,246.5C 295.703,248.638 296.703,250.305 298.5,251.5C 301.684,253.11 305.017,254.11 308.5,254.5C 308.5,255.5 308.5,256.5 308.5,257.5C 310.167,257.5 311.833,257.5 313.5,257.5C 313.5,258.5 313.5,259.5 313.5,260.5C 316.025,261.64 318.692,262.307 321.5,262.5C 321.5,263.5 321.5,264.5 321.5,265.5C 324.308,265.693 326.975,266.36 329.5,267.5C 329.5,268.5 329.5,269.5 329.5,270.5C 331.167,270.5 332.833,270.5 334.5,270.5C 334.5,271.5 334.5,272.5 334.5,273.5C 338.791,272.82 341.457,274.486 342.5,278.5C 344.167,278.5 345.833,278.5 347.5,278.5C 347.5,279.5 347.5,280.5 347.5,281.5C 351.827,280.803 354.494,282.47 355.5,286.5C 357.5,286.5 359.5,286.5 361.5,286.5C 361.5,287.5 361.5,288.5 361.5,289.5C 365.487,289.011 367.82,290.678 368.5,294.5C 370.5,294.5 372.5,294.5 374.5,294.5C 374.5,295.5 374.5,296.5 374.5,297.5C 377.308,297.693 379.975,298.36 382.5,299.5C 382.5,300.5 382.5,301.5 382.5,302.5C 466.5,302.5 550.5,302.5 634.5,302.5C 635.543,298.486 638.209,296.82 642.5,297.5C 642.5,296.5 642.5,295.5 642.5,294.5C 644.167,294.5 645.833,294.5 647.5,294.5C 647.5,293.5 647.5,292.5 647.5,291.5C 650.025,290.36 652.692,289.693 655.5,289.5C 655.5,288.5 655.5,287.5 655.5,286.5C 657.167,286.5 658.833,286.5 660.5,286.5C 660.5,285.5 660.5,284.5 660.5,283.5C 663.025,282.36 665.692,281.693 668.5,281.5C 668.5,280.5 668.5,279.5 668.5,278.5C 670.167,278.5 671.833,278.5 673.5,278.5C 673.5,277.5 673.5,276.5 673.5,275.5C 676.33,275.306 678.996,274.639 681.5,273.5C 681.5,272.5 681.5,271.5 681.5,270.5C 685.141,269.352 688.808,268.019 692.5,266.5C 693.853,265.476 694.52,264.143 694.5,262.5C 698.212,262.039 701.879,261.373 705.5,260.5C 705.826,258.339 706.826,256.506 708.5,255C 711.779,253.851 715.113,253.018 718.5,252.5C 718.5,251.5 718.5,250.5 718.5,249.5C 722.413,247.055 726.746,245.389 731.5,244.5C 731.5,243.5 731.5,242.5 731.5,241.5C 733.167,241.5 734.833,241.5 736.5,241.5C 736.5,240.5 736.5,239.5 736.5,238.5C 739.025,237.36 741.692,236.693 744.5,236.5C 744.5,235.5 744.5,234.5 744.5,233.5C 748.141,232.352 751.808,231.019 755.5,229.5C 756.853,228.476 757.52,227.143 757.5,225.5C 761.212,225.039 764.879,224.373 768.5,223.5C 768.5,222.5 768.5,221.5 768.5,220.5C 769.5,220.5 770.5,220.5 771.5,220.5C 771.5,219.5 771.5,218.5 771.5,217.5C 774.833,216.833 778.167,216.167 781.5,215.5C 781.5,214.5 781.5,213.5 781.5,212.5C 783.167,212.5 784.833,212.5 786.5,212.5C 786.5,211.5 786.5,210.5 786.5,209.5C 789.025,208.36 791.692,207.693 794.5,207.5C 794.5,206.5 794.5,205.5 794.5,204.5C 800.255,201.952 806.421,200.285 813,199.5C 817.286,199.793 821.453,200.626 825.5,202C 827.174,203.506 828.174,205.339 828.5,207.5C 830.167,207.5 831.833,207.5 833.5,207.5C 834.063,210.374 835.063,213.04 836.5,215.5C 837.5,215.5 838.5,215.5 839.5,215.5C 839.333,284.834 839.5,354.167 840,423.5C 880.678,414.264 921.512,405.597 962.5,397.5C 988.357,401.862 998.19,416.862 992,442.5C 988.439,450.394 982.605,455.894 974.5,459C 928.62,469.409 882.62,479.243 836.5,488.5C 836.5,502.5 836.5,516.5 836.5,530.5C 881.835,530.333 927.168,530.5 972.5,531C 988.181,535.321 996.848,545.654 998.5,562C 997.268,578.16 988.935,588.493 973.5,593C 927.835,593.5 882.168,593.667 836.5,593.5C 836.5,606.167 836.5,618.833 836.5,631.5C 882.197,636.754 927.863,642.254 973.5,648C 991.392,654.603 998.892,667.437 996,686.5C 990.101,704.034 977.935,711.868 959.5,710C 918.485,705.165 877.485,700.332 836.5,695.5C 836.833,709.849 836.499,724.182 835.5,738.5C 832.618,740.367 831.285,743.034 831.5,746.5C 828.5,746.833 826.833,748.5 826.5,751.5C 825.5,751.5 824.5,751.5 823.5,751.5C 823.5,752.5 823.5,753.5 823.5,754.5C 820.5,754.833 818.833,756.5 818.5,759.5C 817.5,759.5 816.5,759.5 815.5,759.5C 815.5,760.5 815.5,761.5 815.5,762.5C 812.5,762.833 810.833,764.5 810.5,767.5C 808.833,767.5 807.167,767.5 805.5,767.5C 805.5,768.5 805.5,769.5 805.5,770.5C 801.899,772.348 798.232,774.015 794.5,775.5C 794.5,776.5 794.5,777.5 794.5,778.5C 791.996,779.639 789.33,780.306 786.5,780.5C 786.5,781.5 786.5,782.5 786.5,783.5C 783.692,783.693 781.025,784.36 778.5,785.5C 778.5,786.5 778.5,787.5 778.5,788.5C 776.833,788.5 775.167,788.5 773.5,788.5C 773.5,789.5 773.5,790.5 773.5,791.5C 770.017,791.89 766.684,792.89 763.5,794.5C 760.894,795.922 758.228,797.422 755.5,799C 751.832,799.948 748.165,800.781 744.5,801.5C 744.5,802.5 744.5,803.5 744.5,804.5C 741.833,804.5 739.167,804.5 736.5,804.5C 736.5,805.5 736.5,806.5 736.5,807.5C 731.964,807.433 727.631,808.099 723.5,809.5C 723.5,810.5 723.5,811.5 723.5,812.5C 715.022,814.649 706.355,816.316 697.5,817.5C 697.5,818.5 697.5,819.5 697.5,820.5C 690.486,821.048 683.486,821.715 676.5,822.5C 676.5,823.5 676.5,824.5 676.5,825.5C 672.833,825.5 669.167,825.5 665.5,825.5C 665.5,826.5 665.5,827.5 665.5,828.5C 655.173,829.249 644.84,829.916 634.5,830.5C 634.5,831.5 634.5,832.5 634.5,833.5C 628.132,833.17 621.798,833.504 615.5,834.5C 615.291,835.086 614.957,835.586 614.5,836C 593.166,837.13 571.833,838.296 550.5,839.5C 550.291,840.086 549.957,840.586 549.5,841C 518.5,841.667 487.5,841.667 456.5,841C 456.043,840.586 455.709,840.086 455.5,839.5C 433.837,838.278 412.17,837.278 390.5,836.5C 390.5,835.5 390.5,834.5 390.5,833.5C 385.167,833.5 379.833,833.5 374.5,833.5C 374.5,832.5 374.5,831.5 374.5,830.5C 364.656,830.751 354.989,830.084 345.5,828.5C 345.5,827.5 345.5,826.5 345.5,825.5C 341.167,825.5 336.833,825.5 332.5,825.5C 332.5,824.5 332.5,823.5 332.5,822.5C 325.486,821.952 318.486,821.285 311.5,820.5C 311.5,819.5 311.5,818.5 311.5,817.5C 307.774,817.823 304.107,817.489 300.5,816.5C 295.449,814.02 290.116,812.687 284.5,812.5C 284.5,811.5 284.5,810.5 284.5,809.5C 277.174,808.469 270.174,806.803 263.5,804.5C 263.5,803.5 263.5,802.5 263.5,801.5C 260.167,800.833 256.833,800.167 253.5,799.5C 253.5,798.5 253.5,797.5 253.5,796.5C 251.833,796.5 250.167,796.5 248.5,796.5C 248.5,795.5 248.5,794.5 248.5,793.5C 244.788,793.039 241.121,792.373 237.5,791.5C 237.5,790.5 237.5,789.5 237.5,788.5C 235.833,788.5 234.167,788.5 232.5,788.5C 232.5,787.5 232.5,786.5 232.5,785.5C 229.692,785.307 227.025,784.64 224.5,783.5C 224.5,782.5 224.5,781.5 224.5,780.5C 221.692,780.307 219.025,779.64 216.5,778.5C 216.5,777.5 216.5,776.5 216.5,775.5C 214.833,775.5 213.167,775.5 211.5,775.5C 211.5,774.5 211.5,773.5 211.5,772.5C 208.5,772.167 206.833,770.5 206.5,767.5C 204.5,767.5 202.5,767.5 200.5,767.5C 200.167,764.5 198.5,762.833 195.5,762.5C 195.5,761.5 195.5,760.5 195.5,759.5C 194.5,759.5 193.5,759.5 192.5,759.5C 192.167,756.5 190.5,754.833 187.5,754.5C 186.36,751.975 185.693,749.308 185.5,746.5C 184.5,746.5 183.5,746.5 182.5,746.5C 182.5,745.5 182.5,744.5 182.5,743.5C 180.408,743.439 178.908,742.439 178,740.5C 177.833,721.158 177.333,701.825 176.5,682.5C 175.281,681.737 174.281,680.737 173.5,679.5C 128.138,689.549 82.6378,698.883 37,707.5C 17.595,706.264 6.76165,695.93 4.5,676.5C 5.58181,662.825 12.2485,652.991 24.5,647C 74.0749,635.952 123.742,625.285 173.5,615C 174.489,601.913 174.823,588.746 174.5,575.5C 126.166,575.667 77.8322,575.5 29.5,575C 11.8835,571.883 2.55019,561.383 1.5,543.5C 2.45459,527.745 10.4546,517.578 25.5,513C 75.1655,512.5 124.832,512.333 174.5,512.5C 174.5,500.167 174.5,487.833 174.5,475.5C 124.07,470.071 73.7369,463.905 23.5,457C 5.13627,448.265 -1.0304,434.099 5,414.5C 10.9753,402.524 20.642,396.19 34,395.5C 80.8368,400.871 127.67,406.204 174.5,411.5C 174.333,366.499 174.5,321.499 175,276.5C 175.419,275.328 176.085,274.328 177,273.5C 176.974,252.093 177.807,230.759 179.5,209.5C 181.5,208.833 183.5,208.167 185.5,207.5C 186.167,205.5 186.833,203.5 187.5,201.5C 189.781,201.923 191.448,201.256 192.5,199.5 Z"/></g>
</svg>
