<?xml version="1.0" encoding="UTF-8"?>
<!DOCTYPE svg PUBLIC "-//W3C//DTD SVG 1.1//EN" "http://www.w3.org/Graphics/SVG/1.1/DTD/svg11.dtd">
<svg xmlns="http://www.w3.org/2000/svg" version="1.1" width="216px" height="241px" style="shape-rendering:geometricPrecision; text-rendering:geometricPrecision; image-rendering:optimizeQuality; fill-rule:evenodd; clip-rule:evenodd" xmlns:xlink="http://www.w3.org/1999/xlink">
<g><path style="opacity:0.999" fill="#fed663" d="M 98.5,-0.5 C 99.5,-0.5 100.5,-0.5 101.5,-0.5C 101.833,0.833333 102.167,0.833333 102.5,-0.5C 107.167,-0.5 111.833,-0.5 116.5,-0.5C 116.833,2.16667 117.167,2.16667 117.5,-0.5C 117.833,-0.5 118.167,-0.5 118.5,-0.5C 118.859,1.4846 119.692,2.15127 121,1.5C 125.039,4.01491 127.872,7.01491 129.5,10.5C 127.702,30.1186 126.869,49.7853 127,69.5C 132.777,52.4035 137.943,35.0702 142.5,17.5C 142.5,17.1667 142.5,16.8333 142.5,16.5C 156.337,22.2858 167.337,32.6191 175.5,47.5C 175.389,48.1174 175.056,48.6174 174.5,49C 177.446,53.8357 179.612,59.0024 181,64.5C 181.995,65.0659 182.828,65.7326 183.5,66.5C 182.167,67.5 182.167,68.5 183.5,69.5C 183.721,70.7348 184.388,71.7348 185.5,72.5C 184.948,74.0026 184.948,75.6693 185.5,77.5C 160.215,78.8242 134.715,79.4909 109,79.5C 83.8333,79.3333 58.6667,79.1667 33.5,79C 32.9558,78.2828 32.2891,77.7828 31.5,77.5C 32.1667,74.1667 32.8333,70.8333 33.5,67.5C 35.335,66.8777 36.5017,65.5444 37,63.5C 38.1332,58.4004 39.9665,53.5671 42.5,49C 41.944,48.6174 41.6107,48.1174 41.5,47.5C 48.904,35.0951 58.904,25.4285 71.5,18.5C 72.2161,18.7831 73.0494,19.1164 74,19.5C 78.6608,35.4845 83.3275,51.4845 88,67.5C 88.1668,48.8348 88.0002,30.1682 87.5,11.5C 87.5,10.8333 87.1667,10.5 86.5,10.5C 87.7158,8.54914 89.3825,7.04914 91.5,6C 91.1667,5.66667 90.8333,5.33333 90.5,5C 93.4068,3.39089 96.0734,1.55755 98.5,-0.5 Z"/></g>
<g><path style="opacity:0.998" fill="#fea765" d="M 86.5,10.5 C 87.1667,10.5 87.5,10.8333 87.5,11.5C 88.0002,30.1682 88.1668,48.8348 88,67.5C 83.3275,51.4845 78.6608,35.4845 74,19.5C 73.0494,19.1164 72.2161,18.7831 71.5,18.5C 76.2092,15.4707 81.2092,12.804 86.5,10.5 Z"/></g>
<g><path style="opacity:0.998" fill="#fea765" d="M 129.5,10.5 C 130.473,10.9867 131.473,11.4867 132.5,12C 131.304,12.6543 131.304,13.1543 132.5,13.5C 133.167,13.1667 133.833,12.8333 134.5,12.5C 137.358,13.6609 140.025,14.9943 142.5,16.5C 141.167,16.8333 141.167,17.1667 142.5,17.5C 137.943,35.0702 132.777,52.4035 127,69.5C 126.869,49.7853 127.702,30.1186 129.5,10.5 Z"/></g>
<g><path style="opacity:0.86" fill="#fefefe" d="M 41.5,47.5 C 41.6107,48.1174 41.944,48.6174 42.5,49C 39.9665,53.5671 38.1332,58.4004 37,63.5C 36.5017,65.5444 35.335,66.8777 33.5,67.5C 31.8869,66.3077 30.2202,65.3077 28.5,64.5C 26.8869,63.3077 25.2202,62.3077 23.5,61.5C 22.1932,60.8466 20.8599,60.1799 19.5,59.5C 18.1667,106.833 18.1667,154.167 19.5,201.5C 21.9811,202.72 23.9811,204.386 25.5,206.5C 25.8333,207.833 26.1667,207.833 26.5,206.5C 29.3171,207.095 31.6505,208.428 33.5,210.5C 33.8333,211.833 34.1667,211.833 34.5,210.5C 36.8398,211.086 39.0065,212.086 41,213.5C 41.414,213.043 41.914,212.709 42.5,212.5C 42.8333,213.167 43.1667,213.833 43.5,214.5C 44.086,214.291 44.586,213.957 45,213.5C 47.3333,214.5 49.6667,215.5 52,216.5C 53.6134,215.378 54.7801,215.878 55.5,218C 57.7135,218.626 59.8801,218.459 62,217.5C 62.9454,217.905 63.6121,218.572 64,219.5C 64.5613,218.978 65.228,218.645 66,218.5C 69.0558,219.077 72.0558,219.743 75,220.5C 75.7247,219.941 76.5581,219.608 77.5,219.5C 79.3904,220.612 81.3904,221.446 83.5,222C 98.668,221.549 113.668,221.383 128.5,221.5C 130.199,221.66 131.866,221.494 133.5,221C 132.294,219.982 132.627,219.482 134.5,219.5C 135.647,219.818 136.481,220.484 137,221.5C 139.713,219.87 142.713,218.87 146,218.5C 147.951,219.915 149.618,219.581 151,217.5C 154.515,219.3 157.348,218.633 159.5,215.5C 160.086,215.709 160.586,216.043 161,216.5C 163.587,214.804 166.421,213.804 169.5,213.5C 172.449,212.632 175.449,211.632 178.5,210.5C 179.98,208.397 181.147,208.397 182,210.5C 183.003,207.844 184.67,206.844 187,207.5C 188.412,205.548 190.245,204.215 192.5,203.5C 193.167,202.167 194.167,201.167 195.5,200.5C 195.833,201.833 196.167,201.833 196.5,200.5C 196.623,164.302 196.623,128.135 196.5,92C 199.134,81.2196 199.134,70.3863 196.5,59.5C 195.252,60.0402 194.085,60.7069 193,61.5C 191.984,60.3659 191.317,60.6992 191,62.5C 190.667,62.1667 190.333,61.8333 190,61.5C 188.835,63.7275 187.335,65.0609 185.5,65.5C 185.011,66.9952 184.345,68.3285 183.5,69.5C 183.5,68.5 183.5,67.5 183.5,66.5C 182.828,65.7326 181.995,65.0659 181,64.5C 179.612,59.0024 177.446,53.8357 174.5,49C 175.056,48.6174 175.389,48.1174 175.5,47.5C 177.433,47.562 179.267,46.562 181,44.5C 181.333,44.8333 181.667,45.1667 182,45.5C 183.683,43.4864 185.683,41.8198 188,40.5C 188.333,40.8333 188.667,41.1667 189,41.5C 190.36,39.8946 191.86,38.3946 193.5,37C 194.449,36.3828 195.282,36.5494 196,37.5C 196.576,34.8758 197.91,34.2092 200,35.5C 205.212,28.9007 210.379,28.9007 215.5,35.5C 215.5,93.1667 215.5,150.833 215.5,208.5C 211.868,212.98 208.035,216.647 204,219.5C 203.667,219.167 203.333,218.833 203,218.5C 201.807,220.605 200.14,222.272 198,223.5C 197.667,223.167 197.333,222.833 197,222.5C 195.568,224.439 193.735,225.772 191.5,226.5C 191.44,225.957 191.107,225.624 190.5,225.5C 189.614,226.325 189.281,227.325 189.5,228.5C 186.126,229.116 183.126,229.783 180.5,230.5C 177.311,232.805 173.978,233.805 170.5,233.5C 169.778,233.918 169.278,234.584 169,235.5C 168.667,234.833 168.333,234.167 168,233.5C 165.018,235.585 161.685,236.919 158,237.5C 156.003,236.34 154.169,236.34 152.5,237.5C 151.265,237.721 150.265,238.388 149.5,239.5C 148.808,238.975 148.308,238.308 148,237.5C 145.622,238.967 143.122,239.967 140.5,240.5C 138.5,240.5 136.5,240.5 134.5,240.5C 133.833,239.167 133.167,239.167 132.5,240.5C 115.167,240.5 97.8333,240.5 80.5,240.5C 79.8333,239.167 79.1667,239.167 78.5,240.5C 76.1667,240.5 73.8333,240.5 71.5,240.5C 69.4437,239.784 67.277,239.117 65,238.5C 64.586,238.957 64.086,239.291 63.5,239.5C 61.0411,236.469 58.0411,235.802 54.5,237.5C 50.3636,236.343 46.3636,235.01 42.5,233.5C 41.3281,232.295 39.9948,232.295 38.5,233.5C 36.8662,233.032 35.6995,232.032 35,230.5C 34.2303,231.598 33.397,231.598 32.5,230.5C 27.8492,228.248 22.5158,226.082 16.5,224C 16.8333,223.667 17.1667,223.333 17.5,223C 16.2396,221.887 15.073,221.72 14,222.5C 8.30714,218.966 3.4738,214.633 -0.5,209.5C -0.5,151.167 -0.5,92.8333 -0.5,34.5C 2.6309,31.5988 6.29757,30.4321 10.5,31C 19.6361,35.8949 29.1361,41.7283 39,48.5C 39.6708,47.7476 40.5041,47.4142 41.5,47.5 Z M 23.5,61.5 C 25.2202,62.3077 26.8869,63.3077 28.5,64.5C 30.2202,65.3077 31.8869,66.3077 33.5,67.5C 32.8333,70.8333 32.1667,74.1667 31.5,77.5C 28.6755,77.0807 26.5088,78.0807 25,80.5C 24.8425,82.9951 24.6759,85.3284 24.5,87.5C 26.6787,90.5638 29.6787,91.8971 33.5,91.5C 35.5,92.1667 37.5,92.8333 39.5,93.5C 42.9787,95.0768 46.6453,96.4101 50.5,97.5C 51.5659,98.6921 52.3992,98.3588 53,96.5C 54.7698,98.5972 56.9365,99.9306 59.5,100.5C 58.8333,101.167 58.1667,101.833 57.5,102.5C 55.9125,104.214 54.5792,106.214 53.5,108.5C 56.5542,115.143 60.5542,116.143 65.5,111.5C 67.8236,110.923 69.9902,109.923 72,108.5C 74.6682,109.67 77.0016,111.337 79,113.5C 79.3333,113.167 79.6667,112.833 80,112.5C 83.5907,115.153 86.424,114.32 88.5,110C 88.9572,107.352 88.2905,104.852 86.5,102.5C 103.924,102.409 121.257,102.409 138.5,102.5C 140.32,102.351 141.82,101.684 143,100.5C 144.049,101.517 145.216,101.684 146.5,101C 144.405,100.444 144.238,99.9444 146,99.5C 150.466,100.573 154.633,99.9061 158.5,97.5C 159.672,96.2947 161.005,96.2947 162.5,97.5C 163.192,96.9747 163.692,96.3081 164,95.5C 164.333,95.8333 164.667,96.1667 165,96.5C 167.432,95.9306 169.599,94.9306 171.5,93.5C 172.167,94.8333 172.833,94.8333 173.5,93.5C 175.97,93.3465 177.97,92.3465 179.5,90.5C 179.833,90.5 180.167,90.5 180.5,90.5C 182.265,91.4614 184.265,91.7947 186.5,91.5C 188.404,91.2624 189.738,90.2624 190.5,88.5C 190.167,88.5 189.833,88.5 189.5,88.5C 189.336,85.8127 189.503,83.146 190,80.5C 190.654,81.6956 191.154,81.6956 191.5,80.5C 189.929,78.585 187.929,77.585 185.5,77.5C 184.948,75.6693 184.948,74.0026 185.5,72.5C 184.388,71.7348 183.721,70.7348 183.5,69.5C 184.345,68.3285 185.011,66.9952 185.5,65.5C 187.335,65.0609 188.835,63.7275 190,61.5C 190.333,61.8333 190.667,62.1667 191,62.5C 191.317,60.6992 191.984,60.3659 193,61.5C 194.085,60.7069 195.252,60.0402 196.5,59.5C 199.134,70.3863 199.134,81.2196 196.5,92C 196.623,128.135 196.623,164.302 196.5,200.5C 196.167,184.5 195.833,184.5 195.5,200.5C 194.167,201.167 193.167,202.167 192.5,203.5C 190.245,204.215 188.412,205.548 187,207.5C 184.67,206.844 183.003,207.844 182,210.5C 181.147,208.397 179.98,208.397 178.5,210.5C 175.449,211.632 172.449,212.632 169.5,213.5C 166.421,213.804 163.587,214.804 161,216.5C 160.586,216.043 160.086,215.709 159.5,215.5C 157.348,218.633 154.515,219.3 151,217.5C 149.618,219.581 147.951,219.915 146,218.5C 142.713,218.87 139.713,219.87 137,221.5C 136.481,220.484 135.647,219.818 134.5,219.5C 132.627,219.482 132.294,219.982 133.5,221C 131.866,221.494 130.199,221.66 128.5,221.5C 113.668,221.383 98.668,221.549 83.5,222C 81.3904,221.446 79.3904,220.612 77.5,219.5C 76.5581,219.608 75.7247,219.941 75,220.5C 72.0558,219.743 69.0558,219.077 66,218.5C 65.228,218.645 64.5613,218.978 64,219.5C 63.6121,218.572 62.9454,217.905 62,217.5C 59.8801,218.459 57.7135,218.626 55.5,218C 54.7801,215.878 53.6134,215.378 52,216.5C 49.6667,215.5 47.3333,214.5 45,213.5C 44.586,213.957 44.086,214.291 43.5,214.5C 43.1667,213.833 42.8333,213.167 42.5,212.5C 41.914,212.709 41.414,213.043 41,213.5C 39.0065,212.086 36.8398,211.086 34.5,210.5C 34.1667,209.167 33.8333,209.167 33.5,210.5C 31.6505,208.428 29.3171,207.095 26.5,206.5C 26.1667,205.167 25.8333,205.167 25.5,206.5C 23.9811,204.386 21.9811,202.72 19.5,201.5C 18.1667,154.167 18.1667,106.833 19.5,59.5C 20.8599,60.1799 22.1932,60.8466 23.5,61.5 Z"/></g>
<g><path style="opacity:0.991" fill="#ffa462" d="M 31.5,77.5 C 32.2891,77.7828 32.9558,78.2828 33.5,79C 58.6667,79.1667 83.8333,79.3333 109,79.5C 134.715,79.4909 160.215,78.8242 185.5,77.5C 187.929,77.585 189.929,78.585 191.5,80.5C 191.154,81.6956 190.654,81.6956 190,80.5C 189.503,83.146 189.336,85.8127 189.5,88.5C 137.331,88.1678 85.3307,88.5011 33.5,89.5C 33.5,90.1667 33.5,90.8333 33.5,91.5C 29.6787,91.8971 26.6787,90.5638 24.5,87.5C 24.6759,85.3284 24.8425,82.9951 25,80.5C 26.5088,78.0807 28.6755,77.0807 31.5,77.5 Z"/></g>
<g><path style="opacity:0.892" fill="#fec370" d="M 33.5,89.5 C 85.3307,88.5011 137.331,88.1678 189.5,88.5C 189.833,88.5 190.167,88.5 190.5,88.5C 189.738,90.2624 188.404,91.2624 186.5,91.5C 186.03,90.3065 185.03,89.6399 183.5,89.5C 182.274,89.5195 181.274,89.8529 180.5,90.5C 180.167,90.5 179.833,90.5 179.5,90.5C 131.003,89.5012 82.3362,89.1678 33.5,89.5 Z"/></g>
<g><path style="opacity:0.983" fill="#ffd867" d="M 33.5,89.5 C 82.3362,89.1678 131.003,89.5012 179.5,90.5C 177.97,92.3465 175.97,93.3465 173.5,93.5C 172.833,92.1667 172.167,92.1667 171.5,93.5C 169.599,94.9306 167.432,95.9306 165,96.5C 164.667,96.1667 164.333,95.8333 164,95.5C 163.692,96.3081 163.192,96.9747 162.5,97.5C 161.005,96.2947 159.672,96.2947 158.5,97.5C 154.633,99.9061 150.466,100.573 146,99.5C 144.238,99.9444 144.405,100.444 146.5,101C 145.216,101.684 144.049,101.517 143,100.5C 141.82,101.684 140.32,102.351 138.5,102.5C 121.257,102.409 103.924,102.409 86.5,102.5C 77.5916,100.213 68.5916,99.5462 59.5,100.5C 56.9365,99.9306 54.7698,98.5972 53,96.5C 52.3992,98.3588 51.5659,98.6921 50.5,97.5C 46.6453,96.4101 42.9787,95.0768 39.5,93.5C 37.5,92.8333 35.5,92.1667 33.5,91.5C 33.5,90.8333 33.5,90.1667 33.5,89.5 Z"/></g>
<g><path style="opacity:0.004" fill="#fe8000" d="M 186.5,91.5 C 184.265,91.7947 182.265,91.4614 180.5,90.5C 181.274,89.8529 182.274,89.5195 183.5,89.5C 185.03,89.6399 186.03,90.3065 186.5,91.5 Z"/></g>
<g><path style="opacity:0.691" fill="#fefdfc" d="M 86.5,102.5 C 88.2905,104.852 88.9572,107.352 88.5,110C 86.424,114.32 83.5907,115.153 80,112.5C 79.6667,112.833 79.3333,113.167 79,113.5C 77.0016,111.337 74.6682,109.67 72,108.5C 69.9902,109.923 67.8236,110.923 65.5,111.5C 60.5542,116.143 56.5542,115.143 53.5,108.5C 54.5792,106.214 55.9125,104.214 57.5,102.5C 58.1667,101.833 58.8333,101.167 59.5,100.5C 68.5916,99.5462 77.5916,100.213 86.5,102.5 Z"/></g>
<g><path style="opacity:0.645" fill="#fefefe" d="M 161.5,122.5 C 160.167,122.833 160.167,123.167 161.5,123.5C 160.458,125.791 158.958,126.791 157,126.5C 156.558,128.679 155.558,129.345 154,128.5C 153,129.5 152,130.5 151,131.5C 146,132.833 141,132.833 136,131.5C 135.25,130.874 134.416,130.374 133.5,130C 133.833,129.667 134.167,129.333 134.5,129C 132.579,128.64 130.912,127.806 129.5,126.5C 128.791,124.042 128.791,121.875 129.5,120C 133.54,115.346 137.374,115.513 141,120.5C 142.616,119.199 144.116,119.199 145.5,120.5C 149.238,118.719 153.071,116.386 157,113.5C 158.107,113.585 159.107,113.919 160,114.5C 160.423,117.133 161.59,119.299 163.5,121C 162.584,121.278 161.918,121.778 161.5,122.5 Z"/></g>
<g><path style="opacity:0.816" fill="#fefefe" d="M 67.5,138.5 C 69.8333,139.833 72.1667,139.833 74.5,138.5C 77.2367,138.859 79.2367,140.193 80.5,142.5C 82.3671,143.76 83.7005,145.427 84.5,147.5C 83.1667,147.833 83.1667,148.167 84.5,148.5C 87.4105,152.238 88.7439,156.572 88.5,161.5C 88.4101,163.964 87.7435,166.13 86.5,168C 86.9574,168.414 87.2907,168.914 87.5,169.5C 86.9422,172.127 85.9422,174.46 84.5,176.5C 82.0808,179.262 79.4141,181.595 76.5,183.5C 72.8008,186.155 69.1342,186.155 65.5,183.5C 65.1667,182.167 64.8333,182.167 64.5,183.5C 61.4479,181.414 59.1146,178.747 57.5,175.5C 58.8333,175.167 58.8333,174.833 57.5,174.5C 55.9362,173.528 54.9362,171.528 54.5,168.5C 56.1217,166.359 58.1217,164.692 60.5,163.5C 60.8333,164.833 61.1667,164.833 61.5,163.5C 62.0967,163.265 62.4301,162.765 62.5,162C 61.3144,160.588 59.981,159.421 58.5,158.5C 56.7428,157.708 55.4095,156.375 54.5,154.5C 55.7011,152.003 56.7011,149.669 57.5,147.5C 59.5831,143.082 62.9164,140.082 67.5,138.5 Z"/></g>
<g><path style="opacity:0.827" fill="#fefefe" d="M 140.5,138.5 C 143.167,139.833 145.833,139.833 148.5,138.5C 150.795,139.475 152.795,140.808 154.5,142.5C 155.488,143.795 156.488,145.128 157.5,146.5C 158.338,146.842 158.672,147.508 158.5,148.5C 160.008,150.171 160.341,152.004 159.5,154C 160.167,154.333 160.833,154.667 161.5,155C 159.973,156.032 158.64,157.199 157.5,158.5C 156.469,159.249 155.302,159.915 154,160.5C 153.53,161.577 153.697,162.577 154.5,163.5C 156.815,165.142 159.149,166.808 161.5,168.5C 159.033,170.591 157.7,172.925 157.5,175.5C 155.862,178.793 153.529,181.46 150.5,183.5C 150.389,184.117 150.056,184.617 149.5,185C 146.5,185.667 143.5,185.667 140.5,185C 137.185,182.724 133.852,179.724 130.5,176C 131.774,175.023 131.774,174.189 130.5,173.5C 129.26,171.311 128.26,169.145 127.5,167C 127.776,163.609 127.776,160.276 127.5,157C 127.845,154.138 128.845,151.638 130.5,149.5C 131.833,149.167 131.833,148.833 130.5,148.5C 131.86,146.46 133.193,144.46 134.5,142.5C 136.205,140.808 138.205,139.475 140.5,138.5 Z"/></g>
<g><path style="opacity:0.004" fill="#fefffe" d="M 191.5,226.5 C 190.833,227.167 190.833,227.167 191.5,226.5 Z"/></g>
<g><path style="opacity:0.004" fill="#fefffe" d="M 32.5,230.5 C 31.8333,231.167 31.8333,231.167 32.5,230.5 Z"/></g>
<g><path style="opacity:0.004" fill="#fefffe" d="M 180.5,230.5 C 181.833,231.167 181.833,231.167 180.5,230.5 Z"/></g>
<g><path style="opacity:0.004" fill="#fefffe" d="M 42.5,233.5 C 42.1034,234.525 41.4368,234.692 40.5,234C 41.0944,233.536 41.7611,233.369 42.5,233.5 Z"/></g>
<g><path style="opacity:0.004" fill="#fefffe" d="M 170.5,233.5 C 171.239,233.369 171.906,233.536 172.5,234C 171.563,234.692 170.897,234.525 170.5,233.5 Z"/></g>
<g><path style="opacity:0.006" fill="#fefffe" d="M 57.5,238.5 C 57.8966,237.475 58.5632,237.308 59.5,238C 58.9056,238.464 58.2389,238.631 57.5,238.5 Z"/></g>
<g><path style="opacity:0.005" fill="#fefffe" d="M 152.5,237.5 C 153.552,237.351 154.552,237.517 155.5,238C 154.251,238.74 153.251,238.573 152.5,237.5 Z"/></g>
</svg>
