<?xml version="1.0" encoding="UTF-8"?>
<!DOCTYPE svg PUBLIC "-//W3C//DTD SVG 1.1//EN" "http://www.w3.org/Graphics/SVG/1.1/DTD/svg11.dtd">
<svg xmlns="http://www.w3.org/2000/svg" version="1.1" width="36px" height="33px" style="shape-rendering:geometricPrecision; text-rendering:geometricPrecision; image-rendering:optimizeQuality; fill-rule:evenodd; clip-rule:evenodd" xmlns:xlink="http://www.w3.org/1999/xlink">
<g><path style="opacity:0.925" fill="#9e5fef" d="M 15.5,-0.5 C 16.8333,-0.5 18.1667,-0.5 19.5,-0.5C 24.8486,8.8686 30.1819,18.2019 35.5,27.5C 35.5,29.1667 35.5,30.8333 35.5,32.5C 23.5,32.5 11.5,32.5 -0.5,32.5C -0.5,30.8333 -0.5,29.1667 -0.5,27.5C 4.81807,18.2019 10.1514,8.8686 15.5,-0.5 Z M 15.5,10.5 C 16.8333,10.5 18.1667,10.5 19.5,10.5C 19.5,13.5 19.5,16.5 19.5,19.5C 18.1667,19.5 16.8333,19.5 15.5,19.5C 15.5,16.5 15.5,13.5 15.5,10.5 Z M 15.5,22.5 C 16.8333,22.5 18.1667,22.5 19.5,22.5C 19.5,23.8333 19.5,25.1667 19.5,26.5C 18.1667,26.5 16.8333,26.5 15.5,26.5C 15.5,25.1667 15.5,23.8333 15.5,22.5 Z"/></g>
</svg>
