<?xml version="1.0" encoding="UTF-8"?>
<svg version="1.1" xmlns="http://www.w3.org/2000/svg" width="69" height="55">
<path d="M0 0 C9.3740625 -0.0309375 9.3740625 -0.0309375 18.9375 -0.0625 C20.91226318 -0.071604 22.88702637 -0.08070801 24.92163086 -0.09008789 C26.47770113 -0.09300705 28.03377216 -0.09555561 29.58984375 -0.09765625 C30.81290222 -0.1053302 30.81290222 -0.1053302 32.06066895 -0.11315918 C34.04080523 -0.1134694 36.02084654 -0.06238096 38 0 C40.16485512 2.16485512 39.16427804 7.20588268 39.16796875 10.21484375 C39.17296135 11.60395714 39.17296135 11.60395714 39.17805481 13.02113342 C39.18312808 14.98405458 39.18546301 16.9469844 39.18530273 18.90991211 C39.18748817 21.92120511 39.20563674 24.93213134 39.22460938 27.94335938 C39.22754336 29.84635291 39.22952812 31.74934819 39.23046875 33.65234375 C39.23765427 34.55758286 39.24483978 35.46282196 39.25224304 36.39549255 C39.24916641 37.23298538 39.24608978 38.07047821 39.24291992 38.93334961 C39.24434494 39.67201767 39.24576996 40.41068573 39.24723816 41.17173767 C39 43 39 43 37 45 C34.37039373 45.18742538 31.84806665 45.25569353 29.21875 45.23046875 C28.44946167 45.23001053 27.68017334 45.22955231 26.88757324 45.2290802 C25.26015685 45.22605753 23.63274336 45.21817074 22.00537109 45.20581055 C19.50998723 45.18757299 17.01497475 45.18530073 14.51953125 45.18554688 C12.94010095 45.18063093 11.36067317 45.17480228 9.78125 45.16796875 C8.65777161 45.16629951 8.65777161 45.16629951 7.51159668 45.16459656 C2.23214321 45.11607161 2.23214321 45.11607161 0 44 C0 29.48 0 14.96 0 0 Z " fill="#5900A8" transform="translate(15,0)"/>
<path d="M0 0 C4.62 0 9.24 0 14 0 C14 11.88 14 23.76 14 36 C2 36 2 36 0 35 C0 23.45 0 11.9 0 0 Z " fill="#5A00A7" transform="translate(55,9)"/>
<path d="M0 0 C4.62 0 9.24 0 14 0 C14 11.55 14 23.1 14 35 C9.81537205 37.09231398 4.67855628 36 0 36 C0 24.12 0 12.24 0 0 Z " fill="#5800A8" transform="translate(0,9)"/>
<path d="M0 0 C3.29714793 0.32971479 4.6226839 0.6226839 7 3 C7.391875 2.484375 7.78375 1.96875 8.1875 1.4375 C10 0 10 0 12.5625 0.1875 C15 1 15 1 17 3 C17.556875 2.484375 18.11375 1.96875 18.6875 1.4375 C21 0 21 0 23.75 0.3125 C24.86375 0.6528125 24.86375 0.6528125 26 1 C26.625 3.875 26.625 3.875 27 7 C25 9 25 9 21.375 9.125 C20.26125 9.08375 19.1475 9.0425 18 9 C18 8.34 18 7.68 18 7 C17.34 7 16.68 7 16 7 C16 7.66 16 8.32 16 9 C12.33333333 9 8.66666667 9 5 9 C3.453125 9.061875 3.453125 9.061875 1.875 9.125 C-1 9 -1 9 -3 7 C-2.67028521 3.70285207 -2.3773161 2.3773161 0 0 Z " fill="#5500A9" transform="translate(22,46)"/>
</svg>
