<?xml version="1.0" encoding="utf-8"?>
<svg version="1.1" xmlns:xlink="http://www.w3.org/1999/xlink" width="21px" height="27px" xmlns="http://www.w3.org/2000/svg">
  <g transform="matrix(1 0 0 1 -44 -425 )">
    <path d="M 20.860546875 19.520507812499996  C 20.953515625 20.405273437499996  21 21.345703125  21 22.341796875  C 21 23.619140625  20.658203125 24.71484375  19.974609375 25.62890625  C 19.291015625 26.54296875  18.46796875 27  17.505468750000002 27  L 3.49453125 27  C 2.53203125 27  1.7089843750000002 26.54296875  1.0253906250000002 25.62890625  C 0.3417968750000001 24.71484375  0 23.619140625  0 22.341796875  C 0 21.345703125  0.046484375000000105 20.405273437499996  0.13945312500000012 19.520507812499996  C 0.2324218750000001 18.635742187499996  0.4046875000000001 17.7451171875  0.6562500000000001 16.8486328125  C 0.9078125000000002 15.9521484375  1.2277343750000003 15.1845703125  1.616015625 14.545898437500002  C 2.0042968750000005 13.907226562499996  2.5183593749999997 13.385742187499998  3.158203125 12.981445312500002  C 3.798046875 12.5771484375  4.5335937500000005 12.375000000000002  5.36484375 12.375000000000002  C 6.797656250000001 13.874999999999998  8.509375000000002 14.625000000000002  10.5 14.625000000000002  C 12.490625000000003 14.625000000000002  14.202343750000002 13.874999999999998  15.63515625 12.375000000000002  C 16.466406250000002 12.375000000000002  17.201953125 12.5771484375  17.841796875 12.981445312500002  C 18.481640625 13.385742187499998  18.995703125000002 13.907226562499996  19.383984375 14.545898437500002  C 19.772265625000003 15.1845703125  20.0921875 15.9521484375  20.34375 16.8486328125  C 20.595312500000002 17.7451171875  20.767578125 18.635742187499996  20.860546875 19.520507812499996  Z M 14.954296875 1.9775390625  C 16.184765625 3.2958984375  16.8 4.886718750000001  16.8 6.75  C 16.8 8.613281249999998  16.184765625 10.2041015625  14.954296875 11.5224609375  C 13.723828125 12.8408203125  12.2390625 13.5  10.5 13.5  C 8.760937499999999 13.5  7.276171875 12.8408203125  6.045703125 11.5224609375  C 4.815234375 10.2041015625  4.2 8.613281249999998  4.2 6.75  C 4.2 4.886718750000001  4.815234375 3.2958984375  6.045703125 1.9775390625  C 7.276171875 0.6591796875  8.760937499999999 0  10.5 0  C 12.2390625 0  13.723828125 0.6591796875  14.954296875 1.9775390625  Z " fill-rule="nonzero" fill="#5225aa" stroke="none" transform="matrix(1 0 0 1 44 425 )" />
  </g>
</svg>