<?xml version="1.0" encoding="UTF-8"?>
<!DOCTYPE svg PUBLIC "-//W3C//DTD SVG 1.1//EN" "http://www.w3.org/Graphics/SVG/1.1/DTD/svg11.dtd">
<svg xmlns="http://www.w3.org/2000/svg" version="1.1" width="21px" height="27px" style="shape-rendering:geometricPrecision; text-rendering:geometricPrecision; image-rendering:optimizeQuality; fill-rule:evenodd; clip-rule:evenodd" xmlns:xlink="http://www.w3.org/1999/xlink">
<g><path style="opacity:0.902" fill="#fefffe" d="M 6.5,-0.5 C 8.83333,-0.5 11.1667,-0.5 13.5,-0.5C 16.571,2.64316 17.2376,6.30982 15.5,10.5C 17.1856,11.8569 18.8523,13.1902 20.5,14.5C 20.5,18.1667 20.5,21.8333 20.5,25.5C 19.8333,25.5 19.5,25.8333 19.5,26.5C 13.1667,26.5 6.83333,26.5 0.5,26.5C 0.5,25.8333 0.166667,25.5 -0.5,25.5C -0.5,21.8333 -0.5,18.1667 -0.5,14.5C 1.14772,13.1902 2.81439,11.8569 4.5,10.5C 2.76237,6.30982 3.42904,2.64316 6.5,-0.5 Z"/></g>
</svg>
