<?xml version="1.0" encoding="UTF-8"?>
<svg version="1.1" xmlns="http://www.w3.org/2000/svg" width="36" height="33">
<path d="M0 0 C2.42114258 0.06323242 2.42114258 0.06323242 5 1 C6.72924805 3.16137695 6.72924805 3.16137695 8.26171875 5.98828125 C8.82310547 7.00470703 9.38449219 8.02113281 9.96289062 9.06835938 C10.53201172 10.13892578 11.10113281 11.20949219 11.6875 12.3125 C12.26822266 13.37146484 12.84894531 14.43042969 13.44726562 15.52148438 C14.98587681 18.33723179 16.50627693 21.160213 18 24 C18.38905518 24.66797607 18.77811035 25.33595215 19.17895508 26.02416992 C20 28 20 28 20 33 C8.12 33 -3.76 33 -16 33 C-15.17884007 27.25188052 -14.73979854 24.87642486 -12.12890625 20.13671875 C-11.26749023 18.55987305 -11.26749023 18.55987305 -10.38867188 16.95117188 C-9.78603516 15.87416016 -9.18339844 14.79714844 -8.5625 13.6875 C-7.96373047 12.59115234 -7.36496094 11.49480469 -6.74804688 10.36523438 C-2.31102979 2.31102979 -2.31102979 2.31102979 0 0 Z M0 11 C0 13.97 0 16.94 0 20 C1.32 20 2.64 20 4 20 C4 17.03 4 14.06 4 11 C2.68 11 1.36 11 0 11 Z M0 23 C0 24.32 0 25.64 0 27 C1.32 27 2.64 27 4 27 C4 25.68 4 24.36 4 23 C2.68 23 1.36 23 0 23 Z " fill="#5800A9" transform="translate(16,0)"/>
</svg>
