<?xml version="1.0" encoding="UTF-8"?>
<!DOCTYPE svg PUBLIC "-//W3C//DTD SVG 1.1//EN" "http://www.w3.org/Graphics/SVG/1.1/DTD/svg11.dtd">
<svg xmlns="http://www.w3.org/2000/svg" version="1.1" width="18px" height="18px" style="shape-rendering:geometricPrecision; text-rendering:geometricPrecision; image-rendering:optimizeQuality; fill-rule:evenodd; clip-rule:evenodd" xmlns:xlink="http://www.w3.org/1999/xlink">
<g><path style="opacity:0.852" fill="#9e5eef" d="M 5.5,-0.5 C 7.5,-0.5 9.5,-0.5 11.5,-0.5C 11.5,1.5 11.5,3.5 11.5,5.5C 13.5,5.5 15.5,5.5 17.5,5.5C 17.5,7.5 17.5,9.5 17.5,11.5C 15.5,11.5 13.5,11.5 11.5,11.5C 11.5,13.5 11.5,15.5 11.5,17.5C 9.5,17.5 7.5,17.5 5.5,17.5C 5.5,15.5 5.5,13.5 5.5,11.5C 3.5,11.5 1.5,11.5 -0.5,11.5C -0.5,9.5 -0.5,7.5 -0.5,5.5C 1.5,5.5 3.5,5.5 5.5,5.5C 5.5,3.5 5.5,1.5 5.5,-0.5 Z"/></g>
</svg>
