<?xml version="1.0" encoding="utf-8"?>
<svg version="1.1" xmlns:xlink="http://www.w3.org/1999/xlink" width="34px" height="34px" xmlns="http://www.w3.org/2000/svg">
  <g transform="matrix(1 0 0 1 -37 -817 )">
    <path d="M 10.397321428571429 1.3470982142857137  C 12.49702380952381 0.4490327380952379  14.697916666666668 0  17 0  C 19.302083333333336 0  21.502976190476193 0.4490327380952379  23.602678571428573 1.3470982142857137  C 25.702380952380956 2.24516369047619  27.511160714285715 3.453125  29.029017857142858 4.9709821428571415  C 30.546875000000004 6.4888392857142865  31.754836309523814 8.297619047619044  32.652901785714285 10.397321428571427  C 33.550967261904766 12.497023809523807  34 14.697916666666666  34 17  C 34 19.289434523809526  33.554129464285715 21.484002976190474  32.66238839285714 23.583705357142854  C 31.770647321428573 25.68340773809524  30.565848214285715 27.4921875  29.047991071428573 29.010044642857146  C 27.530133928571427 30.527901785714285  25.721354166666668 31.739025297619044  23.621651785714285 32.64341517857143  C 21.52194940476191 33.54780505952381  19.314732142857142 34  17 34  C 14.685267857142858 34  12.478050595238097 33.55096726190476  10.378348214285714 32.652901785714285  C 8.278645833333334 31.75483630952381  6.473028273809524 30.543712797619044  4.961495535714286 29.01953125  C 3.4499627976190474 27.495349702380953  2.2451636904761907 25.68656994047619  1.3470982142857142 23.593191964285715  C 0.449032738095238 21.499813988095234  0 19.302083333333332  0 17  C 0 14.697916666666666  0.449032738095238 12.497023809523807  1.3470982142857142 10.397321428571427  C 2.2451636904761907 8.297619047619044  3.453125 6.4888392857142865  4.970982142857143 4.9709821428571415  C 6.488839285714286 3.453125  8.297619047619047 2.24516369047619  10.397321428571429 1.3470982142857137  Z M 22.938616071428573 19.428571428571427  C 25.974330357142858 19.428571428571427  27.909598214285715 21.496651785714285  28.744419642857142 25.6328125  C 30.629092261904766 23.039806547619047  31.571428571428573 20.16220238095238  31.571428571428573 17  C 31.571428571428573 15.026785714285714  31.185639880952383 13.142113095238093  30.4140625 11.34598214285714  C 29.64248511904762 9.54985119047619  28.605282738095244 8.00037202380952  27.302455357142858 6.6975446428571415  C 25.999627976190478 5.394717261904762  24.45014880952381 4.35751488095238  22.654017857142858 3.5859375  C 20.85788690476191 2.814360119047617  18.973214285714285 2.4285714285714275  17 2.4285714285714275  C 15.026785714285714 2.4285714285714275  13.142113095238097 2.814360119047617  11.345982142857142 3.5859375  C 9.549851190476192 4.35751488095238  8.000372023809526 5.394717261904762  6.697544642857143 6.6975446428571415  C 5.394717261904763 8.00037202380952  4.357514880952381 9.54985119047619  3.5859375 11.34598214285714  C 2.8143601190476195 13.142113095238093  2.4285714285714284 15.026785714285714  2.4285714285714284 17  C 2.4285714285714284 20.16220238095238  3.3709077380952386 23.039806547619047  5.255580357142857 25.6328125  C 6.090401785714286 21.496651785714285  8.025669642857142 19.428571428571427  11.061383928571429 19.428571428571427  C 12.718377976190478 21.047619047619047  14.697916666666668 21.857142857142854  17 21.857142857142854  C 19.302083333333336 21.857142857142854  21.281622023809526 21.047619047619047  22.938616071428573 19.428571428571427  Z M 22.151227678571427 18.508370535714285  C 23.57421875 17.085379464285715  24.285714285714285 15.368303571428573  24.285714285714285 13.35714285714286  C 24.285714285714285 11.34598214285714  23.57421875 9.62890625  22.151227678571427 8.205915178571427  C 20.728236607142858 6.7829241071428585  19.011160714285715 6.071428571428573  17 6.071428571428573  C 14.988839285714286 6.071428571428573  13.271763392857142 6.7829241071428585  11.848772321428571 8.205915178571427  C 10.42578125 9.62890625  9.714285714285714 11.34598214285714  9.714285714285714 13.35714285714286  C 9.714285714285714 15.368303571428573  10.42578125 17.085379464285715  11.848772321428571 18.508370535714285  C 13.271763392857142 19.931361607142854  14.988839285714286 20.642857142857146  17 20.642857142857146  C 19.011160714285715 20.642857142857146  20.728236607142858 19.931361607142854  22.151227678571427 18.508370535714285  Z " fill-rule="nonzero" fill="#ffffff" stroke="none" transform="matrix(1 0 0 1 37 817 )" />
  </g>
</svg>