<?xml version="1.0" encoding="UTF-8"?>
<!DOCTYPE svg PUBLIC "-//W3C//DTD SVG 1.1//EN" "http://www.w3.org/Graphics/SVG/1.1/DTD/svg11.dtd">
<svg xmlns="http://www.w3.org/2000/svg" version="1.1" width="34px" height="34px" style="shape-rendering:geometricPrecision; text-rendering:geometricPrecision; image-rendering:optimizeQuality; fill-rule:evenodd; clip-rule:evenodd" xmlns:xlink="http://www.w3.org/1999/xlink">
<g><path style="opacity:0.827" fill="#fefffe" d="M 10.5,-0.5 C 14.5,-0.5 18.5,-0.5 22.5,-0.5C 27.1667,2.16667 30.8333,5.83333 33.5,10.5C 33.5,14.5 33.5,18.5 33.5,22.5C 30.8333,27.1667 27.1667,30.8333 22.5,33.5C 18.5,33.5 14.5,33.5 10.5,33.5C 5.83333,30.8333 2.16667,27.1667 -0.5,22.5C -0.5,18.5 -0.5,14.5 -0.5,10.5C 2.16667,5.83333 5.83333,2.16667 10.5,-0.5 Z M 13.5,2.5 C 27.112,3.07765 32.112,9.74432 28.5,22.5C 27.209,20.0408 25.209,18.5408 22.5,18C 25.9872,11.1419 23.9872,6.97519 16.5,5.5C 9.01284,6.97519 7.01284,11.1419 10.5,18C 7.79102,18.5408 5.79102,20.0408 4.5,22.5C 0.943454,12.9429 3.94345,6.27628 13.5,2.5 Z"/></g>
</svg>
