<?xml version="1.0" encoding="UTF-8"?>
<svg version="1.1" xmlns="http://www.w3.org/2000/svg" width="21" height="21">
<path d="M0 0 C3.60067126 0.87838956 4.94522296 2.42198203 6.9375 5.47265625 C7.1453759 7.84659906 7.07093761 10.01790723 6.8203125 12.38671875 C6.9735603 15.11452953 8.03987867 15.61436386 9.9375 17.47265625 C9.9375 18.79265625 9.9375 20.11265625 9.9375 21.47265625 C6.56287285 20.92541942 4.85515 20.41775625 1.9375 18.47265625 C0.65875 18.53453125 -0.62 18.59640625 -1.9375 18.66015625 C-5.37215551 18.72986328 -6.01220077 18.50618907 -9.0625 16.47265625 C-11.28175086 13.14377996 -11.82140933 11.33329117 -11.5390625 7.41015625 C-10.07605506 1.46219158 -5.59103611 -0.41297426 0 0 Z M-5.0625 4.47265625 C-5.7225 5.13265625 -6.3825 5.79265625 -7.0625 6.47265625 C-6.73923447 10.06944691 -6.73923447 10.06944691 -6.0625 13.47265625 C-1.98549075 14.59703318 -1.98549075 14.59703318 1.875 13.41015625 C3.43704362 10.56172377 2.68671024 8.53760722 1.9375 5.47265625 C-1.46570934 4.79592178 -1.46570934 4.79592178 -5.0625 4.47265625 Z " fill="#000000" transform="translate(11.0625,-0.47265625)"/>
</svg>
