<?xml version="1.0" encoding="UTF-8"?>
<!DOCTYPE svg PUBLIC "-//W3C//DTD SVG 1.1//EN" "http://www.w3.org/Graphics/SVG/1.1/DTD/svg11.dtd">
<svg xmlns="http://www.w3.org/2000/svg" version="1.1" width="18px" height="16px" style="shape-rendering:geometricPrecision; text-rendering:geometricPrecision; image-rendering:optimizeQuality; fill-rule:evenodd; clip-rule:evenodd" xmlns:xlink="http://www.w3.org/1999/xlink">
<g><path style="opacity:0.844" fill="#ddd4ec" d="M 9.5,-0.5 C 10.1667,-0.5 10.8333,-0.5 11.5,-0.5C 13.1667,1.83333 15.1667,3.83333 17.5,5.5C 17.5,6.83333 17.5,8.16667 17.5,9.5C 15.1667,11.1667 13.1667,13.1667 11.5,15.5C 10.8333,15.5 10.1667,15.5 9.5,15.5C 9.5,14.1667 9.5,12.8333 9.5,11.5C 7.5,11.5 5.5,11.5 3.5,11.5C 3.5,8.83333 3.5,6.16667 3.5,3.5C 5.5,3.5 7.5,3.5 9.5,3.5C 9.5,2.16667 9.5,0.833333 9.5,-0.5 Z"/></g>
<g><path style="opacity:0.806" fill="#ddd5ed" d="M 0.5,-0.5 C 2.83333,-0.5 5.16667,-0.5 7.5,-0.5C 6.15909,1.11996 4.32576,2.11996 2,2.5C 1.33333,5.83333 1.33333,9.16667 2,12.5C 4.32576,12.88 6.15909,13.88 7.5,15.5C 5.16667,15.5 2.83333,15.5 0.5,15.5C 0.5,14.8333 0.166667,14.5 -0.5,14.5C -0.5,9.83333 -0.5,5.16667 -0.5,0.5C 0.166667,0.5 0.5,0.166667 0.5,-0.5 Z"/></g>
</svg>
