<?xml version="1.0" encoding="UTF-8"?>
<svg version="1.1" xmlns="http://www.w3.org/2000/svg" width="94" height="94">
<path d="M0 0 C31.02 0 62.04 0 94 0 C94 31.02 94 62.04 94 94 C62.98 94 31.96 94 0 94 C0 62.98 0 31.96 0 0 Z " fill="#FEFEFE" transform="translate(0,0)"/>
<path d="M0 0 C31.02 0 62.04 0 94 0 C94 31.02 94 62.04 94 94 C62.98 94 31.96 94 0 94 C0 62.98 0 31.96 0 0 Z M7 12 C7 33.12 7 54.24 7 76 C27.59738164 86.29869082 51.59073732 88.88845039 74 82 C78.36157422 80.40787291 82.13846421 78.57435719 86 76 C86.5091 74.14841145 86.5091 74.14841145 86.51171875 71.9609375 C86.54724854 71.08888672 86.58277832 70.21683594 86.61938477 69.31835938 C86.65310181 67.86139648 86.65310181 67.86139648 86.6875 66.375 C86.73765259 64.85229492 86.73765259 64.85229492 86.78881836 63.29882812 C87.26561412 46.20848665 87.08243078 29.09487463 87 12 C83.24832104 13.30688983 80.15575976 15.16247844 76.83230591 17.31718445 C66.9970538 23.49123253 58.55530383 24.48135095 47.125 24.1875 C46.29326263 24.18080292 45.46152527 24.17410583 44.60458374 24.16720581 C30.87184565 24.02191644 20.95448585 21.6482783 10 13 C9.01 12.67 8.02 12.34 7 12 Z " fill="#4F19BB" transform="translate(0,0)"/>
<path d="M0 0 C31.02 0 62.04 0 94 0 C93.67 1.32 93.34 2.64 93 4 C93 3.34 93 2.68 93 2 C88.62906925 2.90040034 85.75197164 3.99554368 82.27734375 6.8203125 C67.59310049 18.35348259 50.40144687 18.89230329 32.42724609 16.8046875 C23.02775532 15.35818523 15.22406186 10.28141182 7.98413086 4.30688477 C5.67096044 2.78327196 3.72254151 2.38218875 1 2 C0.67 2.66 0.34 3.32 0 4 C0 2.68 0 1.36 0 0 Z " fill="#FEFEFE" transform="translate(0,0)"/>
<path d="M0 0 C0.33 0 0.66 0 1 0 C1 10.89 1 21.78 1 33 C-30.02 33 -61.04 33 -93 33 C-93 27.72 -93 22.44 -93 17 C-91.865625 17.9075 -90.73125 18.815 -89.5625 19.75 C-72.45116064 32.41954569 -48.25607391 32.00510355 -27.953125 29.4609375 C-18.4969033 27.98283426 -7.9916915 24.9916915 -1 18 C-0.84417697 16.65984779 -0.74955858 15.31241097 -0.68359375 13.96484375 C-0.64169922 13.15595703 -0.59980469 12.34707031 -0.55664062 11.51367188 C-0.51732422 10.66353516 -0.47800781 9.81339844 -0.4375 8.9375 C-0.37272461 7.65649414 -0.37272461 7.65649414 -0.30664062 6.34960938 C-0.20023298 4.23327963 -0.09958269 2.11666187 0 0 Z " fill="#FBFAFD" transform="translate(93,61)"/>
<path d="M0 0 C3.77126791 1.01180358 4.78414572 1.67621858 7 5 C7 5.99 7 6.98 7 8 C6.01 8.66 5.02 9.32 4 10 C4.99 10.66 5.98 11.32 7 12 C6.66753345 15.07531556 6.36895244 16.61832506 4.1875 18.875 C2 20 2 20 -0.0625 19.875 C-2.46346511 18.79069318 -3.50464734 18.20742536 -5 16 C-6.06389615 11.36445249 -6.40615057 9.09660654 -4.75 4.625 C-3 2 -3 2 0 0 Z " fill="#4F19BB" transform="translate(62,48)"/>
<path d="M0 0 C3.32541345 2.13167529 4.19013716 3.82041148 5.4375 7.5625 C5.6315769 11.59929948 5.00364605 14.73350043 2.6875 18.125 C0.4375 19.5625 0.4375 19.5625 -2.125 19.5625 C-5.03696241 18.36784875 -6.03745532 17.29152731 -7.5625 14.5625 C-7.5625 13.5725 -7.5625 12.5825 -7.5625 11.5625 C-6.5725 10.9025 -5.5825 10.2425 -4.5625 9.5625 C-5.5525 8.9025 -6.5425 8.2425 -7.5625 7.5625 C-7.23333852 4.51775635 -6.89119657 2.92641406 -4.8125 0.625 C-2.5625 -0.4375 -2.5625 -0.4375 0 0 Z " fill="#4F19BB" transform="translate(32.5625,48.4375)"/>
<path d="M0 0 C2.375 1.5 2.375 1.5 4 3 C3.67 3.99 3.34 4.98 3 6 C2.39671875 5.9278125 1.7934375 5.855625 1.171875 5.78125 C0.37265625 5.6884375 -0.4265625 5.595625 -1.25 5.5 C-2.03890625 5.4071875 -2.8278125 5.314375 -3.640625 5.21875 C-6.26890397 4.93845381 -6.26890397 4.93845381 -10 5 C-7.6853348 -0.12533009 -5.56888064 -0.44551045 0 0 Z " fill="#5521BD" transform="translate(34,31)"/>
<path d="M0 0 C-0.57344937 2.86724686 -0.8614515 3.8614515 -3 6 C-4.875 6.23046875 -4.875 6.23046875 -7 6.1875 C-7.70125 6.18105469 -8.4025 6.17460938 -9.125 6.16796875 C-11 6 -11 6 -13 5 C-12.67 3.68 -12.34 2.36 -12 1 C-11.071875 1.20625 -10.14375 1.4125 -9.1875 1.625 C-5.13523885 2.10173661 -3.99345914 0 0 0 Z " fill="#511CBC" transform="translate(70,38)"/>
</svg>
