<?xml version="1.0" encoding="utf-8"?>
<svg version="1.1" xmlns:xlink="http://www.w3.org/1999/xlink" width="50px" height="50px" xmlns="http://www.w3.org/2000/svg">
  <defs>
    <linearGradient gradientUnits="userSpaceOnUse" x1="187.86792452830207" y1="25" x2="0" y2="25" id="LinearGradient30">
      <stop id="Stop31" stop-color="#cb218c" offset="0" />
      <stop id="Stop32" stop-color="#4d16bb" offset="1" />
    </linearGradient>
  </defs>
  <g transform="matrix(1 0 0 1 -1656 -37 )">
    <path d="M 30.6640625 30.6640625  C 33.298277243589745 28.029847756410252  34.61538461538461 24.85977564102564  34.61538461538461 21.153846153846157  C 34.61538461538461 17.447916666666664  33.298277243589745 14.277844551282048  30.6640625 11.643629807692307  C 28.02984775641026 9.00941506410256  24.859775641025642 7.6923076923076925  21.153846153846153 7.6923076923076925  C 17.447916666666668 7.6923076923076925  14.277844551282055 9.00941506410256  11.643629807692307 11.643629807692307  C 9.009415064102564 14.277844551282048  7.6923076923076925 17.447916666666664  7.6923076923076925 21.153846153846157  C 7.6923076923076925 24.85977564102564  9.009415064102564 28.029847756410252  11.643629807692307 30.6640625  C 14.277844551282055 33.29827724358974  17.447916666666668 34.61538461538461  21.153846153846153 34.61538461538461  C 24.859775641025642 34.61538461538461  28.02984775641026 33.29827724358974  30.6640625 30.6640625  Z M 48.88822115384615 43.449519230769226  C 49.62940705128205 44.19070512820513  50 45.09214743589744  50 46.15384615384615  C 50 47.195512820512825  49.61939102564103 48.09695512820513  48.85817307692308 48.85817307692308  C 48.09695512820513 49.61939102564102  47.195512820512825 50  46.15384615384615 50  C 45.07211538461539 50  44.17067307692308 49.61939102564102  43.449519230769226 48.85817307692308  L 33.14302884615385 38.581730769230774  C 29.557291666666668 41.06570512820513  25.560897435897438 42.30769230769231  21.153846153846153 42.30769230769231  C 18.28926282051282 42.30769230769231  15.549879807692307 41.75180288461539  12.935697115384615 40.64002403846154  C 10.321514423076923 39.52824519230769  8.067908653846153 38.02584134615385  6.174879807692308 36.1328125  C 4.281850961538462 34.23978365384615  2.779447115384616 31.986177884615387  1.6676682692307692 29.371995192307693  C 0.5558894230769231 26.7578125  0 24.018429487179482  0 21.153846153846157  C 0 18.289262820512814  0.5558894230769231 15.549879807692307  1.6676682692307692 12.935697115384615  C 2.779447115384616 10.321514423076922  4.281850961538462 8.067908653846157  6.174879807692308 6.1748798076923075  C 8.067908653846153 4.2818509615384635  10.321514423076923 2.7794471153846145  12.935697115384615 1.667668269230771  C 15.549879807692307 0.5558894230769218  18.28926282051282 0  21.153846153846153 0  C 24.01842948717949 0  26.7578125 0.5558894230769218  29.371995192307693 1.667668269230771  C 31.986177884615387 2.7794471153846145  34.23978365384615 4.2818509615384635  36.1328125 6.1748798076923075  C 38.02584134615385 8.067908653846157  39.52824519230769 10.321514423076922  40.64002403846153 12.935697115384615  C 41.75180288461539 15.549879807692307  42.30769230769231 18.289262820512814  42.30769230769231 21.153846153846157  C 42.30769230769231 25.560897435897434  41.06570512820513 29.557291666666664  38.581730769230774 33.14302884615385  L 48.88822115384615 43.449519230769226  Z " fill-rule="nonzero" fill="url(#LinearGradient30)" stroke="none" transform="matrix(1 0 0 1 1656 37 )" />
  </g>
</svg>