<?xml version="1.0" encoding="UTF-8"?>
<svg version="1.1" xmlns="http://www.w3.org/2000/svg" width="32" height="32">
<path d="M0 0 C10.56 0 21.12 0 32 0 C32 10.56 32 21.12 32 32 C21.44 32 10.88 32 0 32 C0 21.44 0 10.88 0 0 Z " fill="#CD2C91" transform="translate(0,0)"/>
<path d="M0 0 C0.804375 0.495 0.804375 0.495 1.625 1 C6.34136222 2.98583673 11.10484498 1.93241048 16 1 C18 4 18 4 18.0625 6.4375 C16.74880634 9.60581999 14.99543268 10.75457026 11.9609375 12.265625 C8.70421796 13.48527295 6.43079071 13.55137708 3 13 C0.4095893 11.53497321 -1.67816991 9.8953715 -4 8 C-3.6875 5.125 -3.6875 5.125 -3 2 C-2.01 1.34 -1.02 0.68 0 0 Z " fill="#FCF5F9" transform="translate(9,17)"/>
<path d="M0 0 C2.7912125 1.98322993 3.82597224 3.12986121 4.5 6.5 C3.82597224 9.87013879 2.7912125 11.01677007 0 13 C-3.70758991 13.61793165 -5.2935202 13.50197249 -8.375 11.3125 C-10 9 -10 9 -10.5 6.5 C-9.33827182 0.69135908 -5.5534724 -0.92557873 0 0 Z " fill="#FCF5F9" transform="translate(19,5)"/>
<path d="M0 0 C1.64506839 2.19342452 3.28137237 4.39392132 4.875 6.625 C7.14822617 9.16566454 8.77854111 10.01566534 12 11 C12 11.33 12 11.66 12 12 C8.04 12 4.08 12 0 12 C0 8.04 0 4.08 0 0 Z " fill="#FDF7FB" transform="translate(0,20)"/>
<path d="M0 0 C3.96 0 7.92 0 12 0 C12 3.96 12 7.92 12 12 C11.34 11.01 10.68 10.02 10 9 C7.13422961 4.9060423 4.58920264 2.98170114 0 1 C0 0.67 0 0.34 0 0 Z " fill="#FDF7FB" transform="translate(20,0)"/>
<path d="M0 0 C0.33 0 0.66 0 1 0 C1 3.96 1 7.92 1 12 C-2.96 12 -6.92 12 -11 12 C-10.01 11.34 -9.02 10.68 -8 10 C-4.01036025 6.98741489 -1.39610402 4.88636408 0 0 Z " fill="#FDF8FB" transform="translate(31,20)"/>
<path d="M0 0 C3.96 0 7.92 0 12 0 C11.01 0.66 10.02 1.32 9 2 C5.01036025 5.01258511 2.39610402 7.11363592 1 12 C0.67 12 0.34 12 0 12 C0 8.04 0 4.08 0 0 Z " fill="#FEFAFC" transform="translate(0,0)"/>
<path d="M0 0 C2.16874252 0.50603992 3.99967627 0.99983813 6 2 C10.82612943 2.27843054 14.49907826 1.75645727 19 0 C19 0.99 19 1.98 19 3 C14.75094936 5.12452532 10.67946098 5.62940119 6 5 C2.5 3.5 2.5 3.5 0 2 C0 1.34 0 0.68 0 0 Z " fill="#D13D9A" transform="translate(6,27)"/>
</svg>
