<?xml version="1.0" encoding="utf-8"?>
<svg version="1.1" xmlns:xlink="http://www.w3.org/1999/xlink" width="71px" height="71px" xmlns="http://www.w3.org/2000/svg">
  <defs>
    <linearGradient gradientUnits="userSpaceOnUse" x1="266.7724528301889" y1="35.5" x2="0" y2="35.5" id="LinearGradient27">
      <stop id="Stop28" stop-color="#cb218c" offset="0" />
      <stop id="Stop29" stop-color="#4d16bb" offset="1" />
    </linearGradient>
  </defs>
  <g transform="matrix(1 0 0 1 -210 -29 )">
    <path d="M 21.712053571428573 2.8130580357142847  C 26.096726190476193 0.9376860119047615  30.692708333333336 0  35.5 0  C 40.30729166666667 0  44.90327380952382 0.9376860119047615  49.28794642857143 2.8130580357142847  C 53.67261904761905 4.6884300595238075  57.449776785714285 7.2109375  60.619419642857146 10.380580357142854  C 63.78906250000001 13.550223214285715  66.3115699404762 17.327380952380945  68.18694196428572 21.71205357142857  C 70.06231398809524 26.096726190476183  71 30.692708333333332  71 35.5  C 71 40.280877976190474  70.06891741071428 44.863653273809526  68.20675223214285 49.24832589285714  C 66.34458705357143 53.632998511904766  63.828683035714285 57.41015625  60.65904017857143 60.57979910714286  C 57.48939732142857 63.749441964285715  53.712239583333336 66.27855282738095  49.327566964285715 68.16713169642857  C 44.9428943452381 70.05571056547619  40.333705357142854 71  35.5 71  C 30.666294642857142 71  26.05710565476191 70.06231398809524  21.672433035714285 68.18694196428572  C 17.287760416666668 66.31156994047619  13.517206101190476 63.78245907738095  10.360770089285714 60.599609375  C 7.204334077380952 57.416759672619044  4.688430059523809 53.63960193452381  2.8130580357142856 49.268136160714285  C 0.9376860119047618 44.89667038690475  0 40.307291666666664  0 35.5  C 0 30.692708333333332  0.9376860119047618 26.096726190476183  2.8130580357142856 21.71205357142857  C 4.688430059523809 17.327380952380945  7.2109375 13.550223214285715  10.380580357142858 10.380580357142854  C 13.550223214285714 7.2109375  17.327380952380953 4.6884300595238075  21.712053571428573 2.8130580357142847  Z M 47.90122767857143 40.57142857142857  C 54.240513392857146 40.57142857142857  58.281808035714285 44.890066964285715  60.025111607142854 53.52734375  C 63.96075148809525 48.112537202380956  65.92857142857143 42.10342261904761  65.92857142857143 35.5  C 65.92857142857143 31.379464285714285  65.12295386904762 27.4438244047619  63.51171875 23.693080357142854  C 61.90048363095239 19.942336309523807  59.73456101190478 16.706659226190467  57.013950892857146 13.986049107142854  C 54.29334077380953 11.265438988095239  51.05766369047619 9.099516369047615  47.306919642857146 7.48828125  C 43.5561755952381 5.877046130952377  39.620535714285715 5.071428571428569  35.5 5.071428571428569  C 31.379464285714285 5.071428571428569  27.44382440476191 5.877046130952377  23.693080357142858 7.48828125  C 19.94233630952381 9.099516369047615  16.706659226190478 11.265438988095239  13.986049107142858 13.986049107142854  C 11.26543898809524 16.706659226190467  9.099516369047619 19.942336309523807  7.48828125 23.693080357142854  C 5.877046130952381 27.4438244047619  5.071428571428571 31.379464285714285  5.071428571428571 35.5  C 5.071428571428571 42.10342261904761  7.039248511904763 48.112537202380956  10.974888392857142 53.52734375  C 12.718191964285714 44.890066964285715  16.759486607142858 40.57142857142857  23.098772321428573 40.57142857142857  C 26.558965773809526 43.952380952380956  30.692708333333336 45.64285714285714  35.5 45.64285714285714  C 40.30729166666667 45.64285714285714  44.441034226190474 43.952380952380956  47.90122767857143 40.57142857142857  Z M 46.25697544642857 38.649832589285715  C 49.228515625 35.678292410714285  50.714285714285715 32.09263392857143  50.714285714285715 27.892857142857146  C 50.714285714285715 23.693080357142854  49.228515625 20.107421875  46.25697544642857 17.13588169642857  C 43.285435267857146 14.164341517857146  39.699776785714285 12.67857142857143  35.5 12.67857142857143  C 31.300223214285715 12.67857142857143  27.714564732142858 14.164341517857146  24.743024553571427 17.13588169642857  C 21.771484375 20.107421875  20.285714285714285 23.693080357142854  20.285714285714285 27.892857142857146  C 20.285714285714285 32.09263392857143  21.771484375 35.678292410714285  24.743024553571427 38.649832589285715  C 27.714564732142858 41.62137276785714  31.300223214285715 43.10714285714286  35.5 43.10714285714286  C 39.699776785714285 43.10714285714286  43.285435267857146 41.62137276785714  46.25697544642857 38.649832589285715  Z " fill-rule="nonzero" fill="url(#LinearGradient27)" stroke="none" transform="matrix(1 0 0 1 210 29 )" />
  </g>
</svg>