<?xml version="1.0" encoding="utf-8"?>
<svg version="1.1" xmlns:xlink="http://www.w3.org/1999/xlink" width="14px" height="14px" xmlns="http://www.w3.org/2000/svg">
  <g transform="matrix(1 0 0 1 -40 -470 )">
    <path d="M 13.721590909090908 5.369318181818182  C 13.90719696969697 5.55492424242424  14 5.780303030303029  14 6.045454545454545  L 14 7.954545454545453  C 14 8.21969696969697  13.90719696969697 8.445075757575756  13.721590909090908 8.630681818181818  C 13.53598484848485 8.816287878787877  13.31060606060606 8.909090909090908  13.045454545454545 8.909090909090908  L 8.909090909090908 8.909090909090908  L 8.909090909090908 13.045454545454547  C 8.909090909090908 13.31060606060606  8.816287878787879 13.535984848484848  8.630681818181818 13.721590909090908  C 8.44507575757576 13.90719696969697  8.21969696969697 14  7.954545454545455 14  L 6.045454545454546 14  C 5.78030303030303 14  5.554924242424243 13.90719696969697  5.369318181818182 13.721590909090908  C 5.183712121212122 13.535984848484848  5.090909090909091 13.31060606060606  5.090909090909091 13.045454545454547  L 5.090909090909091 8.909090909090908  L 0.9545454545454545 8.909090909090908  C 0.6893939393939394 8.909090909090908  0.4640151515151516 8.816287878787877  0.2784090909090909 8.630681818181818  C 0.09280303030303029 8.445075757575756  0 8.21969696969697  0 7.954545454545453  L 0 6.045454545454545  C 0 5.780303030303029  0.09280303030303029 5.55492424242424  0.2784090909090909 5.369318181818182  C 0.4640151515151516 5.183712121212121  0.6893939393939394 5.090909090909091  0.9545454545454545 5.090909090909091  L 5.090909090909091 5.090909090909091  L 5.090909090909091 0.9545454545454553  C 5.090909090909091 0.6893939393939388  5.183712121212122 0.4640151515151507  5.369318181818182 0.27840909090909105  C 5.554924242424243 0.09280303030302983  5.78030303030303 0  6.045454545454546 0  L 7.954545454545455 0  C 8.21969696969697 0  8.44507575757576 0.09280303030302983  8.630681818181818 0.27840909090909105  C 8.816287878787879 0.4640151515151507  8.909090909090908 0.6893939393939388  8.909090909090908 0.9545454545454553  L 8.909090909090908 5.090909090909091  L 13.045454545454545 5.090909090909091  C 13.31060606060606 5.090909090909091  13.53598484848485 5.183712121212121  13.721590909090908 5.369318181818182  Z " fill-rule="nonzero" fill="#cb218c" stroke="none" transform="matrix(1 0 0 1 40 470 )" />
  </g>
</svg>