<?xml version="1.0" encoding="utf-8"?>
<svg version="1.1" xmlns:xlink="http://www.w3.org/1999/xlink" width="18px" height="18px" xmlns="http://www.w3.org/2000/svg">
  <g transform="matrix(1 0 0 1 -376 -205 )">
    <path d="M 14.87109375 11.476314081765087  C 15.207031250000002 10.685918234912393  15.375 9.858533419857235  15.375 8.99415963659961  C 15.375 7.740428293316027  15.03515625 6.591823491239454  14.35546875 5.548345230369891  L 5.51953125 14.343932511356263  C 6.58984375 15.036988968202465  7.75 15.383517196625569  9 15.383517196625569  C 9.8671875 15.383517196625569  10.693359375 15.214146658014277  11.478515625 14.875405580791695  C 12.263671875 14.53666450356911  12.941406250000002 14.083062946138872  13.51171875 13.514600908500974  C 14.082031250000002 12.946138870863075  14.535156250000002 12.266709928617779  14.87109375 11.476314081765087  Z M 2.625 8.99415963659961  C 2.625 10.25567813108371  2.97265625 11.419857235561322  3.66796875 12.486696950032446  L 12.515625 3.679428942245296  C 11.460937500000002 2.970798182998053  10.2890625 2.6164828033744314  9 2.6164828033744314  C 7.84375 2.6164828033744314  6.777343750000001 2.90071382219338  5.80078125 3.4691758598312776  C 4.82421875 4.037637897469173  4.05078125 4.812459441920829  3.48046875 5.793640493186244  C 2.9101562500000004 6.7748215444516555  2.625 7.841661258922778  2.625 8.99415963659961  Z M 17.28515625 5.495781959766386  C 17.76171875 6.605451005840363  18 7.771576898118105  18 8.99415963659961  C 18 10.216742375081115  17.76171875 11.384815055158988  17.28515625 12.498377676833226  C 16.80859375 13.611940298507461  16.169921875000004 14.569759896171316  15.369140625 15.371836469824789  C 14.568359375 16.17391304347826  13.611328125 16.81245944192083  12.498046875 17.2874756651525  C 11.384765625000002 17.76249188838417  10.21875 18  9 18  C 7.78125 18  6.615234375 17.76249188838417  5.501953125 17.2874756651525  C 4.388671875 16.81245944192083  3.4316406250000004 16.17391304347826  2.630859375 15.371836469824789  C 1.8300781250000002 14.569759896171316  1.1914062500000002 13.611940298507461  0.7148437500000001 12.498377676833226  C 0.23828125000000006 11.384815055158988  0 10.216742375081115  0 8.99415963659961  C 0 7.771576898118105  0.23828125000000006 6.605451005840363  0.7148437500000001 5.495781959766386  C 1.1914062500000002 4.386112913692407  1.8300781250000002 3.430240103828682  2.630859375 2.6281635301752115  C 3.4316406250000004 1.8260869565217372  4.388671875 1.187540558079167  5.501953125 0.7125243348475025  C 6.615234375 0.23750811161583218  7.78125 0  9 0  C 10.21875 0  11.384765625000002 0.23750811161583218  12.498046875 0.7125243348475025  C 13.611328125 1.187540558079167  14.568359375 1.8260869565217372  15.369140625 2.6281635301752115  C 16.169921875000004 3.430240103828682  16.80859375 4.386112913692407  17.28515625 5.495781959766386  Z " fill-rule="nonzero" fill="#cb218c" stroke="none" transform="matrix(1 0 0 1 376 205 )" />
  </g>
</svg>