<svg xmlns="http://www.w3.org/2000/svg" xmlns:xlink="http://www.w3.org/1999/xlink" width="500" zoomAndPan="magnify" viewBox="0 0 375 374.999991" height="500" preserveAspectRatio="xMidYMid meet" version="1.0"><path fill="#474747" d="M 20.289062 81.371094 C 12.746094 83.128906 5.859375 88.914062 2.417969 96.3125 C 0.734375 100.046875 0.367188 101.660156 0.441406 106.933594 C 0.441406 118.652344 -6.589844 110.742188 87.742188 205.222656 C 144.652344 262.207031 172.703125 289.820312 174.976562 291.0625 C 180.320312 293.921875 186.546875 294.945312 192.113281 293.773438 C 194.605469 293.261719 198.191406 292.015625 200.023438 291.0625 C 202.292969 289.820312 230.347656 262.207031 287.253906 205.222656 C 381.589844 110.742188 374.558594 118.652344 374.558594 106.933594 C 374.558594 101.660156 374.265625 100.046875 372.507812 96.167969 C 366.355469 82.691406 349.949219 76.976562 336.546875 83.640625 C 334.644531 84.59375 308.128906 110.59375 260.59375 158.054688 L 187.5 231.078125 L 114.402344 158.054688 C 66.648438 110.375 40.355469 84.59375 38.453125 83.640625 C 32.886719 80.933594 26 80.054688 20.289062 81.371094 Z M 20.289062 81.371094 " fill-opacity="1" fill-rule="nonzero"/></svg>