<?xml version="1.0" encoding="utf-8"?>
<svg version="1.1" xmlns:xlink="http://www.w3.org/1999/xlink" width="18px" height="19px" xmlns="http://www.w3.org/2000/svg">
  <g transform="matrix(1 0 0 1 -690 -204 )">
    <path d="M 6.4303977272727275 15.722005208333334  C 6.5071022727272725 15.647786458333334  6.545454545454546 15.552951388888888  6.545454545454546 15.4375  L 6.545454545454546 6.729166666666666  C 6.545454545454546 6.613715277777778  6.5071022727272725 6.518880208333334  6.4303977272727275 6.444661458333334  C 6.353693181818182 6.370442708333334  6.255681818181819 6.333333333333334  6.136363636363636 6.333333333333334  L 5.318181818181818 6.333333333333334  C 5.198863636363638 6.333333333333334  5.100852272727273 6.370442708333334  5.0241477272727275 6.444661458333334  C 4.947443181818182 6.518880208333334  4.909090909090908 6.613715277777778  4.909090909090908 6.729166666666666  L 4.909090909090908 15.4375  C 4.909090909090908 15.552951388888888  4.947443181818182 15.647786458333334  5.0241477272727275 15.722005208333334  C 5.100852272727273 15.796223958333334  5.198863636363638 15.833333333333334  5.318181818181818 15.833333333333334  L 6.136363636363636 15.833333333333334  C 6.255681818181819 15.833333333333334  6.353693181818182 15.796223958333334  6.4303977272727275 15.722005208333334  Z M 9.703125 15.722005208333334  C 9.779829545454545 15.647786458333334  9.818181818181817 15.552951388888888  9.818181818181817 15.4375  L 9.818181818181817 6.729166666666666  C 9.818181818181817 6.613715277777778  9.779829545454545 6.518880208333334  9.703125 6.444661458333334  C 9.626420454545455 6.370442708333334  9.528409090909092 6.333333333333334  9.409090909090908 6.333333333333334  L 8.590909090909092 6.333333333333334  C 8.47159090909091 6.333333333333334  8.373579545454545 6.370442708333334  8.296875 6.444661458333334  C 8.220170454545455 6.518880208333334  8.181818181818182 6.613715277777778  8.181818181818182 6.729166666666666  L 8.181818181818182 15.4375  C 8.181818181818182 15.552951388888888  8.220170454545455 15.647786458333334  8.296875 15.722005208333334  C 8.373579545454545 15.796223958333334  8.47159090909091 15.833333333333334  8.590909090909092 15.833333333333334  L 9.409090909090908 15.833333333333334  C 9.528409090909092 15.833333333333334  9.626420454545455 15.796223958333334  9.703125 15.722005208333334  Z M 12.975852272727272 15.722005208333334  C 13.052556818181817 15.647786458333334  13.090909090909092 15.552951388888888  13.090909090909092 15.4375  L 13.090909090909092 6.729166666666666  C 13.090909090909092 6.613715277777778  13.052556818181817 6.518880208333334  12.975852272727272 6.444661458333334  C 12.899147727272728 6.370442708333334  12.801136363636363 6.333333333333334  12.681818181818183 6.333333333333334  L 11.863636363636363 6.333333333333334  C 11.744318181818182 6.333333333333334  11.646306818181817 6.370442708333334  11.569602272727272 6.444661458333334  C 11.492897727272728 6.518880208333334  11.454545454545455 6.613715277777778  11.454545454545455 6.729166666666666  L 11.454545454545455 15.4375  C 11.454545454545455 15.552951388888888  11.492897727272728 15.647786458333334  11.569602272727272 15.722005208333334  C 11.646306818181817 15.796223958333334  11.744318181818182 15.833333333333334  11.863636363636363 15.833333333333334  L 12.681818181818183 15.833333333333334  C 12.801136363636363 15.833333333333334  12.899147727272728 15.796223958333334  12.975852272727272 15.722005208333334  Z M 6.762784090909092 1.719401041666666  L 6.136363636363636 3.166666666666666  L 11.863636363636363 3.166666666666666  L 11.25 1.719401041666666  C 11.190340909090912 1.645182291666666  11.117897727272727 1.599826388888888  11.032670454545455 1.583333333333334  L 6.980113636363636 1.583333333333334  C 6.894886363636363 1.599826388888888  6.8224431818181825 1.645182291666666  6.762784090909092 1.719401041666666  Z M 17.884943181818183 3.277994791666666  C 17.961647727272727 3.352213541666666  18 3.44704861111111  18 3.5625  L 18 4.354166666666666  C 18 4.469618055555554  17.961647727272727 4.564453125  17.884943181818183 4.638671875  C 17.808238636363637 4.712890625  17.710227272727273 4.75  17.59090909090909 4.75  L 16.363636363636363 4.75  L 16.363636363636363 16.4765625  C 16.363636363636363 17.161024305555554  16.163352272727273 17.75271267361111  15.762784090909092 18.251627604166664  C 15.36221590909091 18.75054253472222  14.880681818181817 19  14.318181818181817 19  L 3.681818181818182 19  C 3.119318181818182 19  2.6377840909090913 18.7587890625  2.237215909090909 18.2763671875  C 1.8366477272727275 17.7939453125  1.6363636363636365 17.21050347222222  1.6363636363636365 16.526041666666664  L 1.6363636363636365 4.75  L 0.4090909090909091 4.75  C 0.2897727272727273 4.75  0.19176136363636365 4.712890625  0.11505681818181819 4.638671875  C 0.03835227272727272 4.564453125  0 4.469618055555554  0 4.354166666666666  L 0 3.5625  C 0 3.44704861111111  0.03835227272727272 3.352213541666666  0.11505681818181819 3.277994791666666  C 0.19176136363636365 3.203776041666666  0.2897727272727273 3.166666666666666  0.4090909090909091 3.166666666666666  L 4.359375 3.166666666666666  L 5.254261363636364 1.100911458333334  C 5.382102272727273 0.7957899305555539  5.61221590909091 0.5360243055555539  5.9446022727272725 0.32161458333333404  C 6.276988636363637 0.10720486111110994  6.613636363636363 0  6.954545454545454 0  L 11.045454545454545 0  C 11.386363636363638 0  11.723011363636363 0.10720486111110994  12.055397727272728 0.32161458333333404  C 12.387784090909092 0.5360243055555539  12.617897727272728 0.7957899305555539  12.745738636363637 1.100911458333334  L 13.640625 3.166666666666666  L 17.59090909090909 3.166666666666666  C 17.710227272727273 3.166666666666666  17.808238636363637 3.203776041666666  17.884943181818183 3.277994791666666  Z " fill-rule="nonzero" fill="#cb218c" stroke="none" transform="matrix(1 0 0 1 690 204 )" />
  </g>
</svg>