<?xml version="1.0" encoding="utf-8"?>
<svg version="1.1" xmlns:xlink="http://www.w3.org/1999/xlink" width="23px" height="23px" xmlns="http://www.w3.org/2000/svg">
  <g transform="matrix(1 0 0 1 -745 -466 )">
    <path d="M 16.06919642857143 20.234095982142858  C 17.48102678571429 19.485398065476193  18.64043898809524 18.469308035714285  19.54743303571429 17.185825892857142  C 19.35918898809524 15.859561011904761  18.984840029761905 14.757905505952381  18.42438616071429 13.880859375  C 17.863932291666668 13.003813244047619  17.074590773809526 12.496837797619046  16.056361607142858 12.359933035714285  C 15.483072916666668 12.993117559523807  14.800688244047619 13.487258184523807  14.009207589285714 13.842354910714285  C 13.217726934523812 14.197451636904761  12.381324404761907 14.375  11.5 14.375  C 10.618675595238095 14.375  9.782273065476192 14.197451636904761  8.990792410714285 13.842354910714285  C 8.199311755952381 13.487258184523807  7.516927083333334 12.993117559523807  6.943638392857143 12.359933035714285  C 5.925409226190476 12.496837797619046  5.136067708333334 13.003813244047619  4.575613839285714 13.880859375  C 4.015159970238096 14.757905505952381  3.640811011904762 15.859561011904761  3.4525669642857144 17.185825892857142  C 4.359561011904762 18.469308035714285  5.518973214285714 19.485398065476193  6.930803571428571 20.234095982142858  C 8.342633928571429 20.982793898809522  9.865699404761907 21.357142857142858  11.5 21.357142857142858  C 13.134300595238097 21.357142857142858  14.657366071428571 20.982793898809522  16.06919642857143 20.234095982142858  Z M 14.984654017857142 11.698939732142858  C 15.947265625 10.736328125  16.42857142857143 9.574776785714286  16.42857142857143 8.214285714285714  C 16.42857142857143 6.853794642857142  15.947265625 5.692243303571429  14.984654017857142 4.729631696428571  C 14.022042410714286 3.767020089285713  12.860491071428571 3.285714285714287  11.5 3.285714285714287  C 10.139508928571429 3.285714285714287  8.977957589285715 3.767020089285713  8.015345982142856 4.729631696428571  C 7.052734375 5.692243303571429  6.571428571428571 6.853794642857142  6.571428571428571 8.214285714285714  C 6.571428571428571 9.574776785714286  7.052734375 10.736328125  8.015345982142856 11.698939732142858  C 8.977957589285715 12.661551339285715  10.139508928571429 13.142857142857142  11.5 13.142857142857142  C 12.860491071428571 13.142857142857142  14.022042410714286 12.661551339285715  14.984654017857142 11.698939732142858  Z M 22.08872767857143 7.033482142857142  C 22.696242559523814 8.453869047619046  23 9.942708333333332  23 11.5  C 23 13.057291666666664  22.696242559523814 14.543991815476188  22.08872767857143 15.960100446428571  C 21.48121279761905 17.376209077380953  20.666201636904766 18.599795386904763  19.64369419642857 19.630859375  C 18.621186755952383 20.661923363095237  17.399739583333336 21.481212797619047  15.979352678571429 22.08872767857143  C 14.558965773809526 22.69624255952381  13.065848214285714 23  11.5 23  C 9.942708333333334 23  8.453869047619047 22.69624255952381  7.033482142857143 22.08872767857143  C 5.613095238095239 21.481212797619047  4.389508928571428 20.6640625  3.3627232142857144 19.637276785714285  C 2.3359375 18.61049107142857  1.5187872023809523 17.386904761904763  0.9112723214285714 15.966517857142858  C 0.3037574404761904 14.546130952380953  0 13.057291666666664  0 11.5  C 0 9.942708333333332  0.3037574404761904 8.453869047619046  0.9112723214285714 7.033482142857142  C 1.5187872023809523 5.613095238095236  2.3359375 4.389508928571429  3.3627232142857144 3.362723214285713  C 4.389508928571428 2.3359375  5.613095238095239 1.5187872023809517  7.033482142857143 0.9112723214285711  C 8.453869047619047 0.30375744047619035  9.942708333333334 0  11.5 0  C 13.057291666666668 0  14.546130952380954 0.30375744047619035  15.966517857142858 0.9112723214285711  C 17.386904761904763 1.5187872023809517  18.61049107142857 2.3359375  19.63727678571429 3.362723214285713  C 20.664062500000004 4.389508928571429  21.48121279761905 5.613095238095236  22.08872767857143 7.033482142857142  Z " fill-rule="nonzero" fill="#000000" stroke="none" transform="matrix(1 0 0 1 745 466 )" />
  </g>
</svg>