<?xml version="1.0" encoding="utf-8"?>
<svg version="1.1" xmlns:xlink="http://www.w3.org/1999/xlink" width="36px" height="33px" xmlns="http://www.w3.org/2000/svg">
  <g transform="matrix(1 0 0 1 -2643 -367 )">
    <path d="M 20.375278396436528 27.73467548076923  C 20.502227171492205 27.60907451923077  20.56570155902004 27.45372596153846  20.56570155902004 27.26862980769231  L 20.56570155902004 23.500600961538463  C 20.56570155902004 23.315504807692307  20.502227171492205 23.16015625  20.375278396436528 23.034555288461537  C 20.248329621380847 22.90895432692308  20.097995545657017 22.846153846153847  19.924276169265035 22.846153846153847  L 16.075723830734965 22.846153846153847  C 15.902004454342984 22.846153846153847  15.751670378619155 22.90895432692308  15.624721603563474 23.034555288461537  C 15.497772828507795 23.16015625  15.434298440979955 23.315504807692307  15.434298440979955 23.500600961538463  L 15.434298440979955 27.26862980769231  C 15.434298440979955 27.45372596153846  15.497772828507795 27.60907451923077  15.624721603563474 27.73467548076923  C 15.751670378619155 27.86027644230769  15.902004454342984 27.923076923076923  16.075723830734965 27.923076923076923  L 19.924276169265035 27.923076923076923  C 20.097995545657017 27.923076923076923  20.248329621380847 27.86027644230769  20.375278396436528 27.73467548076923  Z M 20.315144766146993 20.17878605769231  C 20.442093541202674 20.092848557692307  20.51224944320713 19.983774038461537  20.525612472160354 19.8515625  L 20.886414253897552 10.748798076923077  C 20.886414253897552 10.590144230769232  20.819599109131403 10.464543269230766  20.68596881959911 10.371995192307692  C 20.512249443207132 10.226562499999998  20.35189309576838 10.153846153846155  20.20489977728285 10.153846153846155  L 15.79510022271715 10.153846153846155  C 15.648106904231629 10.153846153846155  15.487750556792875 10.226562499999998  15.31403118040089 10.371995192307692  C 15.180400890868599 10.464543269230766  15.11358574610245 10.60336538461538  15.11358574610245 10.788461538461537  L 15.454342984409799 19.8515625  C 15.454342984409799 19.983774038461537  15.521158129175948 20.092848557692307  15.65478841870824 20.17878605769231  C 15.788418708240537 20.264723557692303  15.948775055679288 20.30769230769231  16.135857461024496 20.30769230769231  L 19.844097995545656 20.30769230769231  C 20.031180400890868 20.30769230769231  20.188195991091312 20.264723557692303  20.315144766146993 20.17878605769231  Z M 19.302895322939868 0.3569711538461544  C 19.70378619153675 0.5949519230769228  20.017817371937642 0.91887019230769  20.244988864142538 1.3287259615384632  L 35.639198218262806 29.251802884615387  C 36.10690423162584 30.084735576923077  36.093541202672604 30.91766826923077  35.59910913140312 31.750600961538463  C 35.37193763919822 32.13401442307692  35.06124721603564 32.43810096153847  34.66703786191537 32.66286057692308  C 34.272828507795104 32.88762019230769  33.84855233853007 33  33.394209354120264 33  L 2.605790645879733 33  C 2.151447661469933 33  1.7271714922049 32.88762019230769  1.3329621380846326 32.66286057692308  C 0.9387527839643652 32.43810096153847  0.6280623608017818 32.13401442307692  0.40089086859688194 31.750600961538463  C -0.09354120267260581 30.91766826923077  -0.10690423162583522 30.084735576923077  0.3608017817371938 29.251802884615387  L 15.755011135857462 1.3287259615384632  C 15.982182628062365 0.91887019230769  16.296213808463254 0.5949519230769228  16.697104677060132 0.3569711538461544  C 17.097995545657017 0.11899038461538602  17.532293986636972 0  18 0  C 18.46770601336303 0  18.902004454342986 0.11899038461538602  19.302895322939868 0.3569711538461544  Z " fill-rule="nonzero" fill="#9e5fef" stroke="none" transform="matrix(1 0 0 1 2643 367 )" />
  </g>
</svg>