<?xml version="1.0" encoding="utf-8"?>
<svg version="1.1" xmlns:xlink="http://www.w3.org/1999/xlink" width="18px" height="16px" xmlns="http://www.w3.org/2000/svg">
  <g transform="matrix(1 0 0 1 -45 -891 )">
    <path d="M 7.323979591836735 14.63125  C 7.316326530612245 14.677083333333334  7.323979591836735 14.733333333333334  7.346938775510204 14.8  C 7.346938775510204 14.833333333333334  7.350765306122449 14.916666666666666  7.358418367346938 15.05  C 7.36607142857143 15.183333333333334  7.367984693877552 15.29375  7.364158163265307 15.38125  C 7.360331632653063 15.46875  7.348852040816327 15.566666666666666  7.329719387755102 15.675  C 7.310586734693878 15.783333333333335  7.272321428571429 15.864583333333334  7.214923469387755 15.91875  C 7.157525510204082 15.972916666666666  7.079081632653063 16  6.979591836734693 16  L 3.306122448979592 16  C 2.3954081632653064 16  1.6167091836734695 15.647916666666665  0.9700255102040817 14.94375  C 0.32334183673469385 14.239583333333334  0 13.391666666666666  0 12.4  L 0 3.5999999999999996  C 0 2.6083333333333307  0.32334183673469385 1.760416666666666  0.9700255102040817 1.0562500000000004  C 1.6167091836734695 0.3520833333333311  2.3954081632653064 0  3.306122448979592 0  L 6.979591836734693 0  C 7.079081632653063 0  7.165178571428572 0.03958333333333108  7.237882653061225 0.11875000000000036  C 7.310586734693878 0.19791666666666607  7.346938775510204 0.2916666666666661  7.346938775510204 0.40000000000000036  C 7.346938775510204 0.4333333333333318  7.350765306122449 0.5166666666666657  7.358418367346938 0.6500000000000004  C 7.36607142857143 0.7833333333333314  7.367984693877552 0.8937500000000007  7.364158163265307 0.9812499999999993  C 7.360331632653063 1.0687499999999996  7.348852040816327 1.166666666666666  7.329719387755102 1.2750000000000004  C 7.310586734693878 1.383333333333331  7.272321428571429 1.4645833333333318  7.214923469387755 1.5187500000000007  C 7.157525510204082 1.572916666666666  7.079081632653063 1.5999999999999996  6.979591836734693 1.5999999999999996  L 3.306122448979592 1.5999999999999996  C 2.8010204081632653 1.5999999999999996  2.3686224489795924 1.7958333333333307  2.0089285714285716 2.1875  C 1.6492346938775513 2.5791666666666657  1.4693877551020407 3.0500000000000007  1.4693877551020407 3.5999999999999996  L 1.4693877551020407 12.4  C 1.4693877551020407 12.95  1.6492346938775513 13.42083333333333  2.0089285714285716 13.8125  C 2.3686224489795924 14.204166666666666  2.8010204081632653 14.4  3.306122448979592 14.4  L 6.612244897959184 14.4  L 6.738520408163265 14.4  L 6.887755102040816 14.4  C 6.887755102040816 14.4  6.931760204081633 14.404166666666665  7.019770408163265 14.4125  C 7.107780612244898 14.420833333333334  7.1517857142857135 14.433333333333334  7.1517857142857135 14.45  C 7.1517857142857135 14.466666666666665  7.182397959183674 14.489583333333334  7.2436224489795915 14.51875  C 7.304846938775511 14.547916666666666  7.3316326530612255 14.585416666666665  7.323979591836735 14.63125  Z M 17.78188775510204 7.4375  C 17.92729591836735 7.595833333333333  18 7.783333333333333  18 8  C 18 8.216666666666665  17.92729591836735 8.404166666666665  17.78188775510204 8.5625  L 11.536989795918368 15.3625  C 11.391581632653061 15.520833333333334  11.219387755102042 15.6  11.020408163265307 15.6  C 10.821428571428573 15.6  10.649234693877553 15.520833333333334  10.503826530612244 15.3625  C 10.358418367346939 15.204166666666666  10.285714285714285 15.016666666666666  10.285714285714285 14.8  L 10.285714285714285 11.2  L 5.142857142857142 11.2  C 4.9438775510204085 11.2  4.771683673469388 11.120833333333334  4.626275510204082 10.9625  C 4.480867346938775 10.804166666666665  4.408163265306122 10.616666666666665  4.408163265306122 10.4  L 4.408163265306122 5.6  C 4.408163265306122 5.383333333333331  4.480867346938775 5.195833333333331  4.626275510204082 5.0375  C 4.771683673469388 4.879166666666666  4.9438775510204085 4.800000000000001  5.142857142857142 4.800000000000001  L 10.285714285714285 4.800000000000001  L 10.285714285714285 1.1999999999999993  C 10.285714285714285 0.9833333333333307  10.358418367346939 0.7958333333333307  10.503826530612244 0.6374999999999993  C 10.649234693877553 0.4791666666666661  10.821428571428573 0.40000000000000036  11.020408163265307 0.40000000000000036  C 11.219387755102042 0.40000000000000036  11.391581632653061 0.4791666666666661  11.536989795918368 0.6374999999999993  L 17.78188775510204 7.4375  Z " fill-rule="nonzero" fill="#ded5ed" stroke="none" transform="matrix(1 0 0 1 45 891 )" />
  </g>
</svg>