<?xml version="1.0" encoding="utf-8"?>
<svg version="1.1" xmlns:xlink="http://www.w3.org/1999/xlink" width="23px" height="20px" xmlns="http://www.w3.org/2000/svg">
  <g transform="matrix(1 0 0 1 -61 -204 )">
    <path d="M 17.95591517857143 11.783854166666664  C 18.032924107142858 11.861979166666664  18.07142857142857 11.961805555555554  18.07142857142857 12.083333333333336  L 18.07142857142857 16.25  C 18.07142857142857 17.28298611111111  17.709914434523814 18.16623263888889  16.98688616071429 18.899739583333332  C 16.263857886904763 19.63324652777778  15.393229166666668 20  14.375 20  L 3.6964285714285716 20  C 2.678199404761905 20  1.8075706845238098 19.63324652777778  1.0845424107142856 18.899739583333332  C 0.3615141369047619 18.16623263888889  0 17.28298611111111  0 16.25  L 0 5.416666666666668  C 0 4.383680555555554  0.3615141369047619 3.500434027777777  1.0845424107142856 2.7669270833333326  C 1.8075706845238098 2.033420138888886  2.678199404761905 1.6666666666666674  3.6964285714285716 1.6666666666666674  L 12.732142857142858 1.6666666666666674  C 12.851934523809526 1.6666666666666674  12.950334821428571 1.7057291666666674  13.02734375 1.7838541666666674  C 13.104352678571429 1.8619791666666674  13.142857142857142 1.9618055555555536  13.142857142857142 2.0833333333333326  L 13.142857142857142 2.9166666666666674  C 13.142857142857142 3.038194444444444  13.104352678571429 3.1380208333333326  13.02734375 3.2161458333333326  C 12.950334821428571 3.2942708333333326  12.851934523809526 3.3333333333333326  12.732142857142858 3.3333333333333326  L 3.6964285714285716 3.3333333333333326  C 3.131696428571429 3.3333333333333326  2.6482514880952386 3.537326388888886  2.24609375 3.9453125  C 1.843936011904762 4.353298611111109  1.6428571428571428 4.84375  2 5.416666666666668  L 2 16.25  C 1.6428571428571428 16.822916666666668  1.843936011904762 17.313368055555554  2.24609375 17.721354166666668  C 2.6482514880952386 18.12934027777778  3.131696428571429 18.333333333333332  3.6964285714285716 18  L 14.375 18  C 14.939732142857142 18.333333333333332  15.423177083333336 18.12934027777778  15.825334821428571 17.721354166666668  C 16.227492559523814 17.313368055555554  16.42857142857143 16.822916666666668  16.42857142857143 16.25  L 16.42857142857143 12.083333333333336  C 16.42857142857143 11.961805555555554  16.467075892857142 11.861979166666664  16.54408482142857 11.783854166666664  C 16.62109375 11.705729166666664  16.719494047619047 11.666666666666664  16.83928571428571 11.666666666666664  L 17.66071428571429 11.666666666666664  C 17.780505952380956 11.666666666666664  17.87890625 11.705729166666664  17.95591517857143 11.783854166666664  Z M 22.756138392857142 0.2473958333333326  C 22.918712797619047 0.4123263888888862  23 0.6076388888888862  23 0.8333333333333326  L 23 7.5  C 23 7.725694444444445  22.918712797619047 7.921006944444445  22.756138392857142 8.0859375  C 22.59356398809524 8.250868055555555  22.401041666666668 8.333333333333332  22.17857142857143 8.333333333333332  C 21.95610119047619 8.333333333333332  21.76357886904762 8.250868055555555  21.60100446428571 8.0859375  L 19.342075892857142 5.794270833333332  L 10.973772321428571 14.283854166666664  C 10.888206845238095 14.370659722222218  10.789806547619047 14.4140625  10.678571428571429 14.4140625  C 10.56733630952381 14.4140625  10.468936011904763 14.370659722222218  10.383370535714285 14.283854166666664  L 8.920200892857144 12.799479166666664  C 8.834635416666668 12.71267361111111  8.791852678571429 12.612847222222223  8.791852678571429 12.5  C 8.791852678571429 12.387152777777777  8.834635416666668 12.28732638888889  8.920200892857144 12.200520833333336  L 17.28850446428571 3.7109375  L 15.029575892857142 1.4192708333333326  C 14.86700148809524 1.2543402777777768  14.785714285714286 1.0590277777777768  14.785714285714286 0.8333333333333326  C 14.785714285714286 0.6076388888888862  14.86700148809524 0.4123263888888862  15.029575892857142 0.2473958333333326  C 15.192150297619047 0.08246527777777901  15.384672619047619 0  15.607142857142858 0  L 22.17857142857143 0  C 22.401041666666668 0  22.59356398809524 0.08246527777777901  22.756138392857142 0.2473958333333326  Z " fill-rule="nonzero" fill="#cb218c" stroke="none" transform="matrix(1 0 0 1 61 204 )" />
  </g>
</svg>