<?xml version="1.0" encoding="utf-8"?>
<svg version="1.1" xmlns:xlink="http://www.w3.org/1999/xlink" width="14px" height="12px" xmlns="http://www.w3.org/2000/svg">
  <g transform="matrix(1 0 0 1 -10039 -81 )">
    <path d="M 10.9296875 7.070312499999999  C 10.9765625 7.117187499999999  11 7.177083333333332  11 7.250000000000001  L 11 9.75  C 11 10.369791666666666  10.779947916666668 10.899739583333334  10.33984375 11.33984375  C 9.899739583333334 11.779947916666666  9.369791666666668 12  8.75 12  L 2.25 12  C 1.6302083333333335 12  1.1002604166666667 11.779947916666666  0.66015625 11.33984375  C 0.22005208333333331 10.899739583333334  0 10.369791666666666  0 9.75  L 0 3.2500000000000004  C 0 2.630208333333332  0.22005208333333331 2.100260416666666  0.66015625 1.6601562499999996  C 1.1002604166666667 1.2200520833333317  1.6302083333333335 1.0000000000000004  2.25 1.0000000000000004  L 7.75 1.0000000000000004  C 7.822916666666668 1.0000000000000004  7.8828125 1.0234375000000004  7.9296875 1.0703125000000004  C 7.9765625 1.1171875000000004  8 1.1770833333333321  8 1.2499999999999996  L 8 1.7500000000000004  C 8 1.8229166666666665  7.9765625 1.8828124999999996  7.9296875 1.9296874999999996  C 7.8828125 1.9765624999999996  7.822916666666668 1.9999999999999996  7.75 1.9999999999999996  L 2.25 1.9999999999999996  C 1.9062500000000002 1.9999999999999996  1.611979166666667 2.1223958333333317  1.3671875 2.3671875  C 1.1223958333333335 2.6119791666666656  1 2.90625  1 3.2500000000000004  L 1 9.75  C 1 10.09375  1.1223958333333335 10.388020833333332  1.3671875 10.6328125  C 1.611979166666667 10.877604166666666  1.9062500000000002 11  2.25 11  L 8.75 11  C 9.09375 11  9.388020833333334 10.877604166666666  9.6328125 10.6328125  C 9.877604166666668 10.388020833333332  10 10.09375  10 9.75  L 10 7.250000000000001  C 10 7.177083333333332  10.0234375 7.117187499999999  10.0703125 7.070312499999999  C 10.1171875 7.023437499999999  10.177083333333334 6.999999999999999  10.25 6.999999999999999  L 10.75 6.999999999999999  C 10.822916666666668 6.999999999999999  10.8828125 7.023437499999999  10.9296875 7.070312499999999  Z M 13.8515625 0.14843749999999956  C 13.950520833333334 0.2473958333333317  14 0.3645833333333317  14 0.49999999999999956  L 14 4.5  C 14 4.635416666666666  13.950520833333334 4.752604166666666  13.8515625 4.8515625  C 13.752604166666668 4.950520833333334  13.635416666666668 5  13.5 5  C 13.364583333333334 5  13.247395833333334 4.950520833333334  13.1484375 4.8515625  L 11.7734375 3.4765624999999996  L 6.6796875 8.5703125  C 6.627604166666667 8.622395833333332  6.567708333333334 8.6484375  6.5 8.6484375  C 6.432291666666668 8.6484375  6.372395833333334 8.622395833333332  6.3203125 8.5703125  L 5.4296875 7.679687499999999  C 5.377604166666667 7.627604166666667  5.3515625 7.567708333333334  5.3515625 7.5  C 5.3515625 7.432291666666666  5.377604166666667 7.372395833333333  5.4296875 7.320312500000001  L 10.5234375 2.2265625  L 9.1484375 0.8515624999999996  C 9.049479166666668 0.7526041666666661  9 0.6354166666666661  9 0.49999999999999956  C 9 0.3645833333333317  9.049479166666668 0.2473958333333317  9.1484375 0.14843749999999956  C 9.247395833333334 0.04947916666666741  9.364583333333334 0  9.5 0  L 13.5 0  C 13.635416666666668 0  13.752604166666668 0.04947916666666741  13.8515625 0.14843749999999956  Z " fill-rule="nonzero" fill="#9e5fef" stroke="none" transform="matrix(1 0 0 1 10039 81 )" />
  </g>
</svg>