<?xml version="1.0" encoding="UTF-8"?>
<svg version="1.1" xmlns="http://www.w3.org/2000/svg" width="720" height="405">
<path d="M0 0 C237.6 0 475.2 0 720 0 C720 133.65 720 267.3 720 405 C482.4 405 244.8 405 0 405 C0 271.35 0 137.7 0 0 Z " fill="#EFEFEF" transform="translate(0,0)"/>
<path d="M0 0 C5.88357329 4.97768978 9.940449 10.55270084 13.8359375 17.14453125 C14.18229248 17.72219238 14.52864746 18.29985352 14.88549805 18.89501953 C17.23281153 23.04592183 18.04507623 26.41844412 18.4609375 31.08203125 C17.41981812 31.5313501 17.41981812 31.5313501 16.35766602 31.98974609 C0.28711775 38.92968515 -15.76088451 45.91978418 -31.7890625 52.95703125 C-33.07914719 53.5230304 -33.07914719 53.5230304 -34.39529419 54.10046387 C-43.81085451 58.2316047 -53.21866842 62.37905154 -62.609375 66.56640625 C-64.96191602 67.61308359 -67.31461647 68.65940178 -69.6673584 69.70562744 C-71.87026739 70.68751084 -74.07039888 71.67543643 -76.27050781 72.66357422 C-77.5968741 73.25387542 -78.9233641 73.84389874 -80.25 74.43359375 C-81.97162354 75.20437256 -81.97162354 75.20437256 -83.72802734 75.99072266 C-86.5390625 77.08203125 -86.5390625 77.08203125 -89.5390625 77.08203125 C-97.96615219 61.72674134 -100.7459105 44.19429661 -96.0390625 27.01953125 C-89.95605487 10.56089712 -78.75862606 -2.23735639 -62.9140625 -9.79296875 C-41.82353899 -18.60293427 -17.87807848 -13.8055649 0 0 Z " fill="#030303" transform="translate(421.5390625,168.91796875)"/>
<path d="M0 0 C4.3033139 0.46495575 6.05886238 2.90991016 8.8125 6.0625 C9.25118408 6.55983643 9.68986816 7.05717285 10.1418457 7.56958008 C11.43572046 9.0395373 12.71806285 10.51962056 14 12 C14.64710938 12.73476562 15.29421875 13.46953125 15.9609375 14.2265625 C17.0892317 15.50801881 18.21065894 16.79556301 19.32421875 18.08984375 C20.52765044 19.46158757 21.76365279 20.80501116 23.01953125 22.12890625 C23.67308594 22.82886719 24.32664063 23.52882812 25 24.25 C25.598125 24.87390625 26.19625 25.4978125 26.8125 26.140625 C28 28 28 28 27.9140625 29.9921875 C26.77845082 32.48665076 25.32064898 33.94437533 23.375 35.875 C13.12251783 47.03102826 9.35896966 60.14373489 9.7578125 74.9765625 C10.42235068 88.95818263 16.50280752 102.4560505 26.59375 112.1328125 C28 114 28 114 27.74267578 115.93212891 C26.51359677 119.35431799 23.85873819 121.67970221 21.375 124.25 C20.27661344 125.41207056 19.17895404 126.57482888 18.08203125 127.73828125 C17.5504541 128.29854004 17.01887695 128.85879883 16.47119141 129.43603516 C11.76850735 134.43527082 7.3663867 139.70741006 3 145 C-3.07792905 144.33566822 -6.86060322 138.27634123 -10.53759766 133.85791016 C-27.51775555 112.2854558 -34.62631179 86.24135884 -32 59 C-28.54430815 35.3883294 -16.08115381 16.9384212 0 0 Z " fill="#02A4DF" transform="translate(136,130)"/>
<path d="M0 0 C8.75539862 0.79594533 17.37142734 2.35401885 26 4 C26.66837891 4.12665039 27.33675781 4.25330078 28.02539062 4.38378906 C29.85370937 4.73852365 31.67706787 5.11854944 33.5 5.5 C35.06234375 5.82484375 35.06234375 5.82484375 36.65625 6.15625 C37.4296875 6.4346875 38.203125 6.713125 39 7 C41.38781967 14.16345902 34.92420012 25.53943039 31.8125 32.125 C20.84250168 53.14095791 2.92088722 69.14476355 -19 78 C-20.10859375 78.49242187 -21.2171875 78.98484375 -22.359375 79.4921875 C-41.4431364 87.39597709 -67.61893754 88.89501046 -87 81 C-88.31950283 77.0414915 -87.08405881 74.51632073 -85.75 70.75 C-85.53214844 70.10675781 -85.31429687 69.46351563 -85.08984375 68.80078125 C-83.99459312 65.61750894 -82.8022578 62.54262682 -81.46484375 59.44921875 C-80.01093746 56.02575408 -78.87735931 52.62427079 -77.8125 49.0625 C-77.46832031 47.91910156 -77.12414062 46.77570313 -76.76953125 45.59765625 C-76.51558594 44.74042969 -76.26164063 43.88320313 -76 43 C-74.88625 43.165 -73.7725 43.33 -72.625 43.5 C-52.82044894 45.62750312 -34.14459722 43.19691701 -18.00390625 30.67578125 C-8.98172708 22.14796807 -3.71367949 11.71769678 0 0 Z " fill="#EE4325" transform="translate(259,215)"/>
<path d="M0 0 C18.89540265 14.36886271 33.33959788 33.11219055 39.1796875 56.41796875 C39.1796875 57.73796875 39.1796875 59.05796875 39.1796875 60.41796875 C34.28794872 61.42108963 29.39496475 62.41780797 24.50073242 63.40869141 C22.8369657 63.74646439 21.17354869 64.08596487 19.51049805 64.42724609 C17.11597754 64.91831966 14.720256 65.40310714 12.32421875 65.88671875 C11.5844429 66.03983521 10.84466705 66.19295166 10.08247375 66.35070801 C6.39626959 67.08834639 2.94192603 67.59881455 -0.8203125 67.41796875 C-1.10003906 66.52335937 -1.37976563 65.62875 -1.66796875 64.70703125 C-6.88308326 48.97784343 -15.81541657 37.05682486 -30.8203125 29.41796875 C-39.92246689 25.22546127 -48.32069209 23.07798658 -58.3203125 23.23046875 C-59.12339844 23.23111328 -59.92648438 23.23175781 -60.75390625 23.23242188 C-65.85397412 23.26961848 -70.77213625 23.69431963 -75.8203125 24.41796875 C-78.86944958 17.05366661 -81.54738137 9.60241794 -84.0703125 2.04296875 C-84.43382812 0.97691406 -84.79734375 -0.08914062 -85.171875 -1.1875 C-85.51476562 -2.21230469 -85.85765625 -3.23710938 -86.2109375 -4.29296875 C-86.52063477 -5.21384277 -86.83033203 -6.1347168 -87.14941406 -7.08349609 C-87.8203125 -9.58203125 -87.8203125 -9.58203125 -87.8203125 -13.58203125 C-58.12503746 -22.51054348 -25.54185102 -17.9368001 0 0 Z " fill="#FECA07" transform="translate(259.8203125,122.58203125)"/>
<path d="M0 0 C8.25 0 16.5 0 25 0 C25 37.95 25 75.9 25 115 C28.3 115.99 31.6 116.98 35 118 C37.67547565 118.97618706 40.34564953 119.9677526 43 121 C42.40227336 124.43493576 41.52472216 127.44231496 40.15234375 130.64453125 C39.79462891 131.48564453 39.43691406 132.32675781 39.06835938 133.19335938 C38.50858398 134.48983398 38.50858398 134.48983398 37.9375 135.8125 C37.56044922 136.69615234 37.18339844 137.57980469 36.79492188 138.49023438 C35.86751446 140.66201124 34.93576366 142.83181367 34 145 C28.75712637 144.36852869 24.28195515 142.73855364 19.4375 140.75 C18.69564453 140.46253906 17.95378906 140.17507813 17.18945312 139.87890625 C12.48741528 137.96124522 9.40006242 135.89747895 6 132 C5.278125 131.195625 4.55625 130.39125 3.8125 129.5625 C-0.67614894 123.21647909 -0.27545253 116.68227624 -0.22705078 109.21142578 C-0.22734283 108.03036758 -0.22763489 106.84930939 -0.22793579 105.63246155 C-0.22678433 102.40764302 -0.21678004 99.1829999 -0.20278788 95.95821619 C-0.19025317 92.58298161 -0.18910786 89.20774328 -0.18673706 85.83248901 C-0.18053032 79.44715692 -0.16413047 73.06189361 -0.14403808 66.67659175 C-0.12165393 59.40453296 -0.11067933 52.13247082 -0.10064721 44.86038613 C-0.07976348 29.90687951 -0.04309737 14.95346219 0 0 Z " fill="#010101" transform="translate(453,130)"/>
<path d="M0 0 C3.1070514 0.0868638 4.13934528 1.1330011 6.40234375 3.29296875 C7.23894531 4.24816406 8.07554687 5.20335937 8.9375 6.1875 C9.37553955 6.68709229 9.8135791 7.18668457 10.26489258 7.70141602 C11.51446219 9.13032523 12.75741404 10.56501363 14 12 C14.59296875 12.63421875 15.1859375 13.2684375 15.796875 13.921875 C18.98160211 17.39286972 18.98160211 17.39286972 19.0625 20.0625 C18 22 18 22 16.1875 24.1875 C9.79998572 32.40001836 8.7597456 40.80387098 9.66455078 50.97314453 C10.76089941 57.59751596 15.03936604 62.80241129 19 68 C17.63243969 71.02197474 16.04883521 73.24646592 13.8125 75.6875 C10.47299224 79.38954305 7.49814043 83.27360015 4.578125 87.3125 C4.05734375 87.869375 3.5365625 88.42625 3 89 C2.01 89 1.02 89 0 89 C-1.93258259 87.0037059 -3.61762061 85.06085749 -5.3125 82.875 C-5.80161865 82.24553467 -6.2907373 81.61606934 -6.79467773 80.9675293 C-16.8425839 67.55419995 -20.66974579 51.95105352 -18.53515625 35.39453125 C-16.10221393 21.27194889 -10.13504983 10.13504983 0 0 Z " fill="#040404" transform="translate(516,171)"/>
<path d="M0 0 C9.05268156 1.4329198 18.02286105 3.16042235 27 5 C25.18793356 19.40280392 16.52405944 32.06483889 5.4609375 41.26953125 C2.27429962 43.51029408 -1.0234969 45.44045511 -4.4375 47.3125 C-5.04601807 47.65039551 -5.65453613 47.98829102 -6.28149414 48.33642578 C-14.59590877 52.69501076 -22.79543681 53.32642939 -32.0625 53.25 C-33.00416016 53.25773437 -33.94582031 53.26546875 -34.91601562 53.2734375 C-40.61975645 53.2575607 -45.52976976 52.62367258 -51 51 C-48.74603165 42.185701 -45.9375631 33.60369272 -43 25 C-41.88882813 25.04640625 -40.77765625 25.0928125 -39.6328125 25.140625 C-28.15152739 25.47637285 -19.33492718 24.38110521 -10 17 C-5.07616997 12.07616997 -2.6663318 6.37650413 0 0 Z " fill="#030303" transform="translate(589,222)"/>
<path d="M0 0 C13.16837676 8.5497493 23.89549609 21.53599926 27.91796875 36.89453125 C27.91796875 38.21453125 27.91796875 39.53453125 27.91796875 40.89453125 C24.35680917 41.56849426 20.79384734 42.23240943 17.23046875 42.89453125 C16.22306641 43.0853125 15.21566406 43.27609375 14.17773438 43.47265625 C13.20126953 43.653125 12.22480469 43.83359375 11.21875 44.01953125 C10.32325439 44.18710938 9.42775879 44.3546875 8.50512695 44.52734375 C5.93783943 44.89171107 3.50704862 44.95981932 0.91796875 44.89453125 C0.54285156 44.08628906 0.16773438 43.27804688 -0.21875 42.4453125 C-4.85941933 32.75484682 -9.86165312 27.35078498 -19.08203125 21.89453125 C-21.9061489 20.9531587 -23.61121157 20.77727743 -26.53125 20.796875 C-27.37880859 20.80009766 -28.22636719 20.80332031 -29.09960938 20.80664062 C-30.4212207 20.81920898 -30.4212207 20.81920898 -31.76953125 20.83203125 C-33.10854492 20.83879883 -33.10854492 20.83879883 -34.47460938 20.84570312 C-36.67715112 20.85748142 -38.87955724 20.87392961 -41.08203125 20.89453125 C-42.45361876 17.15067311 -43.80122257 13.39861928 -45.14453125 9.64453125 C-45.53447266 8.58105469 -45.92441406 7.51757812 -46.32617188 6.421875 C-46.69033203 5.39707031 -47.05449219 4.37226563 -47.4296875 3.31640625 C-47.77008057 2.3737793 -48.11047363 1.43115234 -48.46118164 0.45996094 C-49.10708592 -2.20899782 -49.00734772 -3.55757185 -48.08203125 -6.10546875 C-32.06044215 -11.32082979 -14.61895349 -7.79282946 0 0 Z " fill="#030303" transform="translate(588.08203125,163.10546875)"/>
<path d="M0 0 C2.94372839 1.40205245 5.62213369 3.00343262 8.328125 4.8203125 C9.12734375 5.35527344 9.9265625 5.89023438 10.75 6.44140625 C11.575 6.99699219 12.4 7.55257812 13.25 8.125 C14.51070312 8.96998047 14.51070312 8.96998047 15.796875 9.83203125 C17.86598953 11.21927849 19.93363383 12.60866371 22 14 C18.00985032 24.82512829 8.6223642 30.96800616 -1.5 35.75 C-10.15525237 39.63938556 -18.32850629 41.56436343 -27.8125 41.5 C-28.7730127 41.49572998 -29.73352539 41.49145996 -30.72314453 41.48706055 C-42.0626556 41.21670826 -50.68549009 37.39231072 -60 31 C-55.98921015 23.20012225 -51.06297026 16.13669229 -46 9 C-45.44054687 9.3609375 -44.88109375 9.721875 -44.3046875 10.09375 C-36.21361961 14.77668319 -28.55616816 15.21189775 -19.421875 13.5234375 C-11.71143211 11.28579149 -4.52101059 6.68323305 0 0 Z " fill="#030303" transform="translate(410,234)"/>
<path d="M0 0 C2.84964665 2.16387803 5.46386491 4.47803326 8 7 C5.29982915 9.70017085 2.10710653 10.80873497 -1.359375 12.265625 C-2.10020325 12.58150574 -2.84103149 12.89738647 -3.60430908 13.22283936 C-5.98430252 14.23643979 -8.36706528 15.24333658 -10.75 16.25 C-12.30878388 16.91231312 -13.86737971 17.575069 -15.42578125 18.23828125 C-17.73006123 19.21875621 -20.03480689 20.19802412 -22.34143066 21.17297363 C-25.95679815 22.70127125 -29.56533455 24.24171278 -33.15820312 25.82226562 C-33.80138489 26.10366394 -34.44456665 26.38506226 -35.10723877 26.67498779 C-36.83527267 27.43269892 -38.56079853 28.19612264 -40.28613281 28.95996094 C-43 30 -43 30 -46 30 C-46.46172619 22.3045635 -46.41943971 16.47601067 -42 10 C-41.29875 8.96875 -40.5975 7.9375 -39.875 6.875 C-29.70569856 -4.64810937 -13.23010079 -7.56317129 0 0 Z " fill="#E9E9E9" transform="translate(397,184)"/>
<path d="M0 0 C0.66 0.33 1.32 0.66 2 1 C-2.62 5.62 -7.24 10.24 -12 15 C-12 10.39852874 -9.10228152 8.19311408 -6 5 C-4.05341967 3.24193983 -2.06456557 1.62215867 0 0 Z " fill="#232323" transform="translate(348,165)"/>
</svg>
