<?xml version="1.0" encoding="utf-8"?>
<svg version="1.1" xmlns:xlink="http://www.w3.org/1999/xlink" width="50px" height="40px" xmlns="http://www.w3.org/2000/svg">
  <g transform="matrix(1 0 0 1 -1253 -248 )">
    <path d="M 4.166666666666666 0  L 45.83333333333333 0  C 46.979166666666664 0  47.96006944444445 0.40798611111110716  48.776041666666664 1.2239583333333348  C 49.59201388888889 2.0399305555555536  50.000000000000014 3.020833333333335  50 4.166666666666665  L 50 35.833333333333336  C 50.000000000000014 36.979166666666664  49.59201388888889 37.96006944444444  48.776041666666664 38.776041666666664  C 47.96006944444445 39.592013888888886  46.979166666666664 40  45.83333333333333 40  L 4.166666666666666 40  C 3.0208333333333335 40  2.039930555555556 39.592013888888886  1.2239583333333333 38.776041666666664  C 0.40798611111111116 37.96006944444444  0 36.979166666666664  0 35.833333333333336  L 0 4.166666666666665  C 0 3.020833333333335  0.40798611111111116 2.0399305555555536  1.2239583333333333 1.2239583333333348  C 2.039930555555556 0.40798611111110716  3.0208333333333335 0  4.166666666666666 0  Z M 45.83333333333333 4  L 4.166666666666666 4  C 3.9409722222222228 3.333333333333335  3.7456597222222228 3.415798611111107  3.5807291666666665 3.580729166666665  C 3.4157986111111116 3.7456597222222188  3.3333333333333335 3.9409722222222188  3.3333333333333335 4.166666666666665  L 3.3333333333333335 10  L 46.666666666666664 10  L 46.666666666666664 4.166666666666665  C 46.666666666666664 3.9409722222222188  46.58420138888889 3.7456597222222188  46.41927083333333 3.580729166666665  C 46.254340277777786 3.415798611111107  46.059027777777786 3.333333333333335  45.83333333333333 4  Z M 4.166666666666666 36  L 45.83333333333333 36  C 46.059027777777786 36.666666666666664  46.254340277777786 36.584201388888886  46.41927083333333 36.419270833333336  C 46.58420138888889 36.25434027777778  46.666666666666664 36.05902777777778  46 35.833333333333336  L 46 20  L 4 20  L 4 35.833333333333336  C 3.3333333333333335 36.05902777777778  3.4157986111111116 36.25434027777778  3.5807291666666665 36.419270833333336  C 3.7456597222222228 36.584201388888886  3.9409722222222228 36.666666666666664  4.166666666666666 36  Z M 13.333333333333334 33.333333333333336  L 6.666666666666667 33.333333333333336  L 6.666666666666667 30  L 13.333333333333334 30  L 13.333333333333334 33.333333333333336  Z M 26.666666666666668 33  L 16.666666666666664 33  L 16.666666666666664 30  L 26.666666666666668 30  L 26.666666666666668 33  Z " fill-rule="nonzero" fill="#333333" stroke="none" transform="matrix(1 0 0 1 1253 248 )" />
  </g>
</svg>