<svg xmlns="http://www.w3.org/2000/svg" xmlns:xlink="http://www.w3.org/1999/xlink" width="500" zoomAndPan="magnify" viewBox="0 0 375 374.999991" height="500" preserveAspectRatio="xMidYMid meet" version="1.0"><defs><clipPath id="a911f046d8"><path d="M 75 1 L 300 1 L 300 373 L 75 373 Z M 75 1 " clip-rule="nonzero"/></clipPath><clipPath id="9b12f36365"><path d="M 40.886719 29.652344 L 141.976562 -23.050781 L 334.058594 345.382812 L 232.972656 398.085938 Z M 40.886719 29.652344 " clip-rule="nonzero"/></clipPath><clipPath id="ef3a6b93e9"><path d="M 40.886719 29.652344 L 141.976562 -23.050781 L 334.058594 345.382812 L 232.972656 398.085938 Z M 40.886719 29.652344 " clip-rule="nonzero"/></clipPath><clipPath id="2c9924ce5f"><path d="M 144 126 L 295 126 L 295 374 L 144 374 Z M 144 126 " clip-rule="nonzero"/></clipPath><clipPath id="cd2dfeb771"><path d="M 40.886719 29.652344 L 141.976562 -23.050781 L 334.058594 345.382812 L 232.972656 398.085938 Z M 40.886719 29.652344 " clip-rule="nonzero"/></clipPath><clipPath id="8889ca0b16"><path d="M 40.886719 29.652344 L 141.976562 -23.050781 L 334.058594 345.382812 L 232.972656 398.085938 Z M 40.886719 29.652344 " clip-rule="nonzero"/></clipPath><clipPath id="8f3d2eee14"><path d="M 70 2 L 191 2 L 191 148 L 70 148 Z M 70 2 " clip-rule="nonzero"/></clipPath><clipPath id="3cf30b45e8"><path d="M 40.886719 29.652344 L 141.976562 -23.050781 L 334.058594 345.382812 L 232.972656 398.085938 Z M 40.886719 29.652344 " clip-rule="nonzero"/></clipPath><clipPath id="304d68306a"><path d="M 40.886719 29.652344 L 141.976562 -23.050781 L 334.058594 345.382812 L 232.972656 398.085938 Z M 40.886719 29.652344 " clip-rule="nonzero"/></clipPath><clipPath id="e7b8301e39"><path d="M 102 8 L 183 8 L 183 127 L 102 127 Z M 102 8 " clip-rule="nonzero"/></clipPath><clipPath id="802eb4ef33"><path d="M 40.886719 29.652344 L 141.976562 -23.050781 L 334.058594 345.382812 L 232.972656 398.085938 Z M 40.886719 29.652344 " clip-rule="nonzero"/></clipPath><clipPath id="6cca2250f8"><path d="M 40.886719 29.652344 L 141.976562 -23.050781 L 334.058594 345.382812 L 232.972656 398.085938 Z M 40.886719 29.652344 " clip-rule="nonzero"/></clipPath></defs><g clip-path="url(#a911f046d8)"><g clip-path="url(#9b12f36365)"><g clip-path="url(#ef3a6b93e9)"><path fill="#ffffff" d="M 187.78125 64.8125 C 168.199219 27.257812 121.332031 -9.53125 94.480469 4.46875 C 67.628906 18.464844 70.976562 78.027344 90.523438 115.515625 C 106.730469 146.601562 134.0625 150.230469 154.03125 144.847656 C 158.101562 152.808594 165.625 167.4375 179.53125 194.109375 C 197.378906 228.34375 249.785156 358.667969 249.785156 358.667969 C 255.835938 371.40625 271.625 376.605469 284.863281 369.703125 C 298.101562 362.804688 302.882812 346.914062 295.898438 334.625 C 295.898438 334.625 218.359375 217.40625 200.511719 183.171875 C 186.296875 155.910156 178.855469 141.464844 174.96875 133.808594 C 190.074219 120.824219 203.890625 95.714844 187.78125 64.8125 Z M 187.78125 64.8125 " fill-opacity="1" fill-rule="nonzero"/></g></g></g><g clip-path="url(#2c9924ce5f)"><g clip-path="url(#cd2dfeb771)"><g clip-path="url(#8889ca0b16)"><path fill="#ffffff" d="M 145.316406 137.015625 C 145.316406 137.015625 139.667969 127.007812 175.066406 194.90625 C 192.914062 229.136719 245.308594 359.46875 245.308594 359.46875 C 251.367188 372.203125 267.148438 377.40625 280.386719 370.503906 C 293.625 363.605469 298.417969 347.710938 291.421875 335.425781 C 291.421875 335.425781 213.890625 218.203125 196.042969 183.96875 C 164.351562 123.175781 166.296875 126.082031 166.296875 126.082031 Z M 145.316406 137.015625 " fill-opacity="1" fill-rule="nonzero"/></g></g></g><g clip-path="url(#8f3d2eee14)"><g clip-path="url(#3cf30b45e8)"><g clip-path="url(#304d68306a)"><path fill="#ffffff" d="M 183.285156 65.621094 C 202.867188 103.175781 178.253906 132.1875 160.867188 141.253906 C 141.433594 151.382812 105.609375 153.882812 86.03125 116.328125 C 66.453125 78.773438 63.125 19.28125 89.976562 5.28125 C 116.828125 -8.71875 163.707031 28.070312 183.285156 65.621094 Z M 183.285156 65.621094 " fill-opacity="1" fill-rule="nonzero"/></g></g></g><g clip-path="url(#e7b8301e39)"><g clip-path="url(#802eb4ef33)"><g clip-path="url(#6cca2250f8)"><path fill="#ffffff" d="M 102.300781 8.777344 C 102.300781 8.777344 149.859375 18.667969 176.171875 68.675781 C 193.953125 102.453125 166.28125 126.054688 166.28125 126.054688 C 166.28125 126.054688 183.144531 108.964844 167.085938 78.167969 C 137.976562 22.332031 102.300781 8.777344 102.300781 8.777344 Z M 102.300781 8.777344 " fill-opacity="1" fill-rule="nonzero"/></g></g></g></svg>