<svg xmlns="http://www.w3.org/2000/svg" xmlns:xlink="http://www.w3.org/1999/xlink" width="500" zoomAndPan="magnify" viewBox="0 0 375 374.999991" height="500" preserveAspectRatio="xMidYMid meet" version="1.0"><path fill="#ffffff" d="M 371.117188 79.097656 C 365.957031 73.9375 357.472656 73.9375 352.3125 79.097656 L 305.292969 126.117188 C 300.132812 131.277344 291.648438 131.304688 286.488281 126.117188 C 281.328125 120.957031 281.328125 112.472656 286.488281 107.3125 L 333.511719 60.292969 C 338.671875 55.132812 338.671875 46.648438 333.511719 41.488281 C 328.351562 36.328125 319.867188 36.328125 314.707031 41.488281 L 267.6875 88.511719 C 262.527344 93.671875 254.042969 93.671875 248.882812 88.511719 C 243.722656 83.351562 243.722656 74.867188 248.882812 69.707031 L 295.902344 22.6875 C 301.089844 17.5 301.089844 9.042969 295.902344 3.882812 C 290.746094 -1.277344 282.261719 -1.277344 277.101562 3.882812 L 201.863281 79.097656 C 181.089844 99.867188 181.089844 133.539062 201.863281 154.308594 L 220.664062 173.136719 C 241.4375 193.910156 275.105469 193.910156 295.878906 173.136719 L 371.089844 97.925781 C 376.304688 92.738281 376.304688 84.28125 371.117188 79.097656 Z M 371.117188 79.097656 " fill-opacity="1" fill-rule="nonzero"/><path fill="#ffffff" d="M 20.902344 7.234375 L 18.695312 13.882812 C 2.765625 61.675781 15.210938 114.363281 50.824219 149.972656 L 79.441406 178.589844 C 102.792969 201.941406 131.277344 219.546875 162.605469 230 L 171.382812 232.925781 L 303.03125 364.574219 C 313.429688 374.972656 330.265625 374.972656 340.636719 364.574219 C 351.039062 354.175781 351.039062 337.339844 340.636719 326.96875 Z M 20.902344 7.234375 " fill-opacity="1" fill-rule="nonzero"/><path fill="#ffffff" d="M 29.253906 289.335938 L 10.453125 308.136719 C 0.0546875 318.539062 0.0546875 335.371094 10.453125 345.746094 L 29.253906 364.546875 C 39.652344 374.945312 56.488281 374.945312 66.863281 364.546875 L 85.664062 345.746094 L 147.738281 252.632812 C 134.839844 247.898438 122.367188 242.046875 110.453125 235.1875 Z M 29.253906 289.335938 " fill-opacity="1" fill-rule="nonzero"/></svg>