<svg xmlns="http://www.w3.org/2000/svg" xmlns:xlink="http://www.w3.org/1999/xlink" width="500" zoomAndPan="magnify" viewBox="0 0 375 374.999991" height="500" preserveAspectRatio="xMidYMid meet" version="1.0"><defs><clipPath id="b63266cc02"><path d="M 186 45.605469 L 329.105469 45.605469 L 329.105469 189 L 186 189 Z M 186 45.605469 " clip-rule="nonzero"/></clipPath></defs><g clip-path="url(#b63266cc02)"><path fill="#cb218c" d="M 326.449219 105.460938 C 322.542969 101.558594 316.125 101.558594 312.21875 105.460938 L 276.636719 141.046875 C 272.730469 144.949219 266.3125 144.96875 262.40625 141.046875 C 258.503906 137.140625 258.503906 130.71875 262.40625 126.816406 L 297.992188 91.234375 C 301.894531 87.328125 301.894531 80.90625 297.992188 77.003906 C 294.085938 73.097656 287.664062 73.097656 283.761719 77.003906 L 248.179688 112.585938 C 244.273438 116.492188 237.851562 116.492188 233.949219 112.585938 C 230.042969 108.683594 230.042969 102.261719 233.949219 98.359375 L 269.53125 62.773438 C 273.457031 58.847656 273.457031 52.449219 269.53125 48.542969 C 265.628906 44.640625 259.207031 44.640625 255.300781 48.542969 L 198.363281 105.460938 C 182.648438 121.179688 182.648438 146.660156 198.363281 162.378906 L 212.59375 176.628906 C 228.3125 192.347656 253.792969 192.347656 269.511719 176.628906 L 326.429688 119.710938 C 330.375 115.785156 330.375 109.386719 326.449219 105.460938 Z M 326.449219 105.460938 " fill-opacity="1" fill-rule="nonzero"/></g><path fill="#cb218c" d="M 61.425781 51.082031 L 59.753906 56.113281 C 47.699219 92.28125 57.117188 132.148438 84.066406 159.097656 L 105.722656 180.753906 C 123.394531 198.425781 144.949219 211.75 168.660156 219.660156 L 175.300781 221.871094 L 274.925781 321.5 C 282.796875 329.367188 295.535156 329.367188 303.382812 321.5 C 311.253906 313.628906 311.253906 300.890625 303.382812 293.039062 Z M 61.425781 51.082031 " fill-opacity="1" fill-rule="nonzero"/><path fill="#cb218c" d="M 67.746094 264.5625 L 53.515625 278.789062 C 45.648438 286.660156 45.648438 299.398438 53.515625 307.25 L 67.746094 321.476562 C 75.613281 329.347656 88.355469 329.347656 96.203125 321.476562 L 110.433594 307.25 L 157.40625 236.785156 C 147.648438 233.203125 138.207031 228.777344 129.191406 223.582031 Z M 67.746094 264.5625 " fill-opacity="1" fill-rule="nonzero"/></svg>