<?xml version="1.0" encoding="utf-8"?>
<svg version="1.1" xmlns:xlink="http://www.w3.org/1999/xlink" width="50px" height="38px" xmlns="http://www.w3.org/2000/svg">
  <g transform="matrix(1 0 0 1 -769 -249 )">
    <path d="M 21.69189453125 24.331380208333336  C 21.81396484375 25.098307291666664  21.875 25.927083333333336  21.875 26.817708333333336  C 21.875 27.72482638888889  21.61865234375 28.49587673611111  21.10595703125 29.130859375  C 20.59326171875 29.765842013888893  19.978841145833336 30.083333333333332  19.2626953125 30  L 8.8623046875 30  C 8.146158854166668 30.083333333333332  7.53173828125 29.765842013888893  7.01904296875 29.130859375  C 6.50634765625 28.49587673611111  6.25 27.72482638888889  6.25 26.817708333333336  C 6.25 25.927083333333336  6.31103515625 25.098307291666664  6.43310546875 24.331380208333336  C 6.55517578125 23.564453125  6.754557291666667 22.822265625  7.03125 22.104817708333336  C 7.307942708333334 21.387369791666664  7.722981770833334 20.82248263888889  8.2763671875 20.41015625  C 8.829752604166668 19.99782986111111  9.488932291666668 19.791666666666664  10.25390625 19.791666666666664  C 11.295572916666668 20.847222222222225  12.565104166666668 21.375  14.0625 21.375  C 15.559895833333334 21.375  16.829427083333336 20.847222222222225  17.87109375 19.791666666666664  C 18.636067708333336 19.791666666666664  19.295247395833336 19.99782986111111  19.8486328125 20.41015625  C 20.402018229166668 20.82248263888889  20.817057291666668 21.387369791666664  21.09375 22.104817708333336  C 21.370442708333336 22.822265625  21.56982421875 23.564453125  21.69189453125 24.331380208333336  Z M 17.3828125 12.46875  C 18.294270833333332 13.392361111111107  18.75 14.513888888888888  18.75 15.833333333333332  C 18.75 17.152777777777775  18.294270833333332 18.274305555555557  17.3828125 19.197916666666664  C 16.471354166666668 20.121527777777775  15.364583333333334 20.583333333333336  14.0625 20.583333333333336  C 12.760416666666668 20.583333333333336  11.653645833333334 20.121527777777775  10.7421875 19.197916666666664  C 9.830729166666666 18.274305555555557  9.375 17.152777777777775  9.375 15.833333333333332  C 9.375 14.513888888888888  9.830729166666666 13.392361111111107  10.7421875 12.46875  C 11.653645833333334 11.545138888888884  12.760416666666668 11.083333333333332  14.0625 11.083333333333332  C 15.364583333333334 11.083333333333332  16.471354166666668 11.545138888888884  17.3828125 12.46875  Z M 43.5302734375 25.555989583333336  C 43.6767578125 25.704427083333336  43.75 25.894097222222214  43.75 26.125  L 43.75 27.708333333333336  C 43.75 27.93923611111111  43.6767578125 28.12890625  43.5302734375 28.27734375  C 43.3837890625 28.42578125  43.196614583333336 28.5  42.96875 28  L 25.78125 28  C 25.553385416666668 28.5  25.3662109375 28.42578125  25.2197265625 28.27734375  C 25.0732421875 28.12890625  25 27.93923611111111  25 27.708333333333336  L 25 26.125  C 25 25.894097222222214  25.0732421875 25.704427083333336  25.2197265625 25.555989583333336  C 25.3662109375 25.407552083333336  25.553385416666668 25.333333333333336  25.78125 25  L 42.96875 25  C 43.196614583333336 25.333333333333336  43.3837890625 25.407552083333336  43.5302734375 25.555989583333336  Z M 34.1552734375 19.22265625  C 34.3017578125 19.37109375  34.375 19.56076388888889  34.375 19.791666666666664  L 34.375 21.375  C 34.375 21.605902777777775  34.3017578125 21.795572916666664  34.1552734375 21.944010416666664  C 34.0087890625 22.092447916666664  33.821614583333336 22.166666666666664  33.59375 22.166666666666664  L 25.78125 22.166666666666664  C 25.553385416666668 22.166666666666664  25.3662109375 22.092447916666664  25.2197265625 21.944010416666664  C 25.0732421875 21.795572916666664  25 21.605902777777775  25 21.375  L 25 19.791666666666664  C 25 19.56076388888889  25.0732421875 19.37109375  25.2197265625 19.22265625  C 25.3662109375 19.07421875  25.553385416666668 19  25.78125 19  L 33.59375 19  C 33.821614583333336 19  34.0087890625 19.07421875  34.1552734375 19.22265625  Z M 43.5302734375 19.22265625  C 43.6767578125 19.37109375  43.75 19.56076388888889  43.75 19.791666666666664  L 43.75 21.375  C 43.75 21.605902777777775  43.6767578125 21.795572916666664  43.5302734375 21.944010416666664  C 43.3837890625 22.092447916666664  43.196614583333336 22.166666666666664  42.96875 22.166666666666664  L 38.28125 22.166666666666664  C 38.05338541666667 22.166666666666664  37.86621093750001 22.092447916666664  37.7197265625 21.944010416666664  C 37.5732421875 21.795572916666664  37.5 21.605902777777775  37.5 21.375  L 37.5 19.791666666666664  C 37.5 19.56076388888889  37.5732421875 19.37109375  37.7197265625 19.22265625  C 37.86621093750001 19.07421875  38.05338541666667 19  38.28125 19  L 42.96875 19  C 43.196614583333336 19  43.3837890625 19.07421875  43.5302734375 19.22265625  Z M 43.5302734375 12.889322916666668  C 43.6767578125 13.037760416666668  43.75 13.227430555555555  43.75 13.458333333333332  L 43.75 15.041666666666668  C 43.75 15.272569444444445  43.6767578125 15.462239583333332  43.5302734375 15.610677083333332  C 43.3837890625 15.759114583333332  43.196614583333336 15.833333333333332  42.96875 16  L 25.78125 16  C 25.553385416666668 15.833333333333332  25.3662109375 15.759114583333332  25.2197265625 15.610677083333332  C 25.0732421875 15.462239583333332  25 15.272569444444445  25 15.041666666666668  L 25 13.458333333333332  C 25 13.227430555555555  25.0732421875 13.037760416666668  25.2197265625 12.889322916666668  C 25.3662109375 12.740885416666668  25.553385416666668 12.666666666666668  25.78125 13  L 42.96875 13  C 43.196614583333336 12.666666666666668  43.3837890625 12.740885416666668  43.5302734375 12.889322916666668  Z M 46.64306640625 34.59830729166667  C 46.797688802083336 34.44162326388889  46.87500000000001 34.25607638888889  46 34.04166666666667  L 46 7  L 4 7  L 4 34.04166666666667  C 3.125 34.25607638888889  3.202311197916667 34.44162326388889  3.35693359375 34.59830729166667  C 3.5115559895833335 34.75499131944444  3.6946614583333335 34.83333333333333  3.90625 34.83333333333333  L 46.09375 34.83333333333333  C 46.30533854166667 34.83333333333333  46.48844401041667 34.75499131944444  46.64306640625 34.59830729166667  Z M 48.8525390625 1.162760416666668  C 49.617513020833336 1.937934027777776  50 2.869791666666668  50 3.958333333333332  L 50 34.04166666666667  C 50 35.13020833333333  49.617513020833336 36.06206597222222  48.8525390625 36.83723958333333  C 48.08756510416667 37.61241319444444  47.16796875 38  46.09375 38  L 3.90625 38  C 2.83203125 38  1.9124348958333335 37.61241319444444  1.1474609375 36.83723958333333  C 0.38248697916666663 36.06206597222222  0 35.13020833333333  0 34.04166666666667  L 0 3.958333333333332  C 0 2.869791666666668  0.38248697916666663 1.937934027777776  1.1474609375 1.162760416666668  C 1.9124348958333335 0.3875868055555518  2.83203125 0  3.90625 0  L 46.09375 0  C 47.16796875 0  48.08756510416667 0.3875868055555518  48.8525390625 1.162760416666668  Z " fill-rule="nonzero" fill="#333333" stroke="none" transform="matrix(1 0 0 1 769 249 )" />
  </g>
</svg>