<svg xmlns="http://www.w3.org/2000/svg" xmlns:xlink="http://www.w3.org/1999/xlink" width="500" zoomAndPan="magnify" viewBox="0 0 375 374.999991" height="500" preserveAspectRatio="xMidYMid meet" version="1.0"><defs><clipPath id="74316f9196"><path d="M 0 34.453125 L 375 34.453125 L 375 340.453125 L 0 340.453125 Z M 0 34.453125 " clip-rule="nonzero"/></clipPath></defs><g clip-path="url(#74316f9196)"><path fill="#4d16bb" d="M 87.433594 314.550781 C 115.941406 328.8125 151.597656 340.316406 187.496094 340.316406 C 291.050781 340.316406 374.996094 271.898438 374.996094 187.496094 C 374.996094 103.097656 291.050781 34.679688 187.496094 34.679688 C 83.945312 34.679688 -0.00390625 103.097656 -0.00390625 187.496094 C -0.00390625 215.160156 18.671875 237.789062 34.449219 260.136719 L 34.441406 260.171875 L 14.585938 334 Z M 108.734375 168.335938 C 119.320312 168.335938 127.898438 176.914062 127.898438 187.496094 C 127.898438 198.082031 119.320312 206.660156 108.734375 206.660156 C 98.152344 206.660156 89.574219 198.082031 89.574219 187.496094 C 89.574219 176.914062 98.152344 168.335938 108.734375 168.335938 Z M 187.496094 168.335938 C 198.078125 168.335938 206.660156 176.914062 206.660156 187.496094 C 206.660156 198.082031 198.078125 206.660156 187.496094 206.660156 C 176.914062 206.660156 168.332031 198.082031 168.332031 187.496094 C 168.332031 176.914062 176.914062 168.335938 187.496094 168.335938 Z M 266.257812 168.335938 C 276.839844 168.335938 285.421875 176.914062 285.421875 187.496094 C 285.421875 198.082031 276.839844 206.660156 266.257812 206.660156 C 255.675781 206.660156 247.09375 198.082031 247.09375 187.496094 C 247.09375 176.914062 255.675781 168.335938 266.257812 168.335938 Z M 266.257812 168.335938 " fill-opacity="1" fill-rule="evenodd"/></g></svg>