<svg xmlns="http://www.w3.org/2000/svg" xmlns:xlink="http://www.w3.org/1999/xlink" width="500" zoomAndPan="magnify" viewBox="0 0 375 374.999991" height="500" preserveAspectRatio="xMidYMid meet" version="1.0"><defs><clipPath id="f822b61265"><path d="M 150 0 L 371.25 0 L 371.25 221 L 150 221 Z M 150 0 " clip-rule="nonzero"/></clipPath><clipPath id="bb38696c33"><path d="M 3.75 150 L 177 150 L 177 324 L 3.75 324 Z M 3.75 150 " clip-rule="nonzero"/></clipPath></defs><g clip-path="url(#f822b61265)"><path fill="#ffffff" d="M 346.246094 59.835938 L 311.59375 59.835938 L 311.59375 25.207031 C 311.59375 11.414062 300.367188 0.191406 286.5625 0.191406 L 235.105469 0.191406 C 228.433594 0.191406 222.148438 2.796875 217.417969 7.527344 C 212.679688 12.257812 210.074219 18.539062 210.082031 25.207031 L 210.082031 59.84375 L 175.4375 59.84375 C 161.632812 59.84375 150.402344 71.066406 150.402344 84.863281 L 150.402344 136.277344 C 150.402344 150.074219 161.632812 161.296875 175.4375 161.296875 L 210.078125 161.296875 L 210.078125 195.925781 C 210.078125 209.722656 221.300781 220.941406 235.105469 220.941406 L 286.5625 220.941406 C 300.367188 220.941406 311.59375 209.714844 311.59375 195.917969 L 311.59375 161.289062 L 346.246094 161.289062 C 360.050781 161.289062 371.273438 150.066406 371.273438 136.269531 L 371.273438 84.855469 C 371.273438 71.058594 360.050781 59.835938 346.246094 59.835938 Z M 298.558594 141.742188 C 294.957031 141.742188 292.039062 144.660156 292.039062 148.257812 L 292.039062 195.917969 C 292.039062 198.933594 289.585938 201.386719 286.570312 201.386719 L 235.121094 201.386719 C 232.101562 201.386719 229.644531 198.933594 229.644531 195.917969 L 229.644531 148.257812 C 229.644531 144.660156 226.726562 141.742188 223.121094 141.742188 L 175.4375 141.742188 C 172.417969 141.742188 169.964844 139.285156 169.964844 136.269531 L 169.964844 84.855469 C 169.964844 81.839844 172.417969 79.386719 175.4375 79.386719 L 223.117188 79.386719 C 226.71875 79.386719 229.636719 76.46875 229.636719 72.871094 L 229.636719 25.207031 C 229.636719 22.195312 232.089844 19.742188 235.105469 19.742188 L 286.5625 19.742188 C 289.578125 19.742188 292.039062 22.199219 292.039062 25.207031 L 292.039062 72.871094 C 292.039062 76.46875 294.957031 79.386719 298.558594 79.386719 L 346.25 79.386719 C 349.269531 79.386719 351.722656 81.839844 351.722656 84.855469 L 351.722656 136.269531 C 351.722656 139.285156 349.269531 141.742188 346.25 141.742188 Z M 298.558594 141.742188 " fill-opacity="1" fill-rule="nonzero"/></g><g clip-path="url(#bb38696c33)"><path fill="#ffffff" d="M 152.945312 197.644531 L 129.277344 197.644531 L 129.277344 173.988281 C 129.277344 161.015625 118.722656 150.464844 105.742188 150.464844 L 74.472656 150.464844 C 61.492188 150.464844 50.929688 161.015625 50.929688 173.988281 L 50.929688 197.644531 L 27.269531 197.644531 C 14.285156 197.644531 3.726562 208.195312 3.726562 221.171875 L 3.726562 252.417969 C 3.726562 265.394531 14.285156 275.945312 27.269531 275.945312 L 50.929688 275.945312 L 50.929688 299.601562 C 50.929688 312.578125 61.488281 323.128906 74.472656 323.128906 L 105.738281 323.128906 C 112.023438 323.128906 117.933594 320.679688 122.382812 316.230469 C 126.832031 311.78125 129.28125 305.878906 129.277344 299.601562 L 129.277344 275.945312 L 152.945312 275.945312 C 165.925781 275.945312 176.484375 265.394531 176.484375 252.417969 L 176.484375 221.171875 C 176.484375 208.195312 165.925781 197.644531 152.945312 197.644531 Z M 109.71875 262.914062 L 109.71875 299.601562 C 109.71875 301.796875 107.933594 303.578125 105.742188 303.578125 L 74.472656 303.578125 C 72.277344 303.578125 70.492188 301.796875 70.492188 299.601562 L 70.492188 262.914062 C 70.492188 259.308594 67.570312 256.394531 63.972656 256.394531 L 27.269531 256.394531 C 25.070312 256.394531 23.285156 254.613281 23.285156 252.417969 L 23.285156 221.171875 C 23.285156 218.976562 25.074219 217.1875 27.269531 217.1875 L 63.96875 217.195312 C 67.570312 217.195312 70.488281 214.28125 70.488281 210.675781 L 70.488281 173.988281 C 70.488281 171.796875 72.277344 170.015625 74.472656 170.015625 L 105.738281 170.015625 C 107.933594 170.015625 109.714844 171.796875 109.714844 173.988281 L 109.714844 210.675781 C 109.714844 214.28125 112.636719 217.195312 116.238281 217.195312 L 152.945312 217.195312 C 155.136719 217.195312 156.921875 218.976562 156.921875 221.171875 L 156.921875 252.417969 C 156.921875 254.613281 155.136719 256.394531 152.945312 256.394531 L 116.238281 256.394531 C 112.636719 256.394531 109.71875 259.308594 109.71875 262.914062 Z M 109.71875 262.914062 " fill-opacity="1" fill-rule="nonzero"/></g><path fill="#ffffff" d="M 284.816406 282.207031 L 277.640625 282.207031 L 277.640625 275.03125 C 277.640625 263.789062 268.496094 254.652344 257.253906 254.652344 L 232.933594 254.652344 C 221.691406 254.652344 212.546875 263.789062 212.546875 275.03125 L 212.546875 282.207031 L 205.371094 282.207031 C 194.128906 282.207031 184.984375 291.347656 184.984375 302.585938 L 184.984375 326.875 C 184.984375 338.113281 194.128906 347.25 205.371094 347.25 L 212.546875 347.25 L 212.546875 354.429688 C 212.546875 365.667969 221.691406 374.808594 232.933594 374.808594 L 257.253906 374.808594 C 268.496094 374.808594 277.640625 365.667969 277.640625 354.429688 L 277.640625 347.25 L 284.816406 347.25 C 296.0625 347.25 305.210938 338.113281 305.210938 326.875 L 305.210938 302.585938 C 305.210938 291.347656 296.0625 282.207031 284.816406 282.207031 Z M 264.609375 327.710938 C 261.003906 327.710938 258.085938 330.625 258.085938 334.226562 L 258.085938 354.4375 C 258.085938 354.886719 257.707031 355.265625 257.257812 355.265625 L 232.949219 355.265625 C 232.496094 355.265625 232.113281 354.886719 232.113281 354.4375 L 232.113281 334.226562 C 232.113281 330.625 229.199219 327.710938 225.59375 327.710938 L 205.378906 327.710938 C 204.933594 327.710938 204.550781 327.328125 204.550781 326.882812 L 204.550781 302.59375 C 204.550781 302.144531 204.933594 301.765625 205.378906 301.765625 L 225.59375 301.765625 C 229.199219 301.765625 232.113281 298.847656 232.113281 295.246094 L 232.113281 275.035156 C 232.113281 274.589844 232.496094 274.207031 232.949219 274.207031 L 257.257812 274.207031 C 257.707031 274.207031 258.085938 274.589844 258.085938 275.035156 L 258.085938 295.246094 C 258.085938 298.847656 261.003906 301.765625 264.609375 301.765625 L 284.824219 301.765625 C 285.273438 301.765625 285.65625 302.144531 285.65625 302.59375 L 285.65625 326.882812 C 285.65625 327.328125 285.273438 327.710938 284.824219 327.710938 Z M 264.609375 327.710938 " fill-opacity="1" fill-rule="nonzero"/></svg>