<?xml version="1.0" encoding="UTF-8"?>
<svg version="1.1" xmlns="http://www.w3.org/2000/svg" width="500" height="500">
<path d="M0 0 C5.91844386 0.01147199 11.8368809 0.00719521 17.75533271 0.00525308 C27.68080228 0.00437535 37.60620287 0.01534329 47.53165412 0.03386331 C58.95162762 0.05505205 70.37150047 0.05853136 81.79148966 0.05230135 C92.85677392 0.04657762 103.92202331 0.05228676 114.98730254 0.06347489 C119.6617693 0.06807823 124.33621444 0.06901352 129.01068282 0.06688905 C134.52592671 0.06498456 140.04107032 0.07327321 145.55629134 0.08894944 C147.56157238 0.09313676 149.56686371 0.09408113 151.57214713 0.09125924 C193.07568065 0.04177694 234.13098942 7.31226282 266.43863654 35.37004495 C267.34203654 36.39125856 268.22531905 37.43064022 269.08707404 38.48723245 C271.02604842 40.86424755 272.73534624 42.57073645 275.12613654 44.43254495 C295.60917414 62.02249814 305.59718052 90.6523738 310.43863654 116.37004495 C310.61230341 117.28207146 310.78597028 118.19409797 310.96489978 119.13376164 C312.8671643 130.5603763 312.72773538 141.92074792 312.71329474 153.47380471 C312.71764911 155.78659629 312.72283466 158.09938643 312.72878242 160.41217446 C312.74210878 166.66050647 312.74275797 172.90877775 312.74021912 179.15712118 C312.73914462 184.39243572 312.7440452 189.62773822 312.74882454 194.86305016 C312.7605305 207.93317326 312.75970736 221.00326203 312.75326773 234.07338732 C312.74810661 245.37476619 312.75933791 256.67605866 312.77836595 267.97742046 C312.79783138 279.62953106 312.80598484 291.28160098 312.8022427 302.93372792 C312.80043964 309.45618192 312.80296714 315.97855686 312.81695724 322.50099778 C312.82963978 328.64317216 312.82749399 334.78517532 312.81454635 340.92734742 C312.81220317 343.16483138 312.81483273 345.40232779 312.82316947 347.63979745 C312.88417351 365.30468811 311.93766012 383.04487685 306.75113654 400.05754495 C306.49694953 400.91364358 306.24276252 401.76974221 305.98087287 402.65178323 C298.99667516 425.29137055 287.35500428 444.80497558 270.43863654 461.37004495 C269.72965217 462.06484963 269.02066779 462.75965432 268.29019904 463.4755137 C235.77306426 493.88188709 193.25427149 500.52758316 150.45206428 500.51530862 C148.35454475 500.51830591 146.25702578 500.52170975 144.15950751 500.52548623 C138.49382292 500.53427346 132.82815346 500.53666214 127.16246271 500.53730202 C123.61253669 500.53801565 120.06261444 500.54015589 116.51268935 500.54279923 C104.09892385 500.55203598 91.68516904 500.55613631 79.27140021 500.55534768 C67.74773599 500.5547477 56.2241187 500.56528829 44.70046633 500.58109134 C34.76791214 500.59422111 24.83537319 500.59952929 14.90281039 500.59889227 C8.98792631 500.59863883 3.07308396 500.60140401 -2.84179139 500.61207032 C-8.41265752 500.62184302 -13.9834428 500.62176849 -19.55431199 500.61455369 C-21.5825833 500.61351907 -23.61085989 500.61580273 -25.63912225 500.62191415 C-42.05827908 500.66812706 -58.56734596 500.02077334 -74.68636346 496.62004495 C-75.50072869 496.45085549 -76.31509393 496.28166604 -77.1541369 496.10734963 C-102.87873642 490.50466123 -125.74452568 478.76756601 -144.56136346 460.37004495 C-145.42503533 459.56824807 -146.28870721 458.7664512 -147.17855096 457.94035745 C-178.22841973 428.43814569 -186.07975177 385.06517615 -187.46743417 344.06258416 C-187.81308154 330.47452783 -187.72669938 316.87418675 -187.72862053 303.28274155 C-187.72933956 300.41493234 -187.73148971 297.54712768 -187.73411775 294.67931962 C-187.74332553 284.61064888 -187.74745862 274.54199124 -187.74666619 264.47331643 C-187.74606744 255.19176122 -187.75659128 245.91026449 -187.77240986 236.62872404 C-187.78563031 228.57517465 -187.79084407 220.52164403 -187.79021078 212.46808392 C-187.7899599 207.69589332 -187.79257704 202.92375479 -187.80338883 198.15157533 C-187.92473708 140.56294977 -187.22164901 83.54906036 -144.43636346 39.87004495 C-133.19139275 28.67395934 -120.98784941 20.86894592 -106.56136346 14.37004495 C-105.95212029 14.09176858 -105.34287713 13.81349221 -104.71517205 13.52678323 C-71.64711779 -1.35069869 -35.45116573 -0.08499147 0 0 Z M-114.5916369 77.74406838 C-120.59283215 84.0858349 -124.97323986 90.35269146 -128.56136346 98.37004495 C-128.83480584 98.97074807 -129.10824822 99.5714512 -129.38997674 100.19035745 C-136.56774313 116.3076673 -138.65945849 133.27209076 -139.6541369 150.75114846 C-139.69668587 151.48107165 -139.73923485 152.21099483 -139.78307319 152.96303689 C-140.76181704 170.09895009 -140.85726702 187.21820806 -140.83001447 204.37734699 C-140.82480351 208.71700181 -140.82968637 213.05665 -140.8327868 217.39630532 C-140.83638437 224.67296806 -140.83174053 231.94958968 -140.82210565 239.22624612 C-140.81123353 247.53099707 -140.81475501 255.83564963 -140.82575846 264.1403982 C-140.8349586 271.38574053 -140.83605564 278.63105398 -140.83088112 285.87640029 C-140.82782943 290.15327392 -140.82715607 294.43010202 -140.8339541 298.70697236 C-140.85763822 316.01075095 -140.62767594 333.25694161 -139.65023065 350.53630471 C-139.58999302 351.62732643 -139.58999302 351.62732643 -139.52853847 352.74038899 C-137.80913958 383.11220897 -129.94344127 408.9270753 -107.56136346 430.37004495 C-106.90136346 430.37004495 -106.24136346 430.37004495 -105.56136346 430.37004495 C-105.06636346 431.85504495 -105.06636346 431.85504495 -104.56136346 433.37004495 C-84.86926165 448.31437463 -59.7347894 452.66096098 -35.66561151 453.90105081 C-34.84140804 453.94371796 -34.01720458 453.98638511 -33.16802526 454.0303452 C-24.68218884 454.4469094 -16.20043976 454.5931598 -7.70589471 454.6864512 C-6.06418268 454.70715455 -4.42247435 454.72815291 -2.78076959 454.74942422 C0.62998862 454.7928477 4.04076338 454.83381839 7.45157599 454.87273049 C11.74649223 454.92177356 16.04133436 454.97544288 20.33617473 455.03069329 C48.90428886 455.39720008 77.45438153 455.4195301 106.02295756 455.08250546 C110.23904098 455.0327962 114.45509675 454.98627065 118.67130256 454.94816995 C183.95069002 455.87735767 183.95069002 455.87735767 239.31363654 425.5848887 C254.90858423 409.68680955 262.08385731 390.38251617 265.18863654 368.62004495 C265.30441047 367.81293069 265.42018439 367.00581643 265.53946662 366.17424417 C268.28337525 344.47754308 267.60270482 322.35486966 267.60589361 300.52984691 C267.60661248 297.75636659 267.60876232 294.98289099 267.61139083 292.20941186 C267.620599 282.47372785 267.62473162 272.73805738 267.62393928 263.00236917 C267.62334039 254.02469412 267.63386682 245.04707953 267.64968294 236.06941974 C267.66289813 228.2817369 267.66811737 220.49407346 267.66748387 212.70637953 C267.66723285 208.0907329 267.66985792 203.47514008 267.68066192 198.85950494 C267.71793979 181.65737346 267.65847578 164.48832665 266.61173224 147.31291604 C266.5425342 146.11313434 266.47333615 144.91335263 266.4020412 143.67721391 C264.75555635 120.01324239 258.57754165 95.50895005 241.43863654 78.37004495 C240.51883545 77.37292724 239.60230268 76.37278717 238.68863654 75.37004495 C216.32994379 51.28884333 183.45673622 48.00490828 152.37442756 46.82756448 C136.80689525 46.25061677 121.24713447 46.22236788 105.67171526 46.23571944 C101.67748226 46.23831231 97.68325114 46.23588683 93.68901801 46.23433328 C86.99186508 46.23253146 80.29472331 46.23486513 73.59757209 46.23967385 C65.93299058 46.24511481 58.2684357 46.24334687 50.60385484 46.23784745 C43.93713953 46.23326155 37.27043209 46.23269209 30.60371572 46.23528612 C26.65959024 46.2368189 22.71547713 46.23712771 18.77135253 46.23374963 C-53.5195298 44.24376625 -53.5195298 44.24376625 -114.5916369 77.74406838 Z " fill="#CB208C" transform="translate(187.56136345863342,-0.3700449466705322)"/>
<path d="M0 0 C0.68223633 0.12858398 1.36447266 0.25716797 2.06738281 0.38964844 C23.03565122 4.40745901 41.73338224 15.28163095 57 30 C57.60392578 30.56750977 58.20785156 31.13501953 58.83007812 31.71972656 C77.98074336 49.75654568 90.82614409 70.51441064 96.125 96.5 C96.29386719 97.29019531 96.46273437 98.08039063 96.63671875 98.89453125 C100.58224118 117.87653284 99.8490098 137.07640675 96 156 C95.87141602 156.68223633 95.74283203 157.36447266 95.61035156 158.06738281 C91.59254099 179.03565122 80.71836905 197.73338224 66 213 C65.43249023 213.60392578 64.86498047 214.20785156 64.28027344 214.83007812 C46.80301603 233.38662647 26.33348138 246.89722349 1 252 C-0.04196533 252.21994629 -0.04196533 252.21994629 -1.10498047 252.44433594 C-21.01126757 256.54645138 -41.14896747 256.16626609 -61 252 C-62.24394531 251.75636719 -63.48789063 251.51273438 -64.76953125 251.26171875 C-85.93983724 246.42213634 -105.30015025 234.84281863 -120 219 C-120.825 218.175 -121.65 217.35 -122.5 216.5 C-123.325 215.675 -124.15 214.85 -125 214 C-125.64324219 213.42636719 -126.28648437 212.85273438 -126.94921875 212.26171875 C-148.5205404 192.27154109 -158.18032173 160.62181976 -159.2890625 132.05078125 C-160.06696139 96.95732076 -150.69848505 64.88547247 -126.29296875 38.953125 C-116.70749853 28.97873286 -107.25765451 19.56627401 -95 13 C-94.26571777 12.60393555 -93.53143555 12.20787109 -92.77490234 11.79980469 C-82.16663283 6.19568468 -71.77832587 2.2199112 -60 0 C-59.2790918 -0.14663086 -58.55818359 -0.29326172 -57.81542969 -0.44433594 C-38.38581423 -4.34704487 -19.37657428 -3.94114497 0 0 Z M-92.58203125 72.203125 C-107.40239772 89.34590754 -114.27085143 110.44816363 -113 133 C-110.27216751 153.61983613 -102.28203079 169.09475332 -88 184 C-87.41476563 184.63679687 -86.82953125 185.27359375 -86.2265625 185.9296875 C-72.57775399 200.34744297 -53.23084071 207.91794395 -33.66015625 209.22265625 C-11.38229662 209.79902382 9.39327461 201.75254504 25.48291016 186.4765625 C40.4023466 171.96966593 51.55590374 154.00701258 52.43359375 132.66796875 C52.4572833 130.50794201 52.45811186 128.3475583 52.4375 126.1875 C52.42847656 125.04748535 52.41945313 123.9074707 52.41015625 122.73291016 C52.00352209 102.88408015 44.46790132 85.53420677 31 71 C29.95392578 69.83404297 29.95392578 69.83404297 28.88671875 68.64453125 C14.23420349 53.08125636 -5.49109178 44.36907998 -26.74609375 42.796875 C-52.98909136 42.33981263 -74.53089709 53.72151864 -92.58203125 72.203125 Z " fill="#CB208C" transform="translate(281,124)"/>
<path d="M0 0 C7.75276703 6.37449733 11.67160481 13.64391197 13.06640625 23.5625 C13.54772545 32.25729837 9.996565 40.81277342 4.59765625 47.5234375 C-2.79479188 54.68145281 -10.67439304 56.66175809 -20.63061523 56.6953125 C-29.4388096 56.51633342 -35.12614668 53.48228462 -41.625 47.625 C-47.23398177 41.60809228 -50.35644124 33.56929933 -50.25 25.3125 C-49.60531358 16.21830639 -46.65183473 8.78166681 -40.20703125 2.23828125 C-28.62789281 -7.53738076 -12.58794297 -8.79957156 0 0 Z " fill="#CB208B" transform="translate(403.25,90.6875)"/>
</svg>
