<svg xmlns="http://www.w3.org/2000/svg" xmlns:xlink="http://www.w3.org/1999/xlink" width="500" zoomAndPan="magnify" viewBox="0 0 375 374.999991" height="500" preserveAspectRatio="xMidYMid meet" version="1.0"><defs><clipPath id="f334a9e936"><path d="M 63 22 L 372.925781 22 L 372.925781 365 L 63 365 Z M 63 22 " clip-rule="nonzero"/></clipPath><clipPath id="d44739130a"><path d="M 2.425781 10.292969 L 174 10.292969 L 174 283 L 2.425781 283 Z M 2.425781 10.292969 " clip-rule="nonzero"/></clipPath></defs><g clip-path="url(#f334a9e936)"><path fill="#333333" d="M 372.484375 193.464844 C 372.484375 287.980469 295.871094 364.601562 201.355469 364.601562 C 144.808594 364.601562 94.6875 337.167969 63.523438 294.902344 L 201.355469 193.464844 L 201.355469 22.328125 C 295.871094 22.328125 372.484375 98.945312 372.484375 193.464844 Z M 372.484375 193.464844 " fill-opacity="1" fill-rule="nonzero"/></g><g clip-path="url(#d44739130a)"><path fill="#333333" d="M 173.5625 181.441406 L 35.734375 282.886719 C 14.808594 254.496094 2.425781 219.417969 2.425781 181.441406 C 2.425781 86.925781 79.046875 10.308594 173.5625 10.308594 Z M 173.5625 181.441406 " fill-opacity="1" fill-rule="nonzero"/></g></svg>