<svg xmlns="http://www.w3.org/2000/svg" xmlns:xlink="http://www.w3.org/1999/xlink" width="500" zoomAndPan="magnify" viewBox="0 0 375 374.999991" height="500" preserveAspectRatio="xMidYMid meet" version="1.0"><path fill="#ffffff" d="M 315.105469 119.035156 C 305.863281 118.871094 298.535156 117.160156 290.675781 120.746094 C 293.730469 119.359375 286.523438 104.539062 278.746094 97.78125 C 258.550781 80.230469 226.058594 77.585938 200.894531 76.199219 C 164.902344 74.164062 128.421875 77.015625 92.550781 79.660156 C 71.863281 81.210938 49.429688 82.226562 29.886719 89.800781 C 0 101.40625 4.804688 133.488281 7.328125 159.875 C 14.699219 237.359375 70.441406 300.835938 148.289062 300.835938 C 203.707031 300.835938 248.65625 268.710938 272.070312 222.210938 C 282.898438 232.839844 297.761719 239.394531 314.167969 239.394531 C 347.800781 239.394531 375 211.789062 374.308594 177.992188 C 373.65625 145.785156 347.3125 119.5625 315.105469 119.035156 Z M 316.285156 219.769531 C 301.464844 220.542969 288.234375 213.292969 280.578125 202.015625 C 285.136719 188.699219 288.109375 174.53125 289.210938 159.875 C 289.578125 155.191406 289.863281 150.753906 289.984375 146.558594 C 296.742188 141.550781 305.089844 138.621094 314.128906 138.621094 C 337.09375 138.621094 355.617188 157.675781 354.722656 180.84375 C 353.910156 201.648438 337.09375 218.710938 316.285156 219.769531 Z M 316.285156 219.769531 " fill-opacity="1" fill-rule="nonzero"/><path fill="#a20f45" d="M 282.328125 114.964844 C 282.328125 132.308594 222.109375 146.316406 147.84375 146.316406 C 73.574219 146.316406 13.355469 132.269531 13.355469 114.964844 C 13.355469 92.039062 73.617188 85.484375 147.84375 83.613281 C 233.753906 81.414062 282.328125 97.660156 282.328125 114.964844 Z M 282.328125 114.964844 " fill-opacity="1" fill-rule="nonzero"/></svg>