<?xml version="1.0" encoding="UTF-8"?>
<svg version="1.1" xmlns="http://www.w3.org/2000/svg" width="382" height="382">
<path d="M0 0 C1.63771642 -0.0029996 3.27543215 -0.00640394 4.91314697 -0.01017761 C9.32460591 -0.01894056 13.7360454 -0.02135245 18.1475122 -0.0219934 C20.91414764 -0.02270832 23.68077826 -0.02485093 26.44741249 -0.02749062 C36.12917007 -0.03671869 45.81091395 -0.04082871 55.49267578 -0.04003906 C64.46930641 -0.03943902 73.4458768 -0.04998294 82.42249221 -0.06578273 C90.16989583 -0.07892539 97.91727994 -0.08422015 105.66469461 -0.08358365 C110.2738977 -0.08333063 114.88304717 -0.08607239 119.492239 -0.0967617 C123.83358399 -0.10655675 128.17482533 -0.10644516 132.51617432 -0.09924507 C134.09377001 -0.09821322 135.67137256 -0.10047687 137.24895668 -0.10660553 C170.90398176 -0.22870162 201.94927106 7.03590908 227.29614258 30.14526367 C228.3112793 31.03665039 228.3112793 31.03665039 229.34692383 31.94604492 C241.34229856 43.05900128 248.87573395 58.75564866 253.60864258 74.14526367 C253.85122803 74.92716064 254.09381348 75.70905762 254.34375 76.51464844 C258.17807491 89.73080332 258.58982872 102.85979567 258.55493164 116.49487305 C258.55764814 118.29686117 258.56121275 120.09884818 258.56555176 121.90083313 C258.57459965 126.75412326 258.57116315 131.60732751 258.56479359 136.46061897 C258.55969394 141.56428364 258.56443598 146.66794146 258.56756592 151.77160645 C258.57119408 160.33871771 258.56643674 168.90579439 258.55688477 177.47290039 C258.54600245 187.34656532 258.54952885 197.22014763 258.56053758 207.09381056 C258.56964331 215.60465176 258.57087971 224.11546823 258.56566024 232.62631273 C258.56255856 237.69479252 258.56208124 242.76323359 258.56873322 247.83171082 C258.57455408 252.59904493 258.57042396 257.36627357 258.5589447 262.13359642 C258.55632328 263.87251295 258.55701953 265.61143852 258.56147003 267.35035133 C258.63865433 300.599494 249.2574949 329.64557806 225.86254883 353.64135742 C216.14144693 362.85166251 204.87420727 369.62186875 192.29614258 374.14526367 C191.33192383 374.50233398 190.36770508 374.8594043 189.37426758 375.22729492 C171.99047121 381.36681031 154.74868024 382.29723676 136.50048828 382.29052734 C134.85291977 382.29352688 133.20535195 382.29693121 131.55778503 382.30070496 C127.11946747 382.30946855 122.68116924 382.31187982 118.24284387 382.31252074 C115.45945747 382.31323562 112.67607586 382.31537817 109.89269066 382.31801796 C100.15257841 382.32724624 90.41247976 382.33135603 80.67236328 382.33056641 C71.64120123 382.32996636 62.61009905 382.34051037 53.57895213 382.35631007 C45.78483978 382.36945213 37.99074683 382.37474752 30.1966235 382.374111 C25.55947487 382.37385796 20.92237952 382.3766007 16.28524208 382.38728905 C11.91763246 382.39708307 7.55012587 382.39697318 3.18251228 382.38977242 C1.59524126 382.38874044 0.00796342 382.39100499 -1.57929611 382.39713287 C-23.23135491 382.47519603 -43.65342726 379.77624354 -63.70385742 371.14526367 C-64.99356445 370.59418945 -64.99356445 370.59418945 -66.30932617 370.03198242 C-73.49293118 366.7085658 -79.50465973 361.99918092 -85.70385742 357.14526367 C-86.47987305 356.6012793 -87.25588867 356.05729492 -88.05541992 355.49682617 C-88.5994043 355.05081055 -89.14338867 354.60479492 -89.70385742 354.14526367 C-89.70385742 353.48526367 -89.70385742 352.82526367 -89.70385742 352.14526367 C-91.02385742 351.48526367 -92.34385742 350.82526367 -93.70385742 350.14526367 C-93.70385742 349.48526367 -93.70385742 348.82526367 -93.70385742 348.14526367 C-94.36385742 348.14526367 -95.02385742 348.14526367 -95.70385742 348.14526367 C-113.32028704 327.63973959 -122.0715864 301.91471896 -123.27758789 275.10180664 C-123.33863866 273.7661305 -123.33863866 273.7661305 -123.40092278 272.40347099 C-123.93098332 259.3097862 -123.84975303 246.20152059 -123.83818293 233.09948587 C-123.83560319 229.24795373 -123.83801224 225.39642363 -123.83956909 221.54489136 C-123.84137517 215.08176234 -123.83902636 208.61864484 -123.83422852 202.15551758 C-123.82879358 194.75002623 -123.83054935 187.34456246 -123.83605492 179.93907177 C-123.84063657 173.51201272 -123.84121208 167.08496181 -123.83861625 160.65790164 C-123.83708033 156.84959836 -123.83678377 153.04130791 -123.84015274 149.23300552 C-123.85047392 135.57336889 -123.84608604 121.91716097 -123.30493164 108.26586914 C-123.27249422 107.38155779 -123.2400568 106.49724644 -123.20663643 105.58613777 C-122.1799455 83.54201417 -115.31528804 57.24470879 -100.70385742 40.14526367 C-100.04385742 40.14526367 -99.38385742 40.14526367 -98.70385742 40.14526367 C-98.45635742 39.58838867 -98.20885742 39.03151367 -97.95385742 38.45776367 C-88.65199679 21.2493215 -65.6740485 10.57721605 -47.79370117 4.98510742 C-31.95914648 0.68115134 -16.31610661 -0.00603633 0 0 Z M-63.70385742 55.14526367 C-63.70385742 55.80526367 -63.70385742 56.46526367 -63.70385742 57.14526367 C-64.57204102 57.48750977 -64.57204102 57.48750977 -65.45776367 57.83666992 C-73.22152664 62.35990574 -77.55007215 73.10431497 -80.70385742 81.14526367 C-81.0003418 81.88260742 -81.29682617 82.61995117 -81.60229492 83.37963867 C-89.34026919 104.37176687 -86.85789991 129.50752029 -86.83818293 151.51419258 C-86.83560867 155.29954214 -86.83801069 159.08488957 -86.83956909 162.87023926 C-86.84137626 169.22087039 -86.83902296 175.5714898 -86.83422852 181.92211914 C-86.82878873 189.21063282 -86.83055242 196.49911851 -86.83605492 203.78763151 C-86.8406278 210.10333603 -86.84121638 216.41903223 -86.83861625 222.73473787 C-86.83707623 226.481463 -86.83679585 230.22817507 -86.84015274 233.97489929 C-86.88603852 253.05967419 -86.88603852 253.05967419 -86.27368164 272.1315918 C-86.23705477 272.85168678 -86.20042789 273.57178177 -86.16269112 274.31369781 C-85.23558175 289.60217388 -81.34159831 306.87904799 -71.70385742 319.14526367 C-71.04385742 319.14526367 -70.38385742 319.14526367 -69.70385742 319.14526367 C-69.43702148 319.7356543 -69.17018555 320.32604492 -68.89526367 320.93432617 C-63.07709358 331.73132379 -49.93487533 337.81376336 -38.85620117 341.51538086 C-18.58637677 347.44733945 3.86155063 346.3309001 24.74243164 346.64794922 C28.65624349 346.70753683 32.56993408 346.77262583 36.48364258 346.83862305 C58.64631501 347.20259266 80.77290147 347.16542562 102.93603516 346.82788086 C105.53852655 346.78965419 108.14106965 346.75479041 110.74365234 346.72338867 C124.41735827 346.55763632 138.04343545 346.24025336 151.68286133 345.21166992 C152.73639297 345.13296661 153.78992462 345.05426331 154.87538147 344.97317505 C174.45980498 343.3556196 192.42039885 336.26001618 205.76489258 321.39526367 C226.1790275 295.8095479 223.62471458 259.6551885 223.56479359 228.71060181 C223.55959458 225.16212715 223.56446234 221.6136608 223.56756592 218.06518555 C223.57116635 212.11529644 223.56651142 206.16545758 223.55688477 200.21557617 C223.54600792 193.41610432 223.54953632 186.61675258 223.56053758 179.81728363 C223.56972426 173.89367422 223.57084117 167.97010016 223.56566024 162.0464859 C223.56260197 158.54610743 223.5619551 155.04578465 223.56873322 151.54541016 C224.7484076 112.30386488 224.7484076 112.30386488 214.29614258 75.14526367 C213.86301758 74.15526367 213.42989258 73.16526367 212.98364258 72.14526367 C203.49883975 55.28339198 189.30596743 45.81431936 171.29614258 40.14526367 C160.76282523 37.26079938 149.62218756 37.01224389 138.76489258 36.59106445 C137.14726013 36.52789882 137.14726013 36.52789882 135.49694824 36.46345711 C123.26382861 36.02253797 111.03574694 36.00030131 98.79614258 36.01245117 C96.33585602 36.0117744 93.87556953 36.01080131 91.4152832 36.009552 C86.30264641 36.00809253 81.19002729 36.01017242 76.07739258 36.01489258 C69.60004264 36.02058874 63.12273417 36.01730023 56.64538574 36.01132011 C51.57804057 36.00766671 46.51070486 36.00887476 41.44335938 36.01144791 C39.05810542 36.01210403 36.67285053 36.01133612 34.28759766 36.00896835 C-17.90764712 33.83598847 -17.90764712 33.83598847 -63.70385742 55.14526367 Z " fill="#FAFAFA" transform="translate(123.703857421875,-0.145263671875)"/>
<path d="M0 0 C1.28946533 0.00161133 2.57893066 0.00322266 3.9074707 0.00488281 C13.82664112 0.1319 22.66855674 1.24368558 32.0625 4.375 C32.97 4.66375 33.8775 4.9525 34.8125 5.25 C60.34396891 14.41514268 80.01033648 34.02320025 91.58984375 58.12109375 C102.67442186 82.61301303 103.23679624 111.10877074 93.86914062 136.37548828 C90.0319939 145.88705961 84.79704932 154.63743269 78.0625 162.375 C77.37414062 163.19484375 76.68578125 164.0146875 75.9765625 164.859375 C62.12731265 180.89534851 44.43828309 191.15569986 24.0625 196.375 C22.31839844 196.91447266 22.31839844 196.91447266 20.5390625 197.46484375 C14.3288542 198.99764894 7.91982192 198.75787772 1.5625 198.75 C0.89464478 198.75012085 0.22678955 198.7502417 -0.46130371 198.75036621 C-10.8434549 198.72357115 -20.13191459 197.92952471 -29.9375 194.375 C-31.29875 193.90707031 -31.29875 193.90707031 -32.6875 193.4296875 C-35.16231278 192.5093665 -37.54012941 191.48058352 -39.9375 190.375 C-41.34902344 189.74658203 -41.34902344 189.74658203 -42.7890625 189.10546875 C-66.1704333 178.1397871 -83.55337091 158.24080979 -92.9375 134.375 C-93.21980469 133.70210937 -93.50210938 133.02921875 -93.79296875 132.3359375 C-102.547248 109.31707126 -100.6161192 81.8350543 -90.90771484 59.47900391 C-81.57065503 39.27508352 -67.50335721 23.20113189 -47.9375 12.375 C-46.93203125 11.80394531 -45.9265625 11.23289062 -44.890625 10.64453125 C-37.54044121 6.70693279 -30.00138724 4.40017716 -21.9375 2.375 C-20.76574219 2.01664062 -19.59398437 1.65828125 -18.38671875 1.2890625 C-12.35743203 -0.20129053 -6.17440808 -0.00796646 0 0 Z M-48.98828125 60.64453125 C-59.13099439 74.85246008 -63.96012464 91.4361372 -61.43359375 108.84765625 C-57.93917618 127.19834051 -48.55197702 140.95704862 -33.640625 152.08984375 C-20.40949672 160.81439646 -3.23010464 164.38470303 12.24682617 161.29882812 C25.79034305 158.29217643 36.29016009 152.26841315 46.0625 142.375 C46.69800781 141.76140625 47.33351563 141.1478125 47.98828125 140.515625 C59.29703177 128.78060229 63.60092255 112.95443637 63.55493164 97.07421875 C63.03157819 79.64866819 55.33492086 65.50841286 43.0625 53.375 C31.46567441 42.66013364 16.37748703 36.76728526 0.5625 35.875 C-18.80796445 37.00337657 -36.45932072 45.87916398 -48.98828125 60.64453125 Z " fill="#F9F9F9" transform="translate(190.9375,91.625)"/>
<path d="M0 0 C4.3119757 3.65020237 7.69723146 6.87734746 9.66796875 12.296875 C9.89484375 12.915625 10.12171875 13.534375 10.35546875 14.171875 C11.58013145 22.49958138 9.83954427 28.19501013 5.98046875 35.484375 C1.96991774 40.36207218 -3.52643987 43.89140864 -9.8984375 44.5703125 C-18.38890187 44.85812485 -24.76831377 43.36824121 -31.21484375 37.6171875 C-36.90547356 31.43172031 -37.75085818 25.42554039 -37.578125 17.1953125 C-36.98372777 10.19463405 -33.33658966 4.98561176 -28.33203125 0.296875 C-19.96615152 -4.82509218 -8.23138648 -6.01153183 0 0 Z " fill="#F7F7F7" transform="translate(307.33203125,68.703125)"/>
</svg>
