<?xml version="1.0" encoding="UTF-8"?>
<!DOCTYPE svg PUBLIC "-//W3C//DTD SVG 1.1//EN" "http://www.w3.org/Graphics/SVG/1.1/DTD/svg11.dtd">
<svg xmlns="http://www.w3.org/2000/svg" version="1.1" width="382px" height="382px" style="shape-rendering:geometricPrecision; text-rendering:geometricPrecision; image-rendering:optimizeQuality; fill-rule:evenodd; clip-rule:evenodd" xmlns:xlink="http://www.w3.org/1999/xlink">
<g><path style="opacity:0.977" fill="#fcfcfc" d="M 227.5,346.5 C 225.5,346.5 224.5,347.5 224.5,349.5C 189.346,377.974 150.013,385.474 106.5,372C 57.5561,351.879 31.2228,315.379 27.5,262.5C 29.3158,213.347 51.9825,177.514 95.5,155C 117.946,144.493 141.112,141.659 165,146.5C 165.667,166.833 165.667,187.167 165,207.5C 164.311,208.357 163.478,209.023 162.5,209.5C 136.495,203.003 115.662,210.669 100,232.5C 86.725,258.866 90.5583,282.366 111.5,303C 138.141,321.002 163.308,319.169 187,297.5C 193.735,289.696 198.068,280.696 200,270.5C 200.312,254.66 200.812,238.826 201.5,223C 200.768,152.142 200.435,81.1416 200.5,10C 200.364,6.94758 201.031,4.11425 202.5,1.5C 222.457,0.345671 242.457,0.179004 262.5,1C 265.176,35.027 280.509,61.6937 308.5,81C 323.687,89.7133 340.02,94.5466 357.5,95.5C 357.5,116.5 357.5,137.5 357.5,158.5C 323.154,158.216 292.321,147.882 265,127.5C 264.224,167.34 264.391,207.173 265.5,247C 268.236,286.313 255.569,319.48 227.5,346.5 Z"/></g>
<g><path style="opacity:0.004" fill="#646464" d="M 227.5,346.5 C 226.833,347.833 225.833,348.833 224.5,349.5C 224.5,347.5 225.5,346.5 227.5,346.5 Z"/></g>
</svg>
